<svg xmlns="http://www.w3.org/2000/svg" width="28" height="29" viewBox="0 0 28 29" fill="none">
  <path
    d="M24.6166 19.1667C24.6166 19.8667 23.9166 20.45 22.6333 20.9167C21.5833 21.2667 20.3 21.5 18.7833 21.5C17.2666 21.5 15.9833 21.2667 14.9333 20.9167C13.7666 20.45 12.95 19.8667 12.95 19.1667C12.95 17.8834 15.5166 16.8334 18.7833 16.8334C22.05 16.8334 24.6166 17.8834 24.6166 19.1667Z"
    stroke="white" stroke-width="2" stroke-miterlimit="10" stroke-linecap="round"
    stroke-linejoin="round" />
  <path
    d="M24.6166 19.1666V22.6666C24.6166 23.3666 23.8 23.95 22.6333 24.4166C21.5833 24.7666 20.3 25 18.7833 25C17.2666 25 15.9833 24.7666 14.9333 24.4166C13.7666 23.95 12.95 23.3666 12.95 22.6666V19.1666C12.95 19.8666 13.7666 20.45 14.9333 20.9166C15.9833 21.2666 17.3833 21.5 18.7833 21.5C20.3 21.5 21.5833 21.2666 22.6333 20.9166C23.8 20.45 24.6166 19.8666 24.6166 19.1666Z"
    stroke="white" stroke-width="2" stroke-miterlimit="10" stroke-linecap="round"
    stroke-linejoin="round" />
  <path d="M15.2834 8.66667H12.95L10.6167 4H17.6167L15.2834 8.66667Z" stroke="white"
    stroke-width="2" stroke-miterlimit="10" stroke-linecap="round" stroke-linejoin="round" />
  <path
    d="M20.3 12.1666C19.0166 10.0666 16.6833 8.66663 14.1166 8.66663C12.3666 8.66663 10.7333 9.24996 9.56663 10.3C8.28329 11.2333 7.34996 12.75 6.99996 14.3833L5.94996 19.4C5.36663 21.9666 6.99996 24.3 9.44996 24.8833"
    stroke="white" stroke-width="2" stroke-miterlimit="10" stroke-linecap="round"
    stroke-linejoin="round" />
</svg>
