<svg xmlns="http://www.w3.org/2000/svg" width="48" height="48" viewBox="0 0 48 48" fill="none">
  <path d="M34 42H14C9.6 42 6 38.4 6 34V14C6 9.6 9.6 6 14 6H34C38.4 6 42 9.6 42 14V34C42 38.4 38.4 42 34 42Z" stroke="#E7E8EA" stroke-width="2" stroke-miterlimit="10" stroke-linecap="round" stroke-linejoin="round"/>
  <path d="M2 18H10" stroke="#E7E8EA" stroke-width="2" stroke-miterlimit="10" stroke-linecap="round" stroke-linejoin="round"/>
  <path d="M2 30H10" stroke="#E7E8EA" stroke-width="2" stroke-miterlimit="10" stroke-linecap="round" stroke-linejoin="round"/>
  <path d="M24 22C26.2091 22 28 20.2091 28 18C28 15.7909 26.2091 14 24 14C21.7909 14 20 15.7909 20 18C20 20.2091 21.7909 22 24 22Z" stroke="#E7E8EA" stroke-width="2" stroke-linecap="round" stroke-linejoin="round"/>
  <path d="M17 34V33C17 31.1 17.8 29.3 19 28C20.3 26.7 22 26 24 26C27.9 26 31 29.1 31 33V34" stroke="#E7E8EA" stroke-width="2" stroke-linecap="round" stroke-linejoin="round"/>
</svg>
