<svg xmlns="http://www.w3.org/2000/svg" width="22" height="22" viewBox="0 0 22 22" fill="none">
  <path d="M11 5.04167C11 3.75833 12.0083 2.75 13.2917 2.75C14.575 2.75 15.5833 3.75833 15.5833 5.04167C15.5833 6.325 14.575 7.33333 13.2917 7.33333" stroke="white" stroke-miterlimit="10" stroke-linecap="round" stroke-linejoin="round"/>
  <path d="M10.9998 5.04167C10.9998 3.75833 9.9915 2.75 8.70817 2.75C7.42484 2.75 6.4165 3.75833 6.4165 5.04167C6.4165 6.325 7.42484 7.33333 8.70817 7.33333" stroke="white" stroke-miterlimit="10" stroke-linecap="round" stroke-linejoin="round"/>
  <path d="M17.4167 19.25H4.58333C3.575 19.25 2.75 18.425 2.75 17.4167V9.16671C2.75 8.15837 3.575 7.33337 4.58333 7.33337H17.4167C18.425 7.33337 19.25 8.15837 19.25 9.16671V17.4167C19.25 18.425 18.425 19.25 17.4167 19.25Z" stroke="white" stroke-miterlimit="10" stroke-linecap="round" stroke-linejoin="round"/>
  <path d="M18.6083 7.79163L3.3916 18.7916" stroke="white" stroke-miterlimit="10" stroke-linecap="round" stroke-linejoin="round"/>
  <path d="M19.2498 12.925L10.5415 19.25" stroke="white" stroke-miterlimit="10" stroke-linecap="round" stroke-linejoin="round"/>
  <path d="M11.4583 7.33337L2.75 13.6584" stroke="white" stroke-miterlimit="10" stroke-linecap="round" stroke-linejoin="round"/>
</svg>
