<svg xmlns="http://www.w3.org/2000/svg" width="194" height="194" viewBox="0 0 194 194" fill="none">
  <path d="M0 66.6667H6.66667V63.3334C6.66667 62.4494 6.31548 61.6015 5.69036 60.9764C5.06524 60.3513 4.21739 60.0001 3.33333 60.0001C2.44928 60.0001 1.60143 60.3513 0.976308 60.9764C0.351187 61.6015 0 62.4494 0 63.3334" fill="white"/>
  <path d="M6.66667 66.6667H0V73.3334H6.66667V66.6667Z" fill="white"/>
  <path d="M6.66667 73.3333H0V79.9999H6.66667V73.3333Z" fill="white"/>
  <path d="M6.66675 80H8.2016e-05V83.3333C8.2016e-05 84.2174 0.351269 85.0652 0.97639 85.6904C1.60151 86.3155 2.44936 86.6667 3.33342 86.6667C4.21747 86.6667 5.06532 86.3155 5.69044 85.6904C6.31556 85.0652 6.66675 84.2174 6.66675 83.3333" fill="white"/>
  <path d="M6.66675 106.667L6.66675 100H3.33342C2.44936 100 1.60151 100.351 0.976392 100.976C0.351271 101.602 8.2016e-05 102.449 8.2016e-05 103.333C8.2016e-05 104.217 0.351271 105.065 0.976392 105.69C1.60151 106.316 2.44936 106.667 3.33342 106.667" fill="white"/>
  <path d="M0 120H6.66667V116.667C6.66667 115.783 6.31548 114.935 5.69036 114.31C5.06524 113.685 4.21739 113.333 3.33333 113.333C2.44928 113.333 1.60143 113.685 0.976308 114.31C0.351187 114.935 0 115.783 0 116.667" fill="white"/>
  <path d="M6.66667 120H0V126.667H6.66667V120Z" fill="white"/>
  <path d="M6.66675 126.667H8.2016e-05V130C8.2016e-05 130.884 0.351269 131.732 0.97639 132.357C1.60151 132.982 2.44936 133.333 3.33342 133.333C4.21747 133.333 5.06532 132.982 5.69044 132.357C6.31556 131.732 6.66675 130.884 6.66675 130" fill="white"/>
  <path d="M13.3334 73.3333H6.66675V79.9999H13.3334V73.3333Z" fill="white"/>
  <path d="M6.66675 93.3333H13.3334V89.9999C13.3334 89.1159 12.9822 88.268 12.3571 87.6429C11.732 87.0178 10.8841 86.6666 10.0001 86.6666C9.11603 86.6666 8.26818 87.0178 7.64306 87.6429C7.01793 88.268 6.66675 89.1159 6.66675 89.9999" fill="white"/>
  <path d="M13.3334 93.3333H6.66675V99.9999H13.3334V93.3333Z" fill="white"/>
  <path d="M13.3333 100H6.66659V106.667C8.4347 106.667 10.1304 105.964 11.3806 104.714C12.6309 103.464 13.3333 101.768 13.3333 100Z" fill="white"/>
  <path d="M13.3333 140V133.333H9.99992C9.11586 133.333 8.26802 133.685 7.6429 134.31C7.01778 134.935 6.66659 135.783 6.66659 136.667C6.66659 137.551 7.01778 138.399 7.6429 139.024C8.26802 139.649 9.11586 140 9.99992 140" fill="white"/>
  <path d="M13.3333 60H19.9999V56.6667C19.9999 55.7826 19.6487 54.9348 19.0236 54.3096C18.3985 53.6845 17.5506 53.3333 16.6666 53.3333C15.7825 53.3333 14.9347 53.6845 14.3096 54.3096C13.6844 54.9348 13.3333 55.7826 13.3333 56.6667" fill="white"/>
  <path d="M19.9999 60H13.3333V66.6667H19.9999V60Z" fill="white"/>
  <path d="M19.9999 66.6667H13.3333V73.3334H19.9999V66.6667Z" fill="white"/>
  <path d="M20 73.3333H13.3333V79.9999C15.1014 79.9999 16.7971 79.2975 18.0474 78.0473C19.2976 76.7971 20 75.1014 20 73.3333Z" fill="white"/>
  <path d="M13.3333 120H19.9999V116.667C19.9999 115.783 19.6487 114.935 19.0236 114.31C18.3985 113.685 17.5506 113.333 16.6666 113.333C15.7825 113.333 14.9347 113.685 14.3096 114.31C13.6844 114.935 13.3333 115.783 13.3333 116.667" fill="white"/>
  <path d="M19.9999 120H13.3333V126.667H19.9999V120Z" fill="white"/>
  <path d="M19.9999 126.667H13.3333V133.333H19.9999V126.667Z" fill="white"/>
  <path d="M20 133.333H13.3333V140C15.1014 140 16.7971 139.298 18.0474 138.047C19.2976 136.797 20 135.101 20 133.333Z" fill="white"/>
  <path d="M23.3333 106.667C25.1743 106.667 26.6667 105.174 26.6667 103.333C26.6667 101.492 25.1743 100 23.3333 100C21.4924 100 20 101.492 20 103.333C20 105.174 21.4924 106.667 23.3333 106.667Z" fill="white"/>
  <path d="M20 120V126.667H26.6667C26.6667 124.899 25.9643 123.203 24.714 121.953C23.4638 120.702 21.7681 120 20 120Z" fill="white"/>
  <path d="M26.6667 126.667H20.0001V133.333C21.7682 133.333 23.4639 132.631 24.7141 131.381C25.9644 130.131 26.6667 128.435 26.6667 126.667Z" fill="white"/>
  <path d="M33.3333 60V53.3333H29.9999C29.1159 53.3333 28.268 53.6845 27.6429 54.3096C27.0178 54.9348 26.6666 55.7826 26.6666 56.6667C26.6666 57.5507 27.0178 58.3986 27.6429 59.0237C28.268 59.6488 29.1159 60 29.9999 60" fill="white"/>
  <path d="M33.3333 73.3333V66.6666H29.9999C29.1159 66.6666 28.268 67.0178 27.6429 67.6429C27.0178 68.268 26.6666 69.1159 26.6666 69.9999C26.6666 70.884 27.0178 71.7318 27.6429 72.3569C28.268 72.9821 29.1159 73.3333 29.9999 73.3333" fill="white"/>
  <path d="M33.3333 113.333V106.667H29.9999C29.1159 106.667 28.268 107.018 27.6429 107.643C27.0178 108.268 26.6666 109.116 26.6666 110C26.6666 110.884 27.0178 111.732 27.6429 112.357C28.268 112.982 29.1159 113.333 29.9999 113.333" fill="white"/>
  <path d="M30.0001 140C31.841 140 33.3334 138.508 33.3334 136.667C33.3334 134.826 31.841 133.333 30.0001 133.333C28.1591 133.333 26.6667 134.826 26.6667 136.667C26.6667 138.508 28.1591 140 30.0001 140Z" fill="white"/>
  <path d="M39.9999 53.3333H33.3333V59.9999H39.9999V53.3333Z" fill="white"/>
  <path d="M39.9999 60H33.3333V66.6667H39.9999V60Z" fill="white"/>
  <path d="M39.9999 66.6667H33.3333V73.3334H39.9999V66.6667Z" fill="white"/>
  <path d="M40 86.6667V80.0001H36.6667C35.7826 80.0001 34.9348 80.3513 34.3096 80.9764C33.6845 81.6015 33.3333 82.4494 33.3333 83.3334C33.3333 84.2175 33.6845 85.0653 34.3096 85.6904C34.9348 86.3156 35.7826 86.6667 36.6667 86.6667" fill="white"/>
  <path d="M39.9999 106.667H33.3333V113.333H39.9999V106.667Z" fill="white"/>
  <path d="M33.3333 126.667H39.9999V120C38.2318 120 36.5361 120.702 35.2859 121.953C34.0356 123.203 33.3333 124.899 33.3333 126.667Z" fill="white"/>
  <path d="M40 126.667H33.3333V130C33.3333 130.884 33.6845 131.732 34.3096 132.357C34.9348 132.982 35.7826 133.333 36.6667 133.333C37.5507 133.333 38.3986 132.982 39.0237 132.357C39.6488 131.732 40 130.884 40 130" fill="white"/>
  <path d="M40 53.3333V59.9999H43.3333C44.2174 59.9999 45.0652 59.6487 45.6904 59.0236C46.3155 58.3985 46.6667 57.5506 46.6667 56.6666C46.6667 55.7825 46.3155 54.9347 45.6904 54.3096C45.0652 53.6844 44.2174 53.3333 43.3333 53.3333" fill="white"/>
  <path d="M46.6667 66.6667H40V73.3334H46.6667V66.6667Z" fill="white"/>
  <path d="M46.6667 80H40V86.6667H46.6667V80Z" fill="white"/>
  <path d="M46.6667 100V93.3333H43.3334C42.4494 93.3333 41.6015 93.6845 40.9764 94.3096C40.3513 94.9348 40.0001 95.7826 40.0001 96.6667C40.0001 97.5507 40.3513 98.3986 40.9764 99.0237C41.6015 99.6488 42.4494 100 43.3334 100" fill="white"/>
  <path d="M40 106.667V113.333H43.3333C44.2174 113.333 45.0652 112.982 45.6904 112.357C46.3155 111.732 46.6667 110.884 46.6667 110C46.6667 109.116 46.3155 108.268 45.6904 107.643C45.0652 107.018 44.2174 106.667 43.3333 106.667" fill="white"/>
  <path d="M46.6667 120H40V126.667H46.6667V120Z" fill="white"/>
  <path d="M46.6667 140V133.333H43.3334C42.4494 133.333 41.6015 133.685 40.9764 134.31C40.3513 134.935 40.0001 135.783 40.0001 136.667C40.0001 137.551 40.3513 138.399 40.9764 139.024C41.6015 139.649 42.4494 140 43.3334 140" fill="white"/>
  <path d="M46.6667 66.6667V73.3334H50.0001C50.8841 73.3334 51.732 72.9822 52.3571 72.3571C52.9822 71.732 53.3334 70.8841 53.3334 70.0001C53.3334 69.116 52.9822 68.2682 52.3571 67.6431C51.732 67.0179 50.8841 66.6667 50.0001 66.6667" fill="white"/>
  <path d="M53.3334 80H46.6667V86.6667H53.3334V80Z" fill="white"/>
  <path d="M53.3334 86.6667H46.6667V93.3334H53.3334V86.6667Z" fill="white"/>
  <path d="M53.3333 93.3333H46.6666V99.9999C48.4347 99.9999 50.1304 99.2975 51.3806 98.0473C52.6309 96.7971 53.3333 95.1014 53.3333 93.3333Z" fill="white"/>
  <path d="M46.6667 120H53.3334V116.667C53.3334 115.783 52.9822 114.935 52.3571 114.31C51.732 113.685 50.8841 113.333 50.0001 113.333C49.116 113.333 48.2682 113.685 47.6431 114.31C47.0179 114.935 46.6667 115.783 46.6667 116.667" fill="white"/>
  <path d="M53.3334 120H46.6667V126.667H53.3334V120Z" fill="white"/>
  <path d="M53.3334 133.333H46.6667V140H53.3334V133.333Z" fill="white"/>
  <path d="M56.6666 13.3334C58.5075 13.3334 59.9999 11.841 59.9999 10.0001C59.9999 8.15913 58.5075 6.66675 56.6666 6.66675C54.8256 6.66675 53.3333 8.15913 53.3333 10.0001C53.3333 11.841 54.8256 13.3334 56.6666 13.3334Z" fill="white"/>
  <path d="M60 33.3333V26.6666H56.6667C55.7826 26.6666 54.9348 27.0178 54.3096 27.6429C53.6845 28.268 53.3333 29.1159 53.3333 29.9999C53.3333 30.884 53.6845 31.7318 54.3096 32.3569C54.9348 32.9821 55.7826 33.3333 56.6667 33.3333" fill="white"/>
  <path d="M56.6666 46.6667C58.5075 46.6667 59.9999 45.1743 59.9999 43.3333C59.9999 41.4924 58.5075 40 56.6666 40C54.8256 40 53.3333 41.4924 53.3333 43.3333C53.3333 45.1743 54.8256 46.6667 56.6666 46.6667Z" fill="white"/>
  <path d="M60 60V53.3333H56.6667C55.7826 53.3333 54.9348 53.6845 54.3096 54.3096C53.6845 54.9348 53.3333 55.7826 53.3333 56.6667C53.3333 57.5507 53.6845 58.3986 54.3096 59.0237C54.9348 59.6488 55.7826 60 56.6667 60" fill="white"/>
  <path d="M53.3333 80V86.6667H56.6666C57.5506 86.6667 58.3985 86.3155 59.0236 85.6904C59.6487 85.0652 59.9999 84.2174 59.9999 83.3333C59.9999 82.4493 59.6487 81.6014 59.0236 80.9763C58.3985 80.3512 57.5506 80 56.6666 80" fill="white"/>
  <path d="M53.3333 120V126.667H59.9999C59.9999 124.899 59.2975 123.203 58.0473 121.953C56.7971 120.702 55.1014 120 53.3333 120Z" fill="white"/>
  <path d="M59.9999 126.667H53.3333V133.333H59.9999V126.667Z" fill="white"/>
  <path d="M59.9999 133.333H53.3333V140H59.9999V133.333Z" fill="white"/>
  <path d="M60 146.667V140H53.3333C53.3333 141.768 54.0357 143.464 55.286 144.714C56.5362 145.964 58.2319 146.667 60 146.667Z" fill="white"/>
  <path d="M53.3333 160H59.9999V156.667C59.9999 155.783 59.6487 154.935 59.0236 154.31C58.3985 153.685 57.5506 153.333 56.6666 153.333C55.7825 153.333 54.9347 153.685 54.3096 154.31C53.6844 154.935 53.3333 155.783 53.3333 156.667" fill="white"/>
  <path d="M60 166.667V160H53.3333C53.3333 161.768 54.0357 163.464 55.286 164.714C56.5362 165.964 58.2319 166.667 60 166.667Z" fill="white"/>
  <path d="M56.6666 180C58.5075 180 59.9999 178.508 59.9999 176.667C59.9999 174.826 58.5075 173.333 56.6666 173.333C54.8256 173.333 53.3333 174.826 53.3333 176.667C53.3333 178.508 54.8256 180 56.6666 180Z" fill="white"/>
  <path d="M66.6667 26.6667H60V33.3334H66.6667V26.6667Z" fill="white"/>
  <path d="M66.6667 33.3333H60.0001V36.6666C60.0001 37.5506 60.3513 38.3985 60.9764 39.0236C61.6015 39.6487 62.4494 39.9999 63.3334 39.9999C64.2175 39.9999 65.0653 39.6487 65.6904 39.0236C66.3156 38.3985 66.6667 37.5506 66.6667 36.6666" fill="white"/>
  <path d="M60 53.3333H66.6667V49.9999C66.6667 49.1159 66.3155 48.268 65.6904 47.6429C65.0652 47.0178 64.2174 46.6666 63.3333 46.6666C62.4493 46.6666 61.6014 47.0178 60.9763 47.6429C60.3512 48.268 60 49.1159 60 49.9999" fill="white"/>
  <path d="M66.6667 53.3333H60V59.9999H66.6667V53.3333Z" fill="white"/>
  <path d="M66.6667 60H60V66.6667H66.6667V60Z" fill="white"/>
  <path d="M66.6667 66.6667H60.0001V70.0001C60.0001 70.8841 60.3513 71.732 60.9764 72.3571C61.6015 72.9822 62.4494 73.3334 63.3334 73.3334C64.2175 73.3334 65.0653 72.9822 65.6904 72.3571C66.3156 71.732 66.6667 70.8841 66.6667 70.0001" fill="white"/>
  <path d="M66.6667 93.3333V86.6666H63.3334C62.4494 86.6666 61.6015 87.0178 60.9764 87.6429C60.3513 88.268 60.0001 89.1159 60.0001 89.9999C60.0001 90.884 60.3513 91.7318 60.9764 92.3569C61.6015 92.9821 62.4494 93.3333 63.3334 93.3333" fill="white"/>
  <path d="M60 106.667H66.6667V100C64.8986 100 63.2029 100.702 61.9526 101.953C60.7024 103.203 60 104.899 60 106.667Z" fill="white"/>
  <path d="M66.6667 106.667H60.0001V110C60.0001 110.884 60.3513 111.732 60.9764 112.357C61.6015 112.982 62.4494 113.333 63.3334 113.333C64.2175 113.333 65.0653 112.982 65.6904 112.357C66.3156 111.732 66.6667 110.884 66.6667 110" fill="white"/>
  <path d="M60 126.667V133.333H66.6667C66.6667 131.565 65.9643 129.87 64.714 128.619C63.4638 127.369 61.7681 126.667 60 126.667Z" fill="white"/>
  <path d="M66.6667 133.333H60V140H66.6667V133.333Z" fill="white"/>
  <path d="M66.6667 140H60V146.667H66.6667V140Z" fill="white"/>
  <path d="M66.6667 146.667H60.0001V150C60.0001 150.884 60.3513 151.732 60.9764 152.357C61.6015 152.982 62.4494 153.333 63.3334 153.333C64.2175 153.333 65.0653 152.982 65.6904 152.357C66.3156 151.732 66.6667 150.884 66.6667 150" fill="white"/>
  <path d="M66.6667 160H60V166.667H66.6667V160Z" fill="white"/>
  <path d="M60 186.667H66.6667V183.333C66.6667 182.449 66.3155 181.602 65.6903 180.976C65.0652 180.351 64.2174 180 63.3333 180C62.4493 180 61.6014 180.351 60.9763 180.976C60.3512 181.602 60 182.449 60 183.333" fill="white"/>
  <path d="M66.6667 193.333V186.667H60.0001C60.0001 188.435 60.7025 190.13 61.9527 191.381C63.2029 192.631 64.8986 193.333 66.6667 193.333Z" fill="white"/>
  <path d="M66.6667 6.66675H73.3334V3.33342C73.3334 2.44936 72.9822 1.60151 72.3571 0.97639C71.732 0.351269 70.8841 8.2016e-05 70.0001 8.2016e-05C69.116 8.2016e-05 68.2682 0.351269 67.6431 0.97639C67.0179 1.60151 66.6667 2.44936 66.6667 3.33342" fill="white"/>
  <path d="M73.3334 6.66675H66.6667V13.3334H73.3334V6.66675Z" fill="white"/>
  <path d="M73.3333 13.3333H66.6666V16.6666C66.6666 17.5506 67.0178 18.3985 67.6429 19.0236C68.268 19.6487 69.1159 19.9999 69.9999 19.9999C70.884 19.9999 71.7318 19.6487 72.3569 19.0236C72.9821 18.3985 73.3333 17.5506 73.3333 16.6666" fill="white"/>
  <path d="M73.3334 26.6667H66.6667V33.3334H73.3334V26.6667Z" fill="white"/>
  <path d="M70.0001 46.6667C71.841 46.6667 73.3334 45.1743 73.3334 43.3333C73.3334 41.4924 71.841 40 70.0001 40C68.1591 40 66.6667 41.4924 66.6667 43.3333C66.6667 45.1743 68.1591 46.6667 70.0001 46.6667Z" fill="white"/>
  <path d="M66.6667 53.3333V59.9999H73.3334C73.3334 58.2318 72.631 56.5361 71.3808 55.2859C70.1306 54.0356 68.4349 53.3333 66.6667 53.3333Z" fill="white"/>
  <path d="M73.3334 60H66.6667V66.6667H73.3334V60Z" fill="white"/>
  <path d="M66.6667 86.6667V93.3334H73.3334C73.3334 91.5653 72.631 89.8696 71.3808 88.6194C70.1306 87.3691 68.4349 86.6667 66.6667 86.6667Z" fill="white"/>
  <path d="M73.3334 93.3333H66.6667V99.9999H73.3334V93.3333Z" fill="white"/>
  <path d="M73.3333 100H66.6666V106.667C68.4347 106.667 70.1304 105.964 71.3806 104.714C72.6309 103.464 73.3333 101.768 73.3333 100Z" fill="white"/>
  <path d="M70.0001 120C71.841 120 73.3334 118.508 73.3334 116.667C73.3334 114.826 71.841 113.333 70.0001 113.333C68.1591 113.333 66.6667 114.826 66.6667 116.667C66.6667 118.508 68.1591 120 70.0001 120Z" fill="white"/>
  <path d="M66.6667 133.333V140H73.3334C73.3334 138.232 72.631 136.536 71.3808 135.286C70.1306 134.036 68.4349 133.333 66.6667 133.333Z" fill="white"/>
  <path d="M73.3334 140H66.6667V146.667H73.3334V140Z" fill="white"/>
  <path d="M66.6667 160H73.3334V156.667C73.3334 155.783 72.9822 154.935 72.3571 154.31C71.732 153.685 70.8841 153.333 70.0001 153.333C69.116 153.333 68.2682 153.685 67.6431 154.31C67.0179 154.935 66.6667 155.783 66.6667 156.667" fill="white"/>
  <path d="M73.3334 160H66.6667V166.667H73.3334V160Z" fill="white"/>
  <path d="M73.3334 166.667H66.6667V173.333H73.3334V166.667Z" fill="white"/>
  <path d="M73.3333 173.333H66.6666V176.667C66.6666 177.551 67.0178 178.398 67.6429 179.024C68.268 179.649 69.1159 180 69.9999 180C70.884 180 71.7318 179.649 72.3569 179.024C72.9821 178.398 73.3333 177.551 73.3333 176.667" fill="white"/>
  <path d="M73.3334 186.667H66.6667V193.333H73.3334V186.667Z" fill="white"/>
  <path d="M73.3333 6.66675V13.3334H76.6666C77.5506 13.3334 78.3985 12.9822 79.0236 12.3571C79.6487 11.732 79.9999 10.8841 79.9999 10.0001C79.9999 9.11603 79.6487 8.26818 79.0236 7.64306C78.3985 7.01794 77.5506 6.66675 76.6666 6.66675" fill="white"/>
  <path d="M73.3333 26.6667H79.9999V23.3334C79.9999 22.4494 79.6487 21.6015 79.0236 20.9764C78.3985 20.3513 77.5506 20.0001 76.6666 20.0001C75.7825 20.0001 74.9347 20.3513 74.3096 20.9764C73.6844 21.6015 73.3333 22.4494 73.3333 23.3334" fill="white"/>
  <path d="M79.9999 26.6667H73.3333V33.3334H79.9999V26.6667Z" fill="white"/>
  <path d="M80 33.3333H73.3333V36.6666C73.3333 37.5506 73.6845 38.3985 74.3096 39.0236C74.9348 39.6487 75.7826 39.9999 76.6667 39.9999C77.5507 39.9999 78.3986 39.6487 79.0237 39.0236C79.6488 38.3985 80 37.5506 80 36.6666" fill="white"/>
  <path d="M80 53.3333V46.6666H76.6667C75.7826 46.6666 74.9348 47.0178 74.3096 47.6429C73.6845 48.268 73.3333 49.1159 73.3333 49.9999C73.3333 50.884 73.6845 51.7318 74.3096 52.3569C74.9348 52.9821 75.7826 53.3333 76.6667 53.3333" fill="white"/>
  <path d="M73.3333 60V66.6667H76.6666C77.5506 66.6667 78.3985 66.3155 79.0236 65.6904C79.6487 65.0652 79.9999 64.2174 79.9999 63.3333C79.9999 62.4493 79.6487 61.6014 79.0236 60.9763C78.3985 60.3512 77.5506 60 76.6666 60" fill="white"/>
  <path d="M73.3333 126.667H79.9999V123.333C79.9999 122.449 79.6487 121.602 79.0236 120.976C78.3985 120.351 77.5506 120 76.6666 120C75.7825 120 74.9347 120.351 74.3096 120.976C73.6844 121.602 73.3333 122.449 73.3333 123.333" fill="white"/>
  <path d="M80 133.333V126.667H73.3333C73.3333 128.435 74.0357 130.13 75.286 131.381C76.5362 132.631 78.2319 133.333 80 133.333Z" fill="white"/>
  <path d="M73.3333 140V146.667H76.6666C77.5506 146.667 78.3985 146.315 79.0236 145.69C79.6487 145.065 79.9999 144.217 79.9999 143.333C79.9999 142.449 79.6487 141.601 79.0236 140.976C78.3985 140.351 77.5506 140 76.6666 140" fill="white"/>
  <path d="M73.3333 160V166.667H76.6666C77.5506 166.667 78.3985 166.315 79.0236 165.69C79.6487 165.065 79.9999 164.217 79.9999 163.333C79.9999 162.449 79.6487 161.601 79.0236 160.976C78.3985 160.351 77.5506 160 76.6666 160" fill="white"/>
  <path d="M73.3333 186.667H79.9999V183.333C79.9999 182.449 79.6487 181.602 79.0236 180.976C78.3985 180.351 77.5506 180 76.6666 180C75.7825 180 74.9347 180.351 74.3096 180.976C73.6844 181.602 73.3333 182.449 73.3333 183.333" fill="white"/>
  <path d="M79.9999 186.667H73.3333V193.333H79.9999V186.667Z" fill="white"/>
  <path d="M83.3333 19.9999C85.1743 19.9999 86.6667 18.5075 86.6667 16.6666C86.6667 14.8256 85.1743 13.3333 83.3333 13.3333C81.4924 13.3333 80 14.8256 80 16.6666C80 18.5075 81.4924 19.9999 83.3333 19.9999Z" fill="white"/>
  <path d="M86.6667 26.6667H80V33.3334H86.6667V26.6667Z" fill="white"/>
  <path d="M80 46.6667H86.6667V43.3334C86.6667 42.4494 86.3155 41.6015 85.6904 40.9764C85.0652 40.3513 84.2174 40.0001 83.3333 40.0001C82.4493 40.0001 81.6014 40.3513 80.9763 40.9764C80.3512 41.6015 80 42.4494 80 43.3334" fill="white"/>
  <path d="M86.6667 46.6667H80V53.3334H86.6667V46.6667Z" fill="white"/>
  <path d="M86.6667 60V53.3333H80.0001C80.0001 55.1014 80.7025 56.7971 81.9527 58.0474C83.2029 59.2976 84.8986 60 86.6667 60Z" fill="white"/>
  <path d="M80 126.667V133.333H86.6667C86.6667 131.565 85.9643 129.87 84.714 128.619C83.4638 127.369 81.7681 126.667 80 126.667Z" fill="white"/>
  <path d="M86.6667 133.333H80.0001V136.667C80.0001 137.551 80.3513 138.398 80.9764 139.024C81.6015 139.649 82.4494 140 83.3334 140C84.2175 140 85.0653 139.649 85.6904 139.024C86.3156 138.398 86.6667 137.551 86.6667 136.667" fill="white"/>
  <path d="M83.3333 160C85.1743 160 86.6667 158.508 86.6667 156.667C86.6667 154.826 85.1743 153.333 83.3333 153.333C81.4924 153.333 80 154.826 80 156.667C80 158.508 81.4924 160 83.3333 160Z" fill="white"/>
  <path d="M86.6667 186.667H80V193.333H86.6667V186.667Z" fill="white"/>
  <path d="M90.0001 13.3334C91.841 13.3334 93.3334 11.841 93.3334 10.0001C93.3334 8.15913 91.841 6.66675 90.0001 6.66675C88.1591 6.66675 86.6667 8.15913 86.6667 10.0001C86.6667 11.841 88.1591 13.3334 90.0001 13.3334Z" fill="white"/>
  <path d="M86.6667 26.6667V33.3334H93.3334C93.3334 31.5653 92.631 29.8696 91.3808 28.6194C90.1306 27.3691 88.4349 26.6667 86.6667 26.6667Z" fill="white"/>
  <path d="M93.3333 40V33.3333H86.6666C86.6666 35.1014 87.369 36.7971 88.6192 38.0474C89.8694 39.2976 91.5651 40 93.3333 40Z" fill="white"/>
  <path d="M93.3334 46.6667H86.6667V53.3334H93.3334V46.6667Z" fill="white"/>
  <path d="M93.3334 53.3333H86.6667V59.9999H93.3334V53.3333Z" fill="white"/>
  <path d="M93.3333 66.6667V60.0001H86.6666C86.6666 61.7682 87.369 63.4639 88.6192 64.7141C89.8694 65.9644 91.5651 66.6667 93.3333 66.6667Z" fill="white"/>
  <path d="M90.0001 153.333C91.841 153.333 93.3334 151.841 93.3334 150C93.3334 148.159 91.841 146.667 90.0001 146.667C88.1591 146.667 86.6667 148.159 86.6667 150C86.6667 151.841 88.1591 153.333 90.0001 153.333Z" fill="white"/>
  <path d="M93.3333 166.667V160H89.9999C89.1159 160 88.268 160.351 87.6429 160.976C87.0178 161.602 86.6666 162.449 86.6666 163.333C86.6666 164.217 87.0178 165.065 87.6429 165.69C88.268 166.316 89.1159 166.667 89.9999 166.667" fill="white"/>
  <path d="M90.0001 180C91.841 180 93.3334 178.508 93.3334 176.667C93.3334 174.826 91.841 173.333 90.0001 173.333C88.1591 173.333 86.6667 174.826 86.6667 176.667C86.6667 178.508 88.1591 180 90.0001 180Z" fill="white"/>
  <path d="M93.3334 186.667H86.6667V193.333H93.3334V186.667Z" fill="white"/>
  <path d="M100 6.66675V8.2016e-05H96.6667C95.7826 8.2016e-05 94.9348 0.351271 94.3096 0.976392C93.6845 1.60151 93.3333 2.44936 93.3333 3.33342C93.3333 4.21747 93.6845 5.06532 94.3096 5.69044C94.9348 6.31556 95.7826 6.66675 96.6667 6.66675" fill="white"/>
  <path d="M96.6666 19.9999C98.5075 19.9999 99.9999 18.5075 99.9999 16.6666C99.9999 14.8256 98.5075 13.3333 96.6666 13.3333C94.8256 13.3333 93.3333 14.8256 93.3333 16.6666C93.3333 18.5075 94.8256 19.9999 96.6666 19.9999Z" fill="white"/>
  <path d="M93.3333 33.3333V39.9999H99.9999C99.9999 38.2318 99.2975 36.5361 98.0473 35.2859C96.7971 34.0356 95.1014 33.3333 93.3333 33.3333Z" fill="white"/>
  <path d="M99.9999 40H93.3333V46.6667H99.9999V40Z" fill="white"/>
  <path d="M99.9999 46.6667H93.3333V53.3334H99.9999V46.6667Z" fill="white"/>
  <path d="M99.9999 53.3333H93.3333V59.9999H99.9999V53.3333Z" fill="white"/>
  <path d="M99.9999 60H93.3333V66.6667H99.9999V60Z" fill="white"/>
  <path d="M100 66.6667H93.3333V70.0001C93.3333 70.8841 93.6845 71.732 94.3096 72.3571C94.9348 72.9822 95.7826 73.3334 96.6667 73.3334C97.5507 73.3334 98.3986 72.9822 99.0237 72.3571C99.6488 71.732 100 70.8841 100 70.0001" fill="white"/>
  <path d="M96.6666 126.667C98.5075 126.667 99.9999 125.174 99.9999 123.333C99.9999 121.492 98.5075 120 96.6666 120C94.8256 120 93.3333 121.492 93.3333 123.333C93.3333 125.174 94.8256 126.667 96.6666 126.667Z" fill="white"/>
  <path d="M93.3333 140H99.9999V133.333C98.2318 133.333 96.5361 134.036 95.2859 135.286C94.0356 136.536 93.3333 138.232 93.3333 140Z" fill="white"/>
  <path d="M100 140H93.3333V143.333C93.3333 144.217 93.6845 145.065 94.3096 145.69C94.9348 146.315 95.7826 146.667 96.6667 146.667C97.5507 146.667 98.3986 146.315 99.0237 145.69C99.6488 145.065 100 144.217 100 143.333" fill="white"/>
  <path d="M93.3333 160V166.667H96.6666C97.5506 166.667 98.3985 166.315 99.0236 165.69C99.6487 165.065 99.9999 164.217 99.9999 163.333C99.9999 162.449 99.6487 161.601 99.0236 160.976C98.3985 160.351 97.5506 160 96.6666 160" fill="white"/>
  <path d="M93.3333 186.667H99.9999V183.333C99.9999 182.449 99.6487 181.602 99.0236 180.976C98.3985 180.351 97.5506 180 96.6666 180C95.7825 180 94.9347 180.351 94.3096 180.976C93.6844 181.602 93.3333 182.449 93.3333 183.333" fill="white"/>
  <path d="M99.9999 186.667H93.3333V193.333H99.9999V186.667Z" fill="white"/>
  <path d="M100 0V6.66667H103.333C104.217 6.66667 105.065 6.31548 105.69 5.69036C106.315 5.06523 106.667 4.21739 106.667 3.33333C106.667 2.44928 106.315 1.60143 105.69 0.976311C105.065 0.351189 104.217 0 103.333 0" fill="white"/>
  <path d="M106.667 33.3333V26.6666H103.333C102.449 26.6666 101.602 27.0178 100.976 27.6429C100.351 28.268 100 29.1159 100 29.9999C100 30.884 100.351 31.7318 100.976 32.3569C101.602 32.9821 102.449 33.3333 103.333 33.3333" fill="white"/>
  <path d="M100 46.6667V53.3334H106.667C106.667 51.5653 105.964 49.8696 104.714 48.6194C103.464 47.3691 101.768 46.6667 100 46.6667Z" fill="white"/>
  <path d="M106.667 53.3333H100V59.9999C101.768 59.9999 103.464 59.2975 104.714 58.0473C105.964 56.7971 106.667 55.1014 106.667 53.3333Z" fill="white"/>
  <path d="M100 133.333V140H103.333C104.217 140 105.065 139.649 105.69 139.024C106.315 138.398 106.667 137.551 106.667 136.667C106.667 135.783 106.315 134.935 105.69 134.31C105.065 133.684 104.217 133.333 103.333 133.333" fill="white"/>
  <path d="M100 153.333H106.667V150C106.667 149.116 106.315 148.268 105.69 147.643C105.065 147.018 104.217 146.667 103.333 146.667C102.449 146.667 101.601 147.018 100.976 147.643C100.351 148.268 100 149.116 100 150" fill="white"/>
  <path d="M106.667 153.333H100V156.667C100 157.551 100.351 158.398 100.976 159.024C101.602 159.649 102.449 160 103.333 160C104.217 160 105.065 159.649 105.69 159.024C106.316 158.398 106.667 157.551 106.667 156.667" fill="white"/>
  <path d="M103.333 173.333C105.174 173.333 106.667 171.841 106.667 170C106.667 168.159 105.174 166.667 103.333 166.667C101.492 166.667 100 168.159 100 170C100 171.841 101.492 173.333 103.333 173.333Z" fill="white"/>
  <path d="M106.667 186.667H100V193.333H106.667V186.667Z" fill="white"/>
  <path d="M106.667 13.3333H113.333V9.99992C113.333 9.11586 112.982 8.26801 112.357 7.64289C111.732 7.01777 110.884 6.66659 110 6.66659C109.116 6.66659 108.268 7.01777 107.643 7.64289C107.018 8.26801 106.667 9.11586 106.667 9.99992" fill="white"/>
  <path d="M113.333 13.3333H106.667V16.6666C106.667 17.5506 107.018 18.3985 107.643 19.0236C108.268 19.6487 109.116 19.9999 110 19.9999C110.884 19.9999 111.732 19.6487 112.357 19.0236C112.982 18.3985 113.333 17.5506 113.333 16.6666" fill="white"/>
  <path d="M113.333 26.6667H106.667V33.3334H113.333V26.6667Z" fill="white"/>
  <path d="M113.333 33.3333H106.667V39.9999H113.333V33.3333Z" fill="white"/>
  <path d="M113.333 40H106.667V43.3333C106.667 44.2174 107.018 45.0652 107.643 45.6904C108.268 46.3155 109.116 46.6667 110 46.6667C110.884 46.6667 111.732 46.3155 112.357 45.6904C112.982 45.0652 113.333 44.2174 113.333 43.3333" fill="white"/>
  <path d="M113.333 146.667V140H110C109.116 140 108.268 140.351 107.643 140.976C107.018 141.602 106.667 142.449 106.667 143.333C106.667 144.217 107.018 145.065 107.643 145.69C108.268 146.316 109.116 146.667 110 146.667" fill="white"/>
  <path d="M106.667 186.667H113.333V183.333C113.333 182.449 112.982 181.602 112.357 180.976C111.732 180.351 110.884 180 110 180C109.116 180 108.268 180.351 107.643 180.976C107.018 181.602 106.667 182.449 106.667 183.333" fill="white"/>
  <path d="M113.333 186.667H106.667V193.333H113.333V186.667Z" fill="white"/>
  <path d="M116.667 6.66667C118.508 6.66667 120 5.17428 120 3.33333C120 1.49238 118.508 0 116.667 0C114.826 0 113.333 1.49238 113.333 3.33333C113.333 5.17428 114.826 6.66667 116.667 6.66667Z" fill="white"/>
  <path d="M113.333 26.6667H120V23.3334C120 22.4494 119.649 21.6015 119.024 20.9764C118.398 20.3513 117.551 20.0001 116.667 20.0001C115.783 20.0001 114.935 20.3513 114.31 20.9764C113.684 21.6015 113.333 22.4494 113.333 23.3334" fill="white"/>
  <path d="M120 26.6667H113.333V33.3334H120V26.6667Z" fill="white"/>
  <path d="M113.333 53.3333H120V49.9999C120 49.1159 119.649 48.268 119.024 47.6429C118.398 47.0178 117.551 46.6666 116.667 46.6666C115.783 46.6666 114.935 47.0178 114.31 47.6429C113.684 48.268 113.333 49.1159 113.333 49.9999" fill="white"/>
  <path d="M120 53.3333H113.333V56.6666C113.333 57.5506 113.685 58.3985 114.31 59.0236C114.935 59.6487 115.783 59.9999 116.667 59.9999C117.551 59.9999 118.399 59.6487 119.024 59.0236C119.649 58.3985 120 57.5506 120 56.6666" fill="white"/>
  <path d="M116.667 73.3334C118.508 73.3334 120 71.841 120 70.0001C120 68.1591 118.508 66.6667 116.667 66.6667C114.826 66.6667 113.333 68.1591 113.333 70.0001C113.333 71.841 114.826 73.3334 116.667 73.3334Z" fill="white"/>
  <path d="M113.333 126.667H120V123.333C120 122.449 119.649 121.602 119.024 120.976C118.398 120.351 117.551 120 116.667 120C115.783 120 114.935 120.351 114.31 120.976C113.684 121.602 113.333 122.449 113.333 123.333" fill="white"/>
  <path d="M120 126.667H113.333V130C113.333 130.884 113.685 131.732 114.31 132.357C114.935 132.982 115.783 133.333 116.667 133.333C117.551 133.333 118.399 132.982 119.024 132.357C119.649 131.732 120 130.884 120 130" fill="white"/>
  <path d="M113.333 140V146.667H120C120 144.899 119.298 143.203 118.047 141.953C116.797 140.702 115.101 140 113.333 140Z" fill="white"/>
  <path d="M120 146.667H113.333V153.333H120V146.667Z" fill="white"/>
  <path d="M120 153.333H113.333V160H120V153.333Z" fill="white"/>
  <path d="M120 160H113.333V166.667H120V160Z" fill="white"/>
  <path d="M120 173.333V166.667H113.333C113.333 168.435 114.036 170.13 115.286 171.381C116.536 172.631 118.232 173.333 120 173.333Z" fill="white"/>
  <path d="M120 186.667H113.333V193.333H120V186.667Z" fill="white"/>
  <path d="M126.667 26.6667H120V33.3334H126.667V26.6667Z" fill="white"/>
  <path d="M126.667 33.3333H120V39.9999H126.667V33.3333Z" fill="white"/>
  <path d="M126.667 40H120V43.3333C120 44.2174 120.351 45.0652 120.976 45.6904C121.602 46.3155 122.449 46.6667 123.333 46.6667C124.217 46.6667 125.065 46.3155 125.69 45.6904C126.316 45.0652 126.667 44.2174 126.667 43.3333" fill="white"/>
  <path d="M120 86.6667H126.667V83.3334C126.667 82.4494 126.315 81.6015 125.69 80.9764C125.065 80.3513 124.217 80.0001 123.333 80.0001C122.449 80.0001 121.601 80.3513 120.976 80.9764C120.351 81.6015 120 82.4494 120 83.3334" fill="white"/>
  <path d="M126.667 93.3333V86.6666H120C120 88.4347 120.702 90.1304 121.953 91.3806C123.203 92.6309 124.899 93.3333 126.667 93.3333Z" fill="white"/>
  <path d="M126.667 106.667V100H123.333C122.449 100 121.602 100.351 120.976 100.976C120.351 101.602 120 102.449 120 103.333C120 104.217 120.351 105.065 120.976 105.69C121.602 106.316 122.449 106.667 123.333 106.667" fill="white"/>
  <path d="M123.333 140C125.174 140 126.667 138.508 126.667 136.667C126.667 134.826 125.174 133.333 123.333 133.333C121.492 133.333 120 134.826 120 136.667C120 138.508 121.492 140 123.333 140Z" fill="white"/>
  <path d="M120 160V166.667H126.667C126.667 164.899 125.964 163.203 124.714 161.953C123.464 160.702 121.768 160 120 160Z" fill="white"/>
  <path d="M126.667 166.667H120V173.333H126.667V166.667Z" fill="white"/>
  <path d="M120 186.667V193.333H123.333C124.217 193.333 125.065 192.982 125.69 192.357C126.315 191.732 126.667 190.884 126.667 190C126.667 189.116 126.315 188.268 125.69 187.643C125.065 187.018 124.217 186.667 123.333 186.667" fill="white"/>
  <path d="M126.667 26.6667H133.333V23.3334C133.333 22.4494 132.982 21.6015 132.357 20.9764C131.732 20.3513 130.884 20.0001 130 20.0001C129.116 20.0001 128.268 20.3513 127.643 20.9764C127.018 21.6015 126.667 22.4494 126.667 23.3334" fill="white"/>
  <path d="M133.333 26.6667H126.667V33.3334H133.333V26.6667Z" fill="white"/>
  <path d="M130 59.9999C131.841 59.9999 133.333 58.5075 133.333 56.6666C133.333 54.8256 131.841 53.3333 130 53.3333C128.159 53.3333 126.667 54.8256 126.667 56.6666C126.667 58.5075 128.159 59.9999 130 59.9999Z" fill="white"/>
  <path d="M133.333 86.6667H126.667V93.3334H133.333V86.6667Z" fill="white"/>
  <path d="M126.667 100V106.667H133.333C133.333 104.899 132.631 103.203 131.381 101.953C130.131 100.702 128.435 100 126.667 100Z" fill="white"/>
  <path d="M133.333 106.667H126.667V113.333H133.333V106.667Z" fill="white"/>
  <path d="M133.333 120V113.333H126.667C126.667 115.101 127.369 116.797 128.619 118.047C129.869 119.298 131.565 120 133.333 120Z" fill="white"/>
  <path d="M133.333 160V153.333H130C129.116 153.333 128.268 153.685 127.643 154.31C127.018 154.935 126.667 155.783 126.667 156.667C126.667 157.551 127.018 158.399 127.643 159.024C128.268 159.649 129.116 160 130 160" fill="white"/>
  <path d="M126.667 166.667V173.333H130C130.884 173.333 131.732 172.982 132.357 172.357C132.982 171.732 133.333 170.884 133.333 170C133.333 169.116 132.982 168.268 132.357 167.643C131.732 167.018 130.884 166.667 130 166.667" fill="white"/>
  <path d="M130 186.667C131.841 186.667 133.333 185.174 133.333 183.333C133.333 181.492 131.841 180 130 180C128.159 180 126.667 181.492 126.667 183.333C126.667 185.174 128.159 186.667 130 186.667Z" fill="white"/>
  <path d="M133.333 6.66675H140V3.33342C140 2.44936 139.649 1.60151 139.024 0.97639C138.398 0.351269 137.551 8.2016e-05 136.667 8.2016e-05C135.783 8.2016e-05 134.935 0.351269 134.31 0.97639C133.684 1.60151 133.333 2.44936 133.333 3.33342" fill="white"/>
  <path d="M140 6.66675H133.333V10.0001C133.333 10.8841 133.685 11.732 134.31 12.3571C134.935 12.9822 135.783 13.3334 136.667 13.3334C137.551 13.3334 138.399 12.9822 139.024 12.3571C139.649 11.732 140 10.8841 140 10.0001" fill="white"/>
  <path d="M133.333 26.6667V33.3334H140C140 31.5653 139.298 29.8696 138.047 28.6194C136.797 27.3691 135.101 26.6667 133.333 26.6667Z" fill="white"/>
  <path d="M140 33.3333H133.333V39.9999H140V33.3333Z" fill="white"/>
  <path d="M140 40H133.333V46.6667H140V40Z" fill="white"/>
  <path d="M140 46.6667H133.333V50.0001C133.333 50.8841 133.685 51.732 134.31 52.3571C134.935 52.9822 135.783 53.3334 136.667 53.3334C137.551 53.3334 138.399 52.9822 139.024 52.3571C139.649 51.732 140 50.8841 140 50.0001" fill="white"/>
  <path d="M133.333 73.3333H140V66.6666C138.232 66.6666 136.536 67.369 135.286 68.6192C134.036 69.8694 133.333 71.5651 133.333 73.3333Z" fill="white"/>
  <path d="M140 73.3333H133.333V79.9999H140V73.3333Z" fill="white"/>
  <path d="M140 80H133.333V86.6667H140V80Z" fill="white"/>
  <path d="M140 86.6667H133.333V93.3334H140V86.6667Z" fill="white"/>
  <path d="M133.333 113.333V120H140C140 118.232 139.298 116.536 138.047 115.286C136.797 114.036 135.101 113.333 133.333 113.333Z" fill="white"/>
  <path d="M140 120H133.333V126.667H140V120Z" fill="white"/>
  <path d="M140 126.667H133.333V133.333H140V126.667Z" fill="white"/>
  <path d="M140 133.333H133.333V140H140V133.333Z" fill="white"/>
  <path d="M140 140H133.333V146.667H140V140Z" fill="white"/>
  <path d="M140 146.667H133.333V153.333H140V146.667Z" fill="white"/>
  <path d="M140 153.333H133.333V160H140V153.333Z" fill="white"/>
  <path d="M140 166.667V160H133.333C133.333 161.768 134.036 163.464 135.286 164.714C136.536 165.964 138.232 166.667 140 166.667Z" fill="white"/>
  <path d="M140 193.333V186.667H136.667C135.783 186.667 134.935 187.018 134.31 187.643C133.685 188.268 133.333 189.116 133.333 190C133.333 190.884 133.685 191.732 134.31 192.357C134.935 192.982 135.783 193.333 136.667 193.333" fill="white"/>
  <path d="M143.333 59.9999C145.174 59.9999 146.667 58.5075 146.667 56.6666C146.667 54.8256 145.174 53.3333 143.333 53.3333C141.492 53.3333 140 54.8256 140 56.6666C140 58.5075 141.492 59.9999 143.333 59.9999Z" fill="white"/>
  <path d="M140 66.6667V73.3334H143.333C144.217 73.3334 145.065 72.9822 145.69 72.3571C146.315 71.732 146.667 70.8841 146.667 70.0001C146.667 69.116 146.315 68.2682 145.69 67.6431C145.065 67.0179 144.217 66.6667 143.333 66.6667" fill="white"/>
  <path d="M146.667 80H140V86.6667H146.667V80Z" fill="white"/>
  <path d="M146.667 86.6667H140V93.3334H146.667V86.6667Z" fill="white"/>
  <path d="M146.667 93.3333H140V99.9999H146.667V93.3333Z" fill="white"/>
  <path d="M146.667 100H140V106.667H146.667V100Z" fill="white"/>
  <path d="M146.667 106.667H140V110C140 110.884 140.351 111.732 140.976 112.357C141.602 112.982 142.449 113.333 143.333 113.333C144.217 113.333 145.065 112.982 145.69 112.357C146.316 111.732 146.667 110.884 146.667 110" fill="white"/>
  <path d="M140 120V126.667H146.667C146.667 124.899 145.964 123.203 144.714 121.953C143.464 120.702 141.768 120 140 120Z" fill="white"/>
  <path d="M146.667 126.667H140V133.333H146.667V126.667Z" fill="white"/>
  <path d="M146.667 133.333H140V140H146.667V133.333Z" fill="white"/>
  <path d="M146.667 160H140V166.667H146.667V160Z" fill="white"/>
  <path d="M143.333 180C145.174 180 146.667 178.508 146.667 176.667C146.667 174.826 145.174 173.333 143.333 173.333C141.492 173.333 140 174.826 140 176.667C140 178.508 141.492 180 143.333 180Z" fill="white"/>
  <path d="M146.667 186.667H140V193.333H146.667V186.667Z" fill="white"/>
  <path d="M146.667 80H153.333V73.3333C151.565 73.3333 149.87 74.0357 148.619 75.286C147.369 76.5362 146.667 78.2319 146.667 80Z" fill="white"/>
  <path d="M153.333 80H146.667V86.6667H153.333V80Z" fill="white"/>
  <path d="M146.667 100V106.667H150C150.884 106.667 151.732 106.315 152.357 105.69C152.982 105.065 153.333 104.217 153.333 103.333C153.333 102.449 152.982 101.601 152.357 100.976C151.732 100.351 150.884 100 150 100" fill="white"/>
  <path d="M153.333 120V113.333H150C149.116 113.333 148.268 113.685 147.643 114.31C147.018 114.935 146.667 115.783 146.667 116.667C146.667 117.551 147.018 118.399 147.643 119.024C148.268 119.649 149.116 120 150 120" fill="white"/>
  <path d="M153.333 126.667H146.667V133.333H153.333V126.667Z" fill="white"/>
  <path d="M153.333 133.333H146.667V140H153.333V133.333Z" fill="white"/>
  <path d="M150 153.333C151.841 153.333 153.333 151.841 153.333 150C153.333 148.159 151.841 146.667 150 146.667C148.159 146.667 146.667 148.159 146.667 150C146.667 151.841 148.159 153.333 150 153.333Z" fill="white"/>
  <path d="M153.333 160H146.667V166.667H153.333V160Z" fill="white"/>
  <path d="M146.667 186.667V193.333H150C150.884 193.333 151.732 192.982 152.357 192.357C152.982 191.732 153.333 190.884 153.333 190C153.333 189.116 152.982 188.268 152.357 187.643C151.732 187.018 150.884 186.667 150 186.667" fill="white"/>
  <path d="M160 66.6667V60.0001H156.667C155.783 60.0001 154.935 60.3513 154.31 60.9764C153.685 61.6015 153.333 62.4494 153.333 63.3334C153.333 64.2175 153.685 65.0653 154.31 65.6904C154.935 66.3156 155.783 66.6667 156.667 66.6667" fill="white"/>
  <path d="M160 73.3333H153.333V79.9999H160V73.3333Z" fill="white"/>
  <path d="M160 80H153.333V86.6667H160V80Z" fill="white"/>
  <path d="M160 86.6667H153.333V93.3334H160V86.6667Z" fill="white"/>
  <path d="M160 93.3333H153.333V96.6666C153.333 97.5506 153.685 98.3985 154.31 99.0236C154.935 99.6487 155.783 99.9999 156.667 99.9999C157.551 99.9999 158.399 99.6487 159.024 99.0236C159.649 98.3985 160 97.5506 160 96.6666" fill="white"/>
  <path d="M153.333 113.333H160V110C160 109.116 159.649 108.268 159.024 107.643C158.398 107.018 157.551 106.667 156.667 106.667C155.783 106.667 154.935 107.018 154.31 107.643C153.684 108.268 153.333 109.116 153.333 110" fill="white"/>
  <path d="M160 113.333H153.333V120H160V113.333Z" fill="white"/>
  <path d="M160 120H153.333V126.667H160V120Z" fill="white"/>
  <path d="M160 126.667H153.333V133.333H160V126.667Z" fill="white"/>
  <path d="M160 133.333H153.333V140H160V133.333Z" fill="white"/>
  <path d="M160 160H153.333V166.667H160V160Z" fill="white"/>
  <path d="M160 166.667H153.333V170C153.333 170.884 153.685 171.732 154.31 172.357C154.935 172.982 155.783 173.333 156.667 173.333C157.551 173.333 158.399 172.982 159.024 172.357C159.649 171.732 160 170.884 160 170" fill="white"/>
  <path d="M160 60H166.667V56.6667C166.667 55.7826 166.315 54.9348 165.69 54.3096C165.065 53.6845 164.217 53.3333 163.333 53.3333C162.449 53.3333 161.601 53.6845 160.976 54.3096C160.351 54.9348 160 55.7826 160 56.6667" fill="white"/>
  <path d="M166.667 60H160V66.6667C161.768 66.6667 163.464 65.9643 164.714 64.714C165.964 63.4638 166.667 61.7681 166.667 60Z" fill="white"/>
  <path d="M166.667 73.3333H160V79.9999H166.667V73.3333Z" fill="white"/>
  <path d="M160 120V126.667H166.667C166.667 124.899 165.964 123.203 164.714 121.953C163.464 120.702 161.768 120 160 120Z" fill="white"/>
  <path d="M166.667 126.667H160V133.333H166.667V126.667Z" fill="white"/>
  <path d="M166.667 133.333H160V140H166.667V133.333Z" fill="white"/>
  <path d="M166.667 140H160V146.667H166.667V140Z" fill="white"/>
  <path d="M166.667 146.667H160V153.333H166.667V146.667Z" fill="white"/>
  <path d="M166.667 153.333H160V160H166.667V153.333Z" fill="white"/>
  <path d="M166.667 160H160V166.667C161.768 166.667 163.464 165.964 164.714 164.714C165.964 163.464 166.667 161.768 166.667 160Z" fill="white"/>
  <path d="M160 186.667H166.667V180C164.899 180 163.203 180.702 161.953 181.953C160.702 183.203 160 184.899 160 186.667Z" fill="white"/>
  <path d="M166.667 186.667H160V190C160 190.884 160.351 191.732 160.976 192.357C161.602 192.982 162.449 193.333 163.333 193.333C164.217 193.333 165.065 192.982 165.69 192.357C166.316 191.732 166.667 190.884 166.667 190" fill="white"/>
  <path d="M166.667 73.3333H173.333V66.6666C171.565 66.6666 169.87 67.369 168.619 68.6192C167.369 69.8694 166.667 71.5651 166.667 73.3333Z" fill="white"/>
  <path d="M173.333 73.3333H166.667V79.9999H173.333V73.3333Z" fill="white"/>
  <path d="M166.667 93.3333H173.333V86.6666C171.565 86.6666 169.87 87.369 168.619 88.6192C167.369 89.8694 166.667 91.5651 166.667 93.3333Z" fill="white"/>
  <path d="M173.333 100V93.3333H166.667C166.667 95.1014 167.369 96.7971 168.619 98.0474C169.869 99.2976 171.565 100 173.333 100Z" fill="white"/>
  <path d="M166.667 113.333H173.333V106.667C171.565 106.667 169.87 107.369 168.619 108.619C167.369 109.869 166.667 111.565 166.667 113.333Z" fill="white"/>
  <path d="M173.333 113.333H166.667V116.667C166.667 117.551 167.018 118.398 167.643 119.024C168.268 119.649 169.116 120 170 120C170.884 120 171.732 119.649 172.357 119.024C172.982 118.398 173.333 117.551 173.333 116.667" fill="white"/>
  <path d="M166.667 153.333V160H170C170.884 160 171.732 159.649 172.357 159.024C172.982 158.398 173.333 157.551 173.333 156.667C173.333 155.783 172.982 154.935 172.357 154.31C171.732 153.684 170.884 153.333 170 153.333" fill="white"/>
  <path d="M170 173.333C171.841 173.333 173.333 171.841 173.333 170C173.333 168.159 171.841 166.667 170 166.667C168.159 166.667 166.667 168.159 166.667 170C166.667 171.841 168.159 173.333 170 173.333Z" fill="white"/>
  <path d="M173.333 180H166.667V186.667H173.333V180Z" fill="white"/>
  <path d="M173.333 66.6667V73.3334H180C180 71.5653 179.298 69.8696 178.047 68.6194C176.797 67.3691 175.101 66.6667 173.333 66.6667Z" fill="white"/>
  <path d="M180 73.3333H173.333V79.9999C175.101 79.9999 176.797 79.2975 178.047 78.0473C179.298 76.7971 180 75.1014 180 73.3333Z" fill="white"/>
  <path d="M173.333 86.6667V93.3334H180C180 91.5653 179.298 89.8696 178.047 88.6194C176.797 87.3691 175.101 86.6667 173.333 86.6667Z" fill="white"/>
  <path d="M180 93.3333H173.333V99.9999H180V93.3333Z" fill="white"/>
  <path d="M173.333 106.667V113.333H176.667C177.551 113.333 178.398 112.982 179.024 112.357C179.649 111.732 180 110.884 180 110C180 109.116 179.649 108.268 179.024 107.643C178.398 107.018 177.551 106.667 176.667 106.667" fill="white"/>
  <path d="M173.333 126.667H180V123.333C180 122.449 179.649 121.602 179.024 120.976C178.398 120.351 177.551 120 176.667 120C175.783 120 174.935 120.351 174.31 120.976C173.684 121.602 173.333 122.449 173.333 123.333" fill="white"/>
  <path d="M180 126.667H173.333V133.333H180V126.667Z" fill="white"/>
  <path d="M180 133.333H173.333V140H180V133.333Z" fill="white"/>
  <path d="M180 146.667V140H173.333C173.333 141.768 174.036 143.464 175.286 144.714C176.536 145.964 178.232 146.667 180 146.667Z" fill="white"/>
  <path d="M180 180H173.333V186.667H180V180Z" fill="white"/>
  <path d="M180 193.333V186.667H173.333C173.333 188.435 174.036 190.13 175.286 191.381C176.536 192.631 178.232 193.333 180 193.333Z" fill="white"/>
  <path d="M180 60H186.667V56.6667C186.667 55.7826 186.315 54.9348 185.69 54.3097C185.065 53.6845 184.217 53.3333 183.333 53.3333C182.449 53.3333 181.601 53.6845 180.976 54.3097C180.351 54.9348 180 55.7826 180 56.6667" fill="white"/>
  <path d="M186.667 66.6667V60.0001H180C180 61.7682 180.702 63.4639 181.953 64.7141C183.203 65.9644 184.899 66.6667 186.667 66.6667Z" fill="white"/>
  <path d="M180 93.3333V99.9999H183.333C184.217 99.9999 185.065 99.6487 185.69 99.0236C186.315 98.3985 186.667 97.5506 186.667 96.6666C186.667 95.7825 186.315 94.9347 185.69 94.3096C185.065 93.6844 184.217 93.3333 183.333 93.3333" fill="white"/>
  <path d="M186.667 120V113.333H183.333C182.449 113.333 181.602 113.685 180.976 114.31C180.351 114.935 180 115.783 180 116.667C180 117.551 180.351 118.399 180.976 119.024C181.602 119.649 182.449 120 183.333 120" fill="white"/>
  <path d="M180 140V146.667H183.333C184.217 146.667 185.065 146.315 185.69 145.69C186.315 145.065 186.667 144.217 186.667 143.333C186.667 142.449 186.315 141.601 185.69 140.976C185.065 140.351 184.217 140 183.333 140" fill="white"/>
  <path d="M183.333 160C185.174 160 186.667 158.508 186.667 156.667C186.667 154.826 185.174 153.333 183.333 153.333C181.492 153.333 180 154.826 180 156.667C180 158.508 181.492 160 183.333 160Z" fill="white"/>
  <path d="M186.667 173.333V166.667H183.333C182.449 166.667 181.602 167.018 180.976 167.643C180.351 168.268 180 169.116 180 170C180 170.884 180.351 171.732 180.976 172.357C181.602 172.982 182.449 173.333 183.333 173.333" fill="white"/>
  <path d="M186.667 180H180V186.667H186.667V180Z" fill="white"/>
  <path d="M186.667 186.667H180V193.333C181.768 193.333 183.464 192.631 184.714 191.381C185.964 190.131 186.667 188.435 186.667 186.667Z" fill="white"/>
  <path d="M186.667 60V66.6667H193.333C193.333 64.8986 192.631 63.2029 191.381 61.9526C190.131 60.7024 188.435 60 186.667 60Z" fill="white"/>
  <path d="M193.333 66.6667H186.667V73.3334H193.333V66.6667Z" fill="white"/>
  <path d="M193.333 73.3333H186.667V76.6666C186.667 77.5506 187.018 78.3985 187.643 79.0236C188.268 79.6487 189.116 79.9999 190 79.9999C190.884 79.9999 191.732 79.6487 192.357 79.0236C192.982 78.3985 193.333 77.5506 193.333 76.6666" fill="white"/>
  <path d="M190 93.3334C191.841 93.3334 193.333 91.841 193.333 90.0001C193.333 88.1591 191.841 86.6667 190 86.6667C188.159 86.6667 186.667 88.1591 186.667 90.0001C186.667 91.841 188.159 93.3334 190 93.3334Z" fill="white"/>
  <path d="M190 106.667C191.841 106.667 193.333 105.174 193.333 103.333C193.333 101.492 191.841 100 190 100C188.159 100 186.667 101.492 186.667 103.333C186.667 105.174 188.159 106.667 190 106.667Z" fill="white"/>
  <path d="M186.667 113.333V120H190C190.884 120 191.732 119.649 192.357 119.024C192.982 118.398 193.333 117.551 193.333 116.667C193.333 115.783 192.982 114.935 192.357 114.31C191.732 113.684 190.884 113.333 190 113.333" fill="white"/>
  <path d="M190 140C191.841 140 193.333 138.508 193.333 136.667C193.333 134.826 191.841 133.333 190 133.333C188.159 133.333 186.667 134.826 186.667 136.667C186.667 138.508 188.159 140 190 140Z" fill="white"/>
  <path d="M186.667 166.667H193.333V163.333C193.333 162.449 192.982 161.602 192.357 160.976C191.732 160.351 190.884 160 190 160C189.116 160 188.268 160.351 187.643 160.976C187.018 161.602 186.667 162.449 186.667 163.333" fill="white"/>
  <path d="M193.333 166.667H186.667V173.333H193.333V166.667Z" fill="white"/>
  <path d="M193.333 173.333H186.667V180H193.333V173.333Z" fill="white"/>
  <path d="M193.333 180H186.667V186.667C188.435 186.667 190.13 185.964 191.381 184.714C192.631 183.464 193.333 181.768 193.333 180Z" fill="white"/>
</svg>
