<svg xmlns="http://www.w3.org/2000/svg" width="16" height="16" viewBox="0 0 16 16" fill="none">
  <path fill-rule="evenodd" clip-rule="evenodd" d="M1.74615 10.5923L2.16515 12.7302C2.2746 13.2887 2.71126 13.7254 3.26976 13.8349L5.40769 14.2538L7.21786 15.4732C7.69066 15.7916 8.30934 15.7916 8.78214 15.4732L10.5923 14.2538L12.7302 13.8349C13.2887 13.7254 13.7254 13.2887 13.8349 12.7302L14.2538 10.5923L15.4732 8.78214C15.7916 8.30934 15.7916 7.69066 15.4732 7.21786L14.2538 5.40769L13.8349 3.26976C13.7254 2.71126 13.2887 2.2746 12.7302 2.16515L10.5923 1.74615L8.78214 0.526841C8.30934 0.208369 7.69066 0.208369 7.21786 0.52684L5.40769 1.74615L3.26976 2.16515C2.71126 2.2746 2.2746 2.71126 2.16515 3.26976L1.74615 5.40769L0.526841 7.21786C0.208369 7.69066 0.208369 8.30934 0.52684 8.78214L1.74615 10.5923Z" fill="#007AFE"/>
  <path fill-rule="evenodd" clip-rule="evenodd" d="M6.39025 10.2619C6.77655 10.631 7.3848 10.6313 7.77141 10.2625L11.2099 6.98217C11.4763 6.72802 11.4862 6.30602 11.2321 6.03962C10.9779 5.77321 10.5559 5.76328 10.2895 6.01743L7.08134 9.07804L5.71029 7.76782C5.4441 7.51345 5.0221 7.52302 4.76772 7.78921C4.51334 8.0554 4.52292 8.4774 4.7891 8.73177L6.39025 10.2619Z" fill="white"/>
</svg>
