<svg xmlns="http://www.w3.org/2000/svg" width="48" height="48" viewBox="0 0 48 48" fill="none">
  <path d="M36 14H12C8.6 14 6 16.6 6 20V36C6 39.4 8.6 42 12 42H36C39.4 42 42 39.4 42 36V20C42 16.6 39.4 14 36 14Z" stroke="#E7E8EA" stroke-width="2" stroke-miterlimit="10" stroke-linecap="round" stroke-linejoin="round"/>
  <path d="M15.2 14L22 7.2C23.6 5.6 26.2 5.6 27.6 7.2L34.4 14" stroke="#E7E8EA" stroke-width="2" stroke-miterlimit="10" stroke-linecap="round" stroke-linejoin="round"/>
  <path d="M42 32H34C31.8 32 30 30.2 30 28C30 25.8 31.8 24 34 24H42V32Z" stroke="#E7E8EA" stroke-width="2" stroke-miterlimit="10" stroke-linecap="round" stroke-linejoin="round"/>
</svg>
