<svg xmlns="http://www.w3.org/2000/svg" width="24" height="19" viewBox="0 0 24 19" fill="none">
  <path
    d="M19.4725 18.6481C19.7659 18.6481 20.006 18.4081 20.006 18.1147L20.0061 15.8998C20.0061 15.6064 19.7661 15.3663 19.4727 15.3663H4.00117C3.70773 15.3663 3.46772 15.6064 3.46772 15.8998L3.46753 18.1147C3.46753 18.4081 3.70756 18.6481 4.00098 18.6481H19.4725Z"
    fill="white" />
  <path
    d="M21.473 2.16077C20.3793 2.16077 19.4724 3.06768 19.4724 4.1614C19.4724 5.1217 20.1659 5.922 21.073 6.10863C20.5929 6.96233 19.5258 8.45608 18.0055 8.56273C16.3249 8.69615 14.351 7.09556 12.3237 3.92123C13.1506 3.6812 13.7375 2.90753 13.7375 2.00063C13.7375 0.906903 12.8305 0 11.7368 0C10.6431 0 9.7362 0.906903 9.7362 2.00063C9.7362 2.90753 10.323 3.65443 11.15 3.92123C9.12272 7.09561 7.14872 8.69606 5.46819 8.56273C3.94762 8.42932 2.88071 6.96214 2.40066 6.10863C3.30756 5.92181 4.00126 5.1217 4.00126 4.1614C4.00126 3.06768 3.09435 2.16077 2.00063 2.16077C0.906903 2.16077 0 3.06768 0 4.1614C0 4.93488 0.453452 5.62857 1.12035 5.94863L3.2544 13.8178C3.3078 14.0578 3.52123 14.2178 3.76128 14.2178H19.6863C19.9263 14.2178 20.1397 14.0578 20.1931 13.8178L22.3272 5.94863C22.9941 5.62858 23.4475 4.93493 23.4475 4.1614C23.474 3.06768 22.5667 2.16077 21.473 2.16077Z"
    fill="white" />
</svg>
