<svg xmlns="http://www.w3.org/2000/svg" width="53" height="56" viewBox="0 0 53 56" fill="none">
  <mask id="mask0_229_26521" style="mask-type:luminance" maskUnits="userSpaceOnUse" x="0" y="0"
    width="53" height="56">
    <path d="M52.7068 0.717705H0.361572V55.6098H52.7068V0.717705Z" fill="white" />
  </mask>
  <g mask="url(#mask0_229_26521)">
    <path
      d="M51.914 6.03806V12.6072C51.8161 12.5686 51.7464 12.5459 51.6809 12.5149C51.1208 12.2511 50.5655 11.9769 49.9983 11.7282C49.8693 11.6717 49.6879 11.6595 49.5551 11.7028C49.3502 11.7697 49.3064 11.9995 49.4161 12.268C49.7091 12.9864 50.0078 13.7023 50.3036 14.4193C50.3361 14.4984 50.3672 14.578 50.418 14.7042C50.2956 14.6727 50.2103 14.6524 50.126 14.6284C49.2296 14.3722 48.3337 14.114 47.4368 13.8601C47.3322 13.8305 47.2216 13.8036 47.1146 13.8069C46.8541 13.8154 46.6879 14.0627 46.7802 14.3062C46.8207 14.4136 46.8928 14.5116 46.9606 14.6067C47.9347 15.9732 48.9102 17.3383 49.8853 18.7034C49.9258 18.7604 49.9635 18.8193 50.0167 18.8984C49.793 19.1485 49.5687 19.3972 49.3469 19.6478C49.0299 20.0058 49.0746 20.2663 49.4948 20.4872C50.2164 20.8664 50.9376 21.2465 51.6644 21.6153C51.8123 21.6907 51.8608 21.7783 51.8599 21.9418C51.8335 25.6592 51.8147 29.3762 51.7855 33.0932C51.7845 33.2448 51.7247 33.413 51.6446 33.5449C51.4209 33.9123 51.1722 34.2642 50.8938 34.682C50.8288 34.5892 50.7873 34.5129 50.7308 34.4507C49.816 33.4384 48.8985 32.4285 47.9832 31.4163C47.9102 31.3352 47.8461 31.2453 47.784 31.1558C47.6695 30.9909 47.5244 30.9 47.3228 30.9749C47.1127 31.0531 47.0459 31.2274 47.0826 31.4313C47.1434 31.7705 47.2248 32.1054 47.2946 32.4427C47.6591 34.2076 48.0233 35.9722 48.3864 37.7371C48.3959 37.7819 48.3949 37.829 48.4034 37.9223C48.3106 37.8436 48.2461 37.7918 48.1848 37.7362C46.694 36.3919 45.2031 35.047 43.7128 33.7027C43.6779 33.6711 43.6435 33.6386 43.6082 33.608C43.3878 33.4158 43.2069 33.3866 43.0387 33.5152C42.8734 33.6419 42.8475 33.836 42.9709 34.0908C43.5178 35.219 44.0665 36.3466 44.6139 37.4743C45.141 38.5601 45.6676 39.6463 46.1942 40.7321C46.214 40.773 46.2295 40.8159 46.2625 40.8936C46.2055 40.8729 46.1796 40.8668 46.1565 40.855C45.0807 40.3091 43.9639 39.8981 42.8838 39.3606C38.8209 37.3356 35.5228 36.3038 33.5969 35.6954C30.3441 34.8351 27.3862 34.4314 24.3253 34.3249C28.2127 30.3395 32.0512 26.4039 35.9232 22.4335C36.0089 22.7736 36.0862 23.0723 36.1597 23.3719C36.5313 24.8858 36.9015 26.4002 37.2727 27.9146C37.2817 27.9527 37.2878 27.9918 37.3 28.0286C37.366 28.2283 37.4941 28.3526 37.7146 28.3399C37.9138 28.3281 38.0546 28.1642 38.0565 27.9329C38.0612 27.3526 38.0448 26.7718 38.0641 26.192C38.0711 25.9729 38.1164 25.7398 38.2063 25.541C38.6585 24.5414 39.131 23.5513 39.5968 22.5579C39.6298 22.4882 39.6661 22.4199 39.7108 22.3299C41.0137 23.0346 42.2888 23.7247 43.5635 24.4147C44.1768 24.7468 44.7882 25.0836 45.4048 25.4096C45.5112 25.4661 45.6516 25.5302 45.7543 25.5042C45.872 25.4741 46.0298 25.3611 46.0515 25.2588C46.0788 25.1312 46.0275 24.9376 45.9366 24.8424C45.5748 24.4618 45.1848 24.1086 44.8056 23.7449C43.571 22.5626 42.3369 21.3794 41.1013 20.198C41.0561 20.1551 40.9977 20.1264 40.9129 20.0689C41.0321 20.0006 41.0947 19.9615 41.1602 19.9281C42.9549 19.0143 44.7514 18.1037 46.5428 17.1824C46.6704 17.1164 46.8037 16.9921 46.857 16.863C46.9615 16.6087 46.7241 16.368 46.4118 16.3995C45.8042 16.4608 45.1975 16.5357 44.5903 16.604C43.555 16.7203 42.5196 16.8366 41.4843 16.9516C41.4329 16.9572 41.3807 16.9525 41.2695 16.9525C44.8324 13.2991 48.3582 9.68391 51.914 6.03806Z"
      fill="#FF9C40" />
    <path
      d="M52.4465 4.75944C52.7305 4.86966 52.6942 5.12685 52.6928 5.36143C52.6537 13.1802 52.6146 20.999 52.5751 28.8183C52.5459 34.5508 52.5167 40.2828 52.4865 46.0154C52.4837 46.494 52.4371 46.9749 52.4752 47.4497C52.5105 47.8901 52.3155 48.1864 52.007 48.4299C51.7004 48.6721 51.3951 48.949 51.0409 49.0918C50.0192 49.5039 48.9923 49.9288 47.9311 50.2114C46.8072 50.5105 45.6301 50.4667 44.469 50.4403C41.9823 50.3833 39.5409 49.9999 37.1287 49.4088C37.0995 49.4017 37.0689 49.3984 37.0515 49.3956C36.693 50.1596 36.3642 50.9048 35.9973 51.6311C35.2983 53.0136 34.2653 54.1074 32.9765 54.9515C32.5874 55.2068 32.1367 55.3684 31.7104 55.5643C31.6364 55.5982 31.5422 55.5987 31.4574 55.5978C28.8074 55.5695 26.2397 54.9251 23.6363 54.5492C22.9928 54.456 22.348 54.3674 21.7083 54.2511C21.5406 54.2209 21.3753 54.1144 21.234 54.0089C17.957 51.5562 14.6828 49.0988 11.4081 46.6428C11.0588 46.3801 10.635 46.1172 8.82538 44.6979C8.06277 44.1072 7.30722 43.5076 6.5333 42.9315C6.28695 42.7478 6.10371 42.5222 6.02505 42.2485C5.88939 41.7779 5.76032 41.2946 5.72217 40.809C5.65858 39.9932 6.12303 39.371 6.90636 39.1279C7.12163 39.061 7.34961 39.0106 7.57383 39.0003C8.82161 38.9418 9.99356 39.2339 11.06 39.8731C12.1721 40.5396 13.255 41.2555 14.3507 41.9499C14.3968 41.9791 14.4439 42.0069 14.5 42.0412C21.3927 46.3823 14.5 42.0412 21.3927 46.3823C18.9136 39.1877 21.3927 46.3823 18.9136 39.1877C16.5956 32.4613 14.281 25.7443 11.9658 19.0277C11.9507 19.0249 11.9352 19.022 11.9196 19.0197C11.8989 19.0941 11.8754 19.1681 11.8584 19.2439C11.2899 21.7428 10.7218 24.2426 10.1542 26.7419C10.1457 26.7801 10.1396 26.8192 10.1292 26.8568C10.0614 27.114 9.89888 27.2492 9.68738 27.2252C9.47965 27.2012 9.35106 27.0316 9.35059 26.7598C9.3487 25.7014 9.35059 24.643 9.35059 23.5845C9.35106 22.0555 9.35059 20.527 9.35059 18.998V18.7182C9.25685 18.8247 9.20268 18.8826 9.15275 18.9439C6.62845 22.0447 4.10462 25.146 1.58126 28.2474C1.4277 28.4358 1.27697 28.6261 1.12341 28.8145C0.922747 29.0613 0.709366 29.116 0.517653 28.9723C0.337245 28.8371 0.32594 28.6195 0.483267 28.3628C1.39567 26.8719 2.30808 25.3811 3.21907 23.8893C4.73864 21.4013 6.25774 18.9128 7.77685 16.4243C7.84138 16.3183 7.90403 16.2114 7.97704 16.0884C7.19229 15.7205 6.42685 15.3607 5.66141 15.0027C4.80223 14.6004 3.94305 14.1995 3.08388 13.7982C3.04855 13.7817 3.01322 13.7648 2.97884 13.7459C2.7923 13.6437 2.69527 13.4902 2.75933 13.2791C2.82386 13.0676 2.99202 12.9866 3.20164 13.0144C3.9162 13.1091 4.62936 13.2108 5.34345 13.3097C6.07121 13.4106 6.79944 13.5109 7.57006 13.6169C7.44523 13.305 7.33501 13.0252 7.22149 12.7469C6.50928 10.9974 5.79565 9.24797 5.08391 7.49853C5.05188 7.4194 5.02032 7.33649 5.00949 7.25218C4.98688 7.08072 5.0467 6.91444 5.21251 6.87158C5.33827 6.83955 5.49324 6.88712 5.62514 6.92999C5.68778 6.95071 5.73159 7.03974 5.77728 7.10286C7.39295 9.3403 9.00814 11.5787 10.6233 13.8161C10.6686 13.8792 10.7171 13.94 10.8066 14.0578C10.8066 13.9278 10.8103 13.8566 10.8061 13.786C10.6737 11.6027 10.5414 9.41896 10.4081 7.23569C10.3087 5.60825 10.2116 3.98034 10.1071 2.3529C10.0892 2.08016 10.0228 1.80979 10.01 1.53705C10.0006 1.34675 10.0213 1.14798 10.0708 0.963799C10.1151 0.798935 10.2743 0.690126 10.4363 0.742882C10.5645 0.784805 10.6629 0.922819 10.7698 1.02268C10.7887 1.04058 10.7891 1.08203 10.791 1.11312C10.8843 2.59925 11.2922 4.03074 11.5763 5.48248C12.1938 8.63609 12.8466 11.7831 13.4854 14.9325C13.4976 14.9923 13.5155 15.0507 13.5353 15.1265C13.5975 15.1002 13.6469 15.0837 13.6926 15.0597C16.4581 13.5811 19.2231 12.1011 21.9905 10.6258C22.0969 10.5692 22.234 10.5104 22.3414 10.5316C22.454 10.5537 22.5948 10.6517 22.6358 10.752C22.6772 10.8533 22.6334 11.0078 22.5854 11.1213C22.5529 11.1981 22.4526 11.2499 22.3758 11.3031C19.7172 13.1383 17.0577 14.972 14.3987 16.8067C14.3549 16.8369 14.3135 16.8708 14.2353 16.9306C14.4736 17.0187 14.6799 17.0993 14.8886 17.1723C16.6187 17.778 18.3503 18.3805 20.0799 18.9881C21.8096 19.5953 23.5374 20.2086 25.2665 20.8176C25.6655 20.958 26.0673 21.0909 26.4668 21.2308C26.5468 21.259 26.6297 21.292 26.6966 21.3424C26.8342 21.4465 26.8902 21.5925 26.8313 21.7593C26.7692 21.9345 26.6307 22.024 26.447 22.0056C26.308 21.9915 26.1714 21.9481 26.0353 21.9128C21.6282 20.764 17.2207 19.6146 12.8132 18.4662C12.7407 18.4469 12.6658 18.4342 12.5522 18.4102C14.923 25.2883 17.2805 32.1301 19.631 38.9503C20.5321 41.5777 20.1466 40.4701 20.5321 41.5777C21.1534 43.3616 21.7554 45.1525 22.396 46.9292C22.4747 47.1478 22.7465 47.2971 22.9594 47.5095C23.1101 47.0352 23.2321 46.632 23.3659 46.2325C23.6961 45.2462 24.1262 44.3074 24.7465 43.4666C25.2001 42.8519 25.6985 42.2838 26.4573 42.0285C26.4988 42.0149 26.5351 41.9852 26.5911 41.9532C26.1888 41.5024 25.8012 41.0634 25.4088 40.6291C24.4634 39.5839 23.7776 38.3893 23.3475 37.0492C23.1535 36.4439 22.99 35.8311 23.0772 35.182C23.1502 34.6365 23.3814 34.1952 23.7762 33.7929C27.7075 29.7839 31.6242 25.7607 35.5423 21.739C35.6322 21.6467 35.6897 21.5237 35.766 21.4178C35.8112 21.3551 35.856 21.2892 35.9139 21.2402C36.0967 21.0857 36.3039 20.9561 36.4698 20.7861C41.598 15.5345 46.7224 10.2791 51.8478 5.02463C52.0117 4.85647 52.1686 4.65204 52.4465 4.75944ZM51.9142 12.6074V6.03831C48.3583 9.68416 44.8326 13.2994 41.2696 16.9528C41.3808 16.9528 41.4331 16.9575 41.4844 16.9518C42.5198 16.8369 43.5551 16.7205 44.5905 16.6042C45.1976 16.5359 45.8043 16.461 46.412 16.3998C46.7243 16.3682 46.9617 16.6089 46.8571 16.8633C46.8039 16.9923 46.6706 17.1167 46.5429 17.1826C44.7516 18.104 42.955 19.0145 41.1604 19.9283C41.0949 19.9618 41.0322 20.0009 40.9131 20.0692C40.9979 20.1266 41.0563 20.1554 41.1015 20.1982C42.337 21.3796 43.5712 22.5629 44.8057 23.7452C45.1849 24.1088 45.575 24.4621 45.9367 24.8427C46.0276 24.9378 46.079 25.1314 46.0516 25.2591C46.03 25.3613 45.8722 25.4743 45.7544 25.5045C45.6517 25.5304 45.5114 25.4663 45.4049 25.4098C44.7883 25.0839 44.1769 24.7471 43.5636 24.415C42.289 23.7249 41.0139 23.0348 39.711 22.3302C39.6662 22.4201 39.63 22.4884 39.597 22.5581C39.1311 23.5516 38.6587 24.5417 38.2065 25.5412C38.1165 25.74 38.0713 25.9732 38.0642 26.1922C38.0449 26.7721 38.0614 27.3529 38.0567 27.9332C38.0548 28.1645 37.914 28.3284 37.7147 28.3402C37.4943 28.3529 37.3661 28.2285 37.3002 28.0288C37.2879 27.9921 37.2818 27.953 37.2729 27.9148C36.9017 26.4004 36.5315 24.886 36.1598 23.3721C36.0863 23.0725 36.0091 22.7739 35.9234 22.4338C32.0514 26.4042 28.2129 30.3397 24.3254 34.3252H25.5558C28.8675 34.541 29.837 34.6822 33.5672 35.702C36.7609 36.7113 39.5261 37.7105 42.9277 39.2212C44.0078 39.7586 45.0808 40.3092 46.1567 40.8552C46.1798 40.8669 46.2057 40.8731 46.2627 40.8938C46.2297 40.8161 46.2142 40.7732 46.1944 40.7322C45.6677 39.6465 45.1411 38.5603 44.614 37.4746C44.0667 36.3469 43.5179 35.2192 42.971 34.0911C42.8476 33.8362 42.8735 33.6422 43.0389 33.5155C43.207 33.3869 43.3879 33.4161 43.6084 33.6083C43.6437 33.6389 43.6781 33.6714 43.7129 33.7029C45.2033 35.0473 46.6941 36.3921 48.185 37.7365C48.2462 37.792 48.3108 37.8438 48.4035 37.9225C48.3951 37.8292 48.396 37.7821 48.3866 37.7374C48.0234 35.9724 47.6593 34.2079 47.2947 32.4429C47.225 32.1056 47.1435 31.7707 47.0827 31.4316C47.046 31.2276 47.1129 31.0533 47.323 30.9751C47.5246 30.9003 47.6697 30.9912 47.7841 31.156C47.8463 31.2455 47.9104 31.3355 47.9834 31.4165C48.8986 32.4288 49.8162 33.4387 50.7309 34.451C50.7875 34.5131 50.8289 34.5894 50.8939 34.6822C51.1723 34.2644 51.421 33.9125 51.6448 33.5451C51.7248 33.4132 51.7847 33.2451 51.7856 33.0934C51.8148 29.3764 51.8337 25.6595 51.86 21.942C51.861 21.7786 51.8125 21.691 51.6646 21.6156C50.9377 21.2468 50.2166 20.8666 49.4949 20.4874C49.0748 20.2665 49.03 20.006 49.347 19.6481C49.5689 19.3975 49.7931 19.1488 50.0169 18.8986C49.9636 18.8195 49.9259 18.7606 49.8854 18.7036C48.9104 17.3385 47.9349 15.9735 46.9608 14.607C46.8929 14.5118 46.8208 14.4139 46.7803 14.3065C46.688 14.0629 46.8543 13.8156 47.1148 13.8072C47.2217 13.8039 47.3324 13.8307 47.437 13.8604C48.3338 14.1143 49.2298 14.3724 50.1261 14.6287C50.2105 14.6527 50.2957 14.6729 50.4182 14.7045C50.3673 14.5783 50.3362 14.4987 50.3037 14.4195C50.0079 13.7026 49.7093 12.9866 49.4163 12.2683C49.3065 11.9998 49.3503 11.7699 49.5552 11.703C49.6881 11.6597 49.8694 11.6719 49.9985 11.7285C50.5656 11.9772 51.121 12.2513 51.681 12.5151C51.7465 12.5462 51.8162 12.5688 51.9142 12.6074ZM51.8775 20.8775V13.4317C51.4074 13.216 50.9519 13.0064 50.4493 12.7756C50.4978 12.9014 50.5242 12.9734 50.5534 13.0441C50.8252 13.7031 51.0984 14.3616 51.3692 15.021C51.4413 15.1977 51.4601 15.3748 51.3188 15.5279C51.1836 15.6734 51.0145 15.6668 50.8388 15.616C50.568 15.5378 50.2967 15.4619 50.0253 15.3847C49.3866 15.2029 48.7483 15.0206 48.0503 14.8218C48.1351 14.9461 48.1774 15.0111 48.2227 15.0747C49.038 16.217 49.8539 17.3588 50.6692 18.5011C50.9415 18.8831 50.9335 19.0093 50.6184 19.364C50.4483 19.5548 50.2773 19.7446 50.0932 19.95C50.6952 20.2628 51.2679 20.5605 51.8775 20.8775ZM51.7555 47.104V34.759C51.5981 34.9912 51.4658 35.2008 51.3183 35.3996C51.1247 35.6601 50.868 35.6785 50.6334 35.458C50.5595 35.3883 50.4931 35.3101 50.4243 35.2348C49.7295 34.4684 49.0347 33.7011 48.34 32.9347C48.2844 32.873 48.2269 32.8136 48.1299 32.7105C48.1445 32.8032 48.1478 32.8325 48.1539 32.8617C48.4657 34.3808 48.7775 35.8994 49.0898 37.4185C49.1845 37.8787 49.2792 38.3389 49.3748 38.7986C49.4158 38.996 49.404 39.1807 49.2151 39.2984C49.0135 39.4242 48.8407 39.3403 48.6819 39.2014C48.6466 39.1708 48.6122 39.1387 48.5774 39.1072C47.2966 37.9517 46.0163 36.7967 44.7356 35.6417C44.6682 35.581 44.5985 35.5226 44.5297 35.4632C44.5175 35.4712 44.5052 35.4792 44.4925 35.4872C44.5344 35.5763 44.5754 35.6658 44.6183 35.7543C45.484 37.5372 46.3498 39.3201 47.216 41.1029C47.2514 41.6748 47.7262 41.9084 48.0818 42.2381C49.5359 43.5844 50.6702 45.1708 51.5807 46.9236C51.616 46.9914 51.6537 47.0583 51.6905 47.1261C51.7121 47.1186 51.7338 47.111 51.7555 47.104ZM50.8209 48.3574C50.9867 48.2773 51.1313 48.1534 51.2788 48.0545C50.8412 47.0399 50.2891 46.1228 49.6824 45.2335C48.4784 43.4694 46.9598 42.0657 45.0507 41.0921C41.158 39.1076 37.1108 37.5104 32.9125 36.304C30.1192 35.5009 27.2675 35.0657 24.3541 35.0831C23.8572 35.0859 23.747 35.2169 23.811 35.7119C23.8134 35.7275 23.8172 35.743 23.819 35.7586C23.9024 36.4425 24.1403 37.0808 24.4045 37.7105C25.0518 39.2518 26.2034 40.4147 27.3273 41.597C27.3683 41.6404 27.4724 41.6588 27.5341 41.6423C28.9454 41.2617 30.1644 41.7572 31.3095 42.5019C32.0123 42.9588 32.6722 43.4807 33.3515 43.9734C34.4688 44.7841 35.5635 45.6282 36.7147 46.387C37.1302 46.6607 37.2587 46.9947 37.3327 47.4144C37.3515 47.5218 37.3586 47.6339 37.3511 47.7422C37.3313 48.0442 37.3016 48.3456 37.2729 48.6772C37.9158 48.8162 38.5626 48.9702 39.215 49.0941C40.8024 49.3951 42.4006 49.6052 44.0172 49.6758C45.1487 49.7253 46.2787 49.7229 47.3955 49.5529C48.6051 49.3683 49.7253 48.8878 50.8209 48.3574ZM44.444 17.3937C44.3427 17.3937 44.3046 17.3899 44.2669 17.3937C43.0214 17.5321 41.776 17.6702 40.5311 17.8138C40.4613 17.8218 40.3827 17.8652 40.3332 17.916C39.1043 19.1709 37.8777 20.4281 36.6553 21.6891C36.6059 21.7404 36.5687 21.8445 36.5842 21.91C36.8541 23.0443 37.1334 24.1762 37.4278 25.3787C37.4938 25.2515 37.5315 25.1856 37.5635 25.1168C38.0694 24.0381 38.5725 22.959 39.0807 21.8817C39.2583 21.5049 39.5343 21.4093 39.9102 21.5817C39.9814 21.6142 40.0497 21.6533 40.1184 21.6905C41.1109 22.2279 42.1029 22.7654 43.0954 23.3024C43.1604 23.3377 43.2287 23.3669 43.2951 23.3985C42.8368 22.9048 42.3568 22.4441 41.8768 21.9835C41.2993 21.43 40.7199 20.8789 40.1457 20.3216C39.833 20.0178 39.8763 19.7479 40.2612 19.5378C40.2885 19.5228 40.3167 19.5086 40.3445 19.494C41.6291 18.8398 42.9141 18.1855 44.1986 17.5307C44.265 17.4973 44.3286 17.4582 44.444 17.3932V17.3937ZM36.5376 48.2707C36.6195 47.9759 36.5541 47.6372 36.5381 47.3197C36.5343 47.2495 36.465 47.1638 36.4019 47.1181C35.2559 46.2825 34.1056 45.4516 32.9563 44.6202C32.8941 44.575 32.8291 44.5335 32.7438 44.4756C32.75 44.534 32.7481 44.5646 32.7565 44.5928C32.9417 45.225 32.9238 45.8632 32.7966 46.5001C32.5234 47.8689 31.7839 48.9919 30.9379 50.0687C29.814 51.4992 28.1338 52.0268 26.6071 52.8073C24.9966 53.2124 23.3777 53.5308 21.7036 53.2878C21.6711 53.2831 21.6372 53.2915 21.5934 53.2948C21.7545 53.5718 22.0211 53.5162 22.251 53.5539C23.7898 53.8073 25.3301 54.0499 26.8676 54.3137C28.3585 54.569 29.8427 54.8742 31.3679 54.8012C31.5135 54.7942 31.6647 54.7697 31.8003 54.7183C32.6025 54.414 33.2488 53.8742 33.8451 53.2831C35.2502 51.8902 36.0166 50.1403 36.5376 48.2707ZM31.7773 47.2914C32.0867 46.5769 32.2389 45.819 32.0858 45.0403C31.8404 43.7907 30.3754 42.4633 28.9896 42.322C27.5261 42.1731 26.2732 42.6465 25.3848 43.875C24.4055 45.2292 23.8751 46.7714 23.5746 48.3979C23.4672 48.9811 23.4888 49.5708 23.7027 50.137C23.9085 50.681 24.2858 51.0122 24.8864 51.0037C25.1968 50.9995 25.5181 50.9787 25.8144 50.8949C27.9293 50.2953 29.4357 48.3494 29.4998 46.1534C29.5144 45.6461 29.4513 45.1501 29.1757 44.7064C28.975 44.3837 28.7937 44.3074 28.4451 44.4454C28.2072 44.5396 27.9675 44.6569 27.7664 44.8128C26.6679 45.6631 25.7974 46.697 25.3047 48.0131C25.2213 48.2354 25.1756 48.4841 25.1733 48.7215C25.1695 49.047 25.356 49.202 25.6811 49.2109C25.9938 49.2194 26.2647 49.1012 26.5087 48.9194C26.886 48.6386 27.187 48.2886 27.3886 47.8633C27.5596 47.5029 27.7871 47.1492 27.4748 46.7314C27.3617 46.5797 27.4286 46.3748 27.6057 46.2599C27.7649 46.1562 27.9298 46.1793 28.056 46.314C28.3194 46.5952 28.4795 46.917 28.3844 47.3183C28.1521 48.2995 27.6354 49.0946 26.7814 49.6339C26.5124 49.804 26.1785 49.9081 25.861 49.9575C25.1276 50.071 24.5718 49.6438 24.4328 48.9161C24.3494 48.4813 24.4648 48.0757 24.6198 47.6786C25.169 46.274 26.0975 45.1567 27.2736 44.2396C27.5417 44.0309 27.8559 43.8637 28.1733 43.7407C28.8846 43.4661 29.4447 43.6819 29.837 44.3366C30.1008 44.777 30.2176 45.2613 30.2454 45.769C30.3062 46.8807 30.0438 47.9193 29.4889 48.877C28.5846 50.4361 27.2487 51.4177 25.4682 51.7381C24.422 51.9265 23.6137 51.5666 23.169 50.7555C23.0211 50.4856 22.8958 50.1784 22.8605 49.8765C22.7945 49.3056 22.8016 48.7267 22.7776 48.1384C22.6608 48.1629 22.51 48.201 22.3574 48.2255C22.0324 48.2769 21.7022 48.3009 21.3824 48.372C20.688 48.5256 20.1487 48.9264 19.7926 49.5308C19.3753 50.2402 19.4572 50.9623 19.8873 51.6405C19.9937 51.8092 20.176 51.9415 20.347 52.0551C20.5594 52.1964 20.7337 52.3721 21.0215 52.4324C22.7422 52.7922 24.4229 52.5643 26.0984 52.1634C26.1578 52.1493 26.2152 52.121 26.2694 52.0913C26.4512 51.9924 26.6213 51.8615 26.8139 51.7946C27.7367 51.4747 28.6312 51.1026 29.4051 50.4884C30.481 49.6344 31.2374 48.5383 31.7773 47.2914ZM21.7116 47.5411C21.4568 47.3762 21.2462 47.2688 21.0715 47.12C20.6635 46.7728 20.2099 46.746 19.7055 46.8265C18.2834 47.0545 17.3879 48.2076 17.5891 49.6047C17.631 49.8958 17.6484 50.2486 17.8208 50.4493C18.0954 50.7691 18.4906 50.9853 18.8858 51.2835C18.6791 50.3141 18.7954 49.4818 19.4087 48.7616C19.9966 48.072 20.738 47.6574 21.7116 47.5411ZM19.4176 46.0879C19.3324 46.0309 19.2749 45.9918 19.216 45.9542C18.0794 45.2288 16.9404 44.5071 15.8076 43.7761C15.5914 43.6362 15.3813 43.5434 15.1128 43.5462C14.7176 43.5504 14.3973 43.3291 14.3186 43.0036C14.2748 42.8213 14.175 42.7266 14.029 42.639C12.8537 41.9315 11.6554 41.2574 10.5192 40.4915C10.0557 40.1792 9.57292 40.0214 9.06043 39.8886C8.856 39.8359 8.64403 39.7883 8.43489 39.7859C8.02226 39.7817 7.60303 39.7728 7.19747 39.8359C6.79426 39.899 6.51399 40.1703 6.47112 40.5947C6.41601 41.1373 6.58841 41.646 6.77777 42.1458C6.78766 42.1717 6.81969 42.1915 6.84419 42.2103C7.73728 42.9004 8.6299 43.5919 9.5277 44.2758C9.5781 44.314 9.69115 44.3192 9.74862 44.289C10.3737 43.9645 10.9907 43.6244 11.6163 43.3008C11.7812 43.2155 11.9653 43.1628 12.1457 43.1143C12.4774 43.0248 12.7901 43.0606 13.0318 43.33C13.2762 43.6018 13.2795 43.9353 13.1377 44.2349C12.9823 44.5637 12.775 44.8731 12.5537 45.1638C12.3327 45.4534 12.0671 45.7087 11.8056 45.9966C13.476 47.2425 15.1331 48.4789 16.818 49.7366C16.8472 47.6028 17.3856 46.852 19.4176 46.0879ZM17.103 18.8063C17.1053 18.7908 17.1072 18.7752 17.1091 18.7597C17.0902 18.747 17.0728 18.7295 17.0521 18.7225C15.8618 18.3051 14.6724 17.8868 13.4811 17.4733C13.2809 17.404 13.0897 17.331 13.0572 17.0884C13.0266 16.859 13.1745 16.7323 13.3436 16.616C14.2414 15.9989 15.1378 15.379 16.0342 14.7601C16.1246 14.6974 16.2136 14.6329 16.3031 14.5693C15.4006 15.0036 14.5235 15.4728 13.6455 15.94C13.1797 16.1878 12.9442 16.078 12.8405 15.5665C12.3794 13.2853 11.9187 11.004 11.4576 8.72229C11.3808 8.34405 11.3016 7.96627 11.2234 7.5885C11.1985 7.67235 11.1942 7.75054 11.1989 7.82826C11.2894 9.33841 11.3798 10.8486 11.4731 12.3582C11.5329 13.3286 11.5904 14.2989 11.6658 15.2679C11.6832 15.4892 11.694 15.6857 11.4632 15.7836C11.2296 15.883 11.0817 15.7441 10.9526 15.5651C9.67466 13.7902 8.39485 12.0167 7.11503 10.2438C7.07829 10.1929 7.03354 10.1486 6.99256 10.1015C7.05144 10.3252 7.13341 10.5278 7.21537 10.7308C7.63459 11.7614 8.05759 12.7907 8.46974 13.8241C8.6266 14.217 8.41322 14.4841 7.99776 14.4313C7.56252 14.3757 7.12822 14.3121 6.69346 14.2542C6.3609 14.2094 6.02787 14.1685 5.69485 14.1256C5.7396 14.2014 5.79188 14.233 5.84747 14.2589C6.71324 14.6635 7.58042 15.0663 8.44572 15.4718C8.93278 15.7003 8.98836 15.8929 8.70856 16.3508C7.2295 18.771 5.75043 21.1917 4.27231 23.6123C4.23745 23.6693 4.21013 23.7306 4.17951 23.7894C4.26289 23.748 4.31989 23.6886 4.3717 23.625C5.6826 22.0136 6.99256 20.4017 8.30347 18.7903C8.65957 18.3522 9.01521 17.9142 9.37414 17.4784C9.49802 17.3282 9.65347 17.2448 9.85083 17.3225C10.0345 17.3946 10.1014 17.5472 10.1047 17.7347C10.1057 17.7973 10.1057 17.8605 10.1057 17.9231C10.1057 19.6316 10.1057 21.3405 10.1066 23.0494C10.1066 23.1262 10.1127 23.203 10.1189 23.3401C10.157 23.2515 10.1735 23.2242 10.1806 23.1945C10.4198 22.1479 10.6544 21.1003 10.898 20.0546C11.0934 19.2161 11.2913 18.3777 11.5098 17.5444C11.5405 17.4276 11.6841 17.2872 11.7991 17.2604C11.9046 17.2359 12.0454 17.3437 12.1646 17.405C12.264 17.4558 12.3464 17.5519 12.4491 17.5802C13.4924 17.8652 14.5386 18.1412 15.5843 18.4172C16.0898 18.5501 16.5966 18.6768 17.103 18.8063Z"
      fill="#3D2A26" />
    <path
      d="M51.8773 13.4315V20.8773C51.2678 20.5603 50.695 20.2626 50.093 19.9498C50.2772 19.7444 50.4482 19.5546 50.6182 19.3638C50.9333 19.0091 50.9413 18.8829 50.6691 18.5009C49.8537 17.3586 49.0379 16.2168 48.2225 15.0745C48.1773 15.0109 48.1349 14.9459 48.0501 14.8216C48.7482 15.0204 49.3864 15.2027 50.0252 15.3845C50.2965 15.4617 50.5678 15.5376 50.8387 15.6158C51.0144 15.6666 51.1835 15.6732 51.3187 15.5277C51.46 15.3746 51.4411 15.1975 51.3691 15.0208C51.0982 14.3614 50.825 13.7029 50.5532 13.0439C50.524 12.9732 50.4976 12.9012 50.4491 12.7754C50.9517 13.0062 51.4072 13.2158 51.8773 13.4315Z"
      fill="#FFC736" />
    <path
      d="M51.7553 34.7589V47.1038C51.7337 47.1109 51.712 47.1184 51.6903 47.1259C51.6536 47.0581 51.6159 46.9912 51.5806 46.9234C50.6701 45.1707 49.5358 43.5842 48.0817 42.238C47.7261 41.9082 47.2512 41.6746 47.2159 41.1028C46.3497 39.3199 45.4839 37.537 44.6181 35.7542C44.5753 35.6656 44.5343 35.5761 44.4924 35.4871C44.5051 35.4791 44.5173 35.4711 44.5296 35.4631C44.5984 35.5224 44.6681 35.5808 44.7354 35.6416C46.0162 36.7966 47.2965 37.9516 48.5772 39.107C48.6121 39.1386 48.6465 39.1706 48.6818 39.2012C48.8405 39.3402 49.0134 39.424 49.215 39.2983C49.4039 39.1805 49.4157 38.9958 49.3747 38.7985C49.2791 38.3387 49.1844 37.8785 49.0897 37.4183C48.7774 35.8992 48.4656 34.3806 48.1538 32.8615C48.1476 32.8323 48.1443 32.8031 48.1297 32.7103C48.2268 32.8135 48.2842 32.8728 48.3398 32.9345C49.0346 33.7009 49.7294 34.4682 50.4242 35.2346C50.4929 35.31 50.5594 35.3882 50.6333 35.4579C50.8679 35.6783 51.1246 35.6599 51.3182 35.3995C51.4656 35.2007 51.598 34.9911 51.7553 34.7589Z"
      fill="#FFC736" />
    <path
      d="M51.2786 48.0544C51.1311 48.1533 50.9865 48.2772 50.8207 48.3573C49.7251 48.8876 48.6049 49.3681 47.3953 49.5528C46.2785 49.7228 45.1485 49.7252 44.017 49.6757C42.4004 49.605 40.8022 49.395 39.2148 49.094C38.5624 48.9701 37.9156 48.816 37.2727 48.6771C37.3014 48.3455 37.3311 48.044 37.3509 47.7421C37.3584 47.6337 37.3513 47.5216 37.3325 47.4142C37.2585 46.9945 37.13 46.6606 36.7145 46.3869C35.5633 45.6281 34.4686 44.7839 33.3513 43.9733C32.672 43.4806 32.0121 42.9587 31.3093 42.5018C30.1642 41.757 28.9452 41.2615 27.5339 41.6421C27.4722 41.6586 27.3681 41.6402 27.3271 41.5969C26.2032 40.4146 25.0516 39.2517 24.4043 37.7104C24.1401 37.0807 23.9022 36.4424 23.8188 35.7584C23.817 35.7429 23.8132 35.7273 23.8108 35.7118C23.7468 35.2167 23.857 35.0858 24.3539 35.0829C27.2673 35.0655 30.119 35.5007 32.9123 36.3039C37.1106 37.5102 41.1578 39.1075 45.0505 41.0919C46.9596 42.0656 48.4782 43.4693 49.6822 45.2333C50.2889 46.1226 50.841 47.0398 51.2786 48.0544Z"
      fill="#815252" />
    <path
      d="M44.2667 17.394C44.3044 17.3898 44.3425 17.394 44.4438 17.394C44.3284 17.459 44.2648 17.4981 44.1984 17.5316C42.9139 18.1863 41.6289 18.8406 40.3443 19.4949C40.3165 19.5095 40.2883 19.5236 40.261 19.5387C39.8761 19.7487 39.8328 20.0187 40.1456 20.3225C40.7197 20.8797 41.2991 21.4308 41.8766 21.9843C42.3566 22.445 42.8366 22.9057 43.2949 23.3993C43.2285 23.3677 43.1602 23.3385 43.0952 23.3032C42.1027 22.7662 41.1107 22.2288 40.1182 21.6913C40.0495 21.6541 39.9812 21.615 39.91 21.5825C39.5341 21.4101 39.2581 21.5057 39.0805 21.8826C38.5723 22.9598 38.0692 24.039 37.5633 25.1177C37.5313 25.1864 37.4936 25.2524 37.4277 25.3796C37.1333 24.177 36.8539 23.0451 36.584 21.9108C36.5685 21.8453 36.6057 21.7412 36.6551 21.6899C37.8775 20.4289 39.1041 19.1717 40.333 17.9169C40.3825 17.866 40.4612 17.8227 40.5309 17.8147C41.7758 17.671 43.0212 17.533 44.2667 17.3945V17.394Z"
      fill="#FFC736" />
    <path
      d="M36.5379 47.3196C36.5539 47.6371 36.6194 47.9757 36.5374 48.2706C36.0164 50.1402 35.2501 51.8901 33.8449 53.2829C33.2486 53.8741 32.6023 54.4139 31.8002 54.7182C31.6645 54.7695 31.5133 54.794 31.3677 54.8011C29.8425 54.8741 28.3583 54.5689 26.8674 54.3136C25.33 54.0498 23.7897 53.8072 22.2508 53.5538C22.0209 53.5161 21.7543 53.5717 21.5932 53.2947C21.637 53.2914 21.6709 53.2829 21.7034 53.2876C23.3775 53.5307 24.9965 53.2123 26.6069 52.8072C28.1336 52.0267 29.8138 51.4991 30.9377 50.0686C31.7837 48.9918 32.5232 47.8688 32.7964 46.5C32.9236 45.8631 32.9415 45.2249 32.7564 44.5927C32.7479 44.5645 32.7498 44.5338 32.7437 44.4754C32.8289 44.5334 32.8939 44.5748 32.9561 44.62C34.1054 45.4514 35.2557 46.2823 36.4017 47.118C36.4649 47.1637 36.5341 47.2494 36.5379 47.3196Z"
      fill="#95C29A" />
    <path
      d="M32.0856 45.0402C32.2386 45.8188 32.0865 46.5767 31.777 47.2913C31.2372 48.5381 30.4807 49.6342 29.4049 50.4882C28.6309 51.1025 27.7364 51.4746 26.8137 51.7944C26.621 51.8613 26.451 51.9923 26.2692 52.0912C26.215 52.1209 26.1575 52.1491 26.0982 52.1633C24.4227 52.5641 22.742 52.7921 21.0213 52.4322C20.7335 52.3719 20.5592 52.1962 20.3468 52.0549C20.1758 51.9414 19.9935 51.809 19.887 51.6404C19.457 50.9621 19.375 50.24 19.7924 49.5306C20.1485 48.9263 20.6878 48.5254 21.3821 48.3719C21.702 48.3007 22.0322 48.2767 22.3572 48.2254C22.5098 48.2009 22.6605 48.1627 22.7773 48.1382C22.8014 48.7266 22.7943 49.3055 22.8602 49.8764C22.8956 50.1783 23.0209 50.4854 23.1688 50.7553C23.6134 51.5665 24.4217 51.9263 25.4679 51.7379C27.2484 51.4176 28.5843 50.436 29.4887 48.8768C30.0436 47.9192 30.306 46.8806 30.2452 45.7689C30.2174 45.2611 30.1006 44.7769 29.8368 44.3365C29.4444 43.6817 28.8844 43.466 28.1731 43.7406C27.8556 43.8635 27.5414 44.0308 27.2734 44.2394C26.0972 45.1565 25.1688 46.2739 24.6196 47.6785C24.4646 48.0756 24.3492 48.4811 24.4326 48.9159C24.5715 49.6437 25.1274 50.0709 25.8608 49.9574C26.1782 49.9079 26.5122 49.8038 26.7812 49.6338C27.6352 49.0944 28.1519 48.2993 28.3841 47.3182C28.4793 46.9168 28.3191 46.5951 28.0558 46.3139C27.9296 46.1792 27.7647 46.1561 27.6055 46.2597C27.4284 46.3747 27.3615 46.5796 27.4745 46.7312C27.7868 47.149 27.5593 47.5028 27.3883 47.8631C27.1867 48.2885 26.8857 48.6385 26.5084 48.9192C26.2644 49.101 25.9936 49.2193 25.6808 49.2108C25.3558 49.2018 25.1693 49.0469 25.173 48.7214C25.1754 48.484 25.2211 48.2353 25.3045 48.0129C25.7972 46.6969 26.6677 45.6629 27.7661 44.8127C27.9673 44.6568 28.207 44.5395 28.4449 44.4453C28.7935 44.3073 28.9748 44.3836 29.1755 44.7062C29.451 45.15 29.5141 45.646 29.4995 46.1533C29.4355 48.3493 27.9291 50.2951 25.8141 50.8948C25.5178 50.9786 25.1966 50.9993 24.8862 51.0036C24.2856 51.012 23.9083 50.6809 23.7025 50.1369C23.4886 49.5707 23.4669 48.9809 23.5743 48.3978C23.8749 46.7713 24.4053 45.2291 25.3845 43.8748C26.2729 42.6464 27.5259 42.173 28.9894 42.3218C30.3752 42.4631 31.8401 43.7905 32.0856 45.0402Z"
      fill="#CCECE2" />
    <path
      d="M21.0713 47.1198C21.2461 47.2687 21.4566 47.3761 21.7115 47.5409C20.7378 47.6573 19.9964 48.0718 19.4085 48.7614C18.7952 49.4816 18.6789 50.314 18.8857 51.2834C18.4905 50.9852 18.0953 50.769 17.8207 50.4491C17.6483 50.2485 17.6308 49.8957 17.5889 49.6046C17.3878 48.2075 18.2832 47.0544 19.7053 46.8264C20.2098 46.7458 20.6634 46.7727 21.0713 47.1198Z"
      fill="#919793" />
    <path
      d="M19.2159 45.954C19.2748 45.9917 19.3323 46.0308 19.4175 46.0878C17.3855 46.8518 16.8471 47.6026 16.8178 49.7365C15.1329 48.4788 13.4758 47.2423 11.8055 45.9964C12.0669 45.7086 12.3326 45.4533 12.5535 45.1636C12.7749 44.873 12.9822 44.5635 13.1376 44.2347C13.2794 43.9351 13.2761 43.6016 13.0316 43.3298C12.79 43.0604 12.4772 43.0246 12.1456 43.1141C11.9652 43.1626 11.781 43.2154 11.6162 43.3006C10.9906 43.6242 10.3736 43.9643 9.74849 44.2889C9.69102 44.319 9.57797 44.3138 9.52757 44.2757C8.62977 43.5917 7.73715 42.9003 6.84406 42.2102C6.81956 42.1913 6.78753 42.1716 6.77764 42.1457C6.58828 41.6459 6.41588 41.1372 6.47099 40.5945C6.51386 40.1701 6.79413 39.8988 7.19734 39.8357C7.6029 39.7726 8.02213 39.7815 8.43476 39.7857C8.6439 39.7881 8.85587 39.8357 9.0603 39.8884C9.57279 40.0213 10.0556 40.1791 10.5191 40.4914C11.6553 41.2573 12.8536 41.9313 14.0288 42.6388C14.1748 42.7264 14.2747 42.8211 14.3185 43.0034C14.3972 43.3289 14.7175 43.5503 15.1127 43.5461C15.3812 43.5432 15.5913 43.636 15.8075 43.7759C16.9403 44.507 18.0793 45.2286 19.2159 45.954Z"
      fill="#699A76" />
    <path
      d="M17.109 18.7594C17.1071 18.775 17.1052 18.7905 17.1029 18.8061C16.5965 18.6765 16.0897 18.5498 15.5843 18.417C14.5385 18.141 13.4924 17.8649 12.449 17.58C12.3463 17.5517 12.2639 17.4556 12.1645 17.4047C12.0453 17.3435 11.9045 17.2356 11.799 17.2601C11.684 17.287 11.5404 17.4273 11.5098 17.5442C11.2912 18.3774 11.0934 19.2159 10.8979 20.0543C10.6544 21.1 10.4198 22.1476 10.1805 23.1943C10.1734 23.2239 10.1569 23.2513 10.1188 23.3398C10.1127 23.2027 10.1065 23.126 10.1065 23.0492C10.1056 21.3403 10.1056 19.6313 10.1056 17.9229C10.1056 17.8602 10.1056 17.7971 10.1047 17.7344C10.1014 17.547 10.0345 17.3944 9.85076 17.3223C9.6534 17.2446 9.49795 17.3279 9.37407 17.4782C9.01514 17.9139 8.6595 18.352 8.3034 18.7901C6.99249 20.4015 5.68253 22.0134 4.37163 23.6248C4.31981 23.6884 4.26282 23.7477 4.17944 23.7892C4.21006 23.7303 4.23738 23.6691 4.27224 23.6121C5.75036 21.1914 7.22942 18.7707 8.70849 16.3505C8.98829 15.8927 8.9327 15.7 8.44565 15.4716C7.58035 15.066 6.71317 14.6633 5.8474 14.2586C5.79181 14.2327 5.73953 14.2012 5.69478 14.1253C6.0278 14.1682 6.36083 14.2092 6.69338 14.2539C7.12815 14.3119 7.56245 14.3755 7.99769 14.431C8.41315 14.4838 8.62653 14.2167 8.46967 13.8239C8.05751 12.7904 7.63452 11.7612 7.21529 10.7306C7.13333 10.5275 7.05137 10.325 6.99249 10.1013C7.03347 10.1484 7.07822 10.1926 7.11496 10.2435C8.39478 12.0165 9.67459 13.79 10.9525 15.5648C11.0816 15.7438 11.2295 15.8828 11.4631 15.7834C11.6939 15.6854 11.6831 15.489 11.6657 15.2676C11.5903 14.2987 11.5328 13.3283 11.473 12.358C11.3798 10.8483 11.2893 9.33817 11.1989 7.82802C11.1942 7.75029 11.1984 7.6721 11.2234 7.58826C11.3016 7.96603 11.3807 8.3438 11.4575 8.72205C11.9186 11.0038 12.3793 13.285 12.8404 15.5663C12.9441 16.0778 13.1796 16.1876 13.6455 15.9398C14.5235 15.4725 15.4006 15.0034 16.3031 14.5691C16.2136 14.6327 16.1245 14.6972 16.0341 14.7598C15.1377 15.3788 14.2413 15.9987 13.3435 16.6157C13.1744 16.7321 13.0265 16.8588 13.0571 17.0882C13.0896 17.3308 13.2809 17.4038 13.4811 17.473C14.6723 17.8866 15.8617 18.3049 17.052 18.7222C17.0727 18.7293 17.0902 18.7467 17.109 18.7594Z"
      fill="#FFD698" />
    <path
      d="M36.7711 52.8839C36.2525 52.8839 35.7291 52.85 35.2025 52.7817L35.293 52.0808C36.7193 52.2655 38.1187 52.1845 39.4532 51.8401C44.4019 50.5641 46.8622 46.044 47.4981 44.6893L48.1377 44.9898C47.5508 46.2399 46.718 47.5146 45.7924 48.5791C44.0406 50.5942 41.9671 51.9221 39.6298 52.5245C38.7019 52.7638 37.7452 52.8839 36.7711 52.8839Z"
      fill="#3D2A26" />
    <path
      d="M48.4811 45.6601C48.1679 45.6601 47.8678 45.5833 47.6102 45.4269C47.1961 45.1749 46.9027 44.7166 46.8056 44.1697C46.6888 43.5112 46.8725 42.8188 47.3101 42.2705L47.8627 42.7109C47.5518 43.1004 47.4204 43.5875 47.5014 44.0463C47.5621 44.3883 47.7402 44.6789 47.9771 44.823C48.3657 45.0595 48.9687 44.9667 49.4435 44.5974L49.8778 45.1547C49.4505 45.4877 48.9512 45.6601 48.4811 45.6601Z"
      fill="#3D2A26" />
    <path
      d="M25.491 43.2917C25.3002 43.1565 24.6723 42.6435 24.5965 41.726C24.5159 40.7486 25.141 40.1103 25.2673 39.9921L25.7501 40.5079C25.6983 40.5564 25.2456 41.0006 25.3007 41.668C25.3525 42.2973 25.8089 42.6511 25.8999 42.7156L25.491 43.2917Z"
      fill="#3D2A26" />
  </g>
</svg>
