<svg xmlns="http://www.w3.org/2000/svg" width="46" height="55" viewBox="0 0 46 55" fill="none">
  <mask id="mask0_229_26412" style="mask-type:luminance" maskUnits="userSpaceOnUse" x="0" y="0"
    width="46" height="55">
    <path d="M45.9423 0.621704H0.0577393V55H45.9423V0.621704Z" fill="white" />
  </mask>
  <g mask="url(#mask0_229_26412)">
    <path
      d="M41.2463 15.7806C41.1911 15.864 41.1732 15.9014 41.1461 15.9306C39.825 17.3579 38.2992 18.4776 36.4155 19.0499C36.1599 19.1278 35.8876 19.1522 35.6212 19.1934C35.3017 19.2421 35.0435 19.1149 34.7917 18.8707C37.1811 18.333 39.172 17.04 41.2463 15.7806Z"
      fill="#815252" />
    <path
      d="M24.5112 13.8563C24.3461 15.7405 24.1885 17.5409 24.0288 19.3563C23.5962 19.2952 23.1901 19.2047 22.7802 19.189C22.2328 19.1679 21.6827 19.208 21.1337 19.2129C21.0454 19.2134 20.9404 19.1928 20.8711 19.143C19.8098 18.3779 19.3453 17.2609 19.067 16.041C18.9181 15.3881 19.1325 14.7919 19.4086 14.2174C19.5169 13.9922 19.662 13.7832 19.8039 13.5758C19.9219 13.4031 20.0925 13.3527 20.2744 13.4692C20.7411 13.7675 21.1932 13.7285 21.6432 13.4372C21.8305 13.3159 22.0184 13.3311 22.203 13.4453C22.3714 13.5498 22.5431 13.65 22.7055 13.7632C23.0715 14.0182 23.4657 14.062 23.8918 13.9581C24.077 13.9126 24.2692 13.8953 24.5112 13.8563Z"
      fill="#FF6662" />
    <path
      d="M18.2412 8.94968C18.6522 9.96652 18.9911 11.0012 18.9083 12.1226C18.8877 12.3998 18.8498 12.6759 18.8152 12.9954C18.199 12.1199 17.6245 11.2806 17.0262 10.4582C15.8101 8.78725 14.3222 7.36432 12.8684 5.9089C12.1884 5.2283 11.5554 4.49735 10.9322 3.76314C10.721 3.51461 10.6176 3.17837 10.4438 2.89465C10.2316 2.54813 10.3269 2.20052 10.4135 1.85453C10.466 1.64282 10.929 1.42408 11.2008 1.521C11.7238 1.7078 12.268 1.88052 12.732 2.17236C13.2924 2.52485 13.8143 2.958 14.2903 3.42094C15.939 5.02255 17.369 6.78984 18.2412 8.94968Z"
      fill="#9A4C4A" />
    <path
      d="M43.1771 12.8747C42.8804 13.1785 42.6097 13.4909 42.3032 13.7638C40.2224 15.6171 37.8525 16.98 35.2092 17.8555C34.7614 18.0039 34.2747 18.0396 33.8025 18.1029C33.6747 18.1203 33.5134 18.0802 33.4035 18.0098C31.0574 16.5073 28.5082 15.4802 25.8275 14.7589C25.6721 14.7178 25.5113 14.6978 25.3289 14.6637C25.298 14.5055 25.3034 14.355 25.4815 14.244C27.1871 13.1774 28.8775 12.082 30.7222 11.2655C31.203 11.0522 31.7277 10.9298 32.2404 10.7982C32.6774 10.6856 33.1035 10.8031 33.502 10.9861C34.2048 11.3099 34.4485 11.9981 34.1133 12.702C33.8356 13.2857 33.417 13.7551 32.8761 14.1065C32.1484 14.5803 31.386 14.9869 30.5511 15.2446C30.4742 15.2685 30.3957 15.2955 30.327 15.3367C30.144 15.4455 30.0627 15.6096 30.1212 15.8186C30.1764 16.0162 30.3237 16.1153 30.5251 16.1142C30.6313 16.1142 30.7412 16.0925 30.8424 16.0601C31.8474 15.7384 32.7824 15.2701 33.6217 14.6344C34.3185 14.107 34.8567 13.4416 35.0668 12.5682C35.2856 11.6564 34.9136 10.7972 34.1068 10.3234C33.3342 9.8702 32.5058 9.80739 31.6486 10.0164C30.5852 10.2757 29.6323 10.7923 28.6815 11.3099C28.1195 11.6164 27.571 11.9477 27.0165 12.2677C26.9738 12.2921 26.9299 12.3148 26.8861 12.3381C27.8065 10.5871 28.7167 8.83116 29.6496 7.08661C30.6416 5.23106 32.1165 3.81301 33.7971 2.58879C33.8253 2.56822 33.8583 2.55414 33.9092 2.52653C36.99 5.96689 40.0708 9.40618 43.1771 12.8747Z"
      fill="#FF6662" />
    <path
      d="M29.0063 17.9314C29.3447 18.1257 29.5981 18.4154 29.7898 18.867C29.5055 18.7711 29.2895 18.7165 29.0886 18.6277C27.7902 18.0537 26.6954 17.1977 25.724 16.1738C25.6493 16.0953 25.5822 16.0081 25.4988 15.9404C25.417 15.8733 25.3185 15.8257 25.2086 15.758C25.2232 15.6816 25.2394 15.5977 25.2584 15.4997C25.4333 15.5511 25.5865 15.5961 25.7587 15.647C25.6504 16.0476 25.8919 16.2036 26.1983 16.3671C27.1437 16.8712 28.0772 17.3969 29.0063 17.9314Z"
      fill="#9A4C4A" />
    <path
      d="M16.6483 16.1564C16.6342 16.1851 16.6201 16.2144 16.606 16.2431C15.9249 16.0768 15.241 15.9198 14.5631 15.7417C13.1343 15.3659 11.7075 14.9831 10.283 14.5933C9.95377 14.5034 9.63215 14.3816 9.31432 14.2554C9.1573 14.1931 9.00407 14.1038 8.87359 13.9966C8.76963 13.911 8.70357 13.7789 8.62073 13.6679C8.73822 13.597 8.85409 13.4692 8.97375 13.466C9.46485 13.4524 9.97002 13.4091 10.447 13.4995C12.0838 13.8098 13.5772 14.5191 15.0494 15.2679C15.5924 15.5446 16.116 15.8592 16.6483 16.1564Z"
      fill="#9A4C4A" />
    <path
      d="M18.3543 16.8993C18.5557 17.3655 18.748 17.8095 18.9494 18.2757C18.1702 18.3997 17.4014 18.5772 16.6233 18.6341C13.9014 18.8339 11.1985 18.6872 8.53406 18.0504C6.80684 17.6373 5.35846 16.7731 4.31834 15.3161C4.02054 14.8992 3.84403 14.394 3.63232 13.9197C3.59334 13.832 3.61716 13.6815 3.66914 13.5927C5.64489 10.2135 7.62713 6.83809 9.60938 3.46269C9.62725 3.43237 9.6527 3.40584 9.67977 3.37064C9.84816 3.65653 9.97594 3.96353 10.1806 4.2061C10.8076 4.94951 11.4292 5.70321 12.1157 6.38922C13.5647 7.83814 15.0526 9.24808 16.2741 10.9033C16.7722 11.5785 17.2601 12.2623 17.7214 12.9624C17.9158 13.257 18.0295 13.6051 18.1794 13.9289C18.1946 13.9614 18.1951 14.0112 18.2195 14.028C18.52 14.2332 18.3359 14.472 18.2883 14.7167C18.2087 15.1293 18.1681 15.55 18.1069 15.9983C18.0538 15.9707 17.971 15.9339 17.893 15.8873C16.3677 14.9739 14.8225 14.1 13.1678 13.4351C12.1867 13.0409 11.1893 12.6982 10.1362 12.5601C9.58664 12.4881 9.03653 12.4924 8.50699 12.6922C7.64879 13.0149 7.45008 13.8726 8.12689 14.4904C8.42523 14.7627 8.79775 14.9983 9.17839 15.1282C9.96944 15.3984 10.7881 15.5879 11.5965 15.8077C12.9967 16.1878 14.3947 16.5777 15.7998 16.9377C16.3927 17.0899 17.0012 17.1803 17.6039 17.2918C17.9103 17.3482 17.9531 17.3195 18.3543 16.8993Z"
      fill="#FF6662" />
    <path
      d="M13.9762 19.6519C13.9626 19.659 13.8895 19.6963 13.8159 19.7337C12.5462 20.3758 11.2532 20.9763 10.0138 21.6721C8.84594 22.3283 7.83288 23.2049 6.92054 24.1903C6.63249 24.5011 6.34552 24.813 6.05855 25.1254C5.43589 25.8028 4.82188 26.4872 4.3871 27.3816C3.46609 25.7741 2.25921 24.4535 1.10538 23.0928C0.948898 22.9082 0.915327 22.7658 1.06206 22.5519C2.31768 20.7262 3.75902 19.0969 5.76455 18.0579C5.85064 18.0135 5.99791 17.9913 6.07371 18.0341C7.23187 18.6903 8.50157 19.0043 9.7978 19.1874C11.1958 19.385 12.6058 19.503 13.9762 19.6519Z"
      fill="#FF6662" />
    <path
      d="M28.6555 16.6177C31.9475 17.8901 34.8545 19.7852 37.5136 22.1519C35.3575 24.0789 33.1912 26.0146 31.0032 27.9698C30.935 27.8317 30.8792 27.7202 30.8245 27.6081C29.6501 25.1975 28.251 22.9316 26.475 20.9131C26.011 20.3857 25.5031 19.8968 25.0175 19.3889C24.9768 19.3466 24.9178 19.2898 24.9216 19.2438C24.9801 18.456 25.0478 17.6692 25.1128 16.8825C25.1512 16.8554 25.1891 16.8289 25.227 16.8018C25.2871 16.9009 25.3299 17.0184 25.41 17.0964C26.4057 18.0667 27.4962 18.9075 28.7919 19.4387C29.1341 19.5789 29.518 19.6623 29.8873 19.6807C30.452 19.7094 30.7758 19.2562 30.6366 18.7002C30.4888 18.1127 30.1217 17.6719 29.6485 17.3195C29.3236 17.078 28.9776 16.8652 28.6555 16.6177Z"
      fill="#FF6662" />
    <path
      d="M9.85904 49.4361C9.83955 49.4453 9.82006 49.455 9.80003 49.4642C9.6625 49.2948 9.53797 49.1117 9.38365 48.9585C8.96349 48.5416 8.77019 48.0494 8.74366 47.4538C8.69547 46.3736 8.58447 45.2967 8.52708 44.2165C8.428 42.3436 8.34624 40.4696 8.26339 38.5956C8.23416 37.9377 8.21791 37.2793 8.20329 36.6209C8.14103 33.852 8.08851 31.083 8.01812 28.314C7.9878 27.1153 7.92607 25.917 7.8703 24.7188C7.8611 24.5293 7.91632 24.3939 8.0571 24.271C8.40146 23.9716 8.73716 23.6624 9.13134 23.3078C9.37553 32.0728 9.61756 40.7544 9.85904 49.4361Z"
      fill="#9A4C4A" />
    <path
      d="M34.3883 26.1235C34.3883 26.5382 34.3953 26.9021 34.3867 27.2659C34.3612 28.3304 34.3239 29.3944 34.3022 30.4583C34.2556 32.7227 34.2188 34.9875 34.1723 37.2519C34.1019 40.6885 34.0277 44.1255 33.953 47.5621C33.9216 49.0148 33.8799 50.467 33.8566 51.9192C33.8528 52.1693 33.7916 52.2814 33.5231 52.3144C31.7872 52.5277 30.0535 52.7579 28.3192 52.9815C28.0274 53.0194 27.735 53.0546 27.4063 53.0957C27.4328 52.7335 27.4707 52.4043 27.4778 52.074C27.5092 50.5861 27.5585 49.0982 27.552 47.6103C27.5411 45.0931 27.4805 42.5759 27.4637 40.0582C27.4469 37.6314 27.4496 35.2041 27.4599 32.7768C27.4729 29.8086 27.5021 26.8404 27.5254 23.8716C27.5254 23.831 27.5325 23.7898 27.5433 23.6707C27.6613 23.8445 27.7426 23.9582 27.8184 24.0752C28.7621 25.5306 29.616 27.0353 30.3404 28.612C30.5987 29.174 30.8932 29.2341 31.3567 28.8204C32.2794 27.9969 33.2004 27.1723 34.1225 26.3487C34.1945 26.2843 34.2703 26.2231 34.3883 26.1235Z"
      fill="#FF6662" />
    <path
      d="M45.0587 28.4209C45.0614 28.9521 45.0191 29.4838 45.0072 30.0149C45.0024 30.2201 44.9314 30.3203 44.7121 30.336C43.508 30.4243 42.3043 30.5212 41.1007 30.6186C39.6458 30.7367 38.1909 30.8591 36.7361 30.9776C36.2254 31.0193 35.7143 31.0561 35.175 31.0973C35.175 30.6804 35.168 30.277 35.1766 29.8747C35.2064 28.4951 35.2524 27.116 35.266 25.7364C35.2687 25.4261 35.364 25.2242 35.5946 25.0244C36.4664 24.2674 37.3224 23.4926 38.1801 22.72C38.3198 22.5938 38.4627 22.4595 38.5613 22.3025C38.6403 22.1775 38.6544 22.0118 38.7086 21.8255C40.7769 21.7497 42.8734 21.6723 44.9867 21.5949C44.9953 21.6809 45.0072 21.7502 45.0083 21.8196C45.0267 24.02 45.0489 26.2205 45.0587 28.4209Z"
      fill="#D7E9F4" />
    <path
      d="M43.6021 31.3094C43.5805 31.5947 43.5545 31.8795 43.5382 32.1643C43.4668 33.4248 43.3709 34.6842 43.3336 35.9458C43.2588 38.4614 43.2144 40.978 43.1608 43.4947C43.1235 45.262 43.0829 47.0299 43.0612 48.7977C43.0542 49.383 43.0926 49.9699 43.1294 50.5547C43.1414 50.7485 43.0775 50.7967 42.8972 50.8178C40.668 51.0783 38.4399 51.3479 36.2114 51.6138C35.729 51.6712 35.2455 51.7237 34.7181 51.7838C34.8589 45.1792 34.9991 38.5908 35.1393 32.0116C41.9264 30.2575 42.6151 31.2619 43.6021 31.3094Z"
      fill="#D7E9F4" />
    <path
      d="M43.5534 20.7127C43.5518 20.7322 43.5507 20.7517 43.5496 20.7711C42.921 20.8009 42.2929 20.8377 41.6648 20.8589C40.3399 20.9043 39.015 20.9455 37.69 20.9753C37.5612 20.978 37.4074 20.9195 37.3056 20.8383C36.9764 20.5778 36.6667 20.293 36.3597 20.0266C36.9807 19.7722 37.5861 19.5264 38.1903 19.2767C38.29 19.2356 38.3988 19.1988 38.4789 19.1311C38.9743 18.7104 39.4454 18.8014 39.9955 19.0769C41.0903 19.6254 42.2225 20.1003 43.339 20.606C43.4115 20.639 43.4819 20.6769 43.5534 20.7127Z"
      fill="#D7E9F4" />
    <path
      d="M26.886 12.3382C26.8774 12.3544 26.8687 12.3712 26.86 12.3875C26.8443 12.3837 26.8286 12.3799 26.8129 12.3766C26.8373 12.3636 26.8617 12.3506 26.886 12.3382Z"
      fill="#3D2A26" />
    <path
      d="M26.6537 45.4526C26.6613 47.5096 26.657 49.5671 26.6499 51.6241C26.6489 51.9294 26.6001 52.2348 26.5812 52.5407C26.5709 52.701 26.5075 52.7692 26.3375 52.7887C25.1913 52.9187 24.0461 53.0611 22.9004 53.1981C21.3161 53.387 19.7313 53.5744 18.147 53.7633C17.3148 53.8624 16.4826 53.9637 15.6499 54.0633C15.5621 54.0736 15.4728 54.0757 15.3531 54.0833C15.4084 47.2421 15.4636 40.4232 15.5188 33.5668C18.4276 33.3185 22.5201 32.698 25.952 32.7172C26.1551 32.7189 26.3586 32.6902 26.5942 32.6723C26.5942 32.806 26.5936 32.903 26.5942 32.9999C26.6142 37.1512 26.638 41.3019 26.6537 45.4526Z"
      fill="#D7E9F4" />
    <path
      d="M45.8925 26.0006C45.8974 26.8398 45.9369 27.6791 45.9277 28.5178C45.9201 29.1756 45.866 29.8329 45.8238 30.4897C45.8081 30.7426 45.6629 30.9023 45.415 30.9646C45.1702 31.0258 44.9201 31.0729 44.6835 31.1568C44.5985 31.1866 44.4929 31.303 44.4864 31.3864C44.3862 32.6626 44.2622 33.9388 44.22 35.2177C44.1334 37.8507 44.0955 40.4854 44.0299 43.1195C43.9926 44.6258 43.9108 46.1316 43.9032 47.6379C43.8973 48.7186 43.972 49.801 44.031 50.8812C44.0559 51.3468 43.9238 51.5629 43.456 51.6203C41.8901 51.8119 40.3226 51.9933 38.7562 52.179C37.4849 52.3296 36.2136 52.4812 34.9423 52.6312C34.7945 52.6485 34.6976 52.6994 34.6044 52.8407C34.5238 52.9642 34.3391 53.0681 34.1875 53.0887C31.9719 53.3886 29.7531 53.6615 27.5385 53.9707C27.1362 54.027 26.8206 53.9745 26.5325 53.6956C26.4919 53.6567 26.3982 53.6534 26.3327 53.661C23.8708 53.9545 21.4093 54.2517 18.9479 54.5473C17.7394 54.6925 16.5314 54.8386 15.3218 54.9767C14.9585 55.0179 14.651 54.9339 14.3764 54.6399C13.2437 53.426 12.0877 52.2337 10.9415 51.0317C10.8863 50.9738 10.8424 50.905 10.7904 50.8379C10.4277 51.2754 10.184 51.2894 9.84072 50.8866C9.34313 50.3035 8.84229 49.7203 8.38747 49.1042C8.17143 48.8118 7.93373 48.501 7.94998 48.0846C7.95485 47.9687 7.86822 47.8269 7.78267 47.7343C7.26775 47.1777 6.73009 46.6422 6.22438 46.078C6.00455 45.8327 5.83941 45.5382 5.65911 45.2593C5.62499 45.2063 5.62391 45.1229 5.62824 45.0552C5.76956 42.9105 5.79609 40.7648 5.71542 38.6169C5.67048 37.4181 5.63312 36.2188 5.58276 35.02C5.50588 33.1905 5.41762 31.3615 5.34074 29.5319C5.31854 29.0002 5.32016 28.4674 5.30933 27.9352C5.30771 27.8512 5.29904 27.7679 5.29309 27.6839C5.26114 27.6769 5.22865 27.6699 5.19617 27.6628C5.10845 27.9005 4.9915 28.1323 4.94169 28.3775C4.89837 28.5898 4.84748 28.7685 4.62331 28.8286C4.38887 28.8919 4.22048 28.7771 4.10028 28.5854C3.95246 28.3483 3.80843 28.1084 3.66928 27.8659C2.8923 26.5106 1.88196 25.3319 0.870528 24.1537C0.711342 23.9691 0.562986 23.7747 0.397844 23.596C-0.0244863 23.1385 -0.0212376 22.61 0.316627 22.1157C1.34592 20.6099 2.49217 19.214 3.98224 18.1311C4.09757 18.0478 4.18366 17.8935 4.2313 17.7543C4.3109 17.5204 4.47171 17.3747 4.72781 17.3802C4.83394 17.3829 4.93952 17.3969 5.02236 17.404C4.54751 16.8793 4.03909 16.3985 3.633 15.843C3.30326 15.3914 3.07477 14.8597 2.8414 14.3459C2.63241 13.8862 2.7342 13.4471 2.99193 13.0107C4.64985 10.2076 6.29368 7.39637 7.9424 4.58733C8.29813 3.98091 8.66577 3.38044 9.00743 2.76536C9.1899 2.43778 9.35071 2.0945 9.48011 1.7431C9.78495 0.915766 10.6339 0.444163 11.5365 0.709474C12.1013 0.875157 12.6958 1.07333 13.1625 1.4139C16.2336 3.65442 18.5191 6.48728 19.5733 10.2049C19.7817 10.9407 19.8527 11.6928 19.7444 12.4557C19.7411 12.4795 19.7525 12.5055 19.7844 12.4616C20.1223 12.5585 20.4585 12.6647 20.7997 12.7481C20.9004 12.7724 21.0384 12.7703 21.1218 12.7194C21.7104 12.3571 22.2816 12.4107 22.8171 12.8027C23.1907 13.0767 23.548 13.211 24.0169 13.0426C24.2205 12.9695 24.482 13.0237 24.71 13.0626C24.8735 13.0913 24.9721 13.0556 25.0885 12.9451C26.0317 12.0485 26.7004 10.971 27.2678 9.80745C27.8764 8.56049 28.5218 7.32815 29.2154 6.12667C30.1218 4.55647 31.405 3.31493 32.8393 2.22391C33.0548 2.05985 33.2703 1.89633 33.4923 1.74093C33.9244 1.43772 34.1182 1.45938 34.4685 1.84977C35.7458 3.27378 37.022 4.69941 38.2987 6.12451C40.0866 8.12137 41.8766 10.1166 43.6601 12.1173C43.8394 12.3176 43.9866 12.5472 44.1409 12.7681C44.2893 12.9803 44.2563 13.1964 44.1225 13.401C43.8762 13.779 43.6385 14.1634 43.3732 14.5278C42.4305 15.8219 41.4277 17.0629 40.1407 18.0413C40.1044 18.0689 40.0622 18.0873 39.9848 18.1322C40.7607 18.4847 41.4738 18.8096 42.1874 19.1323C43.1902 19.586 44.1843 20.0598 45.1995 20.4827C45.7095 20.6954 45.8768 21.0647 45.8795 21.5601C45.8866 23.0405 45.8833 24.5208 45.8925 26.0006ZM45.0073 30.0149C45.0192 29.4837 45.0614 28.952 45.0587 28.4208C45.0489 26.2204 45.0267 24.0199 45.0083 21.8195C45.0073 21.7502 44.9953 21.6809 44.9867 21.5948C42.8734 21.6722 40.7769 21.7497 38.7086 21.8255C38.6544 22.0117 38.6404 22.1774 38.5613 22.3025C38.4628 22.4595 38.3198 22.5938 38.1801 22.7199C37.3225 23.4926 36.4665 24.2674 35.5948 25.0243C35.3641 25.2241 35.2688 25.4261 35.2661 25.7363C35.2526 27.116 35.2065 28.495 35.1768 29.8746C35.1681 30.2769 35.1751 30.6803 35.1751 31.0972C35.7144 31.0561 36.2255 31.0193 36.7361 30.9776C38.191 30.859 39.6458 30.7366 41.1007 30.6186C42.3043 30.5211 43.508 30.4242 44.7122 30.336C44.9315 30.3203 45.0024 30.2201 45.0073 30.0149ZM43.5497 20.7713C43.5508 20.7518 43.5518 20.7323 43.5535 20.7128C43.482 20.677 43.4116 20.6391 43.3391 20.6061C42.2226 20.1004 41.0904 19.6255 39.9956 19.0771C39.4455 18.8015 38.9744 18.7105 38.479 19.1312C38.3989 19.1989 38.29 19.2357 38.1904 19.2769C37.5862 19.5265 36.9808 19.7723 36.3598 20.0268C36.6668 20.2932 36.9765 20.578 37.3057 20.8384C37.4075 20.9196 37.5612 20.9781 37.6901 20.9754C39.015 20.9456 40.34 20.9044 41.6649 20.859C42.293 20.8379 42.9211 20.801 43.5497 20.7713ZM43.5383 32.1644C43.5546 31.8796 43.5805 31.5948 43.6022 31.3095C41.4877 31.4622 36.4811 31.9026 35.1394 32.0117C34.9992 38.5909 34.8589 45.1792 34.7181 51.7838C35.2455 51.7237 35.729 51.6712 36.2115 51.6138C38.44 51.3479 40.6681 51.0783 42.8972 50.8178C43.0775 50.7967 43.1414 50.7485 43.1295 50.5547C43.0927 49.9699 43.0542 49.383 43.0613 48.7977C43.0829 47.0299 43.1236 45.262 43.1609 43.4947C43.2145 40.9781 43.2589 38.4615 43.3336 35.9459C43.371 34.6843 43.4668 33.4249 43.5383 32.1644ZM42.3033 13.7638C42.6097 13.4909 42.8804 13.1785 43.1772 12.8748C40.0709 9.40623 36.99 5.96695 33.9092 2.52658C33.8583 2.55419 33.8253 2.56827 33.7971 2.58884C32.1165 3.81306 30.6416 5.23112 29.6496 7.08666C28.7167 8.83121 27.8065 10.5871 26.8861 12.3382C26.8617 12.3506 26.8374 12.3636 26.813 12.3766C26.8287 12.3799 26.8444 12.3837 26.8601 12.3875C26.8688 12.3712 26.8774 12.3544 26.8861 12.3382C26.9299 12.3149 26.9738 12.2922 27.0166 12.2678C27.571 11.9478 28.1195 11.6164 28.6815 11.31C29.6323 10.7923 30.5853 10.2758 31.6487 10.0164C32.5058 9.80744 33.3342 9.87025 34.1069 10.3234C34.9136 10.7972 35.2856 11.6565 35.0668 12.5683C34.8568 13.4417 34.3186 14.1071 33.6217 14.6345C32.7825 15.2701 31.8474 15.7385 30.8425 16.0601C30.7412 16.0926 30.6313 16.1137 30.5252 16.1142C30.3237 16.1153 30.1765 16.0162 30.1212 15.8186C30.0628 15.6096 30.144 15.4456 30.327 15.3367C30.3958 15.2956 30.4743 15.2685 30.5512 15.2447C31.3861 14.9869 32.1484 14.5803 32.8761 14.1066C33.417 13.7552 33.8356 13.2857 34.1133 12.702C34.4485 11.9981 34.2049 11.31 33.5021 10.9862C33.1035 10.8032 32.6774 10.6857 32.2405 10.7983C31.7277 10.9299 31.2031 11.0522 30.7223 11.2656C28.8775 12.0821 27.1871 13.1774 25.4816 14.2441C25.3034 14.3551 25.298 14.5056 25.3289 14.6637C25.5113 14.6978 25.6722 14.7179 25.8276 14.759C28.5083 15.4802 31.0574 16.5073 33.4035 18.0099C33.5134 18.0802 33.6748 18.1203 33.8026 18.103C34.2747 18.0396 34.7615 18.0039 35.2092 17.8555C37.8525 16.98 40.2225 15.6172 42.3033 13.7638ZM41.1462 15.9307C41.1733 15.9015 41.1911 15.8641 41.2463 15.7807C39.1721 17.0401 37.1811 18.3331 34.7918 18.8708C35.0436 19.115 35.3018 19.2422 35.6213 19.1935C35.8877 19.1523 36.16 19.128 36.4156 19.05C38.2992 18.4777 39.825 17.358 41.1462 15.9307ZM34.3868 27.2659C34.3954 26.9021 34.3884 26.5382 34.3884 26.1235C34.2704 26.2231 34.1946 26.2843 34.1226 26.3487C33.2005 27.1723 32.2795 27.9969 31.3568 28.8204C30.8934 29.2341 30.5988 29.174 30.3405 28.612C29.6161 27.0353 28.7622 25.5306 27.8185 24.0752C27.7427 23.9582 27.6614 23.8445 27.5434 23.6707C27.5326 23.7898 27.5255 23.831 27.5255 23.8716C27.5023 26.8404 27.473 29.8086 27.46 32.7768C27.4497 35.2041 27.447 37.6314 27.4638 40.0582C27.4806 42.5759 27.5412 45.0931 27.5521 47.6103C27.5586 49.0982 27.5093 50.5861 27.4779 52.074C27.4709 52.4043 27.4329 52.7335 27.4064 53.0957C27.7351 53.0546 28.0275 53.0194 28.3193 52.9815C30.0536 52.7579 31.7873 52.5277 33.5232 52.3144C33.7917 52.2814 33.8529 52.1693 33.8567 51.9192C33.88 50.467 33.9217 49.0148 33.9531 47.5621C34.0278 44.1255 34.102 40.6885 34.1724 37.2519C34.2189 34.9875 34.2557 32.7227 34.3023 30.4583C34.324 29.3944 34.3613 28.3304 34.3868 27.2659ZM37.5136 22.1519C34.8546 19.7853 31.9476 17.8902 28.6555 16.6178C28.9777 16.8652 29.3237 17.078 29.6486 17.3195C30.1218 17.672 30.4889 18.1127 30.6367 18.7002C30.7759 19.2563 30.4521 19.7095 29.8873 19.6808C29.5181 19.6624 29.1342 19.579 28.792 19.4387C27.4963 18.9076 26.4058 18.0667 25.4101 17.0964C25.33 17.0185 25.2872 16.901 25.2271 16.8019C25.1892 16.829 25.1513 16.8555 25.1128 16.8826C25.0479 17.6693 24.9802 18.456 24.9217 19.2438C24.9179 19.2898 24.9769 19.3467 25.0175 19.3889C25.5032 19.8968 26.0111 20.3857 26.4751 20.9131C28.2511 22.9316 29.6502 25.1976 30.8246 27.6081C30.8793 27.7202 30.935 27.8318 31.0033 27.9698C33.1913 26.0146 35.3576 24.079 37.5136 22.1519ZM29.7899 18.867C29.5982 18.4154 29.3448 18.1257 29.0064 17.9314C28.0773 17.3969 27.1438 16.8712 26.1984 16.3671C25.892 16.2036 25.6505 16.0476 25.7588 15.647C25.5866 15.5961 25.4334 15.5511 25.2585 15.4997C25.2395 15.5977 25.2233 15.6816 25.2087 15.758C25.3186 15.8257 25.4171 15.8733 25.4989 15.9404C25.5823 16.0081 25.6494 16.0953 25.7241 16.1738C26.6955 17.1977 27.7903 18.0537 29.0887 18.6277C29.2896 18.7165 29.5056 18.7711 29.7899 18.867ZM26.65 51.6241C26.657 49.5671 26.6614 47.5096 26.6538 45.4526C26.6381 41.3019 26.6143 37.1512 26.5942 32.9999C26.5937 32.903 26.5942 32.806 26.5942 32.6723C22.9008 32.9525 19.213 33.2514 15.5189 33.5668C15.4637 40.4232 15.4084 47.2421 15.3532 54.0833C15.4729 54.0757 15.5622 54.0736 15.6499 54.0633C16.4827 53.9637 17.3149 53.8624 18.1471 53.7633C19.7314 53.5744 21.3162 53.387 22.9005 53.1981C24.0462 53.0611 25.1914 52.9187 26.3376 52.7887C26.5076 52.7692 26.571 52.701 26.5812 52.5407C26.6002 52.2348 26.6489 51.9294 26.65 51.6241ZM26.5477 31.799C26.5867 28.6916 26.6251 25.6129 26.6641 22.5261C26.5726 22.5207 26.5282 22.5131 26.4854 22.5169C25.4615 22.6057 24.4382 22.695 23.4149 22.7849C20.9729 22.9999 18.531 23.2148 16.0896 23.4319C15.677 23.4688 15.265 23.5159 14.8535 23.5646C14.6201 23.5922 14.4842 23.6929 14.4961 23.9685C14.514 24.3827 14.4939 24.7986 14.4847 25.2133C14.4582 26.4305 14.4414 27.6482 14.3959 28.8643C14.351 30.0717 14.2757 31.2775 14.2145 32.4839C14.2097 32.5792 14.2145 32.6745 14.2145 32.799C18.3599 32.4633 22.4603 32.1303 26.5477 31.799ZM25.9602 21.6928C25.9326 21.6305 25.9272 21.6018 25.9104 21.5845C25.4886 21.1394 25.0674 20.6933 24.6385 20.2547C24.5898 20.2054 24.4956 20.18 24.4225 20.1794C24.1924 20.1794 23.9503 20.2471 23.7338 20.1973C22.8225 19.9878 21.9112 19.9921 20.9908 20.1069C20.8343 20.1264 20.6296 20.0977 20.51 20.0078C20.21 19.7826 19.949 19.5059 19.6648 19.2584C19.6063 19.2075 19.5088 19.1626 19.4368 19.1718C18.9636 19.2346 18.4909 19.305 18.0204 19.3873C16.2482 19.6965 14.5687 20.2856 12.9584 21.0788C12.6931 21.2093 12.4261 21.336 12.1175 21.4849C12.8663 21.9099 13.5686 22.3117 14.2757 22.7053C14.338 22.74 14.4311 22.7335 14.508 22.7259C15.3343 22.6501 16.1594 22.5662 16.9851 22.4925C18.0897 22.3934 19.1953 22.3036 20.2999 22.2056C21.6378 22.087 22.9757 21.963 24.3137 21.8417C24.8513 21.7924 25.3895 21.7442 25.9602 21.6928ZM24.0289 19.3564C24.1886 17.541 24.3461 15.7406 24.5113 13.8564C24.2693 13.8954 24.077 13.9127 23.8919 13.9582C23.4657 14.0622 23.0716 14.0183 22.7056 13.7633C22.5431 13.6501 22.3715 13.5499 22.2031 13.4454C22.0185 13.3312 21.8306 13.316 21.6432 13.4373C21.1933 13.7286 20.7412 13.7676 20.2744 13.4693C20.0925 13.3529 19.922 13.4032 19.8039 13.5759C19.6621 13.7833 19.517 13.9923 19.4087 14.2176C19.1325 14.792 18.9181 15.3882 19.067 16.0412C19.3453 17.261 19.8099 18.378 20.8711 19.1431C20.9404 19.1929 21.0455 19.2135 21.1337 19.213C21.6828 19.2081 22.2329 19.168 22.7803 19.1891C23.1902 19.2048 23.5962 19.2953 24.0289 19.3564ZM18.9084 12.1227C18.9912 11.0013 18.6523 9.96663 18.2413 8.94979C17.369 6.78995 15.9391 5.02266 14.2904 3.42105C13.8144 2.95811 13.2925 2.52495 12.7321 2.17247C12.268 1.88063 11.7239 1.70791 11.2008 1.52111C10.929 1.42419 10.4661 1.64293 10.4136 1.85464C10.3269 2.20062 10.2316 2.54823 10.4439 2.89476C10.6177 3.17848 10.7211 3.51472 10.9323 3.76325C11.5555 4.49745 12.1884 5.22841 12.8685 5.90901C14.3223 7.36443 15.8102 8.78735 17.0263 10.4583C17.6246 11.2807 18.1991 12.12 18.8152 12.9955C18.8499 12.676 18.8878 12.3999 18.9084 12.1227ZM18.9495 18.2757C18.7481 17.8095 18.5559 17.3655 18.3545 16.8993C17.9533 17.3195 17.9105 17.3482 17.604 17.2919C17.0014 17.1804 16.3928 17.0899 15.7999 16.9378C14.3949 16.5777 12.9968 16.1879 11.5966 15.8078C10.7883 15.588 9.96958 15.3985 9.17853 15.1283C8.79789 14.9983 8.42537 14.7628 8.12703 14.4904C7.45022 13.8726 7.64893 13.015 8.50713 12.6923C9.03667 12.4925 9.58678 12.4882 10.1364 12.5602C11.1895 12.6982 12.1868 13.041 13.1679 13.4352C14.8226 14.1001 16.3679 14.974 17.8932 15.8874C17.9711 15.9339 18.054 15.9708 18.107 15.9984C18.1682 15.5501 18.2088 15.1294 18.2884 14.7168C18.3361 14.472 18.5202 14.2333 18.2196 14.028C18.1953 14.0113 18.1947 13.9614 18.1796 13.929C18.0296 13.6052 17.9159 13.257 17.7215 12.9625C17.2602 12.2624 16.7724 11.5785 16.2742 10.9033C15.0527 9.24813 13.5648 7.83819 12.1159 6.38928C11.4293 5.70326 10.8077 4.94956 10.1807 4.20615C9.97608 3.96358 9.8483 3.65658 9.67991 3.3707C9.65284 3.40589 9.62739 3.43242 9.60952 3.46274C7.62727 6.83814 5.64503 10.2135 3.66928 13.5927C3.6173 13.6815 3.59348 13.832 3.63246 13.9198C3.84417 14.3941 4.02068 14.8992 4.31848 15.3162C5.3586 16.7732 6.80698 17.6373 8.5342 18.0505C11.1987 18.6872 13.9016 18.8339 16.6235 18.6342C17.4015 18.5773 18.1704 18.3997 18.9495 18.2757ZM16.6061 16.2431C16.6202 16.2144 16.6343 16.1852 16.6484 16.1565C16.1161 15.8592 15.5925 15.5446 15.0495 15.268C13.5773 14.5191 12.0839 13.8098 10.4471 13.4996C9.97013 13.4092 9.46495 13.4525 8.97386 13.466C8.8542 13.4693 8.73833 13.597 8.62083 13.668C8.70368 13.779 8.76973 13.9111 8.87369 13.9966C9.00418 14.1038 9.15741 14.1932 9.31443 14.2555C9.63226 14.3816 9.95388 14.5034 10.2831 14.5933C11.7076 14.9832 13.1344 15.366 14.5632 15.7417C15.2411 15.9199 15.925 16.0769 16.6061 16.2431ZM14.4983 53.4655C14.5486 46.8279 14.5984 40.2558 14.6488 33.6697C14.4387 33.6697 14.2703 33.6399 14.1165 33.6756C13.7354 33.7639 13.4424 33.6269 13.1436 33.4038C12.2621 32.7443 11.366 32.1049 10.4748 31.4584C10.4049 31.4075 10.3302 31.3615 10.2571 31.3133C10.2371 31.3452 10.2197 31.3593 10.2203 31.3734C10.2528 32.6631 10.2852 33.9528 10.321 35.2426C10.4076 38.3359 10.4953 41.4297 10.5841 44.523C10.6296 46.1192 10.6751 47.7153 10.7341 49.311C10.7395 49.4556 10.8126 49.6288 10.9117 49.7339C12.026 50.9164 13.1511 52.0881 14.2741 53.2614C14.3272 53.3172 14.3873 53.3654 14.4983 53.4655ZM13.816 19.7338C13.8897 19.6965 13.9628 19.6591 13.9763 19.6521C12.6059 19.5032 11.196 19.3851 9.79794 19.1875C8.50171 19.0045 7.23202 18.6905 6.07386 18.0342C5.99805 17.9915 5.85078 18.0137 5.76469 18.0581C3.75916 19.0971 2.31782 20.7263 1.0622 22.5521C0.915469 22.766 0.94904 22.9084 1.10552 23.093C2.25935 24.4536 3.46624 25.7742 4.38724 27.3818C4.82203 26.4873 5.43603 25.8029 6.0587 25.1256C6.34566 24.8132 6.63263 24.5013 6.92068 24.1905C7.83303 23.2051 8.84608 22.3285 10.014 21.6722C11.2534 20.9765 12.5463 20.376 13.816 19.7338ZM13.6428 23.5668C13.6449 23.4633 13.5513 23.3161 13.4592 23.2587C13.0304 22.9928 12.5886 22.7465 12.1462 22.5028C11.8257 22.3263 11.49 22.0215 11.1738 22.0372C10.8386 22.0534 10.5192 22.3815 10.1927 22.5732C10.1775 22.5824 10.1564 22.59 10.1488 22.6041C10.093 22.7059 9.99503 22.8087 9.99449 22.9116C9.99341 23.3989 10.021 23.8857 10.0351 24.3724C10.0882 26.2393 10.1369 28.1063 10.2002 29.9726C10.2046 30.0907 10.2955 30.2428 10.3935 30.3154C11.3059 30.9938 12.2285 31.6582 13.1484 32.3263C13.1982 32.3621 13.2508 32.3945 13.3499 32.4606C13.3618 32.218 13.3726 32.0307 13.3802 31.8428C13.404 31.2656 13.4316 30.689 13.45 30.1123C13.5188 27.9303 13.587 25.7488 13.6428 23.5668ZM9.80011 49.4642C9.82014 49.455 9.83964 49.4453 9.85913 49.4361C9.61764 40.7545 9.37561 32.0729 9.13142 23.3079C8.73724 23.6626 8.40155 23.9718 8.05719 24.2712C7.91641 24.3941 7.86118 24.5295 7.87038 24.719C7.92615 25.9172 7.98788 27.1154 8.0182 28.3142C8.08859 31.0832 8.14111 33.8521 8.20338 36.6211C8.218 37.2795 8.23424 37.9379 8.26348 38.5958C8.34632 40.4697 8.42808 42.3436 8.52716 44.2165C8.58456 45.2967 8.69555 46.3736 8.74374 47.4538C8.77027 48.0494 8.96357 48.5416 9.38374 48.9585C9.53805 49.1117 9.66258 49.2947 9.80011 49.4642ZM7.74531 46.4299C7.75506 46.3417 7.76264 46.3092 7.76155 46.2773C7.71932 45.3313 7.67655 44.386 7.63377 43.4406C7.5466 41.5136 7.43939 39.5872 7.37821 37.6591C7.31486 35.6763 7.30078 33.6924 7.25692 31.7091C7.23851 30.8888 7.19899 30.069 7.16379 29.2493C7.16 29.1659 7.14322 29.0516 7.08799 29.0072C6.81023 28.7852 6.5173 28.5811 6.19622 28.3467C6.18973 28.4523 6.18215 28.5037 6.18431 28.5546C6.24496 30.1762 6.30451 31.7979 6.36786 33.4195C6.45125 35.5637 6.57632 37.7067 6.60989 39.8514C6.63642 41.5271 6.55033 43.204 6.51839 44.8809C6.51622 44.9843 6.51189 45.1213 6.57091 45.1862C6.9418 45.5983 7.33056 45.9946 7.74531 46.4299ZM7.13835 27.9574C7.10532 27.0705 7.075 26.248 7.04413 25.4256C7.02085 25.4163 6.99811 25.4066 6.97483 25.3969C6.54438 25.8885 6.11447 26.3801 5.66831 26.8896C6.16969 27.2535 6.63101 27.5886 7.13835 27.9574Z"
      fill="#3D2A26" />
    <path
      d="M26.664 22.5259C26.625 25.6127 26.5866 28.6914 26.5476 31.7988C22.4602 32.1302 18.3592 32.4631 14.2139 32.7988C14.2139 32.6743 14.2096 32.579 14.2139 32.4837C14.2751 31.2774 14.3503 30.0716 14.3953 28.8641C14.4408 27.648 14.4576 26.4303 14.4841 25.2131C14.4933 24.7984 14.5133 24.3826 14.4955 23.9684C14.4835 23.6928 14.6194 23.592 14.8528 23.5644C15.2643 23.5157 15.6764 23.4686 16.0889 23.4318C18.5303 23.2147 20.9723 22.9997 23.4142 22.7847C24.4375 22.6949 25.4609 22.6055 26.4848 22.5167C26.5275 22.5129 26.5719 22.5205 26.6634 22.5259H26.664Z"
      fill="#D7E9F4" />
    <path
      d="M25.9103 21.5845C25.9271 21.6018 25.9325 21.6305 25.9601 21.6927C25.3894 21.7442 24.8512 21.7924 24.3136 21.8416C22.9757 21.9629 21.6377 22.0869 20.2998 22.2055C19.1953 22.3035 18.0896 22.3934 16.9851 22.4925C16.1594 22.5661 15.3342 22.65 14.5079 22.7258C14.431 22.7334 14.3379 22.7399 14.2757 22.7053C13.5685 22.3116 12.8663 21.9099 12.1174 21.4848C12.4261 21.3359 12.693 21.2092 12.9583 21.0787C14.5686 20.2855 16.2481 19.6964 18.0203 19.3873C18.4908 19.305 18.9635 19.2346 19.4367 19.1718C19.5088 19.1625 19.6062 19.2075 19.6647 19.2584C19.949 19.5058 20.2099 19.7825 20.5099 20.0078C20.6296 20.0976 20.8342 20.1263 20.9907 20.1068C21.9112 19.9921 22.8224 19.9877 23.7337 20.1973C23.9503 20.2471 24.1923 20.1789 24.4224 20.1794C24.4955 20.1799 24.5897 20.2054 24.6384 20.2547C25.0673 20.6932 25.4885 21.1394 25.9103 21.5845Z"
      fill="#D7E9F4" />
    <path
      d="M14.6487 33.6696C14.5983 40.2558 14.5485 46.8279 14.4982 53.4655C14.3872 53.3654 14.3271 53.3172 14.274 53.2614C13.151 52.0881 12.0259 50.9164 10.9116 49.7339C10.8125 49.6288 10.7394 49.4556 10.734 49.311C10.675 47.7153 10.6295 46.1192 10.584 44.523C10.4952 41.4297 10.4075 38.3358 10.3209 35.2425C10.2851 33.9528 10.2527 32.6631 10.2202 31.3733C10.2196 31.3592 10.237 31.3452 10.257 31.3132C10.3301 31.3614 10.4048 31.4074 10.4746 31.4583C11.3659 32.1048 12.262 32.7443 13.1435 33.4038C13.4423 33.6268 13.7353 33.7638 14.1164 33.6756C14.2702 33.6398 14.4386 33.6696 14.6487 33.6696Z"
      fill="#83BDCF" />
    <path
      d="M13.4591 23.2586C13.5511 23.316 13.6448 23.4632 13.6426 23.5666C13.5869 25.7487 13.5187 27.9302 13.4499 30.1122C13.4315 30.6889 13.4039 31.2655 13.38 31.8427C13.3725 32.0306 13.3616 32.2179 13.3497 32.4605C13.2506 32.3944 13.1981 32.3619 13.1483 32.3262C12.2284 31.6581 11.3057 30.9937 10.3934 30.3153C10.2954 30.2427 10.2044 30.0906 10.2001 29.9725C10.1368 28.1062 10.088 26.2392 10.035 24.3723C10.0209 23.8856 9.99327 23.3988 9.99435 22.9115C9.9949 22.8086 10.0929 22.7057 10.1487 22.604C10.1562 22.5899 10.1774 22.5823 10.1925 22.5731C10.519 22.3814 10.8385 22.0533 11.1736 22.0371C11.4898 22.0214 11.8255 22.3262 12.1461 22.5027C12.5884 22.7464 13.0303 22.9927 13.4591 23.2586Z"
      fill="#83BDCF" />
    <path
      d="M7.76146 46.2773C7.76254 46.3092 7.75496 46.3417 7.74521 46.4299C7.33046 45.9946 6.9417 45.5983 6.57081 45.1862C6.51179 45.1213 6.51612 44.9843 6.51829 44.8809C6.55024 43.204 6.63633 41.5271 6.6098 39.8514C6.57623 37.7067 6.45115 35.5637 6.36777 33.4195C6.30442 31.7979 6.24486 30.1762 6.18422 28.5546C6.18205 28.5037 6.18963 28.4523 6.19613 28.3467C6.51721 28.5811 6.81013 28.7852 7.08789 29.0072C7.14312 29.0516 7.15991 29.1659 7.1637 29.2493C7.19889 30.069 7.23842 30.8888 7.25683 31.7091C7.30068 33.6924 7.31476 35.6763 7.37811 37.6591C7.4393 39.5872 7.5465 41.5136 7.63368 43.4406C7.67645 44.386 7.71922 45.3313 7.76146 46.2773Z"
      fill="#83BDCF" />
    <path
      d="M7.04397 25.4255C7.07484 26.248 7.10516 27.0704 7.13819 27.9573C6.63085 27.5886 6.16953 27.2534 5.66815 26.8896C6.11431 26.3801 6.54422 25.8884 6.97467 25.3968C6.99795 25.4065 7.02069 25.4163 7.04397 25.4255Z"
      fill="#83BDCF" />
  </g>
</svg>
