<svg width="398" height="120" viewBox="0 0 398 120" fill="none" xmlns="http://www.w3.org/2000/svg">
  <g clip-path="url(#clip0_225_25450)">
    <rect width="398" height="120" rx="24" fill="#EE4C00" />
    <mask id="mask0_225_25450" style="mask-type:luminance" maskUnits="userSpaceOnUse" x="42" y="29"
      width="53" height="56">
      <path d="M94.7068 29.7177H42.3616V84.6098H94.7068V29.7177Z" fill="white" />
    </mask>
    <g mask="url(#mask0_225_25450)">
      <path
        d="M93.914 35.0381V41.6072C93.8161 41.5686 93.7464 41.5459 93.6809 41.5149C93.1208 41.2511 92.5655 40.9769 91.9983 40.7282C91.8693 40.6717 91.6879 40.6595 91.5551 40.7028C91.3502 40.7697 91.3064 40.9995 91.4161 41.268C91.7091 41.9864 92.0078 42.7023 92.3036 43.4193C92.3361 43.4984 92.3672 43.578 92.418 43.7042C92.2956 43.6727 92.2103 43.6524 92.126 43.6284C91.2296 43.3722 90.3337 43.114 89.4368 42.8601C89.3322 42.8305 89.2216 42.8036 89.1146 42.8069C88.8541 42.8154 88.6879 43.0627 88.7802 43.3062C88.8207 43.4136 88.8928 43.5116 88.9606 43.6067C89.9347 44.9732 90.9102 46.3383 91.8853 47.7034C91.9258 47.7604 91.9635 47.8193 92.0167 47.8984C91.793 48.1485 91.5687 48.3972 91.3469 48.6478C91.0299 49.0058 91.0746 49.2663 91.4948 49.4872C92.2164 49.8664 92.9376 50.2465 93.6644 50.6153C93.8123 50.6907 93.8608 50.7783 93.8599 50.9418C93.8335 54.6592 93.8147 58.3762 93.7855 62.0932C93.7845 62.2448 93.7247 62.413 93.6446 62.5449C93.4209 62.9123 93.1722 63.2642 92.8938 63.682C92.8288 63.5892 92.7873 63.5129 92.7308 63.4507C91.816 62.4384 90.8985 61.4285 89.9832 60.4163C89.9102 60.3352 89.8461 60.2453 89.784 60.1558C89.6695 59.9909 89.5244 59.9 89.3228 59.9749C89.1127 60.0531 89.0459 60.2274 89.0826 60.4313C89.1434 60.7705 89.2248 61.1054 89.2946 61.4427C89.6591 63.2076 90.0233 64.9722 90.3864 66.7371C90.3959 66.7819 90.3949 66.829 90.4034 66.9223C90.3106 66.8436 90.2461 66.7918 90.1848 66.7362C88.694 65.3919 87.2031 64.047 85.7128 62.7027C85.6779 62.6711 85.6435 62.6386 85.6082 62.608C85.3878 62.4158 85.2069 62.3866 85.0387 62.5152C84.8734 62.6419 84.8475 62.836 84.9709 63.0908C85.5178 64.219 86.0665 65.3466 86.6139 66.4743C87.141 67.5601 87.6676 68.6463 88.1942 69.7321C88.214 69.773 88.2295 69.8159 88.2625 69.8936C88.2055 69.8729 88.1796 69.8668 88.1565 69.855C87.0807 69.3091 85.9639 68.8981 84.8838 68.3606C80.8209 66.3356 77.5228 65.3038 75.5969 64.6954C72.3441 63.8351 69.3862 63.4314 66.3253 63.3249C70.2127 59.3395 74.0512 55.4039 77.9232 51.4335C78.0089 51.7736 78.0862 52.0723 78.1597 52.3719C78.5313 53.8858 78.9015 55.4002 79.2727 56.9146C79.2817 56.9527 79.2878 56.9918 79.3 57.0286C79.366 57.2283 79.4941 57.3526 79.7146 57.3399C79.9138 57.3281 80.0546 57.1642 80.0565 56.9329C80.0612 56.3526 80.0448 55.7718 80.0641 55.192C80.0711 54.9729 80.1164 54.7398 80.2063 54.541C80.6585 53.5414 81.131 52.5513 81.5968 51.5579C81.6298 51.4882 81.6661 51.4199 81.7108 51.3299C83.0137 52.0346 84.2888 52.7247 85.5635 53.4147C86.1768 53.7468 86.7882 54.0836 87.4048 54.4096C87.5112 54.4661 87.6516 54.5302 87.7543 54.5042C87.872 54.4741 88.0298 54.3611 88.0515 54.2588C88.0788 54.1312 88.0275 53.9376 87.9366 53.8424C87.5748 53.4618 87.1848 53.1086 86.8056 52.7449C85.571 51.5626 84.3369 50.3794 83.1013 49.198C83.0561 49.1551 82.9977 49.1264 82.9129 49.0689C83.0321 49.0006 83.0947 48.9615 83.1602 48.9281C84.9549 48.0143 86.7514 47.1037 88.5428 46.1824C88.6704 46.1164 88.8037 45.9921 88.857 45.863C88.9615 45.6087 88.7241 45.368 88.4118 45.3995C87.8042 45.4608 87.1975 45.5357 86.5903 45.604C85.555 45.7203 84.5196 45.8366 83.4843 45.9516C83.4329 45.9572 83.3807 45.9525 83.2695 45.9525C86.8324 42.2991 90.3582 38.6839 93.914 35.0381Z"
        fill="#FF9C40" />
      <path
        d="M94.4465 33.7594C94.7305 33.8697 94.6942 34.1268 94.6928 34.3614C94.6537 42.1802 94.6146 49.999 94.5751 57.8183C94.5459 63.5508 94.5167 69.2828 94.4865 75.0154C94.4837 75.494 94.4371 75.9749 94.4752 76.4497C94.5105 76.8901 94.3155 77.1864 94.007 77.4299C93.7004 77.6721 93.3951 77.949 93.0409 78.0918C92.0192 78.5039 90.9923 78.9288 89.9311 79.2114C88.8072 79.5105 87.6301 79.4667 86.469 79.4403C83.9823 79.3833 81.5409 78.9999 79.1287 78.4088C79.0995 78.4017 79.0689 78.3984 79.0515 78.3956C78.693 79.1596 78.3642 79.9048 77.9973 80.6311C77.2983 82.0136 76.2653 83.1074 74.9765 83.9515C74.5874 84.2068 74.1367 84.3684 73.7104 84.5643C73.6364 84.5982 73.5422 84.5987 73.4574 84.5978C70.8074 84.5695 68.2397 83.9251 65.6363 83.5492C64.9928 83.456 64.348 83.3674 63.7083 83.2511C63.5406 83.2209 63.3753 83.1144 63.234 83.0089C59.957 80.5562 56.6828 78.0988 53.4081 75.6428C53.0588 75.3801 52.635 75.1172 50.8254 73.6979C50.0628 73.1072 49.3072 72.5076 48.5333 71.9315C48.2869 71.7478 48.1037 71.5222 48.025 71.2485C47.8894 70.7779 47.7603 70.2946 47.7222 69.809C47.6586 68.9932 48.123 68.371 48.9064 68.1279C49.1216 68.061 49.3496 68.0106 49.5738 68.0003C50.8216 67.9418 51.9936 68.2339 53.06 68.8731C54.1721 69.5396 55.255 70.2555 56.3507 70.9499C56.3968 70.9791 56.4439 71.0069 56.5 71.0412C63.3927 75.3823 56.5 71.0412 63.3927 75.3823C60.9136 68.1877 63.3927 75.3823 60.9136 68.1877C58.5956 61.4613 56.281 54.7443 53.9658 48.0277C53.9507 48.0249 53.9352 48.022 53.9196 48.0197C53.8989 48.0941 53.8754 48.1681 53.8584 48.2439C53.2899 50.7428 52.7218 53.2426 52.1542 55.7419C52.1457 55.7801 52.1396 55.8192 52.1292 55.8568C52.0614 56.114 51.8989 56.2492 51.6874 56.2252C51.4797 56.2012 51.3511 56.0316 51.3506 55.7598C51.3487 54.7014 51.3506 53.643 51.3506 52.5845C51.3511 51.0555 51.3506 49.527 51.3506 47.998V47.7182C51.2569 47.8247 51.2027 47.8826 51.1528 47.9439C48.6285 51.0447 46.1046 54.146 43.5813 57.2474C43.4277 57.4358 43.277 57.6261 43.1234 57.8145C42.9227 58.0613 42.7094 58.116 42.5177 57.9723C42.3372 57.8371 42.3259 57.6195 42.4833 57.3628C43.3957 55.8719 44.3081 54.3811 45.2191 52.8893C46.7386 50.4013 48.2577 47.9128 49.7768 45.4243C49.8414 45.3183 49.904 45.2114 49.977 45.0884C49.1923 44.7205 48.4268 44.3607 47.6614 44.0027C46.8022 43.6004 45.9431 43.1995 45.0839 42.7982C45.0485 42.7817 45.0132 42.7648 44.9788 42.7459C44.7923 42.6437 44.6953 42.4902 44.7593 42.2791C44.8239 42.0676 44.992 41.9866 45.2016 42.0144C45.9162 42.1091 46.6294 42.2108 47.3435 42.3097C48.0712 42.4106 48.7994 42.5109 49.5701 42.6169C49.4452 42.305 49.335 42.0252 49.2215 41.7469C48.5093 39.9974 47.7957 38.248 47.0839 36.4985C47.0519 36.4194 47.0203 36.3365 47.0095 36.2522C46.9869 36.0807 47.0467 35.9144 47.2125 35.8716C47.3383 35.8395 47.4932 35.8871 47.6251 35.93C47.6878 35.9507 47.7316 36.0397 47.7773 36.1029C49.3929 38.3403 51.0081 40.5787 52.6233 42.8161C52.6686 42.8792 52.7171 42.94 52.8066 43.0578C52.8066 42.9278 52.8103 42.8566 52.8061 42.786C52.6737 40.6027 52.5414 38.419 52.4081 36.2357C52.3087 34.6083 52.2116 32.9803 52.1071 31.3529C52.0892 31.0802 52.0228 30.8098 52.01 30.5371C52.0006 30.3468 52.0213 30.148 52.0708 29.9638C52.1151 29.7989 52.2743 29.6901 52.4363 29.7429C52.5645 29.7848 52.6629 29.9228 52.7698 30.0227C52.7887 30.0406 52.7891 30.082 52.791 30.1131C52.8843 31.5992 53.2922 33.0307 53.5763 34.4825C54.1938 37.6361 54.8466 40.7831 55.4854 43.9325C55.4976 43.9923 55.5155 44.0507 55.5353 44.1265C55.5975 44.1002 55.6469 44.0837 55.6926 44.0597C58.4581 42.5811 61.2231 41.1011 63.9905 39.6258C64.0969 39.5692 64.234 39.5104 64.3414 39.5316C64.454 39.5537 64.5948 39.6517 64.6358 39.752C64.6772 39.8533 64.6334 40.0078 64.5854 40.1213C64.5529 40.1981 64.4526 40.2499 64.3758 40.3031C61.7172 42.1383 59.0577 43.972 56.3987 45.8067C56.3549 45.8369 56.3135 45.8708 56.2353 45.9306C56.4736 46.0187 56.6799 46.0993 56.8886 46.1723C58.6187 46.778 60.3503 47.3805 62.0799 47.9881C63.8096 48.5953 65.5374 49.2086 67.2665 49.8176C67.6655 49.958 68.0673 50.0909 68.4668 50.2308C68.5468 50.259 68.6297 50.292 68.6966 50.3424C68.8342 50.4465 68.8902 50.5925 68.8313 50.7593C68.7692 50.9345 68.6307 51.024 68.447 51.0056C68.308 50.9915 68.1714 50.9481 68.0353 50.9128C63.6282 49.764 59.2207 48.6146 54.8132 47.4662C54.7407 47.4469 54.6658 47.4342 54.5522 47.4102C56.923 54.2883 59.2805 61.1301 61.631 67.9503C62.5321 70.5777 62.1466 69.4701 62.5321 70.5777C63.1534 72.3616 63.7554 74.1525 64.396 75.9292C64.4747 76.1478 64.7465 76.2971 64.9594 76.5095C65.1101 76.0352 65.2321 75.632 65.3659 75.2325C65.6961 74.2462 66.1262 73.3074 66.7465 72.4666C67.2001 71.8519 67.6985 71.2838 68.4573 71.0285C68.4988 71.0149 68.5351 70.9852 68.5911 70.9532C68.1888 70.5024 67.8012 70.0634 67.4088 69.6291C66.4634 68.5839 65.7776 67.3893 65.3475 66.0492C65.1535 65.4439 64.99 64.8311 65.0772 64.182C65.1502 63.6365 65.3814 63.1952 65.7762 62.7929C69.7075 58.7839 73.6242 54.7607 77.5423 50.739C77.6322 50.6467 77.6897 50.5237 77.766 50.4178C77.8112 50.3551 77.856 50.2892 77.9139 50.2402C78.0967 50.0857 78.3039 49.9561 78.4698 49.7861C83.598 44.5345 88.7224 39.2791 93.8478 34.0246C94.0117 33.8565 94.1686 33.652 94.4465 33.7594ZM93.9142 41.6074V35.0383C90.3583 38.6842 86.8326 42.2994 83.2696 45.9528C83.3808 45.9528 83.4331 45.9575 83.4844 45.9518C84.5198 45.8369 85.5551 45.7205 86.5905 45.6042C87.1976 45.5359 87.8043 45.461 88.412 45.3998C88.7243 45.3682 88.9617 45.6089 88.8571 45.8633C88.8039 45.9923 88.6706 46.1167 88.5429 46.1826C86.7516 47.104 84.955 48.0145 83.1604 48.9283C83.0949 48.9618 83.0322 49.0009 82.9131 49.0692C82.9979 49.1266 83.0563 49.1554 83.1015 49.1982C84.337 50.3796 85.5712 51.5629 86.8057 52.7452C87.1849 53.1088 87.575 53.4621 87.9367 53.8427C88.0276 53.9378 88.079 54.1314 88.0516 54.2591C88.03 54.3613 87.8722 54.4743 87.7544 54.5045C87.6517 54.5304 87.5114 54.4663 87.4049 54.4098C86.7883 54.0839 86.1769 53.7471 85.5636 53.415C84.289 52.7249 83.0139 52.0348 81.711 51.3302C81.6662 51.4201 81.63 51.4884 81.597 51.5581C81.1311 52.5516 80.6587 53.5417 80.2065 54.5412C80.1165 54.74 80.0713 54.9732 80.0642 55.1922C80.0449 55.7721 80.0614 56.3529 80.0567 56.9332C80.0548 57.1645 79.914 57.3284 79.7147 57.3402C79.4943 57.3529 79.3661 57.2285 79.3002 57.0288C79.2879 56.9921 79.2818 56.953 79.2729 56.9148C78.9017 55.4004 78.5315 53.886 78.1598 52.3721C78.0863 52.0725 78.0091 51.7739 77.9234 51.4338C74.0514 55.4042 70.2129 59.3397 66.3254 63.3252H67.5558C70.8675 63.541 71.837 63.6822 75.5672 64.702C78.7609 65.7113 81.5261 66.7105 84.9277 68.2212C86.0078 68.7586 87.0808 69.3092 88.1567 69.8552C88.1798 69.8669 88.2057 69.8731 88.2627 69.8938C88.2297 69.8161 88.2142 69.7732 88.1944 69.7322C87.6677 68.6465 87.1411 67.5603 86.614 66.4746C86.0667 65.3469 85.5179 64.2192 84.971 63.0911C84.8476 62.8362 84.8735 62.6422 85.0389 62.5155C85.207 62.3869 85.3879 62.4161 85.6084 62.6083C85.6437 62.6389 85.6781 62.6714 85.7129 62.7029C87.2033 64.0473 88.6941 65.3921 90.185 66.7365C90.2462 66.792 90.3108 66.8438 90.4035 66.9225C90.3951 66.8292 90.396 66.7821 90.3866 66.7374C90.0234 64.9724 89.6593 63.2079 89.2947 61.4429C89.225 61.1056 89.1435 60.7707 89.0827 60.4316C89.046 60.2276 89.1129 60.0533 89.323 59.9751C89.5246 59.9003 89.6697 59.9912 89.7841 60.156C89.8463 60.2455 89.9104 60.3355 89.9834 60.4165C90.8986 61.4288 91.8162 62.4387 92.7309 63.451C92.7875 63.5131 92.8289 63.5894 92.8939 63.6822C93.1723 63.2644 93.421 62.9125 93.6448 62.5451C93.7248 62.4132 93.7847 62.2451 93.7856 62.0934C93.8148 58.3764 93.8337 54.6595 93.86 50.942C93.861 50.7786 93.8125 50.691 93.6646 50.6156C92.9377 50.2468 92.2166 49.8666 91.4949 49.4874C91.0748 49.2665 91.03 49.006 91.347 48.6481C91.5689 48.3975 91.7931 48.1488 92.0169 47.8986C91.9636 47.8195 91.9259 47.7606 91.8854 47.7036C90.9104 46.3385 89.9349 44.9735 88.9608 43.607C88.8929 43.5118 88.8208 43.4139 88.7803 43.3065C88.688 43.0629 88.8543 42.8156 89.1148 42.8072C89.2217 42.8039 89.3324 42.8307 89.437 42.8604C90.3338 43.1143 91.2298 43.3724 92.1261 43.6287C92.2105 43.6527 92.2957 43.6729 92.4182 43.7045C92.3673 43.5783 92.3362 43.4987 92.3037 43.4195C92.0079 42.7026 91.7093 41.9866 91.4163 41.2683C91.3065 40.9998 91.3503 40.7699 91.5552 40.703C91.6881 40.6597 91.8694 40.6719 91.9985 40.7285C92.5656 40.9772 93.121 41.2513 93.681 41.5151C93.7465 41.5462 93.8162 41.5688 93.9142 41.6074ZM93.8775 49.8775V42.4317C93.4074 42.216 92.9519 42.0064 92.4493 41.7756C92.4978 41.9014 92.5242 41.9734 92.5534 42.0441C92.8252 42.7031 93.0984 43.3616 93.3692 44.021C93.4413 44.1977 93.4601 44.3748 93.3188 44.5279C93.1836 44.6734 93.0145 44.6668 92.8388 44.616C92.568 44.5378 92.2967 44.4619 92.0253 44.3847C91.3866 44.2029 90.7483 44.0206 90.0503 43.8218C90.1351 43.9461 90.1774 44.0111 90.2227 44.0747C91.038 45.217 91.8539 46.3588 92.6692 47.5011C92.9415 47.8831 92.9335 48.0093 92.6184 48.364C92.4483 48.5548 92.2773 48.7446 92.0932 48.95C92.6952 49.2628 93.2679 49.5605 93.8775 49.8775ZM93.7555 76.104V63.759C93.5981 63.9912 93.4658 64.2008 93.3183 64.3996C93.1247 64.6601 92.868 64.6785 92.6334 64.458C92.5595 64.3883 92.4931 64.3101 92.4243 64.2348C91.7295 63.4684 91.0347 62.7011 90.34 61.9347C90.2844 61.873 90.2269 61.8136 90.1299 61.7105C90.1445 61.8032 90.1478 61.8325 90.1539 61.8617C90.4657 63.3808 90.7775 64.8994 91.0898 66.4185C91.1845 66.8787 91.2792 67.3389 91.3748 67.7986C91.4158 67.996 91.404 68.1807 91.2151 68.2984C91.0135 68.4242 90.8407 68.3403 90.6819 68.2014C90.6466 68.1708 90.6122 68.1387 90.5774 68.1072C89.2966 66.9517 88.0163 65.7967 86.7356 64.6417C86.6682 64.581 86.5985 64.5226 86.5297 64.4632C86.5175 64.4712 86.5052 64.4792 86.4925 64.4872C86.5344 64.5763 86.5754 64.6658 86.6183 64.7543C87.484 66.5372 88.3498 68.3201 89.216 70.1029C89.2514 70.6748 89.7262 70.9084 90.0818 71.2381C91.5359 72.5844 92.6702 74.1708 93.5807 75.9236C93.616 75.9914 93.6537 76.0583 93.6905 76.1261C93.7121 76.1186 93.7338 76.111 93.7555 76.104ZM92.8209 77.3574C92.9867 77.2773 93.1313 77.1534 93.2788 77.0545C92.8412 76.0399 92.2891 75.1228 91.6824 74.2335C90.4784 72.4694 88.9598 71.0657 87.0507 70.0921C83.158 68.1076 79.1108 66.5104 74.9125 65.304C72.1192 64.5009 69.2675 64.0657 66.3541 64.0831C65.8572 64.0859 65.747 64.2169 65.811 64.7119C65.8134 64.7275 65.8172 64.743 65.819 64.7586C65.9024 65.4425 66.1403 66.0808 66.4045 66.7105C67.0518 68.2518 68.2034 69.4147 69.3273 70.597C69.3683 70.6404 69.4724 70.6588 69.5341 70.6423C70.9454 70.2617 72.1644 70.7572 73.3095 71.5019C74.0123 71.9588 74.6722 72.4807 75.3515 72.9734C76.4688 73.7841 77.5635 74.6282 78.7147 75.387C79.1302 75.6607 79.2587 75.9947 79.3327 76.4144C79.3515 76.5218 79.3586 76.6339 79.3511 76.7422C79.3313 77.0442 79.3016 77.3456 79.2729 77.6772C79.9158 77.8162 80.5626 77.9702 81.215 78.0941C82.8024 78.3951 84.4006 78.6052 86.0172 78.6758C87.1487 78.7253 88.2787 78.7229 89.3955 78.5529C90.6051 78.3683 91.7253 77.8878 92.8209 77.3574ZM86.444 46.3937C86.3427 46.3937 86.3046 46.3899 86.2669 46.3937C85.0214 46.5321 83.776 46.6702 82.5311 46.8138C82.4613 46.8218 82.3827 46.8652 82.3332 46.916C81.1043 48.1709 79.8777 49.4281 78.6553 50.6891C78.6059 50.7404 78.5687 50.8445 78.5842 50.91C78.8541 52.0443 79.1334 53.1762 79.4278 54.3787C79.4938 54.2515 79.5315 54.1856 79.5635 54.1168C80.0694 53.0381 80.5725 51.959 81.0807 50.8817C81.2583 50.5049 81.5343 50.4093 81.9102 50.5817C81.9814 50.6142 82.0497 50.6533 82.1184 50.6905C83.1109 51.2279 84.1029 51.7654 85.0954 52.3024C85.1604 52.3377 85.2287 52.3669 85.2951 52.3985C84.8368 51.9048 84.3568 51.4441 83.8768 50.9835C83.2993 50.43 82.7199 49.8789 82.1457 49.3216C81.833 49.0178 81.8763 48.7479 82.2612 48.5378C82.2885 48.5228 82.3167 48.5086 82.3445 48.494C83.6291 47.8398 84.9141 47.1855 86.1986 46.5307C86.265 46.4973 86.3286 46.4582 86.444 46.3932V46.3937ZM78.5376 77.2707C78.6195 76.9759 78.5541 76.6372 78.5381 76.3197C78.5343 76.2495 78.465 76.1638 78.4019 76.1181C77.2559 75.2825 76.1056 74.4516 74.9563 73.6202C74.8941 73.575 74.8291 73.5335 74.7438 73.4756C74.75 73.534 74.7481 73.5646 74.7565 73.5928C74.9417 74.225 74.9238 74.8632 74.7966 75.5001C74.5234 76.8689 73.7839 77.9919 72.9379 79.0687C71.814 80.4992 70.1338 81.0268 68.6071 81.8073C66.9966 82.2124 65.3777 82.5308 63.7036 82.2878C63.6711 82.2831 63.6372 82.2915 63.5934 82.2948C63.7545 82.5718 64.0211 82.5162 64.251 82.5539C65.7898 82.8073 67.3301 83.0499 68.8676 83.3137C70.3585 83.569 71.8427 83.8742 73.3679 83.8012C73.5135 83.7942 73.6647 83.7697 73.8003 83.7183C74.6025 83.414 75.2488 82.8742 75.8451 82.2831C77.2502 80.8902 78.0166 79.1403 78.5376 77.2707ZM73.7773 76.2914C74.0867 75.5769 74.2389 74.819 74.0858 74.0403C73.8404 72.7907 72.3754 71.4633 70.9896 71.322C69.5261 71.1731 68.2732 71.6465 67.3848 72.875C66.4055 74.2292 65.8751 75.7714 65.5746 77.3979C65.4672 77.9811 65.4888 78.5708 65.7027 79.137C65.9085 79.681 66.2858 80.0122 66.8864 80.0037C67.1968 79.9995 67.5181 79.9787 67.8144 79.8949C69.9293 79.2953 71.4357 77.3494 71.4998 75.1534C71.5144 74.6461 71.4513 74.1501 71.1757 73.7064C70.975 73.3837 70.7937 73.3074 70.4451 73.4454C70.2072 73.5396 69.9675 73.6569 69.7664 73.8128C68.6679 74.6631 67.7974 75.697 67.3047 77.0131C67.2213 77.2354 67.1756 77.4841 67.1733 77.7215C67.1695 78.047 67.356 78.202 67.6811 78.2109C67.9938 78.2194 68.2647 78.1012 68.5087 77.9194C68.886 77.6386 69.187 77.2886 69.3886 76.8633C69.5596 76.5029 69.7871 76.1492 69.4748 75.7314C69.3617 75.5797 69.4286 75.3748 69.6057 75.2599C69.7649 75.1562 69.9298 75.1793 70.056 75.314C70.3194 75.5952 70.4795 75.917 70.3844 76.3183C70.1521 77.2995 69.6354 78.0946 68.7814 78.6339C68.5124 78.804 68.1785 78.9081 67.861 78.9575C67.1276 79.071 66.5718 78.6438 66.4328 77.9161C66.3494 77.4813 66.4648 77.0757 66.6198 76.6786C67.169 75.274 68.0975 74.1567 69.2736 73.2396C69.5417 73.0309 69.8559 72.8637 70.1733 72.7407C70.8846 72.4661 71.4447 72.6819 71.837 73.3366C72.1008 73.777 72.2176 74.2613 72.2454 74.769C72.3062 75.8807 72.0438 76.9193 71.4889 77.877C70.5846 79.4361 69.2487 80.4177 67.4682 80.7381C66.422 80.9265 65.6137 80.5666 65.169 79.7555C65.0211 79.4856 64.8958 79.1784 64.8605 78.8765C64.7945 78.3056 64.8016 77.7267 64.7776 77.1384C64.6608 77.1629 64.51 77.201 64.3574 77.2255C64.0324 77.2769 63.7022 77.3009 63.3824 77.372C62.688 77.5256 62.1487 77.9264 61.7926 78.5308C61.3753 79.2402 61.4572 79.9623 61.8873 80.6405C61.9937 80.8092 62.176 80.9415 62.347 81.0551C62.5594 81.1964 62.7337 81.3721 63.0215 81.4324C64.7422 81.7922 66.4229 81.5643 68.0984 81.1634C68.1578 81.1493 68.2152 81.121 68.2694 81.0913C68.4512 80.9924 68.6213 80.8615 68.8139 80.7946C69.7367 80.4747 70.6312 80.1026 71.4051 79.4884C72.481 78.6344 73.2374 77.5383 73.7773 76.2914ZM63.7116 76.5411C63.4568 76.3762 63.2462 76.2688 63.0715 76.12C62.6635 75.7728 62.2099 75.746 61.7055 75.8265C60.2834 76.0545 59.3879 77.2076 59.5891 78.6047C59.631 78.8958 59.6484 79.2486 59.8208 79.4493C60.0954 79.7691 60.4906 79.9853 60.8858 80.2835C60.6791 79.3141 60.7954 78.4818 61.4087 77.7616C61.9966 77.072 62.738 76.6574 63.7116 76.5411ZM61.4176 75.0879C61.3324 75.0309 61.2749 74.9918 61.216 74.9542C60.0794 74.2288 58.9404 73.5071 57.8076 72.7761C57.5914 72.6362 57.3813 72.5434 57.1128 72.5462C56.7176 72.5504 56.3973 72.3291 56.3186 72.0036C56.2748 71.8213 56.175 71.7266 56.029 71.639C54.8537 70.9315 53.6554 70.2574 52.5192 69.4915C52.0557 69.1792 51.5729 69.0214 51.0604 68.8886C50.856 68.8359 50.644 68.7883 50.4349 68.7859C50.0223 68.7817 49.603 68.7728 49.1975 68.8359C48.7943 68.899 48.514 69.1703 48.4711 69.5947C48.416 70.1373 48.5884 70.646 48.7778 71.1458C48.7877 71.1717 48.8197 71.1915 48.8442 71.2103C49.7373 71.9004 50.6299 72.5919 51.5277 73.2758C51.5781 73.314 51.6912 73.3192 51.7486 73.289C52.3737 72.9645 52.9907 72.6244 53.6163 72.3008C53.7812 72.2155 53.9653 72.1628 54.1457 72.1143C54.4774 72.0248 54.7901 72.0606 55.0318 72.33C55.2762 72.6018 55.2795 72.9353 55.1377 73.2349C54.9823 73.5637 54.775 73.8731 54.5537 74.1638C54.3327 74.4534 54.0671 74.7087 53.8056 74.9966C55.476 76.2425 57.1331 77.4789 58.818 78.7366C58.8472 76.6028 59.3856 75.852 61.4176 75.0879ZM59.103 47.8063C59.1053 47.7908 59.1072 47.7752 59.1091 47.7597C59.0902 47.747 59.0728 47.7295 59.0521 47.7225C57.8618 47.3051 56.6724 46.8868 55.4811 46.4733C55.2809 46.404 55.0897 46.331 55.0572 46.0884C55.0266 45.859 55.1745 45.7323 55.3436 45.616C56.2414 44.9989 57.1378 44.379 58.0342 43.7601C58.1246 43.6974 58.2136 43.6329 58.3031 43.5693C57.4006 44.0036 56.5235 44.4728 55.6455 44.94C55.1797 45.1878 54.9442 45.078 54.8405 44.5665C54.3794 42.2853 53.9187 40.004 53.4576 37.7223C53.3808 37.344 53.3016 36.9663 53.2234 36.5885C53.1985 36.6723 53.1942 36.7505 53.1989 36.8283C53.2894 38.3384 53.3798 39.8486 53.4731 41.3582C53.5329 42.3286 53.5904 43.2989 53.6658 44.2679C53.6832 44.4892 53.694 44.6857 53.4632 44.7836C53.2296 44.883 53.0817 44.7441 52.9526 44.5651C51.6747 42.7902 50.3948 41.0167 49.115 39.2438C49.0783 39.1929 49.0335 39.1486 48.9926 39.1015C49.0514 39.3252 49.1334 39.5278 49.2154 39.7308C49.6346 40.7614 50.0576 41.7907 50.4697 42.8241C50.6266 43.217 50.4132 43.4841 49.9978 43.4313C49.5625 43.3757 49.1282 43.3121 48.6935 43.2542C48.3609 43.2094 48.0279 43.1685 47.6948 43.1256C47.7396 43.2014 47.7919 43.233 47.8475 43.2589C48.7132 43.6635 49.5804 44.0663 50.4457 44.4718C50.9328 44.7003 50.9884 44.8929 50.7086 45.3508C49.2295 47.771 47.7504 50.1917 46.2723 52.6123C46.2375 52.6693 46.2101 52.7306 46.1795 52.7894C46.2629 52.748 46.3199 52.6886 46.3717 52.625C47.6826 51.0136 48.9926 49.4017 50.3035 47.7903C50.6596 47.3522 51.0152 46.9142 51.3741 46.4784C51.498 46.3282 51.6535 46.2448 51.8508 46.3225C52.0345 46.3946 52.1014 46.5472 52.1047 46.7347C52.1057 46.7973 52.1057 46.8605 52.1057 46.9231C52.1057 48.6316 52.1057 50.3405 52.1066 52.0494C52.1066 52.1262 52.1127 52.203 52.1189 52.3401C52.157 52.2515 52.1735 52.2242 52.1806 52.1945C52.4198 51.1479 52.6544 50.1003 52.898 49.0546C53.0934 48.2161 53.2913 47.3777 53.5098 46.5444C53.5405 46.4276 53.6841 46.2872 53.7991 46.2604C53.9046 46.2359 54.0454 46.3437 54.1646 46.405C54.264 46.4558 54.3464 46.5519 54.4491 46.5802C55.4924 46.8652 56.5386 47.1412 57.5843 47.4172C58.0898 47.5501 58.5966 47.6768 59.103 47.8063Z"
        fill="#3D2A26" />
      <path
        d="M93.8773 42.4315V49.8773C93.2678 49.5603 92.695 49.2626 92.093 48.9498C92.2772 48.7444 92.4482 48.5546 92.6182 48.3638C92.9333 48.0091 92.9413 47.8829 92.6691 47.5009C91.8537 46.3586 91.0379 45.2168 90.2225 44.0745C90.1773 44.0109 90.1349 43.9459 90.0501 43.8216C90.7482 44.0204 91.3864 44.2027 92.0252 44.3845C92.2965 44.4617 92.5678 44.5376 92.8387 44.6158C93.0144 44.6666 93.1835 44.6732 93.3187 44.5277C93.46 44.3746 93.4411 44.1975 93.3691 44.0208C93.0982 43.3614 92.825 42.7029 92.5532 42.0439C92.524 41.9732 92.4976 41.9012 92.4491 41.7754C92.9517 42.0062 93.4072 42.2158 93.8773 42.4315Z"
        fill="#FFC736" />
      <path
        d="M93.7553 63.7589V76.1038C93.7337 76.1109 93.712 76.1184 93.6903 76.1259C93.6536 76.0581 93.6159 75.9912 93.5806 75.9234C92.6701 74.1707 91.5358 72.5842 90.0817 71.238C89.7261 70.9082 89.2512 70.6746 89.2159 70.1028C88.3497 68.3199 87.4839 66.537 86.6181 64.7542C86.5753 64.6656 86.5343 64.5761 86.4924 64.4871C86.5051 64.4791 86.5173 64.4711 86.5296 64.4631C86.5984 64.5224 86.6681 64.5808 86.7354 64.6416C88.0162 65.7966 89.2965 66.9516 90.5772 68.107C90.6121 68.1386 90.6465 68.1706 90.6818 68.2012C90.8405 68.3402 91.0134 68.424 91.215 68.2983C91.4039 68.1805 91.4157 67.9958 91.3747 67.7985C91.2791 67.3387 91.1844 66.8785 91.0897 66.4183C90.7774 64.8992 90.4656 63.3806 90.1538 61.8615C90.1476 61.8323 90.1443 61.8031 90.1297 61.7103C90.2268 61.8135 90.2842 61.8728 90.3398 61.9345C91.0346 62.7009 91.7294 63.4682 92.4242 64.2346C92.4929 64.31 92.5594 64.3882 92.6333 64.4579C92.8679 64.6783 93.1246 64.6599 93.3182 64.3995C93.4656 64.2007 93.598 63.9911 93.7553 63.7589Z"
        fill="#FFC736" />
      <path
        d="M93.2786 77.0544C93.1311 77.1533 92.9865 77.2772 92.8207 77.3573C91.7251 77.8876 90.6049 78.3681 89.3953 78.5528C88.2785 78.7228 87.1485 78.7252 86.017 78.6757C84.4004 78.605 82.8022 78.395 81.2148 78.094C80.5624 77.9701 79.9156 77.816 79.2727 77.6771C79.3014 77.3455 79.3311 77.044 79.3509 76.7421C79.3584 76.6337 79.3513 76.5216 79.3325 76.4142C79.2585 75.9945 79.13 75.6606 78.7145 75.3869C77.5633 74.6281 76.4686 73.7839 75.3513 72.9733C74.672 72.4806 74.0121 71.9587 73.3093 71.5018C72.1642 70.757 70.9452 70.2615 69.5339 70.6421C69.4722 70.6586 69.3681 70.6402 69.3271 70.5969C68.2032 69.4146 67.0516 68.2517 66.4043 66.7104C66.1401 66.0807 65.9022 65.4424 65.8188 64.7584C65.817 64.7429 65.8132 64.7273 65.8108 64.7118C65.7468 64.2167 65.857 64.0858 66.3539 64.0829C69.2673 64.0655 72.119 64.5007 74.9123 65.3039C79.1106 66.5102 83.1578 68.1075 87.0505 70.0919C88.9596 71.0656 90.4782 72.4693 91.6822 74.2333C92.2889 75.1226 92.841 76.0398 93.2786 77.0544Z"
        fill="#815252" />
      <path
        d="M86.2667 46.394C86.3044 46.3898 86.3425 46.394 86.4438 46.394C86.3284 46.459 86.2648 46.4981 86.1984 46.5316C84.9139 47.1863 83.6289 47.8406 82.3443 48.4949C82.3165 48.5095 82.2883 48.5236 82.261 48.5387C81.8761 48.7487 81.8328 49.0187 82.1456 49.3225C82.7197 49.8797 83.2991 50.4308 83.8766 50.9843C84.3566 51.445 84.8366 51.9057 85.2949 52.3993C85.2285 52.3677 85.1602 52.3385 85.0952 52.3032C84.1027 51.7662 83.1107 51.2288 82.1182 50.6913C82.0495 50.6541 81.9812 50.615 81.91 50.5825C81.5341 50.4101 81.2581 50.5057 81.0805 50.8826C80.5723 51.9598 80.0692 53.039 79.5633 54.1177C79.5313 54.1864 79.4936 54.2524 79.4277 54.3796C79.1333 53.177 78.8539 52.0451 78.584 50.9108C78.5685 50.8453 78.6057 50.7412 78.6551 50.6899C79.8775 49.4289 81.1041 48.1717 82.333 46.9169C82.3825 46.866 82.4612 46.8227 82.5309 46.8147C83.7758 46.671 85.0212 46.533 86.2667 46.3945V46.394Z"
        fill="#FFC736" />
      <path
        d="M78.5379 76.3196C78.5539 76.6371 78.6194 76.9757 78.5374 77.2706C78.0164 79.1402 77.2501 80.8901 75.8449 82.2829C75.2486 82.8741 74.6023 83.4139 73.8002 83.7182C73.6645 83.7695 73.5133 83.794 73.3677 83.8011C71.8425 83.8741 70.3583 83.5689 68.8674 83.3136C67.33 83.0498 65.7897 82.8072 64.2508 82.5538C64.0209 82.5161 63.7543 82.5717 63.5932 82.2947C63.637 82.2914 63.6709 82.2829 63.7034 82.2876C65.3775 82.5307 66.9965 82.2123 68.6069 81.8072C70.1336 81.0267 71.8138 80.4991 72.9377 79.0686C73.7837 77.9918 74.5232 76.8688 74.7964 75.5C74.9236 74.8631 74.9415 74.2249 74.7564 73.5927C74.7479 73.5645 74.7498 73.5338 74.7437 73.4754C74.8289 73.5334 74.8939 73.5748 74.9561 73.62C76.1054 74.4514 77.2557 75.2823 78.4017 76.118C78.4649 76.1637 78.5341 76.2494 78.5379 76.3196Z"
        fill="#95C29A" />
      <path
        d="M74.0856 74.0402C74.2386 74.8188 74.0865 75.5767 73.777 76.2913C73.2372 77.5381 72.4807 78.6342 71.4049 79.4882C70.6309 80.1025 69.7364 80.4746 68.8137 80.7944C68.621 80.8613 68.451 80.9923 68.2692 81.0912C68.215 81.1209 68.1575 81.1491 68.0982 81.1633C66.4227 81.5641 64.742 81.7921 63.0213 81.4322C62.7335 81.3719 62.5592 81.1962 62.3468 81.0549C62.1758 80.9414 61.9935 80.809 61.887 80.6404C61.457 79.9621 61.375 79.24 61.7924 78.5306C62.1485 77.9263 62.6878 77.5254 63.3821 77.3719C63.702 77.3007 64.0322 77.2767 64.3572 77.2254C64.5098 77.2009 64.6605 77.1627 64.7773 77.1382C64.8014 77.7266 64.7943 78.3055 64.8602 78.8764C64.8956 79.1783 65.0209 79.4854 65.1688 79.7553C65.6134 80.5665 66.4217 80.9263 67.4679 80.7379C69.2484 80.4176 70.5843 79.436 71.4887 77.8768C72.0436 76.9192 72.306 75.8806 72.2452 74.7689C72.2174 74.2611 72.1006 73.7769 71.8368 73.3365C71.4444 72.6817 70.8844 72.466 70.1731 72.7406C69.8556 72.8635 69.5414 73.0308 69.2734 73.2394C68.0972 74.1565 67.1688 75.2739 66.6196 76.6785C66.4646 77.0756 66.3492 77.4811 66.4326 77.9159C66.5715 78.6437 67.1274 79.0709 67.8608 78.9574C68.1782 78.9079 68.5122 78.8038 68.7812 78.6338C69.6352 78.0944 70.1519 77.2993 70.3841 76.3182C70.4793 75.9168 70.3191 75.5951 70.0558 75.3139C69.9296 75.1792 69.7647 75.1561 69.6055 75.2597C69.4284 75.3747 69.3615 75.5796 69.4745 75.7312C69.7868 76.149 69.5593 76.5028 69.3883 76.8631C69.1867 77.2885 68.8857 77.6385 68.5084 77.9192C68.2644 78.101 67.9936 78.2193 67.6808 78.2108C67.3558 78.2018 67.1693 78.0469 67.173 77.7214C67.1754 77.484 67.2211 77.2353 67.3045 77.0129C67.7972 75.6969 68.6677 74.6629 69.7661 73.8127C69.9673 73.6568 70.207 73.5395 70.4449 73.4453C70.7935 73.3073 70.9748 73.3836 71.1755 73.7062C71.451 74.15 71.5141 74.646 71.4995 75.1533C71.4355 77.3493 69.9291 79.2951 67.8141 79.8948C67.5178 79.9786 67.1966 79.9993 66.8862 80.0036C66.2856 80.012 65.9083 79.6809 65.7025 79.1369C65.4886 78.5707 65.4669 77.9809 65.5743 77.3978C65.8749 75.7713 66.4053 74.2291 67.3845 72.8748C68.2729 71.6464 69.5259 71.173 70.9894 71.3218C72.3752 71.4631 73.8401 72.7905 74.0856 74.0402Z"
        fill="#CCECE2" />
      <path
        d="M63.0713 76.1198C63.2461 76.2687 63.4566 76.3761 63.7115 76.5409C62.7378 76.6573 61.9964 77.0718 61.4085 77.7614C60.7952 78.4816 60.6789 79.314 60.8857 80.2834C60.4905 79.9852 60.0953 79.769 59.8207 79.4491C59.6483 79.2485 59.6308 78.8957 59.5889 78.6046C59.3878 77.2075 60.2832 76.0544 61.7053 75.8264C62.2098 75.7458 62.6634 75.7727 63.0713 76.1198Z"
        fill="#919793" />
      <path
        d="M61.2159 74.954C61.2748 74.9917 61.3323 75.0308 61.4175 75.0878C59.3855 75.8518 58.8471 76.6026 58.8178 78.7365C57.1329 77.4788 55.4758 76.2423 53.8055 74.9964C54.0669 74.7086 54.3326 74.4533 54.5535 74.1636C54.7749 73.873 54.9822 73.5635 55.1376 73.2347C55.2794 72.9351 55.2761 72.6016 55.0316 72.3298C54.79 72.0604 54.4772 72.0246 54.1456 72.1141C53.9652 72.1626 53.781 72.2154 53.6162 72.3006C52.9906 72.6242 52.3736 72.9643 51.7485 73.2889C51.691 73.319 51.578 73.3138 51.5276 73.2757C50.6298 72.5917 49.7371 71.9003 48.8441 71.2102C48.8196 71.1913 48.7875 71.1716 48.7776 71.1457C48.5883 70.6459 48.4159 70.1372 48.471 69.5945C48.5139 69.1701 48.7941 68.8988 49.1973 68.8357C49.6029 68.7726 50.0221 68.7815 50.4348 68.7857C50.6439 68.7881 50.8559 68.8357 51.0603 68.8884C51.5728 69.0213 52.0556 69.1791 52.5191 69.4914C53.6553 70.2573 54.8536 70.9313 56.0288 71.6388C56.1748 71.7264 56.2747 71.8211 56.3185 72.0034C56.3972 72.3289 56.7175 72.5503 57.1127 72.5461C57.3812 72.5432 57.5913 72.636 57.8075 72.7759C58.9403 73.507 60.0793 74.2286 61.2159 74.954Z"
        fill="#699A76" />
      <path
        d="M59.109 47.7594C59.1071 47.775 59.1052 47.7905 59.1029 47.8061C58.5965 47.6765 58.0897 47.5498 57.5843 47.417C56.5385 47.141 55.4924 46.8649 54.449 46.58C54.3463 46.5517 54.2639 46.4556 54.1645 46.4047C54.0453 46.3435 53.9045 46.2356 53.799 46.2601C53.684 46.287 53.5404 46.4273 53.5098 46.5442C53.2912 47.3774 53.0934 48.2159 52.8979 49.0543C52.6544 50.1 52.4198 51.1476 52.1805 52.1943C52.1734 52.2239 52.1569 52.2513 52.1188 52.3398C52.1127 52.2027 52.1065 52.126 52.1065 52.0492C52.1056 50.3403 52.1056 48.6313 52.1056 46.9229C52.1056 46.8602 52.1056 46.7971 52.1047 46.7344C52.1014 46.547 52.0345 46.3944 51.8508 46.3223C51.6534 46.2446 51.498 46.3279 51.3741 46.4782C51.0151 46.9139 50.6595 47.352 50.3034 47.7901C48.9925 49.4015 47.6825 51.0134 46.3716 52.6248C46.3198 52.6884 46.2628 52.7477 46.1794 52.7892C46.2101 52.7303 46.2374 52.6691 46.2722 52.6121C47.7504 50.1914 49.2294 47.7707 50.7085 45.3505C50.9883 44.8927 50.9327 44.7 50.4457 44.4716C49.5804 44.066 48.7132 43.6633 47.8474 43.2586C47.7918 43.2327 47.7395 43.2012 47.6948 43.1253C48.0278 43.1682 48.3608 43.2092 48.6934 43.2539C49.1282 43.3119 49.5625 43.3755 49.9977 43.431C50.4131 43.4838 50.6265 43.2167 50.4697 42.8239C50.0575 41.7904 49.6345 40.7612 49.2153 39.7306C49.1333 39.5275 49.0514 39.325 48.9925 39.1013C49.0335 39.1484 49.0782 39.1926 49.115 39.2435C50.3948 41.0165 51.6746 42.79 52.9525 44.5648C53.0816 44.7438 53.2295 44.8828 53.4631 44.7834C53.6939 44.6854 53.6831 44.489 53.6657 44.2676C53.5903 43.2987 53.5328 42.3283 53.473 41.358C53.3798 39.8483 53.2893 38.3382 53.1989 36.828C53.1942 36.7503 53.1984 36.6721 53.2234 36.5883C53.3016 36.966 53.3807 37.3438 53.4575 37.722C53.9186 40.0038 54.3793 42.285 54.8404 44.5663C54.9441 45.0778 55.1796 45.1876 55.6455 44.9398C56.5235 44.4725 57.4006 44.0034 58.3031 43.5691C58.2136 43.6327 58.1245 43.6972 58.0341 43.7598C57.1377 44.3788 56.2413 44.9987 55.3435 45.6157C55.1744 45.7321 55.0265 45.8588 55.0571 46.0882C55.0896 46.3308 55.2809 46.4038 55.4811 46.473C56.6723 46.8866 57.8617 47.3049 59.052 47.7222C59.0727 47.7293 59.0902 47.7467 59.109 47.7594Z"
        fill="#FFD698" />
      <path
        d="M78.7711 81.8839C78.2525 81.8839 77.7291 81.85 77.2025 81.7817L77.293 81.0808C78.7193 81.2655 80.1187 81.1845 81.4532 80.8401C86.4019 79.5641 88.8622 75.044 89.4981 73.6893L90.1377 73.9898C89.5508 75.2399 88.718 76.5146 87.7924 77.5791C86.0406 79.5942 83.9671 80.9221 81.6298 81.5245C80.7019 81.7638 79.7452 81.8839 78.7711 81.8839Z"
        fill="#3D2A26" />
      <path
        d="M90.4811 74.6601C90.1679 74.6601 89.8678 74.5833 89.6102 74.4269C89.1961 74.1749 88.9027 73.7166 88.8056 73.1697C88.6888 72.5112 88.8725 71.8188 89.3101 71.2705L89.8627 71.7109C89.5518 72.1004 89.4204 72.5875 89.5014 73.0463C89.5621 73.3883 89.7402 73.6789 89.9771 73.823C90.3657 74.0595 90.9687 73.9667 91.4435 73.5974L91.8778 74.1547C91.4505 74.4877 90.9512 74.6601 90.4811 74.6601Z"
        fill="#3D2A26" />
      <path
        d="M67.491 72.2917C67.3002 72.1565 66.6723 71.6435 66.5965 70.726C66.5159 69.7486 67.141 69.1103 67.2673 68.9921L67.7501 69.5079C67.6983 69.5564 67.2456 70.0006 67.3007 70.668C67.3525 71.2973 67.8089 71.6511 67.8999 71.7156L67.491 72.2917Z"
        fill="#3D2A26" />
    </g>
    <mask id="mask1_225_25450" style="mask-type:luminance" maskUnits="userSpaceOnUse" x="294" y="29"
      width="53" height="56">
      <path d="M294.199 29.7177H346.544V84.6098H294.199V29.7177Z" fill="white" />
    </mask>
    <g mask="url(#mask1_225_25450)">
      <path
        d="M294.992 35.0381V41.6072C295.09 41.5686 295.16 41.5459 295.225 41.5149C295.785 41.2511 296.341 40.9769 296.908 40.7282C297.037 40.6717 297.218 40.6595 297.351 40.7028C297.556 40.7697 297.6 40.9995 297.49 41.268C297.197 41.9864 296.898 42.7023 296.602 43.4193C296.57 43.4984 296.539 43.578 296.488 43.7042C296.61 43.6727 296.696 43.6524 296.78 43.6284C297.676 43.3722 298.572 43.114 299.469 42.8601C299.574 42.8305 299.684 42.8036 299.791 42.8069C300.052 42.8154 300.218 43.0627 300.126 43.3062C300.085 43.4136 300.013 43.5116 299.945 43.6067C298.971 44.9732 297.996 46.3383 297.021 47.7034C296.98 47.7604 296.943 47.8193 296.889 47.8984C297.113 48.1485 297.337 48.3972 297.559 48.6478C297.876 49.0058 297.831 49.2663 297.411 49.4872C296.69 49.8664 295.968 50.2465 295.242 50.6153C295.094 50.6907 295.045 50.7783 295.046 50.9418C295.073 54.6592 295.091 58.3762 295.121 62.0932C295.121 62.2448 295.181 62.413 295.261 62.5449C295.485 62.9123 295.734 63.2642 296.012 63.682C296.077 63.5892 296.119 63.5129 296.175 63.4507C297.09 62.4384 298.008 61.4285 298.923 60.4163C298.996 60.3352 299.06 60.2453 299.122 60.1558C299.236 59.9909 299.382 59.9 299.583 59.9749C299.793 60.0531 299.86 60.2274 299.823 60.4313C299.763 60.7705 299.681 61.1054 299.611 61.4427C299.247 63.2076 298.883 64.9722 298.52 66.7371C298.51 66.7819 298.511 66.829 298.503 66.9223C298.595 66.8436 298.66 66.7918 298.721 66.7362C300.212 65.3919 301.703 64.047 303.193 62.7027C303.228 62.6711 303.262 62.6386 303.298 62.608C303.518 62.4158 303.699 62.3866 303.867 62.5152C304.033 62.6419 304.059 62.836 303.935 63.0908C303.388 64.219 302.839 65.3466 302.292 66.4743C301.765 67.5601 301.238 68.6463 300.712 69.7321C300.692 69.773 300.676 69.8159 300.643 69.8936C300.7 69.8729 300.726 69.8668 300.749 69.855C301.825 69.3091 302.942 68.8981 304.022 68.3606C308.085 66.3356 311.383 65.3038 313.309 64.6954C316.562 63.8351 319.52 63.4314 322.581 63.3249C318.693 59.3395 314.855 55.4039 310.983 51.4335C310.897 51.7736 310.82 52.0723 310.746 52.3719C310.375 53.8858 310.004 55.4002 309.633 56.9146C309.624 56.9527 309.618 56.9918 309.606 57.0286C309.54 57.2283 309.412 57.3526 309.191 57.3399C308.992 57.3281 308.851 57.1642 308.849 56.9329C308.845 56.3526 308.861 55.7718 308.842 55.192C308.835 54.9729 308.79 54.7398 308.7 54.541C308.247 53.5414 307.775 52.5513 307.309 51.5579C307.276 51.4882 307.24 51.4199 307.195 51.3299C305.892 52.0346 304.617 52.7247 303.343 53.4147C302.729 53.7468 302.118 54.0836 301.501 54.4096C301.395 54.4661 301.254 54.5302 301.152 54.5042C301.034 54.4741 300.876 54.3611 300.855 54.2588C300.827 54.1312 300.879 53.9376 300.969 53.8424C301.331 53.4618 301.721 53.1086 302.1 52.7449C303.335 51.5626 304.569 50.3794 305.805 49.198C305.85 49.1551 305.908 49.1264 305.993 49.0689C305.874 49.0006 305.811 48.9615 305.746 48.9281C303.951 48.0143 302.155 47.1037 300.363 46.1824C300.236 46.1164 300.102 45.9921 300.049 45.863C299.944 45.6087 300.182 45.368 300.494 45.3995C301.102 45.4608 301.709 45.5357 302.316 45.604C303.351 45.7203 304.386 45.8366 305.422 45.9516C305.473 45.9572 305.525 45.9525 305.637 45.9525C302.074 42.2991 298.548 38.6839 294.992 35.0381Z"
        fill="#FF9C40" />
      <path
        d="M294.46 33.7594C294.175 33.8697 294.212 34.1268 294.213 34.3614C294.252 42.1802 294.291 49.999 294.331 57.8183C294.36 63.5508 294.389 69.2828 294.419 75.0154C294.422 75.494 294.469 75.9749 294.431 76.4497C294.395 76.8901 294.59 77.1864 294.899 77.4299C295.206 77.6721 295.511 77.949 295.865 78.0918C296.887 78.5039 297.914 78.9288 298.975 79.2114C300.099 79.5105 301.276 79.4667 302.437 79.4403C304.924 79.3833 307.365 78.9999 309.777 78.4088C309.806 78.4017 309.837 78.3984 309.855 78.3956C310.213 79.1596 310.542 79.9048 310.909 80.6311C311.608 82.0136 312.641 83.1074 313.929 83.9515C314.319 84.2068 314.769 84.3684 315.196 84.5643C315.27 84.5982 315.364 84.5987 315.449 84.5978C318.099 84.5695 320.666 83.9251 323.27 83.5492C323.913 83.456 324.558 83.3674 325.198 83.2511C325.365 83.2209 325.531 83.1144 325.672 83.0089C328.949 80.5562 332.223 78.0988 335.498 75.6428C335.847 75.3801 336.271 75.1172 338.081 73.6979C338.843 73.1072 339.599 72.5076 340.373 71.9315C340.619 71.7478 340.802 71.5222 340.881 71.2485C341.017 70.7779 341.146 70.2946 341.184 69.809C341.247 68.9932 340.783 68.371 340 68.1279C339.784 68.061 339.556 68.0106 339.332 68.0003C338.084 67.9418 336.912 68.2339 335.846 68.8731C334.734 69.5396 333.651 70.2555 332.555 70.9499C332.509 70.9791 332.462 71.0069 332.406 71.0412C325.513 75.3823 332.406 71.0412 325.513 75.3823C327.992 68.1877 325.513 75.3823 327.992 68.1877C330.31 61.4613 332.625 54.7443 334.94 48.0277C334.955 48.0249 334.971 48.022 334.986 48.0197C335.007 48.0941 335.031 48.1681 335.048 48.2439C335.616 50.7428 336.184 53.2426 336.752 55.7419C336.76 55.7801 336.766 55.8192 336.777 55.8568C336.845 56.114 337.007 56.2492 337.219 56.2252C337.426 56.2012 337.555 56.0316 337.555 55.7598C337.557 54.7014 337.555 53.643 337.555 52.5845C337.555 51.0555 337.555 49.527 337.555 47.998V47.7182C337.649 47.8247 337.703 47.8826 337.753 47.9439C340.278 51.0447 342.801 54.146 345.325 57.2474C345.478 57.4358 345.629 57.6261 345.783 57.8145C345.983 58.0613 346.197 58.116 346.388 57.9723C346.569 57.8371 346.58 57.6195 346.423 57.3628C345.51 55.8719 344.598 54.3811 343.687 52.8893C342.167 50.4013 340.648 47.9128 339.129 45.4243C339.065 45.3183 339.002 45.2114 338.929 45.0884C339.714 44.7205 340.479 44.3607 341.245 44.0027C342.104 43.6004 342.963 43.1995 343.822 42.7982C343.857 42.7817 343.893 42.7648 343.927 42.7459C344.114 42.6437 344.211 42.4902 344.147 42.2791C344.082 42.0676 343.914 41.9866 343.704 42.0144C342.99 42.1091 342.277 42.2108 341.563 42.3097C340.835 42.4106 340.107 42.5109 339.336 42.6169C339.461 42.305 339.571 42.0252 339.685 41.7469C340.397 39.9974 341.11 38.248 341.822 36.4985C341.854 36.4194 341.886 36.3365 341.897 36.2522C341.919 36.0807 341.859 35.9144 341.694 35.8716C341.568 35.8395 341.413 35.8871 341.281 35.93C341.218 35.9507 341.174 36.0397 341.129 36.1029C339.513 38.3403 337.898 40.5787 336.283 42.8161C336.237 42.8792 336.189 42.94 336.099 43.0578C336.099 42.9278 336.096 42.8566 336.1 42.786C336.232 40.6027 336.365 38.419 336.498 36.2357C336.597 34.6083 336.694 32.9803 336.799 31.3529C336.817 31.0802 336.883 30.8098 336.896 30.5371C336.905 30.3468 336.885 30.148 336.835 29.9638C336.791 29.7989 336.632 29.6901 336.47 29.7429C336.342 29.7848 336.243 29.9228 336.136 30.0227C336.117 30.0406 336.117 30.082 336.115 30.1131C336.022 31.5992 335.614 33.0307 335.33 34.4825C334.712 37.6361 334.059 40.7831 333.421 43.9325C333.408 43.9923 333.39 44.0507 333.371 44.1265C333.309 44.1002 333.259 44.0837 333.213 44.0597C330.448 42.5811 327.683 41.1011 324.916 39.6258C324.809 39.5692 324.672 39.5104 324.565 39.5316C324.452 39.5537 324.311 39.6517 324.27 39.752C324.229 39.8533 324.273 40.0078 324.321 40.1213C324.353 40.1981 324.453 40.2499 324.53 40.3031C327.189 42.1383 329.848 43.972 332.507 45.8067C332.551 45.8369 332.593 45.8708 332.671 45.9306C332.432 46.0187 332.226 46.0993 332.017 46.1723C330.287 46.778 328.556 47.3805 326.826 47.9881C325.096 48.5953 323.369 49.2086 321.639 49.8176C321.24 49.958 320.839 50.0909 320.439 50.2308C320.359 50.259 320.276 50.292 320.209 50.3424C320.072 50.4465 320.016 50.5925 320.075 50.7593C320.137 50.9345 320.275 51.024 320.459 51.0056C320.598 50.9915 320.735 50.9481 320.871 50.9128C325.278 49.764 329.685 48.6146 334.093 47.4662C334.165 47.4469 334.24 47.4342 334.354 47.4102C331.983 54.2883 329.625 61.1301 327.275 67.9503C326.374 70.5777 326.759 69.4701 326.374 70.5777C325.753 72.3616 325.151 74.1525 324.51 75.9292C324.431 76.1478 324.16 76.2971 323.947 76.5095C323.796 76.0352 323.674 75.632 323.54 75.2325C323.21 74.2462 322.78 73.3074 322.159 72.4666C321.706 71.8519 321.208 71.2838 320.449 71.0285C320.407 71.0149 320.371 70.9852 320.315 70.9532C320.717 70.5024 321.105 70.0634 321.497 69.6291C322.443 68.5839 323.128 67.3893 323.558 66.0492C323.753 65.4439 323.916 64.8311 323.829 64.182C323.756 63.6365 323.525 63.1952 323.13 62.7929C319.199 58.7839 315.282 54.7607 311.364 50.739C311.274 50.6467 311.216 50.5237 311.14 50.4178C311.095 50.3551 311.05 50.2892 310.992 50.2402C310.809 50.0857 310.602 49.9561 310.436 49.7861C305.308 44.5345 300.184 39.2791 295.058 34.0246C294.894 33.8565 294.737 33.652 294.46 33.7594ZM294.992 41.6074V35.0383C298.548 38.6842 302.073 42.2994 305.636 45.9528C305.525 45.9528 305.473 45.9575 305.422 45.9518C304.386 45.8369 303.351 45.7205 302.316 45.6042C301.708 45.5359 301.102 45.461 300.494 45.3998C300.182 45.3682 299.944 45.6089 300.049 45.8633C300.102 45.9923 300.235 46.1167 300.363 46.1826C302.154 47.104 303.951 48.0145 305.746 48.9283C305.811 48.9618 305.874 49.0009 305.993 49.0692C305.908 49.1266 305.85 49.1554 305.805 49.1982C304.569 50.3796 303.335 51.5629 302.1 52.7452C301.721 53.1088 301.331 53.4621 300.969 53.8427C300.878 53.9378 300.827 54.1314 300.854 54.2591C300.876 54.3613 301.034 54.4743 301.152 54.5045C301.254 54.5304 301.395 54.4663 301.501 54.4098C302.118 54.0839 302.729 53.7471 303.342 53.415C304.617 52.7249 305.892 52.0348 307.195 51.3302C307.24 51.4201 307.276 51.4884 307.309 51.5581C307.775 52.5516 308.247 53.5417 308.7 54.5412C308.789 54.74 308.835 54.9732 308.842 55.1922C308.861 55.7721 308.845 56.3529 308.849 56.9332C308.851 57.1645 308.992 57.3284 309.191 57.3402C309.412 57.3529 309.54 57.2285 309.606 57.0288C309.618 56.9921 309.624 56.953 309.633 56.9148C310.004 55.4004 310.375 53.886 310.746 52.3721C310.82 52.0725 310.897 51.7739 310.983 51.4338C314.855 55.4042 318.693 59.3397 322.581 63.3252H321.35C318.038 63.541 317.069 63.6822 313.339 64.702C310.145 65.7113 307.38 66.7105 303.978 68.2212C302.898 68.7586 301.825 69.3092 300.749 69.8552C300.726 69.8669 300.7 69.8731 300.643 69.8938C300.676 69.8161 300.692 69.7732 300.712 69.7322C301.238 68.6465 301.765 67.5603 302.292 66.4746C302.839 65.3469 303.388 64.2192 303.935 63.0911C304.058 62.8362 304.032 62.6422 303.867 62.5155C303.699 62.3869 303.518 62.4161 303.298 62.6083C303.262 62.6389 303.228 62.6714 303.193 62.7029C301.703 64.0473 300.212 65.3921 298.721 66.7365C298.66 66.792 298.595 66.8438 298.502 66.9225C298.511 66.8292 298.51 66.7821 298.519 66.7374C298.883 64.9724 299.247 63.2079 299.611 61.4429C299.681 61.1056 299.762 60.7707 299.823 60.4316C299.86 60.2276 299.793 60.0533 299.583 59.9751C299.381 59.9003 299.236 59.9912 299.122 60.156C299.06 60.2455 298.996 60.3355 298.923 60.4165C298.007 61.4288 297.09 62.4387 296.175 63.451C296.119 63.5131 296.077 63.5894 296.012 63.6822C295.734 63.2644 295.485 62.9125 295.261 62.5451C295.181 62.4132 295.121 62.2451 295.12 62.0934C295.091 58.3764 295.072 54.6595 295.046 50.942C295.045 50.7786 295.094 50.691 295.241 50.6156C295.968 50.2468 296.689 49.8666 297.411 49.4874C297.831 49.2665 297.876 49.006 297.559 48.6481C297.337 48.3975 297.113 48.1488 296.889 47.8986C296.942 47.8195 296.98 47.7606 297.021 47.7036C297.996 46.3385 298.971 44.9735 299.945 43.607C300.013 43.5118 300.085 43.4139 300.126 43.3065C300.218 43.0629 300.052 42.8156 299.791 42.8072C299.684 42.8039 299.574 42.8307 299.469 42.8604C298.572 43.1143 297.676 43.3724 296.78 43.6287C296.696 43.6527 296.61 43.6729 296.488 43.7045C296.539 43.5783 296.57 43.4987 296.602 43.4195C296.898 42.7026 297.197 41.9866 297.49 41.2683C297.599 40.9998 297.556 40.7699 297.351 40.703C297.218 40.6597 297.037 40.6719 296.908 40.7285C296.34 40.9772 295.785 41.2513 295.225 41.5151C295.159 41.5462 295.09 41.5688 294.992 41.6074ZM295.029 49.8775V42.4317C295.499 42.216 295.954 42.0064 296.457 41.7756C296.408 41.9014 296.382 41.9734 296.353 42.0441C296.081 42.7031 295.808 43.3616 295.537 44.021C295.465 44.1977 295.446 44.3748 295.587 44.5279C295.722 44.6734 295.891 44.6668 296.067 44.616C296.338 44.5378 296.609 44.4619 296.881 44.3847C297.519 44.2029 298.158 44.0206 298.856 43.8218C298.771 43.9461 298.729 44.0111 298.683 44.0747C297.868 45.217 297.052 46.3588 296.237 47.5011C295.964 47.8831 295.973 48.0093 296.288 48.364C296.458 48.5548 296.629 48.7446 296.813 48.95C296.211 49.2628 295.638 49.5605 295.029 49.8775ZM295.151 76.104V63.759C295.308 63.9912 295.44 64.2008 295.588 64.3996C295.781 64.6601 296.038 64.6785 296.273 64.458C296.347 64.3883 296.413 64.3101 296.482 64.2348C297.176 63.4684 297.871 62.7011 298.566 61.9347C298.622 61.873 298.679 61.8136 298.776 61.7105C298.762 61.8032 298.758 61.8325 298.752 61.8617C298.44 63.3808 298.128 64.8994 297.816 66.4185C297.721 66.8787 297.627 67.3389 297.531 67.7986C297.49 67.996 297.502 68.1807 297.691 68.2984C297.892 68.4242 298.065 68.3403 298.224 68.2014C298.259 68.1708 298.294 68.1387 298.329 68.1072C299.609 66.9517 300.89 65.7967 302.17 64.6417C302.238 64.581 302.308 64.5226 302.376 64.4632C302.389 64.4712 302.401 64.4792 302.414 64.4872C302.372 64.5763 302.331 64.6658 302.288 64.7543C301.422 66.5372 300.556 68.3201 299.69 70.1029C299.655 70.6748 299.18 70.9084 298.824 71.2381C297.37 72.5844 296.236 74.1708 295.325 75.9236C295.29 75.9914 295.252 76.0583 295.216 76.1261C295.194 76.1186 295.172 76.111 295.151 76.104ZM296.085 77.3574C295.919 77.2773 295.775 77.1534 295.627 77.0545C296.065 76.0399 296.617 75.1228 297.224 74.2335C298.428 72.4694 299.946 71.0657 301.855 70.0921C305.748 68.1076 309.795 66.5104 313.994 65.304C316.787 64.5009 319.638 64.0657 322.552 64.0831C323.049 64.0859 323.159 64.2169 323.095 64.7119C323.093 64.7275 323.089 64.743 323.087 64.7586C323.004 65.4425 322.766 66.0808 322.501 66.7105C321.854 68.2518 320.703 69.4147 319.579 70.597C319.538 70.6404 319.434 70.6588 319.372 70.6423C317.961 70.2617 316.742 70.7572 315.596 71.5019C314.894 71.9588 314.234 72.4807 313.555 72.9734C312.437 73.7841 311.343 74.6282 310.191 75.387C309.776 75.6607 309.647 75.9947 309.573 76.4144C309.554 76.5218 309.547 76.6339 309.555 76.7422C309.575 77.0442 309.604 77.3456 309.633 77.6772C308.99 77.8162 308.343 77.9702 307.691 78.0941C306.104 78.3951 304.505 78.6052 302.889 78.6758C301.757 78.7253 300.627 78.7229 299.51 78.5529C298.301 78.3683 297.181 77.8878 296.085 77.3574ZM302.462 46.3937C302.563 46.3937 302.601 46.3899 302.639 46.3937C303.885 46.5321 305.13 46.6702 306.375 46.8138C306.445 46.8218 306.523 46.8652 306.573 46.916C307.802 48.1709 309.028 49.4281 310.251 50.6891C310.3 50.7404 310.337 50.8445 310.322 50.91C310.052 52.0443 309.773 53.1762 309.478 54.3787C309.412 54.2515 309.375 54.1856 309.342 54.1168C308.837 53.0381 308.334 51.959 307.825 50.8817C307.648 50.5049 307.372 50.4093 306.996 50.5817C306.925 50.6142 306.856 50.6533 306.788 50.6905C305.795 51.2279 304.803 51.7654 303.811 52.3024C303.746 52.3377 303.677 52.3669 303.611 52.3985C304.069 51.9048 304.549 51.4441 305.029 50.9835C305.607 50.43 306.186 49.8789 306.76 49.3216C307.073 49.0178 307.03 48.7479 306.645 48.5378C306.618 48.5228 306.589 48.5086 306.561 48.494C305.277 47.8398 303.992 47.1855 302.707 46.5307C302.641 46.4973 302.577 46.4582 302.462 46.3932V46.3937ZM310.368 77.2707C310.286 76.9759 310.352 76.6372 310.368 76.3197C310.372 76.2495 310.441 76.1638 310.504 76.1181C311.65 75.2825 312.8 74.4516 313.95 73.6202C314.012 73.575 314.077 73.5335 314.162 73.4756C314.156 73.534 314.158 73.5646 314.149 73.5928C313.964 74.225 313.982 74.8632 314.109 75.5001C314.383 76.8689 315.122 77.9919 315.968 79.0687C317.092 80.4992 318.772 81.0268 320.299 81.8073C321.909 82.2124 323.528 82.5308 325.202 82.2878C325.235 82.2831 325.269 82.2915 325.313 82.2948C325.152 82.5718 324.885 82.5162 324.655 82.5539C323.116 82.8073 321.576 83.0499 320.038 83.3137C318.548 83.569 317.063 83.8742 315.538 83.8012C315.393 83.7942 315.241 83.7697 315.106 83.7183C314.303 83.414 313.657 82.8742 313.061 82.2831C311.656 80.8902 310.889 79.1403 310.368 77.2707ZM315.129 76.2914C314.819 75.5769 314.667 74.819 314.82 74.0403C315.066 72.7907 316.531 71.4633 317.916 71.322C319.38 71.1731 320.633 71.6465 321.521 72.875C322.501 74.2292 323.031 75.7714 323.331 77.3979C323.439 77.9811 323.417 78.5708 323.203 79.137C322.997 79.681 322.62 80.0122 322.02 80.0037C321.709 79.9995 321.388 79.9787 321.092 79.8949C318.977 79.2953 317.47 77.3494 317.406 75.1534C317.392 74.6461 317.455 74.1501 317.73 73.7064C317.931 73.3837 318.112 73.3074 318.461 73.4454C318.699 73.5396 318.939 73.6569 319.14 73.8128C320.238 74.6631 321.109 75.697 321.601 77.0131C321.685 77.2354 321.73 77.4841 321.733 77.7215C321.736 78.047 321.55 78.202 321.225 78.2109C320.912 78.2194 320.641 78.1012 320.397 77.9194C320.02 77.6386 319.719 77.2886 319.517 76.8633C319.346 76.5029 319.119 76.1492 319.431 75.7314C319.544 75.5797 319.477 75.3748 319.3 75.2599C319.141 75.1562 318.976 75.1793 318.85 75.314C318.587 75.5952 318.426 75.917 318.522 76.3183C318.754 77.2995 319.271 78.0946 320.125 78.6339C320.394 78.804 320.728 78.9081 321.045 78.9575C321.778 79.071 322.334 78.6438 322.473 77.9161C322.557 77.4813 322.441 77.0757 322.286 76.6786C321.737 75.274 320.809 74.1567 319.632 73.2396C319.364 73.0309 319.05 72.8637 318.733 72.7407C318.021 72.4661 317.461 72.6819 317.069 73.3366C316.805 73.777 316.688 74.2613 316.661 74.769C316.6 75.8807 316.862 76.9193 317.417 77.877C318.321 79.4361 319.657 80.4177 321.438 80.7381C322.484 80.9265 323.292 80.5666 323.737 79.7555C323.885 79.4856 324.01 79.1784 324.046 78.8765C324.111 78.3056 324.104 77.7267 324.128 77.1384C324.245 77.1629 324.396 77.201 324.549 77.2255C324.874 77.2769 325.204 77.3009 325.524 77.372C326.218 77.5256 326.757 77.9264 327.113 78.5308C327.531 79.2402 327.449 79.9623 327.019 80.6405C326.912 80.8092 326.73 80.9415 326.559 81.0551C326.347 81.1964 326.172 81.3721 325.884 81.4324C324.164 81.7922 322.483 81.5643 320.808 81.1634C320.748 81.1493 320.691 81.121 320.637 81.0913C320.455 80.9924 320.285 80.8615 320.092 80.7946C319.169 80.4747 318.275 80.1026 317.501 79.4884C316.425 78.6344 315.669 77.5383 315.129 76.2914ZM325.194 76.5411C325.449 76.3762 325.66 76.2688 325.835 76.12C326.242 75.7728 326.696 75.746 327.201 75.8265C328.623 76.0545 329.518 77.2076 329.317 78.6047C329.275 78.8958 329.258 79.2486 329.085 79.4493C328.811 79.7691 328.415 79.9853 328.02 80.2835C328.227 79.3141 328.111 78.4818 327.497 77.7616C326.909 77.072 326.168 76.6574 325.194 76.5411ZM327.488 75.0879C327.574 75.0309 327.631 74.9918 327.69 74.9542C328.827 74.2288 329.966 73.5071 331.098 72.7761C331.315 72.6362 331.525 72.5434 331.793 72.5462C332.188 72.5504 332.509 72.3291 332.587 72.0036C332.631 71.8213 332.731 71.7266 332.877 71.639C334.052 70.9315 335.251 70.2574 336.387 69.4915C336.85 69.1792 337.333 69.0214 337.846 68.8886C338.05 68.8359 338.262 68.7883 338.471 68.7859C338.884 68.7817 339.303 68.7728 339.709 68.8359C340.112 68.899 340.392 69.1703 340.435 69.5947C340.49 70.1373 340.318 70.646 340.128 71.1458C340.118 71.1717 340.086 71.1915 340.062 71.2103C339.169 71.9004 338.276 72.5919 337.378 73.2758C337.328 73.314 337.215 73.3192 337.157 73.289C336.532 72.9645 335.915 72.6244 335.29 72.3008C335.125 72.2155 334.941 72.1628 334.76 72.1143C334.429 72.0248 334.116 72.0606 333.874 72.33C333.63 72.6018 333.626 72.9353 333.768 73.2349C333.924 73.5637 334.131 73.8731 334.352 74.1638C334.573 74.4534 334.839 74.7087 335.1 74.9966C333.43 76.2425 331.773 77.4789 330.088 78.7366C330.059 76.6028 329.52 75.852 327.488 75.0879ZM329.803 47.8063C329.801 47.7908 329.799 47.7752 329.797 47.7597C329.816 47.747 329.833 47.7295 329.854 47.7225C331.044 47.3051 332.234 46.8868 333.425 46.4733C333.625 46.404 333.816 46.331 333.849 46.0884C333.879 45.859 333.732 45.7323 333.562 45.616C332.665 44.9989 331.768 44.379 330.872 43.7601C330.781 43.6974 330.692 43.6329 330.603 43.5693C331.505 44.0036 332.382 44.4728 333.26 44.94C333.726 45.1878 333.962 45.078 334.065 44.5665C334.527 42.2853 334.987 40.004 335.448 37.7223C335.525 37.344 335.604 36.9663 335.683 36.5885C335.708 36.6723 335.712 36.7505 335.707 36.8283C335.617 38.3384 335.526 39.8486 335.433 41.3582C335.373 42.3286 335.316 43.2989 335.24 44.2679C335.223 44.4892 335.212 44.6857 335.443 44.7836C335.676 44.883 335.824 44.7441 335.953 44.5651C337.231 42.7902 338.511 41.0167 339.791 39.2438C339.828 39.1929 339.872 39.1486 339.913 39.1015C339.855 39.3252 339.773 39.5278 339.691 39.7308C339.271 40.7614 338.848 41.7907 338.436 42.8241C338.279 43.217 338.493 43.4841 338.908 43.4313C339.343 43.3757 339.778 43.3121 340.213 43.2542C340.545 43.2094 340.878 43.1685 341.211 43.1256C341.166 43.2014 341.114 43.233 341.059 43.2589C340.193 43.6635 339.326 44.0663 338.46 44.4718C337.973 44.7003 337.918 44.8929 338.197 45.3508C339.677 47.771 341.156 50.1917 342.634 52.6123C342.669 52.6693 342.696 52.7306 342.726 52.7894C342.643 52.748 342.586 52.6886 342.534 52.625C341.223 51.0136 339.913 49.4017 338.603 47.7903C338.246 47.3522 337.891 46.9142 337.532 46.4784C337.408 46.3282 337.253 46.2448 337.055 46.3225C336.871 46.3946 336.805 46.5472 336.801 46.7347C336.8 46.7973 336.8 46.8605 336.8 46.9231C336.8 48.6316 336.8 50.3405 336.799 52.0494C336.799 52.1262 336.793 52.203 336.787 52.3401C336.749 52.2515 336.733 52.2242 336.725 52.1945C336.486 51.1479 336.252 50.1003 336.008 49.0546C335.813 48.2161 335.615 47.3777 335.396 46.5444C335.366 46.4276 335.222 46.2872 335.107 46.2604C335.001 46.2359 334.861 46.3437 334.741 46.405C334.642 46.4558 334.56 46.5519 334.457 46.5802C333.414 46.8652 332.367 47.1412 331.322 47.4172C330.816 47.5501 330.309 47.6768 329.803 47.8063Z"
        fill="#3D2A26" />
      <path
        d="M295.029 42.4315V49.8773C295.638 49.5603 296.211 49.2626 296.813 48.9498C296.629 48.7444 296.458 48.5546 296.288 48.3638C295.973 48.0091 295.965 47.8829 296.237 47.5009C297.052 46.3586 297.868 45.2168 298.683 44.0745C298.729 44.0109 298.771 43.9459 298.856 43.8216C298.158 44.0204 297.52 44.2027 296.881 44.3845C296.61 44.4617 296.338 44.5376 296.067 44.6158C295.892 44.6666 295.723 44.6732 295.587 44.5277C295.446 44.3746 295.465 44.1975 295.537 44.0208C295.808 43.3614 296.081 42.7029 296.353 42.0439C296.382 41.9732 296.408 41.9012 296.457 41.7754C295.954 42.0062 295.499 42.2158 295.029 42.4315Z"
        fill="#FFC736" />
      <path
        d="M295.151 63.7589V76.1038C295.172 76.1109 295.194 76.1184 295.216 76.1259C295.252 76.0581 295.29 75.9912 295.325 75.9234C296.236 74.1707 297.37 72.5842 298.824 71.238C299.18 70.9082 299.655 70.6746 299.69 70.1028C300.556 68.3199 301.422 66.537 302.288 64.7542C302.331 64.6656 302.372 64.5761 302.414 64.4871C302.401 64.4791 302.389 64.4711 302.376 64.4631C302.308 64.5224 302.238 64.5808 302.171 64.6416C300.89 65.7966 299.61 66.9516 298.329 68.107C298.294 68.1386 298.26 68.1706 298.224 68.2012C298.065 68.3402 297.893 68.424 297.691 68.2983C297.502 68.1805 297.49 67.9958 297.531 67.7985C297.627 67.3387 297.722 66.8785 297.816 66.4183C298.129 64.8992 298.44 63.3806 298.752 61.8615C298.758 61.8323 298.762 61.8031 298.776 61.7103C298.679 61.8135 298.622 61.8728 298.566 61.9345C297.871 62.7009 297.177 63.4682 296.482 64.2346C296.413 64.31 296.347 64.3882 296.273 64.4579C296.038 64.6783 295.781 64.6599 295.588 64.3995C295.44 64.2007 295.308 63.9911 295.151 63.7589Z"
        fill="#FFC736" />
      <path
        d="M295.627 77.0544C295.775 77.1533 295.919 77.2772 296.085 77.3573C297.181 77.8876 298.301 78.3681 299.511 78.5528C300.628 78.7228 301.758 78.7252 302.889 78.6757C304.506 78.605 306.104 78.395 307.691 78.094C308.344 77.9701 308.99 77.816 309.633 77.6771C309.605 77.3455 309.575 77.044 309.555 76.7421C309.548 76.6337 309.555 76.5216 309.574 76.4142C309.647 75.9945 309.776 75.6606 310.192 75.3869C311.343 74.6281 312.437 73.7839 313.555 72.9733C314.234 72.4806 314.894 71.9587 315.597 71.5018C316.742 70.757 317.961 70.2615 319.372 70.6421C319.434 70.6586 319.538 70.6402 319.579 70.5969C320.703 69.4146 321.854 68.2517 322.502 66.7104C322.766 66.0807 323.004 65.4424 323.087 64.7584C323.089 64.7429 323.093 64.7273 323.095 64.7118C323.159 64.2167 323.049 64.0858 322.552 64.0829C319.639 64.0655 316.787 64.5007 313.994 65.3039C309.795 66.5102 305.748 68.1075 301.856 70.0919C299.946 71.0656 298.428 72.4693 297.224 74.2333C296.617 75.1226 296.065 76.0398 295.627 77.0544Z"
        fill="#815252" />
      <path
        d="M302.639 46.394C302.602 46.3898 302.563 46.394 302.462 46.394C302.578 46.459 302.641 46.4981 302.708 46.5316C303.992 47.1863 305.277 47.8406 306.562 48.4949C306.589 48.5095 306.618 48.5236 306.645 48.5387C307.03 48.7487 307.073 49.0187 306.76 49.3225C306.186 49.8797 305.607 50.4308 305.029 50.9843C304.549 51.445 304.069 51.9057 303.611 52.3993C303.678 52.3677 303.746 52.3385 303.811 52.3032C304.803 51.7662 305.795 51.2288 306.788 50.6913C306.857 50.6541 306.925 50.615 306.996 50.5825C307.372 50.4101 307.648 50.5057 307.825 50.8826C308.334 51.9598 308.837 53.039 309.343 54.1177C309.375 54.1864 309.412 54.2524 309.478 54.3796C309.773 53.177 310.052 52.0451 310.322 50.9108C310.338 50.8453 310.3 50.7412 310.251 50.6899C309.029 49.4289 307.802 48.1717 306.573 46.9169C306.524 46.866 306.445 46.8227 306.375 46.8147C305.13 46.671 303.885 46.533 302.639 46.3945V46.394Z"
        fill="#FFC736" />
      <path
        d="M310.368 76.3196C310.352 76.6371 310.287 76.9757 310.369 77.2706C310.89 79.1402 311.656 80.8901 313.061 82.2829C313.657 82.8741 314.304 83.4139 315.106 83.7182C315.242 83.7695 315.393 83.794 315.538 83.8011C317.063 83.8741 318.548 83.5689 320.039 83.3136C321.576 83.0498 323.116 82.8072 324.655 82.5538C324.885 82.5161 325.152 82.5717 325.313 82.2947C325.269 82.2914 325.235 82.2829 325.203 82.2876C323.529 82.5307 321.91 82.2123 320.299 81.8072C318.772 81.0267 317.092 80.4991 315.968 79.0686C315.122 77.9918 314.383 76.8688 314.11 75.5C313.982 74.8631 313.965 74.2249 314.15 73.5927C314.158 73.5645 314.156 73.5338 314.162 73.4754C314.077 73.5334 314.012 73.5748 313.95 73.62C312.801 74.4514 311.65 75.2823 310.504 76.118C310.441 76.1637 310.372 76.2494 310.368 76.3196Z"
        fill="#95C29A" />
      <path
        d="M314.82 74.0402C314.667 74.8188 314.82 75.5767 315.129 76.2913C315.669 77.5381 316.425 78.6342 317.501 79.4882C318.275 80.1025 319.17 80.4746 320.092 80.7944C320.285 80.8613 320.455 80.9923 320.637 81.0912C320.691 81.1209 320.748 81.1491 320.808 81.1633C322.483 81.5641 324.164 81.7921 325.885 81.4322C326.173 81.3719 326.347 81.1962 326.559 81.0549C326.73 80.9414 326.913 80.809 327.019 80.6404C327.449 79.9621 327.531 79.24 327.114 78.5306C326.758 77.9263 326.218 77.5254 325.524 77.3719C325.204 77.3007 324.874 77.2767 324.549 77.2254C324.396 77.2009 324.245 77.1627 324.129 77.1382C324.105 77.7266 324.112 78.3055 324.046 78.8764C324.01 79.1783 323.885 79.4854 323.737 79.7553C323.293 80.5665 322.484 80.9263 321.438 80.7379C319.658 80.4176 318.322 79.436 317.417 77.8768C316.862 76.9192 316.6 75.8806 316.661 74.7689C316.689 74.2611 316.805 73.7769 317.069 73.3365C317.462 72.6817 318.022 72.466 318.733 72.7406C319.05 72.8635 319.365 73.0308 319.633 73.2394C320.809 74.1565 321.737 75.2739 322.286 76.6785C322.441 77.0756 322.557 77.4811 322.473 77.9159C322.334 78.6437 321.779 79.0709 321.045 78.9574C320.728 78.9079 320.394 78.8038 320.125 78.6338C319.271 78.0944 318.754 77.2993 318.522 76.3182C318.427 75.9168 318.587 75.5951 318.85 75.3139C318.976 75.1792 319.141 75.1561 319.301 75.2597C319.478 75.3747 319.545 75.5796 319.431 75.7312C319.119 76.149 319.347 76.5028 319.518 76.8631C319.719 77.2885 320.02 77.6385 320.398 77.9192C320.642 78.101 320.912 78.2193 321.225 78.2108C321.55 78.2018 321.737 78.0469 321.733 77.7214C321.731 77.484 321.685 77.2353 321.602 77.0129C321.109 75.6969 320.238 74.6629 319.14 73.8127C318.939 73.6568 318.699 73.5395 318.461 73.4453C318.113 73.3073 317.931 73.3836 317.731 73.7062C317.455 74.15 317.392 74.646 317.406 75.1533C317.471 77.3493 318.977 79.2951 321.092 79.8948C321.388 79.9786 321.709 79.9993 322.02 80.0036C322.62 80.012 322.998 79.6809 323.204 79.1369C323.417 78.5707 323.439 77.9809 323.332 77.3978C323.031 75.7713 322.501 74.2291 321.521 72.8748C320.633 71.6464 319.38 71.173 317.917 71.3218C316.531 71.4631 315.066 72.7905 314.82 74.0402Z"
        fill="#CCECE2" />
      <path
        d="M325.835 76.1198C325.66 76.2687 325.449 76.3761 325.195 76.5409C326.168 76.6573 326.91 77.0718 327.497 77.7614C328.111 78.4816 328.227 79.314 328.02 80.2834C328.416 79.9852 328.811 79.769 329.085 79.4491C329.258 79.2485 329.275 78.8957 329.317 78.6046C329.518 77.2075 328.623 76.0544 327.201 75.8264C326.696 75.7458 326.243 75.7727 325.835 76.1198Z"
        fill="#919793" />
      <path
        d="M327.69 74.954C327.631 74.9917 327.574 75.0308 327.488 75.0878C329.521 75.8518 330.059 76.6026 330.088 78.7365C331.773 77.4788 333.43 76.2423 335.1 74.9964C334.839 74.7086 334.573 74.4533 334.352 74.1636C334.131 73.873 333.924 73.5635 333.768 73.2347C333.627 72.9351 333.63 72.6016 333.874 72.3298C334.116 72.0604 334.429 72.0246 334.76 72.1141C334.941 72.1626 335.125 72.2154 335.29 72.3006C335.915 72.6242 336.532 72.9643 337.158 73.2889C337.215 73.319 337.328 73.3138 337.378 73.2757C338.276 72.5917 339.169 71.9003 340.062 71.2102C340.086 71.1913 340.118 71.1716 340.128 71.1457C340.318 70.6459 340.49 70.1372 340.435 69.5945C340.392 69.1701 340.112 68.8988 339.709 68.8357C339.303 68.7726 338.884 68.7815 338.471 68.7857C338.262 68.7881 338.05 68.8357 337.846 68.8884C337.333 69.0213 336.85 69.1791 336.387 69.4914C335.251 70.2573 334.052 70.9313 332.877 71.6388C332.731 71.7264 332.631 71.8211 332.587 72.0034C332.509 72.3289 332.189 72.5503 331.793 72.5461C331.525 72.5432 331.315 72.636 331.099 72.7759C329.966 73.507 328.827 74.2286 327.69 74.954Z"
        fill="#699A76" />
      <path
        d="M329.797 47.7594C329.799 47.775 329.801 47.7905 329.803 47.8061C330.309 47.6765 330.816 47.5498 331.322 47.417C332.367 47.141 333.414 46.8649 334.457 46.58C334.56 46.5517 334.642 46.4556 334.741 46.4047C334.861 46.3435 335.002 46.2356 335.107 46.2601C335.222 46.287 335.366 46.4273 335.396 46.5442C335.615 47.3774 335.813 48.2159 336.008 49.0543C336.252 50.1 336.486 51.1476 336.726 52.1943C336.733 52.2239 336.749 52.2513 336.787 52.3398C336.793 52.2027 336.799 52.126 336.799 52.0492C336.8 50.3403 336.8 48.6313 336.8 46.9229C336.8 46.8602 336.8 46.7971 336.801 46.7344C336.805 46.547 336.872 46.3944 337.055 46.3223C337.253 46.2446 337.408 46.3279 337.532 46.4782C337.891 46.9139 338.247 47.352 338.603 47.7901C339.914 49.4015 341.223 51.0134 342.534 52.6248C342.586 52.6884 342.643 52.7477 342.727 52.7892C342.696 52.7303 342.669 52.6691 342.634 52.6121C341.156 50.1914 339.677 47.7707 338.198 45.3505C337.918 44.8927 337.973 44.7 338.46 44.4716C339.326 44.066 340.193 43.6633 341.059 43.2586C341.114 43.2327 341.166 43.2012 341.211 43.1253C340.878 43.1682 340.545 43.2092 340.213 43.2539C339.778 43.3119 339.344 43.3755 338.908 43.431C338.493 43.4838 338.279 43.2167 338.436 42.8239C338.848 41.7904 339.271 40.7612 339.691 39.7306C339.773 39.5275 339.855 39.325 339.914 39.1013C339.873 39.1484 339.828 39.1926 339.791 39.2435C338.511 41.0165 337.231 42.79 335.953 44.5648C335.824 44.7438 335.677 44.8828 335.443 44.7834C335.212 44.6854 335.223 44.489 335.24 44.2676C335.316 43.2987 335.373 42.3283 335.433 41.358C335.526 39.8483 335.617 38.3382 335.707 36.828C335.712 36.7503 335.708 36.6721 335.683 36.5883C335.604 36.966 335.525 37.3438 335.449 37.722C334.987 40.0038 334.527 42.285 334.066 44.5663C333.962 45.0778 333.726 45.1876 333.261 44.9398C332.383 44.4725 331.505 44.0034 330.603 43.5691C330.692 43.6327 330.781 43.6972 330.872 43.7598C331.768 44.3788 332.665 44.9987 333.562 45.6157C333.732 45.7321 333.879 45.8588 333.849 46.0882C333.816 46.3308 333.625 46.4038 333.425 46.473C332.234 46.8866 331.044 47.3049 329.854 47.7222C329.833 47.7293 329.816 47.7467 329.797 47.7594Z"
        fill="#FFD698" />
      <path
        d="M310.135 81.8839C310.654 81.8839 311.177 81.85 311.703 81.7817L311.613 81.0808C310.187 81.2655 308.787 81.1845 307.453 80.8401C302.504 79.5641 300.044 75.044 299.408 73.6893L298.768 73.9898C299.355 75.2399 300.188 76.5146 301.114 77.5791C302.865 79.5942 304.939 80.9221 307.276 81.5245C308.204 81.7638 309.161 81.8839 310.135 81.8839Z"
        fill="#3D2A26" />
      <path
        d="M298.425 74.6601C298.738 74.6601 299.038 74.5833 299.296 74.4269C299.71 74.1749 300.003 73.7166 300.1 73.1697C300.217 72.5112 300.033 71.8188 299.596 71.2705L299.043 71.7109C299.354 72.1004 299.486 72.5875 299.405 73.0463C299.344 73.3883 299.166 73.6789 298.929 73.823C298.54 74.0595 297.937 73.9667 297.463 73.5974L297.028 74.1547C297.455 74.4877 297.955 74.6601 298.425 74.6601Z"
        fill="#3D2A26" />
      <path
        d="M321.415 72.2917C321.606 72.1565 322.234 71.6435 322.31 70.726C322.39 69.7486 321.765 69.1103 321.639 68.9921L321.156 69.5079C321.208 69.5564 321.66 70.0006 321.605 70.668C321.553 71.2973 321.097 71.6511 321.006 71.7156L321.415 72.2917Z"
        fill="#3D2A26" />
    </g>
    <mask id="path-33-outside-1_225_25450" maskUnits="userSpaceOnUse" x="112" y="48" width="168"
      height="23" fill="black">
      <rect fill="white" x="112" y="48" width="168" height="23" />
      <path
        d="M120.956 51.2L119.42 64.232H126.548L126.068 68H114.068L116.06 51.2H120.956ZM145.369 51.2L144.145 61.664C143.617 66.176 140.857 68.48 136.081 68.48C131.593 68.48 128.521 66.56 129.097 61.712L130.345 51.2H135.241L133.993 61.544C133.657 64.4 134.809 65.192 136.345 65.192C138.193 65.192 138.961 63.992 139.273 61.4L140.473 51.2H145.369ZM154.524 68.48C150.348 68.48 147.084 66.008 147.084 60.704C147.084 55.064 150.78 50.744 156.156 50.744C159.3 50.744 161.556 52.232 162.612 54.584L159.108 56.24C158.532 55.016 157.644 54.032 156.276 54.032C153.828 54.032 152.172 57.224 152.172 61.016C152.172 63.92 153.132 65.192 154.716 65.192C156.324 65.192 157.716 63.896 158.46 62.744L161.604 64.568C160.068 67.112 157.62 68.48 154.524 68.48ZM181.445 51.2L174.773 58.376L179.741 68H174.437L171.221 61.544L169.301 63.512L168.773 68H163.877L165.869 51.2H170.765L169.901 58.232L176.477 51.2H181.445ZM197.499 51.2L191.355 61.496L190.587 68H185.835L186.603 61.496L181.971 51.2H187.011L189.435 57.8L192.867 51.2H197.499ZM210.631 51.2C214.999 51.2 219.319 53.096 219.319 58.616C219.319 64.256 215.647 68 209.479 68H202.951L204.943 51.2H210.631ZM210.343 54.368H209.455L208.231 64.832H209.863C213.223 64.832 214.231 61.544 214.231 58.088C214.231 55.184 212.839 54.368 210.343 54.368ZM229.867 51.2C234.883 51.2 236.755 53.432 236.755 56.288C236.755 58.712 235.147 60.368 232.915 61.352L236.251 68H230.971L228.595 62.24H226.723L226.051 68H221.155L223.147 51.2H229.867ZM229.483 54.368H227.683L227.107 59.072H229.027C230.875 59.072 231.667 58.064 231.667 56.192C231.667 54.92 231.019 54.368 229.483 54.368ZM248.757 68L248.421 65.456H242.901L241.869 68H237.693L244.701 51.2H250.797L253.605 68H248.757ZM247.173 54.824L244.221 61.976H248.037L247.173 54.824ZM277.491 51.2L272.355 68H266.715L266.163 55.928L263.283 68H257.259L255.867 51.2H260.475L261.171 63.896L264.291 51.2H269.259L269.787 63.728L272.931 51.2H277.491Z" />
    </mask>
    <path
      d="M120.956 51.2L119.42 64.232H126.548L126.068 68H114.068L116.06 51.2H120.956ZM145.369 51.2L144.145 61.664C143.617 66.176 140.857 68.48 136.081 68.48C131.593 68.48 128.521 66.56 129.097 61.712L130.345 51.2H135.241L133.993 61.544C133.657 64.4 134.809 65.192 136.345 65.192C138.193 65.192 138.961 63.992 139.273 61.4L140.473 51.2H145.369ZM154.524 68.48C150.348 68.48 147.084 66.008 147.084 60.704C147.084 55.064 150.78 50.744 156.156 50.744C159.3 50.744 161.556 52.232 162.612 54.584L159.108 56.24C158.532 55.016 157.644 54.032 156.276 54.032C153.828 54.032 152.172 57.224 152.172 61.016C152.172 63.92 153.132 65.192 154.716 65.192C156.324 65.192 157.716 63.896 158.46 62.744L161.604 64.568C160.068 67.112 157.62 68.48 154.524 68.48ZM181.445 51.2L174.773 58.376L179.741 68H174.437L171.221 61.544L169.301 63.512L168.773 68H163.877L165.869 51.2H170.765L169.901 58.232L176.477 51.2H181.445ZM197.499 51.2L191.355 61.496L190.587 68H185.835L186.603 61.496L181.971 51.2H187.011L189.435 57.8L192.867 51.2H197.499ZM210.631 51.2C214.999 51.2 219.319 53.096 219.319 58.616C219.319 64.256 215.647 68 209.479 68H202.951L204.943 51.2H210.631ZM210.343 54.368H209.455L208.231 64.832H209.863C213.223 64.832 214.231 61.544 214.231 58.088C214.231 55.184 212.839 54.368 210.343 54.368ZM229.867 51.2C234.883 51.2 236.755 53.432 236.755 56.288C236.755 58.712 235.147 60.368 232.915 61.352L236.251 68H230.971L228.595 62.24H226.723L226.051 68H221.155L223.147 51.2H229.867ZM229.483 54.368H227.683L227.107 59.072H229.027C230.875 59.072 231.667 58.064 231.667 56.192C231.667 54.92 231.019 54.368 229.483 54.368ZM248.757 68L248.421 65.456H242.901L241.869 68H237.693L244.701 51.2H250.797L253.605 68H248.757ZM247.173 54.824L244.221 61.976H248.037L247.173 54.824ZM277.491 51.2L272.355 68H266.715L266.163 55.928L263.283 68H257.259L255.867 51.2H260.475L261.171 63.896L264.291 51.2H269.259L269.787 63.728L272.931 51.2H277.491Z"
      fill="#EE4C00" />
    <path
      d="M120.956 51.2L122.942 51.4341C123.009 50.8668 122.83 50.298 122.451 49.8711C122.071 49.4442 121.527 49.2 120.956 49.2V51.2ZM119.42 64.232L117.434 63.9979C117.367 64.5652 117.546 65.134 117.925 65.5609C118.305 65.9878 118.849 66.232 119.42 66.232V64.232ZM126.548 64.232L128.532 64.4847C128.605 63.9149 128.429 63.3413 128.049 62.9102C127.669 62.479 127.123 62.232 126.548 62.232V64.232ZM126.068 68V70C127.075 70 127.925 69.2515 128.052 68.2527L126.068 68ZM114.068 68L112.082 67.7645C112.015 68.332 112.193 68.9011 112.573 69.3283C112.953 69.7556 113.497 70 114.068 70V68ZM116.06 51.2V49.2C115.047 49.2 114.193 49.9581 114.074 50.9645L116.06 51.2ZM118.97 50.9659L117.434 63.9979L121.406 64.4661L122.942 51.4341L118.97 50.9659ZM119.42 66.232H126.548V62.232H119.42V66.232ZM124.564 63.9793L124.084 67.7473L128.052 68.2527L128.532 64.4847L124.564 63.9793ZM126.068 66H114.068V70H126.068V66ZM116.054 68.2355L118.046 51.4355L114.074 50.9645L112.082 67.7645L116.054 68.2355ZM116.06 53.2H120.956V49.2H116.06V53.2ZM145.369 51.2L147.356 51.4324C147.422 50.8653 147.243 50.297 146.864 49.8705C146.484 49.444 145.94 49.2 145.369 49.2V51.2ZM144.145 61.664L146.132 61.8965L146.132 61.8964L144.145 61.664ZM129.097 61.712L131.083 61.948L131.083 61.9478L129.097 61.712ZM130.345 51.2V49.2C129.332 49.2 128.479 49.9579 128.359 50.9642L130.345 51.2ZM135.241 51.2L137.227 51.4396C137.296 50.8715 137.118 50.3013 136.738 49.8732C136.358 49.4451 135.814 49.2 135.241 49.2V51.2ZM133.993 61.544L132.008 61.3044L132.007 61.3103L133.993 61.544ZM139.273 61.4L141.259 61.639L141.26 61.6337L139.273 61.4ZM140.473 51.2V49.2C139.459 49.2 138.606 49.9591 138.487 50.9663L140.473 51.2ZM143.383 50.9676L142.159 61.4316L146.132 61.8964L147.356 51.4324L143.383 50.9676ZM142.159 61.4315C141.938 63.3228 141.285 64.5034 140.418 65.2345C139.534 65.9795 138.162 66.48 136.081 66.48V70.48C138.777 70.48 141.173 69.8285 142.995 68.2935C144.833 66.7446 145.825 64.5172 146.132 61.8965L142.159 61.4315ZM136.081 66.48C134.058 66.48 132.734 66.0367 131.998 65.4006C131.371 64.8585 130.852 63.8985 131.083 61.948L127.111 61.476C126.767 64.3735 127.496 66.7975 129.383 68.4274C131.161 69.9633 133.617 70.48 136.081 70.48V66.48ZM131.083 61.9478L132.331 51.4358L128.359 50.9642L127.111 61.4762L131.083 61.9478ZM130.345 53.2H135.241V49.2H130.345V53.2ZM133.256 50.9604L132.008 61.3044L135.979 61.7836L137.227 51.4396L133.256 50.9604ZM132.007 61.3103C131.815 62.9469 131.975 64.5091 132.897 65.678C133.871 66.9115 135.272 67.192 136.345 67.192V63.192C135.883 63.192 135.94 63.0765 136.037 63.2C136.084 63.2589 135.836 62.9971 135.98 61.7777L132.007 61.3103ZM136.345 67.192C137.778 67.192 139.085 66.6843 139.993 65.4581C140.777 64.3989 141.094 63.0135 141.259 61.639L137.288 61.161C137.141 62.3785 136.918 62.8891 136.778 63.0779C136.734 63.1369 136.717 63.1407 136.711 63.1431C136.692 63.1518 136.593 63.192 136.345 63.192V67.192ZM141.26 61.6337L142.46 51.4337L138.487 50.9663L137.287 61.1663L141.26 61.6337ZM140.473 53.2H145.369V49.2H140.473V53.2ZM162.612 54.584L163.466 56.3922C164.451 55.9268 164.882 54.7586 164.436 53.7648L162.612 54.584ZM159.108 56.24L157.298 57.0916C157.524 57.5721 157.932 57.9429 158.432 58.1223C158.931 58.3018 159.482 58.2751 159.962 58.0482L159.108 56.24ZM158.46 62.744L159.463 61.0141C158.54 60.4784 157.359 60.7622 156.779 61.6589L158.46 62.744ZM161.604 64.568L163.316 65.6017C163.593 65.1425 163.674 64.591 163.541 64.0713C163.408 63.5517 163.071 63.1073 162.607 62.8381L161.604 64.568ZM154.524 66.48C152.82 66.48 151.502 65.9798 150.621 65.1363C149.758 64.3102 149.084 62.9339 149.084 60.704H145.084C145.084 63.7781 146.041 66.2898 147.854 68.0257C149.649 69.7442 152.051 70.48 154.524 70.48V66.48ZM149.084 60.704C149.084 55.9522 152.089 52.744 156.156 52.744V48.744C149.47 48.744 145.084 54.1758 145.084 60.704H149.084ZM156.156 52.744C158.595 52.744 160.086 53.8422 160.787 55.4032L164.436 53.7648C163.025 50.6218 160.005 48.744 156.156 48.744V52.744ZM161.757 52.7758L158.253 54.4318L159.962 58.0482L163.466 56.3922L161.757 52.7758ZM160.917 55.3884C160.226 53.919 158.819 52.032 156.276 52.032V56.032C156.431 56.032 156.543 56.072 156.686 56.1948C156.864 56.3477 157.081 56.6312 157.298 57.0916L160.917 55.3884ZM156.276 52.032C154.063 52.032 152.485 53.4922 151.565 55.1168C150.638 56.7554 150.172 58.8596 150.172 61.016H154.172C154.172 59.3804 154.534 57.9926 155.046 57.0872C155.566 56.1678 156.04 56.032 156.276 56.032V52.032ZM150.172 61.016C150.172 62.6285 150.427 64.1243 151.167 65.2749C151.998 66.5661 153.29 67.192 154.716 67.192V63.192C154.591 63.192 154.563 63.1686 154.581 63.1781C154.604 63.19 154.583 63.1913 154.532 63.1111C154.396 62.8997 154.172 62.3075 154.172 61.016H150.172ZM154.716 67.192C156.066 67.192 157.22 66.6501 158.09 66.0162C158.961 65.3812 159.657 64.5771 160.14 63.8291L156.779 61.6589C156.519 62.0629 156.146 62.4828 155.733 62.7838C155.319 63.0859 154.973 63.192 154.716 63.192V67.192ZM157.456 64.4739L160.6 66.2979L162.607 62.8381L159.463 61.0141L157.456 64.4739ZM159.891 63.5343C158.73 65.4583 156.943 66.48 154.524 66.48V70.48C158.296 70.48 161.405 68.7657 163.316 65.6017L159.891 63.5343ZM181.445 51.2L182.909 52.5618C183.451 51.9791 183.596 51.1306 183.278 50.4012C182.96 49.6717 182.24 49.2 181.445 49.2V51.2ZM174.773 58.376L173.308 57.0142C172.733 57.632 172.608 58.5438 172.995 59.2934L174.773 58.376ZM179.741 68V70C180.438 70 181.086 69.6364 181.449 69.0405C181.812 68.4446 181.838 67.7026 181.518 67.0826L179.741 68ZM174.437 68L172.646 68.8918C172.985 69.5708 173.678 70 174.437 70V68ZM171.221 61.544L173.011 60.6522C172.722 60.0724 172.17 59.6684 171.53 59.5681C170.89 59.4678 170.241 59.6837 169.789 60.1474L171.221 61.544ZM169.301 63.512L167.869 62.1154C167.561 62.4312 167.366 62.8401 167.314 63.2783L169.301 63.512ZM168.773 68V70C169.787 70 170.64 69.2409 170.759 68.2337L168.773 68ZM163.877 68L161.891 67.7645C161.823 68.332 162.002 68.9011 162.381 69.3283C162.761 69.7556 163.305 70 163.877 70V68ZM165.869 51.2V49.2C164.855 49.2 164.002 49.9581 163.883 50.9645L165.869 51.2ZM170.765 51.2L172.75 51.4439C172.82 50.8752 172.642 50.3039 172.263 49.8748C171.883 49.4457 171.338 49.2 170.765 49.2V51.2ZM169.901 58.232L167.916 57.9881C167.81 58.8476 168.269 59.6774 169.054 60.044C169.839 60.4105 170.77 60.2305 171.361 59.5981L169.901 58.232ZM176.477 51.2V49.2C175.923 49.2 175.394 49.4295 175.016 49.8339L176.477 51.2ZM179.98 49.8382L173.308 57.0142L176.237 59.7378L182.909 52.5618L179.98 49.8382ZM172.995 59.2934L177.963 68.9174L181.518 67.0826L176.55 57.4586L172.995 59.2934ZM179.741 66H174.437V70H179.741V66ZM176.227 67.1082L173.011 60.6522L169.43 62.4358L172.646 68.8918L176.227 67.1082ZM169.789 60.1474L167.869 62.1154L170.732 64.9086L172.652 62.9406L169.789 60.1474ZM167.314 63.2783L166.786 67.7663L170.759 68.2337L171.287 63.7457L167.314 63.2783ZM168.773 66H163.877V70H168.773V66ZM165.863 68.2355L167.855 51.4355L163.883 50.9645L161.891 67.7645L165.863 68.2355ZM165.869 53.2H170.765V49.2H165.869V53.2ZM168.78 50.9561L167.916 57.9881L171.886 58.4759L172.75 51.4439L168.78 50.9561ZM171.361 59.5981L177.937 52.5661L175.016 49.8339L168.44 56.8659L171.361 59.5981ZM176.477 53.2H181.445V49.2H176.477V53.2ZM197.499 51.2L199.217 52.2249C199.585 51.6069 199.594 50.8384 199.238 50.2125C198.883 49.5867 198.219 49.2 197.499 49.2V51.2ZM191.355 61.496L189.638 60.4711C189.493 60.7127 189.402 60.9821 189.369 61.2615L191.355 61.496ZM190.587 68V70C191.601 70 192.454 69.2414 192.573 68.2345L190.587 68ZM185.835 68L183.849 67.7655C183.782 68.3328 183.961 68.9017 184.34 69.3287C184.72 69.7557 185.264 70 185.835 70V68ZM186.603 61.496L188.589 61.7305C188.632 61.3706 188.576 61.0059 188.427 60.6754L186.603 61.496ZM181.971 51.2V49.2C181.292 49.2 180.66 49.5441 180.292 50.114C179.923 50.6838 179.869 51.4017 180.147 52.0206L181.971 51.2ZM187.011 51.2L188.888 50.5105C188.599 49.7232 187.85 49.2 187.011 49.2V51.2ZM189.435 57.8L187.558 58.4895C187.831 59.2331 188.517 59.7455 189.308 59.7959C190.098 59.8464 190.844 59.4255 191.21 58.7227L189.435 57.8ZM192.867 51.2V49.2C192.121 49.2 191.437 49.6153 191.093 50.2773L192.867 51.2ZM195.782 50.1751L189.638 60.4711L193.073 62.5209L199.217 52.2249L195.782 50.1751ZM189.369 61.2615L188.601 67.7655L192.573 68.2345L193.341 61.7305L189.369 61.2615ZM190.587 66H185.835V70H190.587V66ZM187.821 68.2345L188.589 61.7305L184.617 61.2615L183.849 67.7655L187.821 68.2345ZM188.427 60.6754L183.795 50.3794L180.147 52.0206L184.779 62.3166L188.427 60.6754ZM181.971 53.2H187.011V49.2H181.971V53.2ZM185.134 51.8895L187.558 58.4895L191.312 57.1105L188.888 50.5105L185.134 51.8895ZM191.21 58.7227L194.642 52.1227L191.093 50.2773L187.661 56.8773L191.21 58.7227ZM192.867 53.2H197.499V49.2H192.867V53.2ZM202.951 68L200.965 67.7645C200.897 68.332 201.076 68.9011 201.455 69.3283C201.835 69.7556 202.379 70 202.951 70V68ZM204.943 51.2V49.2C203.929 49.2 203.076 49.9581 202.957 50.9645L204.943 51.2ZM209.455 54.368V52.368C208.44 52.368 207.586 53.1278 207.468 54.1356L209.455 54.368ZM208.231 64.832L206.244 64.5996C206.178 65.1667 206.357 65.735 206.737 66.1615C207.116 66.588 207.66 66.832 208.231 66.832V64.832ZM210.631 53.2C212.571 53.2 214.281 53.6282 215.448 54.4642C216.516 55.2282 217.319 56.4578 217.319 58.616H221.319C221.319 55.2542 219.962 52.7758 217.777 51.2117C215.693 49.7198 213.058 49.2 210.631 49.2V53.2ZM217.319 58.616C217.319 60.9926 216.555 62.7868 215.318 63.9886C214.077 65.1946 212.156 66 209.479 66V70C212.969 70 215.969 68.9334 218.105 66.8574C220.246 64.7772 221.319 61.8794 221.319 58.616H217.319ZM209.479 66H202.951V70H209.479V66ZM204.937 68.2355L206.929 51.4355L202.957 50.9645L200.965 67.7645L204.937 68.2355ZM204.943 53.2H210.631V49.2H204.943V53.2ZM210.343 52.368H209.455V56.368H210.343V52.368ZM207.468 54.1356L206.244 64.5996L210.217 65.0644L211.441 54.6004L207.468 54.1356ZM208.231 66.832H209.863V62.832H208.231V66.832ZM209.863 66.832C212.368 66.832 214.093 65.5228 215.069 63.7007C215.969 62.0228 216.231 59.9509 216.231 58.088H212.231C212.231 59.6811 211.989 60.9812 211.544 61.8113C211.176 62.4972 210.717 62.832 209.863 62.832V66.832ZM216.231 58.088C216.231 56.3574 215.816 54.7303 214.526 53.6219C213.306 52.5741 211.721 52.368 210.343 52.368V56.368C211.46 56.368 211.819 56.5699 211.919 56.6561C211.949 56.6817 212.231 56.9146 212.231 58.088H216.231ZM232.915 61.352L232.108 59.522C231.607 59.7429 231.218 60.1597 231.033 60.6752C230.848 61.1906 230.882 61.7595 231.127 62.249L232.915 61.352ZM236.251 68V70C236.945 70 237.589 69.6406 237.953 69.0502C238.317 68.4599 238.35 67.723 238.039 67.103L236.251 68ZM230.971 68L229.122 68.7627C229.431 69.5114 230.161 70 230.971 70V68ZM228.595 62.24L230.444 61.4773C230.135 60.7286 229.405 60.24 228.595 60.24V62.24ZM226.723 62.24V60.24C225.708 60.24 224.854 61.0002 224.737 62.0082L226.723 62.24ZM226.051 68V70C227.066 70 227.92 69.2398 228.038 68.2318L226.051 68ZM221.155 68L219.169 67.7645C219.102 68.332 219.28 68.9011 219.66 69.3283C220.039 69.7556 220.584 70 221.155 70V68ZM223.147 51.2V49.2C222.134 49.2 221.28 49.9581 221.161 50.9645L223.147 51.2ZM227.683 54.368V52.368C226.672 52.368 225.821 53.1218 225.698 54.1249L227.683 54.368ZM227.107 59.072L225.122 58.8289C225.052 59.3975 225.23 59.9686 225.609 60.3975C225.989 60.8264 226.534 61.072 227.107 61.072V59.072ZM229.867 53.2C232.115 53.2 233.307 53.7045 233.91 54.2077C234.456 54.6645 234.755 55.3187 234.755 56.288H238.755C238.755 54.4013 238.118 52.5115 236.474 51.1383C234.887 49.8115 232.635 49.2 229.867 49.2V53.2ZM234.755 56.288C234.755 57.6168 233.94 58.7145 232.108 59.522L233.722 63.182C236.354 62.0215 238.755 59.8072 238.755 56.288H234.755ZM231.127 62.249L234.463 68.897L238.039 67.103L234.703 60.455L231.127 62.249ZM236.251 66H230.971V70H236.251V66ZM232.82 67.2373L230.444 61.4773L226.746 63.0027L229.122 68.7627L232.82 67.2373ZM228.595 60.24H226.723V64.24H228.595V60.24ZM224.737 62.0082L224.065 67.7682L228.038 68.2318L228.71 62.4718L224.737 62.0082ZM226.051 66H221.155V70H226.051V66ZM223.141 68.2355L225.133 51.4355L221.161 50.9645L219.169 67.7645L223.141 68.2355ZM223.147 53.2H229.867V49.2H223.147V53.2ZM229.483 52.368H227.683V56.368H229.483V52.368ZM225.698 54.1249L225.122 58.8289L229.092 59.3151L229.668 54.6111L225.698 54.1249ZM227.107 61.072H229.027V57.072H227.107V61.072ZM229.027 61.072C230.307 61.072 231.607 60.7135 232.539 59.6575C233.427 58.6518 233.667 57.3603 233.667 56.192H229.667C229.667 56.8957 229.511 57.0442 229.541 57.0105C229.56 56.9881 229.572 56.9922 229.525 57.0098C229.464 57.0322 229.313 57.072 229.027 57.072V61.072ZM233.667 56.192C233.667 55.2346 233.416 54.0925 232.437 53.2708C231.542 52.5202 230.414 52.368 229.483 52.368V56.368C229.757 56.368 229.907 56.3937 229.971 56.4103C230.029 56.4252 229.966 56.4191 229.866 56.3352C229.816 56.2939 229.771 56.2441 229.733 56.1893C229.696 56.1354 229.675 56.0891 229.665 56.0602C229.646 56.0091 229.667 56.0344 229.667 56.192H233.667ZM248.757 68L246.775 68.2619C246.906 69.2566 247.754 70 248.757 70V68ZM248.421 65.456L250.404 65.1941C250.273 64.1994 249.425 63.456 248.421 63.456V65.456ZM242.901 65.456V63.456C242.087 63.456 241.354 63.9496 241.048 64.7042L242.901 65.456ZM241.869 68V70C242.684 70 243.417 69.5064 243.723 68.7518L241.869 68ZM237.693 68L235.848 67.23C235.59 67.8473 235.658 68.5525 236.029 69.1091C236.4 69.6657 237.025 70 237.693 70V68ZM244.701 51.2V49.2C243.894 49.2 243.166 49.6851 242.856 50.43L244.701 51.2ZM250.797 51.2L252.77 50.8703C252.609 49.9063 251.775 49.2 250.797 49.2V51.2ZM253.605 68V70C254.194 70 254.752 69.7412 255.132 69.2924C255.512 68.8436 255.675 68.2503 255.578 67.6703L253.605 68ZM247.173 54.824L249.159 54.5841C249.05 53.6811 248.345 52.9653 247.444 52.8424C246.543 52.7194 245.672 53.2201 245.325 54.0609L247.173 54.824ZM244.221 61.976L242.373 61.2129C242.118 61.83 242.188 62.5334 242.559 63.0882C242.93 63.643 243.554 63.976 244.221 63.976V61.976ZM248.037 61.976V63.976C248.61 63.976 249.155 63.7309 249.534 63.3027C249.914 62.8745 250.092 62.3042 250.023 61.7361L248.037 61.976ZM250.74 67.7381L250.404 65.1941L246.439 65.7179L246.775 68.2619L250.74 67.7381ZM248.421 63.456H242.901V67.456H248.421V63.456ZM241.048 64.7042L240.016 67.2482L243.723 68.7518L244.755 66.2078L241.048 64.7042ZM241.869 66H237.693V70H241.869V66ZM239.539 68.77L246.547 51.97L242.856 50.43L235.848 67.23L239.539 68.77ZM244.701 53.2H250.797V49.2H244.701V53.2ZM248.825 51.5297L251.633 68.3297L255.578 67.6703L252.77 50.8703L248.825 51.5297ZM253.605 66H248.757V70H253.605V66ZM245.325 54.0609L242.373 61.2129L246.07 62.7391L249.022 55.5871L245.325 54.0609ZM244.221 63.976H248.037V59.976H244.221V63.976ZM250.023 61.7361L249.159 54.5841L245.188 55.0639L246.052 62.2159L250.023 61.7361ZM277.491 51.2L279.404 51.7847C279.589 51.1784 279.476 50.52 279.099 50.0103C278.721 49.5007 278.125 49.2 277.491 49.2V51.2ZM272.355 68V70C273.234 70 274.01 69.4256 274.268 68.5847L272.355 68ZM266.715 68L264.717 68.0914C264.766 69.1593 265.646 70 266.715 70V68ZM266.163 55.928L268.161 55.8366C268.115 54.8409 267.343 54.0307 266.351 53.9369C265.359 53.8431 264.449 54.4943 264.217 55.4639L266.163 55.928ZM263.283 68V70C264.209 70 265.013 69.3646 265.228 68.4641L263.283 68ZM257.259 68L255.266 68.1651C255.352 69.2021 256.218 70 257.259 70V68ZM255.867 51.2V49.2C255.308 49.2 254.774 49.4341 254.395 49.8454C254.017 50.2568 253.828 50.8079 253.874 51.3651L255.867 51.2ZM260.475 51.2L262.472 51.0905C262.414 50.0301 261.537 49.2 260.475 49.2V51.2ZM261.171 63.896L259.174 64.0055C259.228 64.9948 259.998 65.7952 260.985 65.8873C261.971 65.9794 262.877 65.3354 263.113 64.3733L261.171 63.896ZM264.291 51.2V49.2C263.37 49.2 262.568 49.8286 262.349 50.7227L264.291 51.2ZM269.259 51.2L271.257 51.1158C271.212 50.0449 270.331 49.2 269.259 49.2V51.2ZM269.787 63.728L267.789 63.8122C267.831 64.805 268.595 65.6166 269.583 65.7176C270.572 65.8187 271.485 65.1786 271.727 64.2148L269.787 63.728ZM272.931 51.2V49.2C272.014 49.2 271.214 49.8237 270.991 50.7132L272.931 51.2ZM275.578 50.6153L270.442 67.4153L274.268 68.5847L279.404 51.7847L275.578 50.6153ZM272.355 66H266.715V70H272.355V66ZM268.713 67.9086L268.161 55.8366L264.165 56.0194L264.717 68.0914L268.713 67.9086ZM264.217 55.4639L261.337 67.5359L265.228 68.4641L268.108 56.3921L264.217 55.4639ZM263.283 66H257.259V70H263.283V66ZM259.252 67.8349L257.86 51.0349L253.874 51.3651L255.266 68.1651L259.252 67.8349ZM255.867 53.2H260.475V49.2H255.867V53.2ZM258.478 51.3095L259.174 64.0055L263.168 63.7865L262.472 51.0905L258.478 51.3095ZM263.113 64.3733L266.233 51.6773L262.349 50.7227L259.229 63.4187L263.113 64.3733ZM264.291 53.2H269.259V49.2H264.291V53.2ZM267.261 51.2842L267.789 63.8122L271.785 63.6438L271.257 51.1158L267.261 51.2842ZM271.727 64.2148L274.871 51.6868L270.991 50.7132L267.847 63.2412L271.727 64.2148ZM272.931 53.2H277.491V49.2H272.931V53.2Z"
      fill="white" mask="url(#path-33-outside-1_225_25450)" />
    <path
      d="M262.889 7.12828H271.344C271.341 7.20943 271.338 7.29057 271.338 7.37172C271.338 7.45286 271.341 7.53401 271.344 7.61516H262.889C262.754 7.61516 262.645 7.50642 262.645 7.37172C262.645 7.23702 262.754 7.12828 262.889 7.12828Z"
      fill="#070602" />
    <path
      d="M282.028 7.12828H290.483C290.618 7.12828 290.727 7.23702 290.727 7.37172C290.727 7.50642 290.618 7.61516 290.483 7.61516H282.028C282.031 7.53401 282.035 7.45286 282.035 7.37172C282.035 7.29057 282.031 7.20943 282.028 7.12828Z"
      fill="#070602" />
    <path
      d="M276.443 2.02907V-6.42635C276.443 -6.56105 276.552 -6.66978 276.687 -6.66978C276.822 -6.66978 276.93 -6.56105 276.93 -6.42635V2.02907C276.849 2.02582 276.768 2.02258 276.687 2.02258C276.606 2.02258 276.525 2.02582 276.443 2.02907Z"
      fill="#070602" />
    <path
      d="M276.93 12.7127V21.1681C276.93 21.3028 276.822 21.4116 276.687 21.4116C276.552 21.4116 276.443 21.3028 276.443 21.1681V12.7127C276.525 12.716 276.606 12.7192 276.687 12.7192C276.768 12.7192 276.849 12.716 276.93 12.7127Z"
      fill="#070602" />
    <path
      d="M272.737 3.76562L266.758 -2.21322C266.662 -2.30898 266.662 -2.46315 266.758 -2.55728C266.854 -2.65304 267.008 -2.65304 267.102 -2.55728L273.081 3.42156C272.961 3.53029 272.845 3.64552 272.737 3.76562Z"
      fill="#070602" />
    <path
      d="M280.636 10.9763L286.615 16.9551C286.71 17.0508 286.71 17.205 286.615 17.2992C286.568 17.3462 286.504 17.3706 286.443 17.3706C286.381 17.3706 286.318 17.3462 286.271 17.2992L280.292 11.3203C280.412 11.2116 280.527 11.0964 280.636 10.9763Z"
      fill="#070602" />
    <path
      d="M273.081 11.3203L267.102 17.2991C267.055 17.3462 266.992 17.3705 266.93 17.3705C266.868 17.3705 266.805 17.3462 266.758 17.2991C266.662 17.2034 266.662 17.0492 266.758 16.9551L272.737 10.9762C272.845 11.0963 272.961 11.2115 273.081 11.3203Z"
      fill="#070602" />
    <path
      d="M280.292 3.42159L286.271 -2.55725C286.366 -2.653 286.52 -2.653 286.615 -2.55725C286.71 -2.4615 286.71 -2.30732 286.615 -2.21319L280.636 3.76565C280.527 3.64555 280.412 3.53032 280.292 3.42159Z"
      fill="#070602" />
    <path
      d="M328.953 90.7878H337.74C337.736 90.8721 337.733 90.9564 337.733 91.0408C337.733 91.1251 337.736 91.2094 337.74 91.2937H328.953C328.813 91.2937 328.7 91.1807 328.7 91.0408C328.7 90.9008 328.813 90.7878 328.953 90.7878Z"
      fill="#070602" />
    <path
      d="M348.842 90.7878H357.629C357.769 90.7878 357.882 90.9008 357.882 91.0408C357.882 91.1807 357.769 91.2937 357.629 91.2937H348.842C348.846 91.2094 348.849 91.1251 348.849 91.0408C348.849 90.9564 348.846 90.8721 348.842 90.7878Z"
      fill="#070602" />
    <path
      d="M343.039 85.4886V76.7017C343.039 76.5617 343.152 76.4487 343.292 76.4487C343.432 76.4487 343.545 76.5617 343.545 76.7017V85.4886C343.461 85.4853 343.376 85.4819 343.292 85.4819C343.208 85.4819 343.123 85.4853 343.039 85.4886Z"
      fill="#070602" />
    <path
      d="M343.545 96.5912V105.378C343.545 105.518 343.432 105.631 343.292 105.631C343.152 105.631 343.039 105.518 343.039 105.378V96.5912C343.123 96.5945 343.208 96.5979 343.292 96.5979C343.376 96.5979 343.461 96.5945 343.545 96.5912Z"
      fill="#070602" />
    <path
      d="M339.187 87.2933L332.974 81.08C332.874 80.9805 332.874 80.8203 332.974 80.7225C333.073 80.623 333.233 80.623 333.331 80.7225L339.544 86.9357C339.42 87.0487 339.3 87.1685 339.187 87.2933Z"
      fill="#070602" />
    <path
      d="M347.395 94.7866L353.609 101C353.708 101.099 353.708 101.26 353.609 101.357C353.56 101.406 353.494 101.432 353.43 101.432C353.366 101.432 353.3 101.406 353.251 101.357L347.038 95.1441C347.163 95.0311 347.282 94.9114 347.395 94.7866Z"
      fill="#070602" />
    <path
      d="M339.544 95.1441L333.331 101.357C333.282 101.406 333.217 101.432 333.152 101.432C333.088 101.432 333.023 101.406 332.974 101.357C332.874 101.258 332.874 101.098 332.974 101L339.187 94.7866C339.3 94.9114 339.42 95.0311 339.544 95.1441Z"
      fill="#070602" />
    <path
      d="M347.038 86.9357L353.251 80.7225C353.35 80.623 353.511 80.623 353.609 80.7225C353.708 80.822 353.708 80.9822 353.609 81.08L347.395 87.2933C347.282 87.1685 347.163 87.0487 347.038 86.9357Z"
      fill="#070602" />
    <path
      d="M106.599 11.3905C106.982 11.3905 107.362 11.2309 107.634 10.9226C108.135 10.3501 108.08 9.48316 107.507 8.9795L94.7645 -2.20022C94.192 -2.70114 93.3223 -2.64334 92.8214 -2.07362C92.3205 -1.50115 92.3755 -0.634181 92.948 -0.130516L105.691 11.0492C105.952 11.2776 106.274 11.3905 106.599 11.3905Z"
      fill="#FFDFFE" />
    <path
      d="M346.25 19.2746C344.615 17.6398 344.615 14.9892 346.25 13.3544C347.885 11.7196 350.535 11.7196 352.17 13.3544C353.805 14.9892 353.805 17.6398 352.17 19.2746C350.535 20.9094 347.885 20.9094 346.25 19.2746Z"
      fill="white" />
    <path
      d="M380.378 91.1088C378.743 89.474 378.743 86.8234 380.378 85.1886C382.013 83.5538 384.663 83.5538 386.298 85.1886C387.933 86.8234 387.933 89.474 386.298 91.1088C384.663 92.7436 382.013 92.7436 380.378 91.1088Z"
      fill="#EDFF20" />
    <path
      d="M160.957 32.4124C159.057 32.4124 157.517 30.8722 157.517 28.9721C157.517 27.0721 159.057 25.5318 160.957 25.5318C162.857 25.5318 164.398 27.0721 164.398 28.9721C164.398 30.8722 162.857 32.4124 160.957 32.4124Z"
      fill="#A041FF" />
    <path
      d="M244.18 27.7177C244.565 27.7177 244.95 27.5553 245.223 27.2416L251.861 19.549C252.357 18.9737 252.294 18.104 251.718 17.6086C251.143 17.1132 250.273 17.1765 249.778 17.7517L243.139 25.4443C242.644 26.0196 242.707 26.8893 243.283 27.3847C243.541 27.6076 243.863 27.7177 244.18 27.7177Z"
      fill="#EDFF20" />
    <path
      d="M42.3382 34.8474H50.2111C50.208 34.9229 50.205 34.9985 50.205 35.074C50.205 35.1496 50.208 35.2252 50.2111 35.3007H42.3382C42.2128 35.3007 42.1116 35.1995 42.1116 35.074C42.1116 34.9486 42.2128 34.8474 42.3382 34.8474Z"
      fill="#070602" />
    <path
      d="M60.1587 34.8474H68.0316C68.157 34.8474 68.2582 34.9486 68.2582 35.074C68.2582 35.1995 68.157 35.3007 68.0316 35.3007H60.1587C60.1618 35.2252 60.1648 35.1496 60.1648 35.074C60.1648 34.9985 60.1618 34.9229 60.1587 34.8474Z"
      fill="#070602" />
    <path
      d="M54.959 30.0995V22.2267C54.959 22.1012 55.0603 22 55.1857 22C55.3111 22 55.4124 22.1012 55.4124 22.2267V30.0995C55.3368 30.0965 55.2612 30.0935 55.1857 30.0935C55.1101 30.0935 55.0346 30.0965 54.959 30.0995Z"
      fill="#070602" />
    <path
      d="M55.4124 40.047V47.9199C55.4124 48.0453 55.3111 48.1465 55.1857 48.1465C55.0603 48.1465 54.959 48.0453 54.959 47.9199V40.047C55.0346 40.0501 55.1101 40.0531 55.1857 40.0531C55.2612 40.0531 55.3368 40.0501 55.4124 40.047Z"
      fill="#070602" />
    <path
      d="M51.5076 31.7164L45.9408 26.1495C45.8516 26.0603 45.8516 25.9168 45.9408 25.8291C46.0299 25.74 46.1735 25.74 46.2611 25.8291L51.828 31.396C51.7162 31.4973 51.6089 31.6046 51.5076 31.7164Z"
      fill="#070602" />
    <path
      d="M58.8622 38.4302L64.4291 43.9971C64.5183 44.0863 64.5183 44.2298 64.4291 44.3175C64.3853 44.3613 64.3264 44.3839 64.2689 44.3839C64.2115 44.3839 64.1526 44.3613 64.1088 44.3175L58.5419 38.7506C58.6537 38.6493 58.761 38.542 58.8622 38.4302Z"
      fill="#070602" />
    <path
      d="M51.828 38.7506L46.2611 44.3175C46.2173 44.3613 46.1584 44.3839 46.1009 44.3839C46.0435 44.3839 45.9846 44.3613 45.9408 44.3175C45.8516 44.2283 45.8516 44.0847 45.9408 43.9971L51.5076 38.4302C51.6089 38.542 51.7162 38.6493 51.828 38.7506Z"
      fill="#070602" />
    <path
      d="M58.5419 31.396L64.1088 25.8291C64.1979 25.74 64.3415 25.74 64.4291 25.8291C64.5183 25.9183 64.5183 26.0619 64.4291 26.1495L58.8622 31.7164C58.761 31.6046 58.6537 31.4973 58.5419 31.396Z"
      fill="#070602" />
    <path
      d="M245.883 108.794C246.254 108.794 246.626 108.645 246.896 108.348C247.41 107.789 247.372 106.917 246.813 106.405L235.853 96.3345C235.295 95.8198 234.422 95.8583 233.91 96.4171C233.396 96.9758 233.434 97.8482 233.993 98.3629L244.952 108.433C245.217 108.676 245.55 108.797 245.883 108.797V108.794Z"
      fill="#2761FF" />
    <path
      d="M66.4331 122.84C66.8157 122.84 67.1955 122.68 67.468 122.372C67.9689 121.799 67.9138 120.932 67.3413 120.429L54.5984 109.249C54.0259 108.748 53.1562 108.806 52.6552 109.375C52.1543 109.948 52.2094 110.815 52.7818 111.319L65.5249 122.498C65.7863 122.727 66.1083 122.84 66.4331 122.84Z"
      fill="#FFDFFE" />
    <path
      d="M162.455 109.442C162.84 109.442 163.225 109.28 163.498 108.966L170.136 101.273C170.632 100.698 170.568 99.8285 169.993 99.3331C169.418 98.8377 168.548 98.901 168.053 99.4762L161.414 107.169C160.919 107.744 160.982 108.614 161.557 109.109C161.816 109.332 162.138 109.442 162.455 109.442Z"
      fill="#EDFF20" />
    <path
      d="M8.37548 106.565C8.65071 106.565 8.93145 106.482 9.17365 106.309L20.169 98.4677C20.7882 98.0273 20.9313 97.1658 20.491 96.5493C20.0506 95.9301 19.1892 95.787 18.5727 96.2273L7.57735 104.069C6.95809 104.509 6.81496 105.37 7.25532 105.987C7.52505 106.364 7.94613 106.565 8.37824 106.565H8.37548Z"
      fill="#070602" />
    <path
      d="M201.773 127.525C200.138 125.89 200.138 123.239 201.773 121.604C203.407 119.97 206.058 119.97 207.693 121.604C209.328 123.239 209.328 125.89 207.693 127.525C206.058 129.159 203.407 129.159 201.773 127.525Z"
      fill="white" />
    <path
      d="M103.452 109.458C101.552 109.458 100.012 107.918 100.012 106.018C100.012 104.118 101.552 102.577 103.452 102.577C105.352 102.577 106.892 104.118 106.892 106.018C106.892 107.918 105.352 109.458 103.452 109.458Z"
      fill="#A041FF" />
    <path
      d="M11.5262 45.8807C9.62617 45.8807 8.08588 44.3404 8.08588 42.4403C8.08588 40.5403 9.62617 39 11.5262 39C13.4263 39 14.9666 40.5403 14.9666 42.4403C14.9666 44.3404 13.4263 45.8807 11.5262 45.8807Z"
      fill="#A041FF" />
  </g>
  <rect x="0.5" y="0.5" width="397" height="119" rx="23.5" stroke="white" stroke-opacity="0.1" />
  <defs>
    <clipPath id="clip0_225_25450">
      <rect width="398" height="120" rx="24" fill="white" />
    </clipPath>
  </defs>
</svg>
