<svg width="398" height="120" viewBox="0 0 398 120" fill="none" xmlns="http://www.w3.org/2000/svg">
  <g clip-path="url(#clip0_225_25448)">
    <rect width="398" height="120" rx="24" fill="#EE4C00" />
    <path
      d="M78.0036 155.333C78.0036 115.862 109.985 84 149.337 84C188.689 84 220.67 115.862 220.67 155.333H78.0036Z"
      fill="white" fill-opacity="0.1" />
    <path
      d="M0 -47C39.3522 -47 71.3333 -15.1378 71.3333 24.3333C71.3333 63.6855 39.3522 95.6666 0 95.6666V-47Z"
      fill="white" fill-opacity="0.1" />
    <path
      d="M157.559 -36C157.559 3.35221 189.421 35.3333 228.892 35.3333C268.244 35.3333 300.225 3.35221 300.225 -36L157.559 -36Z"
      fill="white" fill-opacity="0.1" />
    <path
      d="M398.333 24.3333C358.981 24.3333 327 56.1955 327 95.6666C327 135.019 358.981 167 398.333 167V24.3333Z"
      fill="white" fill-opacity="0.1" />
    <mask id="mask0_225_25448" style="mask-type:luminance" maskUnits="userSpaceOnUse" x="62" y="25"
      width="46" height="55">
      <path d="M107.942 25.6217H62.0577V80H107.942V25.6217Z" fill="white" />
    </mask>
    <g mask="url(#mask0_225_25448)">
      <path
        d="M103.246 40.7806C103.191 40.864 103.173 40.9014 103.146 40.9306C101.825 42.3579 100.299 43.4776 98.4155 44.0499C98.1599 44.1278 97.8876 44.1522 97.6212 44.1934C97.3017 44.2421 97.0435 44.1149 96.7917 43.8707C99.1811 43.333 101.172 42.04 103.246 40.7806Z"
        fill="#815252" />
      <path
        d="M86.5112 38.8563C86.3461 40.7405 86.1885 42.5409 86.0288 44.3563C85.5962 44.2952 85.1901 44.2047 84.7802 44.189C84.2328 44.1679 83.6827 44.208 83.1337 44.2129C83.0454 44.2134 82.9404 44.1928 82.8711 44.143C81.8098 43.3779 81.3453 42.2609 81.067 41.041C80.9181 40.3881 81.1325 39.7919 81.4086 39.2174C81.5169 38.9922 81.662 38.7832 81.8039 38.5758C81.9219 38.4031 82.0925 38.3527 82.2744 38.4692C82.7411 38.7675 83.1932 38.7285 83.6432 38.4372C83.8305 38.3159 84.0184 38.3311 84.203 38.4453C84.3714 38.5498 84.5431 38.65 84.7055 38.7632C85.0715 39.0182 85.4657 39.062 85.8918 38.9581C86.077 38.9126 86.2692 38.8953 86.5112 38.8563Z"
        fill="#FF6662" />
      <path
        d="M80.2412 33.9497C80.6522 34.9665 80.9911 36.0012 80.9083 37.1226C80.8877 37.3998 80.8498 37.6759 80.8152 37.9954C80.199 37.1199 79.6245 36.2806 79.0262 35.4582C77.8101 33.7872 76.3222 32.3643 74.8684 30.9089C74.1884 30.2283 73.5554 29.4973 72.9322 28.7631C72.721 28.5146 72.6176 28.1784 72.4438 27.8947C72.2316 27.5481 72.3269 27.2005 72.4135 26.8545C72.466 26.6428 72.929 26.4241 73.2008 26.521C73.7238 26.7078 74.268 26.8805 74.732 27.1724C75.2924 27.5248 75.8143 27.958 76.2903 28.4209C77.939 30.0226 79.369 31.7898 80.2412 33.9497Z"
        fill="#9A4C4A" />
      <path
        d="M105.177 37.8747C104.88 38.1785 104.61 38.4909 104.303 38.7638C102.222 40.6171 99.8525 41.98 97.2092 42.8555C96.7614 43.0039 96.2747 43.0396 95.8025 43.1029C95.6747 43.1203 95.5134 43.0802 95.4035 43.0098C93.0574 41.5073 90.5082 40.4802 87.8275 39.7589C87.6721 39.7178 87.5113 39.6978 87.3289 39.6637C87.298 39.5055 87.3034 39.355 87.4815 39.244C89.1871 38.1774 90.8775 37.082 92.7222 36.2655C93.203 36.0522 93.7277 35.9298 94.2404 35.7982C94.6774 35.6856 95.1035 35.8031 95.502 35.9861C96.2048 36.3099 96.4485 36.9981 96.1133 37.702C95.8356 38.2857 95.417 38.7551 94.8761 39.1065C94.1484 39.5803 93.386 39.9869 92.5511 40.2446C92.4742 40.2685 92.3957 40.2955 92.327 40.3367C92.144 40.4455 92.0627 40.6096 92.1212 40.8186C92.1764 41.0162 92.3237 41.1153 92.5251 41.1142C92.6313 41.1142 92.7412 41.0925 92.8424 41.0601C93.8474 40.7384 94.7824 40.2701 95.6217 39.6344C96.3185 39.107 96.8567 38.4416 97.0668 37.5682C97.2856 36.6564 96.9136 35.7972 96.1068 35.3234C95.3342 34.8702 94.5058 34.8074 93.6486 35.0164C92.5852 35.2757 91.6323 35.7923 90.6815 36.3099C90.1195 36.6164 89.571 36.9477 89.0165 37.2677C88.9738 37.2921 88.9299 37.3148 88.8861 37.3381C89.8065 35.5871 90.7167 33.8312 91.6496 32.0866C92.6416 30.2311 94.1165 28.813 95.7971 27.5888C95.8253 27.5682 95.8583 27.5541 95.9092 27.5265C98.99 30.9669 102.071 34.4062 105.177 37.8747Z"
        fill="#FF6662" />
      <path
        d="M91.0063 42.9314C91.3447 43.1257 91.5981 43.4154 91.7898 43.867C91.5055 43.7711 91.2895 43.7165 91.0886 43.6277C89.7902 43.0537 88.6954 42.1977 87.724 41.1738C87.6493 41.0953 87.5822 41.0081 87.4988 40.9404C87.417 40.8733 87.3185 40.8257 87.2086 40.758C87.2232 40.6816 87.2394 40.5977 87.2584 40.4997C87.4333 40.5511 87.5865 40.5961 87.7587 40.647C87.6504 41.0476 87.8919 41.2036 88.1983 41.3671C89.1437 41.8712 90.0772 42.3969 91.0063 42.9314Z"
        fill="#9A4C4A" />
      <path
        d="M78.6483 41.1564C78.6342 41.1851 78.6201 41.2144 78.606 41.2431C77.9249 41.0768 77.241 40.9198 76.5631 40.7417C75.1343 40.3659 73.7075 39.9831 72.283 39.5933C71.9538 39.5034 71.6322 39.3816 71.3143 39.2554C71.1573 39.1931 71.0041 39.1038 70.8736 38.9966C70.7696 38.911 70.7036 38.7789 70.6207 38.6679C70.7382 38.597 70.8541 38.4692 70.9738 38.466C71.4648 38.4524 71.97 38.4091 72.447 38.4995C74.0838 38.8098 75.5772 39.5191 77.0494 40.2679C77.5924 40.5446 78.116 40.8592 78.6483 41.1564Z"
        fill="#9A4C4A" />
      <path
        d="M80.3543 41.8993C80.5557 42.3655 80.748 42.8095 80.9494 43.2757C80.1702 43.3997 79.4014 43.5772 78.6233 43.6341C75.9014 43.8339 73.1985 43.6872 70.5341 43.0504C68.8068 42.6373 67.3585 41.7731 66.3183 40.3161C66.0205 39.8992 65.844 39.394 65.6323 38.9197C65.5933 38.832 65.6172 38.6815 65.6691 38.5927C67.6449 35.2135 69.6271 31.8381 71.6094 28.4627C71.6272 28.4324 71.6527 28.4058 71.6798 28.3706C71.8482 28.6565 71.9759 28.9635 72.1806 29.2061C72.8076 29.9495 73.4292 30.7032 74.1157 31.3892C75.5647 32.8381 77.0526 34.2481 78.2741 35.9033C78.7722 36.5785 79.2601 37.2623 79.7214 37.9624C79.9158 38.257 80.0295 38.6051 80.1794 38.9289C80.1946 38.9614 80.1951 39.0112 80.2195 39.028C80.52 39.2332 80.3359 39.472 80.2883 39.7167C80.2087 40.1293 80.1681 40.55 80.1069 40.9983C80.0538 40.9707 79.971 40.9339 79.893 40.8873C78.3677 39.9739 76.8225 39.1 75.1678 38.4351C74.1867 38.0409 73.1893 37.6982 72.1362 37.5601C71.5866 37.4881 71.0365 37.4924 70.507 37.6922C69.6488 38.0149 69.4501 38.8726 70.1269 39.4904C70.4252 39.7627 70.7977 39.9983 71.1784 40.1282C71.9694 40.3984 72.7881 40.5879 73.5965 40.8077C74.9967 41.1878 76.3947 41.5777 77.7998 41.9377C78.3927 42.0899 79.0012 42.1803 79.6039 42.2918C79.9103 42.3482 79.9531 42.3195 80.3543 41.8993Z"
        fill="#FF6662" />
      <path
        d="M75.9762 44.6519C75.9626 44.659 75.8895 44.6963 75.8159 44.7337C74.5462 45.3758 73.2532 45.9763 72.0138 46.6721C70.8459 47.3283 69.8329 48.2049 68.9205 49.1903C68.6325 49.5011 68.3455 49.813 68.0586 50.1254C67.4359 50.8028 66.8219 51.4872 66.3871 52.3816C65.4661 50.7741 64.2592 49.4535 63.1054 48.0928C62.9489 47.9082 62.9153 47.7658 63.0621 47.5519C64.3177 45.7262 65.759 44.0969 67.7645 43.0579C67.8506 43.0135 67.9979 42.9913 68.0737 43.0341C69.2319 43.6903 70.5016 44.0043 71.7978 44.1874C73.1958 44.385 74.6058 44.503 75.9762 44.6519Z"
        fill="#FF6662" />
      <path
        d="M90.6555 41.6177C93.9475 42.8901 96.8545 44.7852 99.5136 47.1519C97.3575 49.0789 95.1912 51.0146 93.0032 52.9698C92.935 52.8317 92.8792 52.7202 92.8245 52.6081C91.6501 50.1975 90.251 47.9316 88.475 45.9131C88.011 45.3857 87.5031 44.8968 87.0175 44.3889C86.9768 44.3466 86.9178 44.2898 86.9216 44.2438C86.9801 43.456 87.0478 42.6692 87.1128 41.8825C87.1512 41.8554 87.1891 41.8289 87.227 41.8018C87.2871 41.9009 87.3299 42.0184 87.41 42.0964C88.4057 43.0667 89.4962 43.9075 90.7919 44.4387C91.1341 44.5789 91.518 44.6623 91.8873 44.6807C92.452 44.7094 92.7758 44.2562 92.6366 43.7002C92.4888 43.1127 92.1217 42.6719 91.6485 42.3195C91.3236 42.078 90.9776 41.8652 90.6555 41.6177Z"
        fill="#FF6662" />
      <path
        d="M71.859 74.4361C71.8396 74.4453 71.8201 74.455 71.8 74.4642C71.6625 74.2948 71.538 74.1117 71.3837 73.9585C70.9635 73.5416 70.7702 73.0494 70.7437 72.4538C70.6955 71.3736 70.5845 70.2967 70.5271 69.2165C70.428 67.3436 70.3462 65.4696 70.2634 63.5956C70.2342 62.9377 70.2179 62.2793 70.2033 61.6209C70.141 58.852 70.0885 56.083 70.0181 53.314C69.9878 52.1153 69.9261 50.917 69.8703 49.7188C69.8611 49.5293 69.9163 49.3939 70.0571 49.271C70.4015 48.9716 70.7372 48.6624 71.1313 48.3078C71.3755 57.0728 71.6176 65.7544 71.859 74.4361Z"
        fill="#9A4C4A" />
      <path
        d="M96.3883 51.1235C96.3883 51.5382 96.3953 51.9021 96.3867 52.2659C96.3612 53.3304 96.3239 54.3944 96.3022 55.4583C96.2556 57.7227 96.2188 59.9875 96.1723 62.2519C96.1019 65.6885 96.0277 69.1255 95.953 72.5621C95.9216 74.0148 95.8799 75.467 95.8566 76.9192C95.8528 77.1693 95.7916 77.2814 95.5231 77.3144C93.7872 77.5277 92.0535 77.7579 90.3192 77.9815C90.0274 78.0194 89.735 78.0546 89.4063 78.0957C89.4328 77.7335 89.4707 77.4043 89.4778 77.074C89.5092 75.5861 89.5585 74.0982 89.552 72.6103C89.5411 70.0931 89.4805 67.5759 89.4637 65.0582C89.4469 62.6314 89.4496 60.2041 89.4599 57.7768C89.4729 54.8086 89.5021 51.8404 89.5254 48.8716C89.5254 48.831 89.5325 48.7898 89.5433 48.6707C89.6613 48.8445 89.7426 48.9582 89.8184 49.0752C90.7621 50.5306 91.616 52.0353 92.3404 53.612C92.5987 54.174 92.8932 54.2341 93.3567 53.8204C94.2794 52.9969 95.2004 52.1723 96.1225 51.3487C96.1945 51.2843 96.2703 51.2231 96.3883 51.1235Z"
        fill="#FF6662" />
      <path
        d="M107.059 53.4209C107.061 53.9521 107.019 54.4838 107.007 55.0149C107.002 55.2201 106.931 55.3203 106.712 55.336C105.508 55.4243 104.304 55.5212 103.101 55.6186C101.646 55.7367 100.191 55.8591 98.7361 55.9776C98.2254 56.0193 97.7143 56.0561 97.175 56.0973C97.175 55.6804 97.168 55.277 97.1766 54.8747C97.2064 53.4951 97.2524 52.116 97.266 50.7364C97.2687 50.4261 97.364 50.2242 97.5946 50.0244C98.4664 49.2674 99.3224 48.4926 100.18 47.72C100.32 47.5938 100.463 47.4595 100.561 47.3025C100.64 47.1775 100.654 47.0118 100.709 46.8255C102.777 46.7497 104.873 46.6723 106.987 46.5949C106.995 46.6809 107.007 46.7502 107.008 46.8196C107.027 49.02 107.049 51.2205 107.059 53.4209Z"
        fill="#D7E9F4" />
      <path
        d="M105.602 56.3094C105.58 56.5947 105.554 56.8795 105.538 57.1643C105.467 58.4248 105.371 59.6842 105.334 60.9458C105.259 63.4614 105.214 65.978 105.161 68.4947C105.123 70.262 105.083 72.0299 105.061 73.7977C105.054 74.383 105.093 74.9699 105.129 75.5547C105.141 75.7485 105.077 75.7967 104.897 75.8178C102.668 76.0783 100.44 76.3479 98.2114 76.6138C97.729 76.6712 97.2455 76.7237 96.7181 76.7838C96.8589 70.1792 96.9991 63.5908 97.1393 57.0116C103.926 55.2575 104.615 56.2619 105.602 56.3094Z"
        fill="#D7E9F4" />
      <path
        d="M105.553 45.7127C105.552 45.7322 105.551 45.7517 105.55 45.7711C104.921 45.8009 104.293 45.8377 103.665 45.8589C102.34 45.9043 101.015 45.9455 99.69 45.9753C99.5612 45.978 99.4074 45.9195 99.3056 45.8383C98.9764 45.5778 98.6667 45.293 98.3597 45.0266C98.9807 44.7722 99.5861 44.5264 100.19 44.2767C100.29 44.2356 100.399 44.1988 100.479 44.1311C100.974 43.7104 101.445 43.8014 101.996 44.0769C103.09 44.6254 104.222 45.1003 105.339 45.606C105.412 45.639 105.482 45.6769 105.553 45.7127Z"
        fill="#D7E9F4" />
      <path
        d="M88.886 37.3382C88.8774 37.3544 88.8687 37.3712 88.86 37.3875C88.8443 37.3837 88.8286 37.3799 88.8129 37.3766C88.8373 37.3636 88.8617 37.3506 88.886 37.3382Z"
        fill="#3D2A26" />
      <path
        d="M88.6537 70.4526C88.6613 72.5096 88.657 74.5671 88.6499 76.6241C88.6489 76.9294 88.6001 77.2348 88.5812 77.5407C88.5709 77.701 88.5075 77.7692 88.3375 77.7887C87.1913 77.9187 86.0461 78.0611 84.9004 78.1981C83.3161 78.387 81.7313 78.5744 80.147 78.7633C79.3148 78.8624 78.4826 78.9637 77.6499 79.0633C77.5621 79.0736 77.4728 79.0757 77.3531 79.0833C77.4084 72.2421 77.4636 65.4232 77.5188 58.5668C80.4276 58.3185 84.5201 57.698 87.952 57.7172C88.1551 57.7189 88.3586 57.6902 88.5942 57.6723C88.5942 57.806 88.5936 57.903 88.5942 57.9999C88.6142 62.1512 88.638 66.3019 88.6537 70.4526Z"
        fill="#D7E9F4" />
      <path
        d="M107.893 51.0006C107.897 51.8398 107.937 52.6791 107.928 53.5178C107.92 54.1756 107.866 54.8329 107.824 55.4897C107.808 55.7426 107.663 55.9023 107.415 55.9646C107.17 56.0258 106.92 56.0729 106.683 56.1568C106.598 56.1866 106.493 56.303 106.486 56.3864C106.386 57.6626 106.262 58.9388 106.22 60.2177C106.133 62.8507 106.095 65.4854 106.03 68.1195C105.993 69.6258 105.911 71.1316 105.903 72.6379C105.897 73.7186 105.972 74.801 106.031 75.8812C106.056 76.3468 105.924 76.5629 105.456 76.6203C103.89 76.8119 102.323 76.9933 100.756 77.179C99.4849 77.3296 98.2136 77.4812 96.9423 77.6312C96.7945 77.6485 96.6976 77.6994 96.6044 77.8407C96.5238 77.9642 96.3391 78.0681 96.1875 78.0887C93.9719 78.3886 91.7531 78.6615 89.5385 78.9707C89.1362 79.027 88.8206 78.9745 88.5325 78.6956C88.4919 78.6567 88.3982 78.6534 88.3327 78.661C85.8708 78.9545 83.4093 79.2517 80.9479 79.5473C79.7394 79.6925 78.5314 79.8386 77.3218 79.9767C76.9585 80.0179 76.651 79.9339 76.3764 79.6399C75.2437 78.426 74.0877 77.2337 72.9415 76.0317C72.8863 75.9738 72.8424 75.905 72.7904 75.8379C72.4277 76.2754 72.184 76.2894 71.8407 75.8866C71.3431 75.3035 70.8423 74.7203 70.3875 74.1042C70.1714 73.8118 69.9337 73.501 69.95 73.0846C69.9549 72.9687 69.8682 72.8269 69.7827 72.7343C69.2678 72.1777 68.7301 71.6422 68.2244 71.078C68.0046 70.8327 67.8394 70.5382 67.6591 70.2593C67.625 70.2063 67.6239 70.1229 67.6282 70.0552C67.7696 67.9105 67.7961 65.7648 67.7154 63.6169C67.6705 62.4181 67.6331 61.2188 67.5828 60.02C67.5059 58.1905 67.4176 56.3615 67.3407 54.5319C67.3185 54.0002 67.3202 53.4674 67.3093 52.9352C67.3077 52.8512 67.299 52.7679 67.2931 52.6839C67.2611 52.6769 67.2287 52.6699 67.1962 52.6628C67.1085 52.9005 66.9915 53.1323 66.9417 53.3775C66.8984 53.5898 66.8475 53.7685 66.6233 53.8286C66.3889 53.8919 66.2205 53.7771 66.1003 53.5854C65.9525 53.3483 65.8084 53.1084 65.6693 52.8659C64.8923 51.5106 63.882 50.3319 62.8705 49.1537C62.7113 48.9691 62.563 48.7747 62.3978 48.596C61.9755 48.1385 61.9788 47.61 62.3166 47.1157C63.3459 45.6099 64.4922 44.214 65.9822 43.1311C66.0976 43.0478 66.1837 42.8935 66.2313 42.7543C66.3109 42.5204 66.4717 42.3747 66.7278 42.3802C66.8339 42.3829 66.9395 42.3969 67.0224 42.404C66.5475 41.8793 66.0391 41.3985 65.633 40.843C65.3033 40.3914 65.0748 39.8597 64.8414 39.3459C64.6324 38.8862 64.7342 38.4471 64.9919 38.0107C66.6498 35.2076 68.2937 32.3964 69.9424 29.5873C70.2981 28.9809 70.6658 28.3804 71.0074 27.7654C71.1899 27.4378 71.3507 27.0945 71.4801 26.7431C71.785 25.9158 72.6339 25.4442 73.5365 25.7095C74.1013 25.8752 74.6958 26.0733 75.1625 26.4139C78.2336 28.6544 80.5191 31.4873 81.5733 35.2049C81.7817 35.9407 81.8527 36.6928 81.7444 37.4557C81.7411 37.4795 81.7525 37.5055 81.7844 37.4616C82.1223 37.5585 82.4585 37.6647 82.7997 37.7481C82.9004 37.7724 83.0384 37.7703 83.1218 37.7194C83.7104 37.3571 84.2816 37.4107 84.8171 37.8027C85.1907 38.0767 85.548 38.211 86.0169 38.0426C86.2205 37.9695 86.482 38.0237 86.71 38.0626C86.8735 38.0913 86.9721 38.0556 87.0885 37.9451C88.0317 37.0485 88.7004 35.971 89.2678 34.8074C89.8764 33.5605 90.5218 32.3281 91.2154 31.1267C92.1218 29.5565 93.405 28.3149 94.8393 27.2239C95.0548 27.0598 95.2703 26.8963 95.4923 26.7409C95.9244 26.4377 96.1182 26.4594 96.4685 26.8498C97.7458 28.2738 99.022 29.6994 100.299 31.1245C102.087 33.1214 103.877 35.1166 105.66 37.1173C105.839 37.3176 105.987 37.5472 106.141 37.7681C106.289 37.9803 106.256 38.1964 106.123 38.401C105.876 38.779 105.638 39.1634 105.373 39.5278C104.43 40.8219 103.428 42.0629 102.141 43.0413C102.104 43.0689 102.062 43.0873 101.985 43.1322C102.761 43.4847 103.474 43.8096 104.187 44.1323C105.19 44.586 106.184 45.0598 107.199 45.4827C107.71 45.6954 107.877 46.0647 107.88 46.5601C107.887 48.0405 107.883 49.5208 107.893 51.0006ZM107.007 55.0149C107.019 54.4837 107.061 53.952 107.059 53.4208C107.049 51.2204 107.027 49.0199 107.008 46.8195C107.007 46.7502 106.995 46.6809 106.987 46.5948C104.873 46.6722 102.777 46.7497 100.709 46.8255C100.654 47.0117 100.64 47.1774 100.561 47.3025C100.463 47.4595 100.32 47.5938 100.18 47.7199C99.3225 48.4926 98.4665 49.2674 97.5948 50.0243C97.3641 50.2241 97.2688 50.4261 97.2661 50.7363C97.2526 52.116 97.2065 53.495 97.1768 54.8746C97.1681 55.2769 97.1751 55.6803 97.1751 56.0972C97.7144 56.0561 98.2255 56.0193 98.7361 55.9776C100.191 55.859 101.646 55.7366 103.101 55.6186C104.304 55.5211 105.508 55.4242 106.712 55.336C106.931 55.3203 107.002 55.2201 107.007 55.0149ZM105.55 45.7713C105.551 45.7518 105.552 45.7323 105.553 45.7128C105.482 45.677 105.412 45.6391 105.339 45.6061C104.223 45.1004 103.09 44.6255 101.996 44.0771C101.445 43.8015 100.974 43.7105 100.479 44.1312C100.399 44.1989 100.29 44.2357 100.19 44.2769C99.5862 44.5265 98.9808 44.7723 98.3598 45.0268C98.6668 45.2932 98.9765 45.578 99.3057 45.8384C99.4075 45.9196 99.5612 45.9781 99.6901 45.9754C101.015 45.9456 102.34 45.9044 103.665 45.859C104.293 45.8379 104.921 45.801 105.55 45.7713ZM105.538 57.1644C105.555 56.8796 105.581 56.5948 105.602 56.3095C103.488 56.4622 98.4811 56.9026 97.1394 57.0117C96.9992 63.5909 96.8589 70.1792 96.7181 76.7838C97.2455 76.7237 97.729 76.6712 98.2115 76.6138C100.44 76.3479 102.668 76.0783 104.897 75.8178C105.078 75.7967 105.141 75.7485 105.13 75.5547C105.093 74.9699 105.054 74.383 105.061 73.7977C105.083 72.0299 105.124 70.262 105.161 68.4947C105.215 65.9781 105.259 63.4615 105.334 60.9459C105.371 59.6843 105.467 58.4249 105.538 57.1644ZM104.303 38.7638C104.61 38.4909 104.88 38.1785 105.177 37.8748C102.071 34.4062 98.99 30.9669 95.9092 27.5266C95.8583 27.5542 95.8253 27.5683 95.7971 27.5888C94.1165 28.8131 92.6416 30.2311 91.6496 32.0867C90.7167 33.8312 89.8065 35.5871 88.8861 37.3382C88.8617 37.3506 88.8374 37.3636 88.813 37.3766C88.8287 37.3799 88.8444 37.3837 88.8601 37.3875C88.8688 37.3712 88.8774 37.3544 88.8861 37.3382C88.9299 37.3149 88.9738 37.2922 89.0166 37.2678C89.571 36.9478 90.1195 36.6164 90.6815 36.31C91.6323 35.7923 92.5853 35.2758 93.6487 35.0164C94.5058 34.8074 95.3342 34.8703 96.1069 35.3234C96.9136 35.7972 97.2856 36.6565 97.0668 37.5683C96.8568 38.4417 96.3186 39.1071 95.6217 39.6345C94.7825 40.2701 93.8474 40.7385 92.8425 41.0601C92.7412 41.0926 92.6313 41.1137 92.5252 41.1142C92.3237 41.1153 92.1765 41.0162 92.1212 40.8186C92.0628 40.6096 92.144 40.4456 92.327 40.3367C92.3958 40.2956 92.4743 40.2685 92.5512 40.2447C93.3861 39.9869 94.1484 39.5803 94.8761 39.1066C95.417 38.7552 95.8356 38.2857 96.1133 37.702C96.4485 36.9981 96.2049 36.31 95.5021 35.9862C95.1035 35.8032 94.6774 35.6857 94.2405 35.7983C93.7277 35.9299 93.2031 36.0522 92.7223 36.2656C90.8775 37.0821 89.1871 38.1774 87.4816 39.2441C87.3034 39.3551 87.298 39.5056 87.3289 39.6637C87.5113 39.6978 87.6722 39.7179 87.8276 39.759C90.5083 40.4802 93.0574 41.5073 95.4035 43.0099C95.5134 43.0802 95.6748 43.1203 95.8026 43.103C96.2747 43.0396 96.7615 43.0039 97.2092 42.8555C99.8525 41.98 102.222 40.6172 104.303 38.7638ZM103.146 40.9307C103.173 40.9015 103.191 40.8641 103.246 40.7807C101.172 42.0401 99.1811 43.3331 96.7918 43.8708C97.0436 44.115 97.3018 44.2422 97.6213 44.1935C97.8877 44.1523 98.16 44.128 98.4156 44.05C100.299 43.4777 101.825 42.358 103.146 40.9307ZM96.3868 52.2659C96.3954 51.9021 96.3884 51.5382 96.3884 51.1235C96.2704 51.2231 96.1946 51.2843 96.1226 51.3487C95.2005 52.1723 94.2795 52.9969 93.3568 53.8204C92.8934 54.2341 92.5988 54.174 92.3405 53.612C91.6161 52.0353 90.7622 50.5306 89.8185 49.0752C89.7427 48.9582 89.6614 48.8445 89.5434 48.6707C89.5326 48.7898 89.5255 48.831 89.5255 48.8716C89.5023 51.8404 89.473 54.8086 89.46 57.7768C89.4497 60.2041 89.447 62.6314 89.4638 65.0582C89.4806 67.5759 89.5412 70.0931 89.5521 72.6103C89.5586 74.0982 89.5093 75.5861 89.4779 77.074C89.4709 77.4043 89.4329 77.7335 89.4064 78.0957C89.7351 78.0546 90.0275 78.0194 90.3193 77.9815C92.0536 77.7579 93.7873 77.5277 95.5232 77.3144C95.7917 77.2814 95.8529 77.1693 95.8567 76.9192C95.88 75.467 95.9217 74.0148 95.9531 72.5621C96.0278 69.1255 96.102 65.6885 96.1724 62.2519C96.2189 59.9875 96.2557 57.7227 96.3023 55.4583C96.324 54.3944 96.3613 53.3304 96.3868 52.2659ZM99.5136 47.1519C96.8546 44.7853 93.9476 42.8902 90.6555 41.6178C90.9777 41.8652 91.3237 42.078 91.6486 42.3195C92.1218 42.672 92.4889 43.1127 92.6367 43.7002C92.7759 44.2563 92.4521 44.7095 91.8873 44.6808C91.5181 44.6624 91.1342 44.579 90.792 44.4387C89.4963 43.9076 88.4058 43.0667 87.4101 42.0964C87.33 42.0185 87.2872 41.901 87.2271 41.8019C87.1892 41.829 87.1513 41.8555 87.1128 41.8826C87.0479 42.6693 86.9802 43.456 86.9217 44.2438C86.9179 44.2898 86.9769 44.3467 87.0175 44.3889C87.5032 44.8968 88.0111 45.3857 88.4751 45.9131C90.2511 47.9316 91.6502 50.1976 92.8246 52.6081C92.8793 52.7202 92.935 52.8318 93.0033 52.9698C95.1913 51.0146 97.3576 49.079 99.5136 47.1519ZM91.7899 43.867C91.5982 43.4154 91.3448 43.1257 91.0064 42.9314C90.0773 42.3969 89.1438 41.8712 88.1984 41.3671C87.892 41.2036 87.6505 41.0476 87.7588 40.647C87.5866 40.5961 87.4334 40.5511 87.2585 40.4997C87.2395 40.5977 87.2233 40.6816 87.2087 40.758C87.3186 40.8257 87.4171 40.8733 87.4989 40.9404C87.5823 41.0081 87.6494 41.0953 87.7241 41.1738C88.6955 42.1977 89.7903 43.0537 91.0887 43.6277C91.2896 43.7165 91.5056 43.7711 91.7899 43.867ZM88.65 76.6241C88.657 74.5671 88.6614 72.5096 88.6538 70.4526C88.6381 66.3019 88.6143 62.1512 88.5942 57.9999C88.5937 57.903 88.5942 57.806 88.5942 57.6723C84.9008 57.9525 81.213 58.2514 77.5189 58.5668C77.4637 65.4232 77.4084 72.2421 77.3532 79.0833C77.4729 79.0757 77.5622 79.0736 77.6499 79.0633C78.4827 78.9637 79.3149 78.8624 80.1471 78.7633C81.7314 78.5744 83.3162 78.387 84.9005 78.1981C86.0462 78.0611 87.1914 77.9187 88.3376 77.7887C88.5076 77.7692 88.571 77.701 88.5812 77.5407C88.6002 77.2348 88.6489 76.9294 88.65 76.6241ZM88.5477 56.799C88.5867 53.6916 88.6251 50.6129 88.6641 47.5261C88.5726 47.5207 88.5282 47.5131 88.4854 47.5169C87.4615 47.6057 86.4382 47.695 85.4149 47.7849C82.9729 47.9999 80.531 48.2148 78.0896 48.4319C77.677 48.4688 77.265 48.5159 76.8535 48.5646C76.6201 48.5922 76.4842 48.6929 76.4961 48.9685C76.514 49.3827 76.4939 49.7986 76.4847 50.2133C76.4582 51.4305 76.4414 52.6482 76.3959 53.8643C76.351 55.0717 76.2757 56.2775 76.2145 57.4839C76.2097 57.5792 76.2145 57.6745 76.2145 57.799C80.3599 57.4633 84.4603 57.1303 88.5477 56.799ZM87.9602 46.6928C87.9326 46.6305 87.9272 46.6018 87.9104 46.5845C87.4886 46.1394 87.0674 45.6933 86.6385 45.2547C86.5898 45.2054 86.4956 45.18 86.4225 45.1794C86.1924 45.1794 85.9503 45.2471 85.7338 45.1973C84.8225 44.9878 83.9112 44.9921 82.9908 45.1069C82.8343 45.1264 82.6296 45.0977 82.51 45.0078C82.21 44.7826 81.949 44.5059 81.6648 44.2584C81.6063 44.2075 81.5088 44.1626 81.4368 44.1718C80.9636 44.2346 80.4909 44.305 80.0204 44.3873C78.2482 44.6965 76.5687 45.2856 74.9584 46.0788C74.6931 46.2093 74.4261 46.336 74.1175 46.4849C74.8663 46.9099 75.5686 47.3117 76.2757 47.7053C76.338 47.74 76.4311 47.7335 76.508 47.7259C77.3343 47.6501 78.1594 47.5662 78.9851 47.4925C80.0897 47.3934 81.1953 47.3036 82.2999 47.2056C83.6378 47.087 84.9757 46.963 86.3137 46.8417C86.8513 46.7924 87.3895 46.7442 87.9602 46.6928ZM86.0289 44.3564C86.1886 42.541 86.3461 40.7406 86.5113 38.8564C86.2693 38.8954 86.077 38.9127 85.8919 38.9582C85.4657 39.0622 85.0716 39.0183 84.7056 38.7633C84.5431 38.6501 84.3715 38.5499 84.2031 38.4454C84.0185 38.3312 83.8306 38.316 83.6432 38.4373C83.1933 38.7286 82.7412 38.7676 82.2744 38.4693C82.0925 38.3529 81.922 38.4032 81.8039 38.5759C81.6621 38.7833 81.517 38.9923 81.4087 39.2176C81.1325 39.792 80.9181 40.3882 81.067 41.0412C81.3453 42.261 81.8099 43.378 82.8711 44.1431C82.9404 44.1929 83.0455 44.2135 83.1337 44.213C83.6828 44.2081 84.2329 44.168 84.7803 44.1891C85.1902 44.2048 85.5962 44.2953 86.0289 44.3564ZM80.9084 37.1227C80.9912 36.0013 80.6523 34.9666 80.2413 33.9498C79.369 31.7899 77.9391 30.0227 76.2904 28.4211C75.8144 27.9581 75.2925 27.525 74.7321 27.1725C74.268 26.8806 73.7239 26.7079 73.2008 26.5211C72.929 26.4242 72.4661 26.6429 72.4136 26.8546C72.3269 27.2006 72.2316 27.5482 72.4439 27.8948C72.6177 28.1785 72.7211 28.5147 72.9323 28.7632C73.5555 29.4975 74.1884 30.2284 74.8685 30.909C76.3223 32.3644 77.8102 33.7874 79.0263 35.4583C79.6246 36.2807 80.1991 37.12 80.8152 37.9955C80.8499 37.676 80.8878 37.3999 80.9084 37.1227ZM80.9495 43.2757C80.7481 42.8095 80.5559 42.3655 80.3545 41.8993C79.9533 42.3195 79.9105 42.3482 79.604 42.2919C79.0014 42.1804 78.3928 42.0899 77.7999 41.9378C76.3949 41.5777 74.9968 41.1879 73.5966 40.8078C72.7883 40.588 71.9696 40.3985 71.1785 40.1283C70.7979 39.9983 70.4254 39.7628 70.127 39.4904C69.4502 38.8726 69.6489 38.015 70.5071 37.6923C71.0367 37.4925 71.5868 37.4882 72.1364 37.5602C73.1895 37.6982 74.1868 38.041 75.1679 38.4352C76.8226 39.1001 78.3679 39.974 79.8932 40.8874C79.9711 40.9339 80.054 40.9708 80.107 40.9984C80.1682 40.5501 80.2088 40.1294 80.2884 39.7168C80.3361 39.472 80.5202 39.2333 80.2196 39.028C80.1953 39.0113 80.1947 38.9614 80.1796 38.929C80.0296 38.6052 79.9159 38.257 79.7215 37.9625C79.2602 37.2624 78.7724 36.5785 78.2742 35.9033C77.0527 34.2481 75.5648 32.8382 74.1159 31.3893C73.4293 30.7033 72.8077 29.9496 72.1807 29.2062C71.9761 28.9636 71.8483 28.6566 71.6799 28.3707C71.6528 28.4059 71.6274 28.4324 71.6095 28.4627C69.6273 31.8381 67.645 35.2135 65.6693 38.5927C65.6173 38.6815 65.5935 38.832 65.6325 38.9198C65.8442 39.3941 66.0207 39.8992 66.3185 40.3162C67.3586 41.7732 68.807 42.6373 70.5342 43.0505C73.1987 43.6872 75.9016 43.8339 78.6235 43.6342C79.4015 43.5773 80.1704 43.3997 80.9495 43.2757ZM78.6061 41.2431C78.6202 41.2144 78.6343 41.1852 78.6484 41.1565C78.1161 40.8592 77.5925 40.5446 77.0495 40.268C75.5773 39.5191 74.0839 38.8098 72.4471 38.4996C71.9701 38.4092 71.465 38.4525 70.9739 38.466C70.8542 38.4693 70.7383 38.597 70.6208 38.668C70.7037 38.779 70.7697 38.9111 70.8737 38.9966C71.0042 39.1038 71.1574 39.1932 71.3144 39.2555C71.6323 39.3816 71.9539 39.5034 72.2831 39.5933C73.7076 39.9832 75.1344 40.366 76.5632 40.7417C77.2411 40.9199 77.925 41.0769 78.6061 41.2431ZM76.4983 78.4655C76.5486 71.8279 76.5984 65.2558 76.6488 58.6697C76.4387 58.6697 76.2703 58.6399 76.1165 58.6756C75.7354 58.7639 75.4424 58.6269 75.1436 58.4038C74.2621 57.7443 73.366 57.1049 72.4748 56.4584C72.4049 56.4075 72.3302 56.3615 72.2571 56.3133C72.2371 56.3452 72.2197 56.3593 72.2203 56.3734C72.2528 57.6631 72.2852 58.9528 72.321 60.2426C72.4076 63.3359 72.4953 66.4297 72.5841 69.523C72.6296 71.1192 72.6751 72.7153 72.7341 74.311C72.7395 74.4556 72.8126 74.6288 72.9117 74.7339C74.026 75.9164 75.1511 77.0881 76.2741 78.2614C76.3272 78.3172 76.3873 78.3654 76.4983 78.4655ZM75.816 44.7338C75.8897 44.6965 75.9628 44.6591 75.9763 44.6521C74.6059 44.5032 73.196 44.3851 71.7979 44.1875C70.5017 44.0045 69.232 43.6905 68.0739 43.0342C67.9981 42.9915 67.8508 43.0137 67.7647 43.0581C65.7592 44.0971 64.3178 45.7263 63.0622 47.5521C62.9155 47.766 62.949 47.9084 63.1055 48.093C64.2593 49.4536 65.4662 50.7742 66.3872 52.3818C66.822 51.4873 67.436 50.8029 68.0587 50.1256C68.3457 49.8132 68.6326 49.5013 68.9207 49.1905C69.833 48.2051 70.8461 47.3285 72.014 46.6722C73.2534 45.9765 74.5463 45.376 75.816 44.7338ZM75.6428 48.5668C75.6449 48.4633 75.5513 48.3161 75.4592 48.2587C75.0304 47.9928 74.5886 47.7465 74.1462 47.5028C73.8257 47.3263 73.49 47.0215 73.1738 47.0372C72.8386 47.0534 72.5192 47.3815 72.1927 47.5732C72.1775 47.5824 72.1564 47.59 72.1488 47.6041C72.093 47.7059 71.995 47.8087 71.9945 47.9116C71.9934 48.3989 72.021 48.8857 72.0351 49.3724C72.0882 51.2393 72.1369 53.1063 72.2002 54.9726C72.2046 55.0907 72.2955 55.2428 72.3935 55.3154C73.3059 55.9938 74.2285 56.6582 75.1484 57.3263C75.1982 57.3621 75.2508 57.3945 75.3499 57.4606C75.3618 57.218 75.3726 57.0307 75.3802 56.8428C75.404 56.2656 75.4316 55.689 75.45 55.1123C75.5188 52.9303 75.587 50.7488 75.6428 48.5668ZM71.8001 74.4642C71.8201 74.455 71.8396 74.4453 71.8591 74.4361C71.6176 65.7545 71.3756 57.0729 71.1314 48.3079C70.7372 48.6626 70.4015 48.9718 70.0572 49.2712C69.9164 49.3941 69.8612 49.5295 69.8704 49.719C69.9262 50.9172 69.9879 52.1154 70.0182 53.3142C70.0886 56.0832 70.1411 58.8521 70.2034 61.6211C70.218 62.2795 70.2342 62.9379 70.2635 63.5958C70.3463 65.4697 70.4281 67.3436 70.5272 69.2165C70.5846 70.2967 70.6956 71.3736 70.7437 72.4538C70.7703 73.0494 70.9636 73.5416 71.3837 73.9585C71.538 74.1117 71.6626 74.2947 71.8001 74.4642ZM69.7453 71.4299C69.7551 71.3417 69.7626 71.3092 69.7616 71.2773C69.7193 70.3313 69.6765 69.386 69.6338 68.4406C69.5466 66.5136 69.4394 64.5872 69.3782 62.6591C69.3149 60.6763 69.3008 58.6924 69.2569 56.7091C69.2385 55.8888 69.199 55.069 69.1638 54.2493C69.16 54.1659 69.1432 54.0516 69.088 54.0072C68.8102 53.7852 68.5173 53.5811 68.1962 53.3467C68.1897 53.4523 68.1821 53.5037 68.1843 53.5546C68.245 55.1762 68.3045 56.7979 68.3679 58.4195C68.4512 60.5637 68.5763 62.7067 68.6099 64.8514C68.6364 66.5271 68.5503 68.204 68.5184 69.8809C68.5162 69.9843 68.5119 70.1213 68.5709 70.1862C68.9418 70.5983 69.3306 70.9946 69.7453 71.4299ZM69.1383 52.9574C69.1053 52.0705 69.075 51.248 69.0441 50.4256C69.0209 50.4163 68.9981 50.4066 68.9748 50.3969C68.5444 50.8885 68.1145 51.3801 67.6683 51.8896C68.1697 52.2535 68.631 52.5886 69.1383 52.9574Z"
        fill="#3D2A26" />
      <path
        d="M88.664 47.5259C88.625 50.6127 88.5866 53.6914 88.5476 56.7988C84.4602 57.1302 80.3592 57.4631 76.2139 57.7988C76.2139 57.6743 76.2096 57.579 76.2139 57.4837C76.2751 56.2774 76.3503 55.0716 76.3953 53.8641C76.4408 52.648 76.4576 51.4303 76.4841 50.2131C76.4933 49.7984 76.5133 49.3826 76.4955 48.9684C76.4835 48.6928 76.6194 48.592 76.8528 48.5644C77.2643 48.5157 77.6764 48.4686 78.0889 48.4318C80.5303 48.2147 82.9723 47.9997 85.4142 47.7847C86.4375 47.6949 87.4609 47.6055 88.4848 47.5167C88.5275 47.5129 88.5719 47.5205 88.6634 47.5259H88.664Z"
        fill="#D7E9F4" />
      <path
        d="M87.9103 46.5845C87.9271 46.6018 87.9325 46.6305 87.9601 46.6927C87.3894 46.7442 86.8512 46.7924 86.3136 46.8416C84.9757 46.9629 83.6377 47.0869 82.2998 47.2055C81.1953 47.3035 80.0896 47.3934 78.9851 47.4925C78.1594 47.5661 77.3342 47.65 76.5079 47.7258C76.431 47.7334 76.3379 47.7399 76.2757 47.7053C75.5685 47.3116 74.8663 46.9099 74.1174 46.4848C74.4261 46.3359 74.693 46.2092 74.9583 46.0787C76.5686 45.2855 78.2481 44.6964 80.0203 44.3873C80.4908 44.305 80.9635 44.2346 81.4367 44.1718C81.5088 44.1625 81.6062 44.2075 81.6647 44.2584C81.949 44.5058 82.2099 44.7825 82.5099 45.0078C82.6296 45.0976 82.8342 45.1263 82.9907 45.1068C83.9112 44.9921 84.8224 44.9877 85.7337 45.1973C85.9503 45.2471 86.1923 45.1789 86.4224 45.1794C86.4955 45.1799 86.5897 45.2054 86.6384 45.2547C87.0673 45.6932 87.4885 46.1394 87.9103 46.5845Z"
        fill="#D7E9F4" />
      <path
        d="M76.6487 58.6696C76.5983 65.2558 76.5485 71.8279 76.4982 78.4655C76.3872 78.3654 76.3271 78.3172 76.274 78.2614C75.151 77.0881 74.0259 75.9164 72.9116 74.7339C72.8125 74.6288 72.7394 74.4556 72.734 74.311C72.675 72.7153 72.6295 71.1192 72.584 69.523C72.4952 66.4297 72.4075 63.3358 72.3209 60.2425C72.2851 58.9528 72.2527 57.6631 72.2202 56.3733C72.2196 56.3592 72.237 56.3452 72.257 56.3132C72.3301 56.3614 72.4048 56.4074 72.4746 56.4583C73.3659 57.1048 74.262 57.7443 75.1435 58.4038C75.4423 58.6268 75.7353 58.7638 76.1164 58.6756C76.2702 58.6398 76.4386 58.6696 76.6487 58.6696Z"
        fill="#83BDCF" />
      <path
        d="M75.4591 48.2586C75.5511 48.316 75.6448 48.4632 75.6426 48.5666C75.5869 50.7487 75.5187 52.9302 75.4499 55.1122C75.4315 55.6889 75.4039 56.2655 75.38 56.8427C75.3725 57.0306 75.3616 57.2179 75.3497 57.4605C75.2506 57.3944 75.1981 57.3619 75.1483 57.3262C74.2284 56.6581 73.3057 55.9937 72.3934 55.3153C72.2954 55.2427 72.2044 55.0906 72.2001 54.9725C72.1368 53.1062 72.088 51.2392 72.035 49.3723C72.0209 48.8856 71.9933 48.3988 71.9944 47.9115C71.9949 47.8086 72.0929 47.7057 72.1487 47.604C72.1562 47.5899 72.1774 47.5823 72.1925 47.5731C72.519 47.3814 72.8385 47.0533 73.1736 47.0371C73.4898 47.0214 73.8255 47.3262 74.1461 47.5027C74.5884 47.7464 75.0303 47.9927 75.4591 48.2586Z"
        fill="#83BDCF" />
      <path
        d="M69.7615 71.2773C69.7625 71.3092 69.755 71.3417 69.7452 71.4299C69.3305 70.9946 68.9417 70.5983 68.5708 70.1862C68.5118 70.1213 68.5161 69.9843 68.5183 69.8809C68.5502 68.204 68.6363 66.5271 68.6098 64.8514C68.5762 62.7067 68.4512 60.5637 68.3678 58.4195C68.3044 56.7979 68.2449 55.1762 68.1842 53.5546C68.182 53.5037 68.1896 53.4523 68.1961 53.3467C68.5172 53.5811 68.8101 53.7852 69.0879 54.0072C69.1431 54.0516 69.1599 54.1659 69.1637 54.2493C69.1989 55.069 69.2384 55.8888 69.2568 56.7091C69.3007 58.6924 69.3148 60.6763 69.3781 62.6591C69.4393 64.5872 69.5465 66.5136 69.6337 68.4406C69.6765 69.386 69.7192 70.3313 69.7615 71.2773Z"
        fill="#83BDCF" />
      <path
        d="M69.044 50.4255C69.0748 51.248 69.1052 52.0704 69.1382 52.9573C68.6309 52.5886 68.1695 52.2534 67.6682 51.8896C68.1143 51.3801 68.5442 50.8884 68.9747 50.3968C68.998 50.4065 69.0207 50.4163 69.044 50.4255Z"
        fill="#83BDCF" />
    </g>
    <mask id="mask1_225_25448" style="mask-type:luminance" maskUnits="userSpaceOnUse" x="281" y="25"
      width="47" height="55">
      <path d="M281.283 25.6217H327.168V80H281.283V25.6217Z" fill="white" />
    </mask>
    <g mask="url(#mask1_225_25448)">
      <path
        d="M285.979 40.7806C286.034 40.864 286.052 40.9014 286.079 40.9306C287.4 42.3579 288.926 43.4776 290.81 44.0499C291.065 44.1278 291.338 44.1522 291.604 44.1934C291.924 44.2421 292.182 44.1149 292.434 43.8707C290.044 43.333 288.053 42.04 285.979 40.7806Z"
        fill="#815252" />
      <path
        d="M302.714 38.8563C302.879 40.7405 303.037 42.5409 303.197 44.3563C303.629 44.2952 304.035 44.2047 304.445 44.189C304.993 44.1679 305.543 44.208 306.092 44.2129C306.18 44.2134 306.285 44.1928 306.354 44.143C307.416 43.3779 307.88 42.2609 308.158 41.041C308.307 40.3881 308.093 39.7919 307.817 39.2174C307.708 38.9922 307.563 38.7832 307.421 38.5758C307.303 38.4031 307.133 38.3527 306.951 38.4692C306.484 38.7675 306.032 38.7285 305.582 38.4372C305.395 38.3159 305.207 38.3311 305.022 38.4453C304.854 38.5498 304.682 38.65 304.52 38.7632C304.154 39.0182 303.76 39.062 303.334 38.9581C303.148 38.9126 302.956 38.8953 302.714 38.8563Z"
        fill="#FF6662" />
      <path
        d="M308.984 33.9497C308.573 34.9665 308.234 36.0012 308.317 37.1226C308.338 37.3998 308.376 37.6759 308.41 37.9954C309.026 37.1199 309.601 36.2806 310.199 35.4582C311.415 33.7872 312.903 32.3643 314.357 30.9089C315.037 30.2283 315.67 29.4973 316.293 28.7631C316.504 28.5146 316.608 28.1784 316.782 27.8947C316.994 27.5481 316.898 27.2005 316.812 26.8545C316.759 26.6428 316.296 26.4241 316.025 26.521C315.502 26.7078 314.957 26.8805 314.493 27.1724C313.933 27.5248 313.411 27.958 312.935 28.4209C311.286 30.0226 309.856 31.7898 308.984 33.9497Z"
        fill="#9A4C4A" />
      <path
        d="M284.048 37.8747C284.345 38.1785 284.616 38.4909 284.922 38.7638C287.003 40.6171 289.373 41.98 292.016 42.8555C292.464 43.0039 292.951 43.0396 293.423 43.1029C293.551 43.1203 293.712 43.0802 293.822 43.0098C296.168 41.5073 298.717 40.4802 301.398 39.7589C301.553 39.7178 301.714 39.6978 301.896 39.6637C301.927 39.5055 301.922 39.355 301.744 39.244C300.038 38.1774 298.348 37.082 296.503 36.2655C296.022 36.0522 295.498 35.9298 294.985 35.7982C294.548 35.6856 294.122 35.8031 293.723 35.9861C293.021 36.3099 292.777 36.9981 293.112 37.702C293.39 38.2857 293.808 38.7551 294.349 39.1065C295.077 39.5803 295.839 39.9869 296.674 40.2446C296.751 40.2685 296.83 40.2955 296.898 40.3367C297.081 40.4455 297.163 40.6096 297.104 40.8186C297.049 41.0162 296.902 41.1153 296.7 41.1142C296.594 41.1142 296.484 41.0925 296.383 41.0601C295.378 40.7384 294.443 40.2701 293.604 39.6344C292.907 39.107 292.369 38.4416 292.159 37.5682C291.94 36.6564 292.312 35.7972 293.119 35.3234C293.891 34.8702 294.72 34.8074 295.577 35.0164C296.64 35.2757 297.593 35.7923 298.544 36.3099C299.106 36.6164 299.654 36.9477 300.209 37.2677C300.252 37.2921 300.295 37.3148 300.339 37.3381C299.419 35.5871 298.509 33.8312 297.576 32.0866C296.584 30.2311 295.109 28.813 293.428 27.5888C293.4 27.5682 293.367 27.5541 293.316 27.5265C290.235 30.9669 287.155 34.4062 284.048 37.8747Z"
        fill="#FF6662" />
      <path
        d="M298.219 42.9314C297.881 43.1257 297.627 43.4154 297.436 43.867C297.72 43.7711 297.936 43.7165 298.137 43.6277C299.435 43.0537 300.53 42.1977 301.501 41.1738C301.576 41.0953 301.643 41.0081 301.727 40.9404C301.808 40.8733 301.907 40.8257 302.017 40.758C302.002 40.6816 301.986 40.5977 301.967 40.4997C301.792 40.5511 301.639 40.5961 301.467 40.647C301.575 41.0476 301.333 41.2036 301.027 41.3671C300.082 41.8712 299.148 42.3969 298.219 42.9314Z"
        fill="#9A4C4A" />
      <path
        d="M310.577 41.1564C310.591 41.1851 310.605 41.2144 310.619 41.2431C311.3 41.0768 311.984 40.9198 312.662 40.7417C314.091 40.3659 315.518 39.9831 316.942 39.5933C317.272 39.5034 317.593 39.3816 317.911 39.2554C318.068 39.1931 318.221 39.1038 318.352 38.9966C318.456 38.911 318.522 38.7789 318.605 38.6679C318.487 38.597 318.371 38.4692 318.252 38.466C317.76 38.4524 317.255 38.4091 316.778 38.4995C315.142 38.8098 313.648 39.5191 312.176 40.2679C311.633 40.5446 311.109 40.8592 310.577 41.1564Z"
        fill="#9A4C4A" />
      <path
        d="M308.871 41.8993C308.67 42.3655 308.477 42.8095 308.276 43.2757C309.055 43.3997 309.824 43.5772 310.602 43.6341C313.324 43.8339 316.027 43.6872 318.691 43.0504C320.419 42.6373 321.867 41.7731 322.907 40.3161C323.205 39.8992 323.381 39.394 323.593 38.9197C323.632 38.832 323.608 38.6815 323.556 38.5927C321.58 35.2135 319.598 31.8381 317.616 28.4627C317.598 28.4324 317.573 28.4058 317.546 28.3706C317.377 28.6565 317.249 28.9635 317.045 29.2061C316.418 29.9495 315.796 30.7032 315.11 31.3892C313.661 32.8381 312.173 34.2481 310.951 35.9033C310.453 36.5785 309.965 37.2623 309.504 37.9624C309.31 38.257 309.196 38.6051 309.046 38.9289C309.031 38.9614 309.03 39.0112 309.006 39.028C308.705 39.2332 308.889 39.472 308.937 39.7167C309.017 40.1293 309.057 40.55 309.118 40.9983C309.172 40.9707 309.254 40.9339 309.332 40.8873C310.858 39.9739 312.403 39.1 314.058 38.4351C315.039 38.0409 316.036 37.6982 317.089 37.5601C317.639 37.4881 318.189 37.4924 318.718 37.6922C319.577 38.0149 319.775 38.8726 319.098 39.4904C318.8 39.7627 318.428 39.9983 318.047 40.1282C317.256 40.3984 316.437 40.5879 315.629 40.8077C314.229 41.1878 312.831 41.5777 311.426 41.9377C310.833 42.0899 310.224 42.1803 309.621 42.2918C309.315 42.3482 309.272 42.3195 308.871 41.8993Z"
        fill="#FF6662" />
      <path
        d="M313.249 44.6519C313.263 44.659 313.336 44.6963 313.409 44.7337C314.679 45.3758 315.972 45.9763 317.212 46.6721C318.379 47.3283 319.392 48.2049 320.305 49.1903C320.593 49.5011 320.88 49.813 321.167 50.1254C321.789 50.8028 322.403 51.4872 322.838 52.3816C323.759 50.7741 324.966 49.4535 326.12 48.0928C326.276 47.9082 326.31 47.7658 326.163 47.5519C324.908 45.7262 323.466 44.0969 321.461 43.0579C321.375 43.0135 321.227 42.9913 321.152 43.0341C319.993 43.6903 318.724 44.0043 317.428 44.1874C316.03 44.385 314.62 44.503 313.249 44.6519Z"
        fill="#FF6662" />
      <path
        d="M298.57 41.6177C295.278 42.8901 292.371 44.7852 289.712 47.1519C291.868 49.0789 294.034 51.0146 296.222 52.9698C296.29 52.8317 296.346 52.7202 296.401 52.6081C297.575 50.1975 298.974 47.9316 300.75 45.9131C301.214 45.3857 301.722 44.8968 302.208 44.3889C302.248 44.3466 302.308 44.2898 302.304 44.2438C302.245 43.456 302.178 42.6692 302.113 41.8825C302.074 41.8554 302.036 41.8289 301.998 41.8018C301.938 41.9009 301.895 42.0184 301.815 42.0964C300.82 43.0667 299.729 43.9075 298.433 44.4387C298.091 44.5789 297.707 44.6623 297.338 44.6807C296.773 44.7094 296.45 44.2562 296.589 43.7002C296.737 43.1127 297.104 42.6719 297.577 42.3195C297.902 42.078 298.248 41.8652 298.57 41.6177Z"
        fill="#FF6662" />
      <path
        d="M317.366 74.4361C317.386 74.4453 317.405 74.455 317.425 74.4642C317.563 74.2948 317.687 74.1117 317.842 73.9585C318.262 73.5416 318.455 73.0494 318.482 72.4538C318.53 71.3736 318.641 70.2967 318.698 69.2165C318.797 67.3436 318.879 65.4696 318.962 63.5956C318.991 62.9377 319.007 62.2793 319.022 61.6209C319.084 58.852 319.137 56.083 319.207 53.314C319.238 52.1153 319.299 50.917 319.355 49.7188C319.364 49.5293 319.309 49.3939 319.168 49.271C318.824 48.9716 318.488 48.6624 318.094 48.3078C317.85 57.0728 317.608 65.7544 317.366 74.4361Z"
        fill="#9A4C4A" />
      <path
        d="M292.837 51.1235C292.837 51.5382 292.83 51.9021 292.839 52.2659C292.864 53.3304 292.901 54.3944 292.923 55.4583C292.97 57.7227 293.007 59.9875 293.053 62.2519C293.123 65.6885 293.198 69.1255 293.272 72.5621C293.304 74.0148 293.345 75.467 293.369 76.9192C293.373 77.1693 293.434 77.2814 293.702 77.3144C295.438 77.5277 297.172 77.7579 298.906 77.9815C299.198 78.0194 299.49 78.0546 299.819 78.0957C299.792 77.7335 299.755 77.4043 299.748 77.074C299.716 75.5861 299.667 74.0982 299.673 72.6103C299.684 70.0931 299.745 67.5759 299.762 65.0582C299.778 62.6314 299.776 60.2041 299.765 57.7768C299.752 54.8086 299.723 51.8404 299.7 48.8716C299.7 48.831 299.693 48.7898 299.682 48.6707C299.564 48.8445 299.483 48.9582 299.407 49.0752C298.463 50.5306 297.609 52.0353 296.885 53.612C296.627 54.174 296.332 54.2341 295.869 53.8204C294.946 52.9969 294.025 52.1723 293.103 51.3487C293.031 51.2843 292.955 51.2231 292.837 51.1235Z"
        fill="#FF6662" />
      <path
        d="M282.167 53.4209C282.164 53.9521 282.206 54.4838 282.218 55.0149C282.223 55.2201 282.294 55.3203 282.513 55.336C283.717 55.4243 284.921 55.5212 286.125 55.6186C287.58 55.7367 289.034 55.8591 290.489 55.9776C291 56.0193 291.511 56.0561 292.05 56.0973C292.05 55.6804 292.057 55.277 292.049 54.8747C292.019 53.4951 291.973 52.116 291.959 50.7364C291.957 50.4261 291.861 50.2242 291.631 50.0244C290.759 49.2674 289.903 48.4926 289.045 47.72C288.906 47.5938 288.763 47.4595 288.664 47.3025C288.585 47.1775 288.571 47.0118 288.517 46.8255C286.448 46.7497 284.352 46.6723 282.239 46.5949C282.23 46.6809 282.218 46.7502 282.217 46.8196C282.199 49.02 282.176 51.2205 282.167 53.4209Z"
        fill="#D7E9F4" />
      <path
        d="M283.623 56.3094C283.645 56.5947 283.671 56.8795 283.687 57.1643C283.759 58.4248 283.854 59.6842 283.892 60.9458C283.966 63.4614 284.011 65.978 284.064 68.4947C284.102 70.262 284.142 72.0299 284.164 73.7977C284.171 74.383 284.133 74.9699 284.096 75.5547C284.084 75.7485 284.148 75.7967 284.328 75.8178C286.557 76.0783 288.785 76.3479 291.014 76.6138C291.496 76.6712 291.98 76.7237 292.507 76.7838C292.366 70.1792 292.226 63.5908 292.086 57.0116C285.299 55.2575 284.61 56.2619 283.623 56.3094Z"
        fill="#D7E9F4" />
      <path
        d="M283.672 45.7127C283.674 45.7322 283.675 45.7517 283.676 45.7711C284.304 45.8009 284.932 45.8377 285.561 45.8589C286.885 45.9043 288.21 45.9455 289.535 45.9753C289.664 45.978 289.818 45.9195 289.92 45.8383C290.249 45.5778 290.559 45.293 290.866 45.0266C290.245 44.7722 289.639 44.5264 289.035 44.2767C288.935 44.2356 288.827 44.1988 288.746 44.1311C288.251 43.7104 287.78 43.8014 287.23 44.0769C286.135 44.6254 285.003 45.1003 283.886 45.606C283.814 45.639 283.743 45.6769 283.672 45.7127Z"
        fill="#D7E9F4" />
      <path
        d="M300.339 37.3382C300.348 37.3544 300.357 37.3712 300.365 37.3875C300.381 37.3837 300.397 37.3799 300.412 37.3766C300.388 37.3636 300.364 37.3506 300.339 37.3382Z"
        fill="#3D2A26" />
      <path
        d="M300.572 70.4526C300.564 72.5096 300.568 74.5671 300.575 76.6241C300.576 76.9294 300.625 77.2348 300.644 77.5407C300.654 77.701 300.718 77.7692 300.888 77.7887C302.034 77.9187 303.179 78.0611 304.325 78.1981C305.909 78.387 307.494 78.5744 309.078 78.7633C309.911 78.8624 310.743 78.9637 311.575 79.0633C311.663 79.0736 311.753 79.0757 311.872 79.0833C311.817 72.2421 311.762 65.4232 311.707 58.5668C308.798 58.3185 304.705 57.698 301.273 57.7172C301.07 57.7189 300.867 57.6902 300.631 57.6723C300.631 57.806 300.632 57.903 300.631 57.9999C300.611 62.1512 300.587 66.3019 300.572 70.4526Z"
        fill="#D7E9F4" />
      <path
        d="M281.333 51.0006C281.328 51.8398 281.288 52.6791 281.298 53.5178C281.305 54.1756 281.359 54.8329 281.402 55.4897C281.417 55.7426 281.562 55.9023 281.81 55.9646C282.055 56.0258 282.305 56.0729 282.542 56.1568C282.627 56.1866 282.732 56.303 282.739 56.3864C282.839 57.6626 282.963 58.9388 283.005 60.2177C283.092 62.8507 283.13 65.4854 283.195 68.1195C283.233 69.6258 283.315 71.1316 283.322 72.6379C283.328 73.7186 283.253 74.801 283.194 75.8812C283.169 76.3468 283.302 76.5629 283.769 76.6203C285.335 76.8119 286.903 76.9933 288.469 77.179C289.74 77.3296 291.012 77.4812 292.283 77.6312C292.431 77.6485 292.528 77.6994 292.621 77.8407C292.702 77.9642 292.886 78.0681 293.038 78.0887C295.253 78.3886 297.472 78.6615 299.687 78.9707C300.089 79.027 300.405 78.9745 300.693 78.6956C300.733 78.6567 300.827 78.6534 300.893 78.661C303.355 78.9545 305.816 79.2517 308.277 79.5473C309.486 79.6925 310.694 79.8386 311.904 79.9767C312.267 80.0179 312.574 79.9339 312.849 79.6399C313.982 78.426 315.138 77.2337 316.284 76.0317C316.339 75.9738 316.383 75.905 316.435 75.8379C316.798 76.2754 317.041 76.2894 317.385 75.8866C317.882 75.3035 318.383 74.7203 318.838 74.1042C319.054 73.8118 319.292 73.501 319.275 73.0846C319.27 72.9687 319.357 72.8269 319.443 72.7343C319.958 72.1777 320.495 71.6422 321.001 71.078C321.221 70.8327 321.386 70.5382 321.566 70.2593C321.6 70.2063 321.601 70.1229 321.597 70.0552C321.456 67.9105 321.429 65.7648 321.51 63.6169C321.555 62.4181 321.592 61.2188 321.643 60.02C321.719 58.1905 321.808 56.3615 321.885 54.5319C321.907 54.0002 321.905 53.4674 321.916 52.9352C321.918 52.8512 321.926 52.7679 321.932 52.6839C321.964 52.6769 321.997 52.6699 322.029 52.6628C322.117 52.9005 322.234 53.1323 322.284 53.3775C322.327 53.5898 322.378 53.7685 322.602 53.8286C322.836 53.8919 323.005 53.7771 323.125 53.5854C323.273 53.3483 323.417 53.1084 323.556 52.8659C324.333 51.5106 325.343 50.3319 326.355 49.1537C326.514 48.9691 326.662 48.7747 326.827 48.596C327.25 48.1385 327.247 47.61 326.909 47.1157C325.879 45.6099 324.733 44.214 323.243 43.1311C323.128 43.0478 323.042 42.8935 322.994 42.7543C322.914 42.5204 322.754 42.3747 322.498 42.3802C322.391 42.3829 322.286 42.3969 322.203 42.404C322.678 41.8793 323.186 41.3985 323.592 40.843C323.922 40.3914 324.151 39.8597 324.384 39.3459C324.593 38.8862 324.491 38.4471 324.233 38.0107C322.575 35.2076 320.932 32.3964 319.283 29.5873C318.927 28.9809 318.56 28.3804 318.218 27.7654C318.035 27.4378 317.875 27.0945 317.745 26.7431C317.44 25.9158 316.591 25.4442 315.689 25.7095C315.124 25.8752 314.53 26.0733 314.063 26.4139C310.992 28.6544 308.706 31.4873 307.652 35.2049C307.444 35.9407 307.373 36.6928 307.481 37.4557C307.484 37.4795 307.473 37.5055 307.441 37.4616C307.103 37.5585 306.767 37.6647 306.426 37.7481C306.325 37.7724 306.187 37.7703 306.104 37.7194C305.515 37.3571 304.944 37.4107 304.408 37.8027C304.035 38.0767 303.677 38.211 303.208 38.0426C303.005 37.9695 302.743 38.0237 302.515 38.0626C302.352 38.0913 302.253 38.0556 302.137 37.9451C301.194 37.0485 300.525 35.971 299.958 34.8074C299.349 33.5605 298.704 32.3281 298.01 31.1267C297.104 29.5565 295.82 28.3149 294.386 27.2239C294.171 27.0598 293.955 26.8963 293.733 26.7409C293.301 26.4377 293.107 26.4594 292.757 26.8498C291.48 28.2738 290.203 29.6994 288.927 31.1245C287.139 33.1214 285.349 35.1166 283.565 37.1173C283.386 37.3176 283.239 37.5472 283.084 37.7681C282.936 37.9803 282.969 38.1964 283.103 38.401C283.349 38.779 283.587 39.1634 283.852 39.5278C284.795 40.8219 285.798 42.0629 287.085 43.0413C287.121 43.0689 287.163 43.0873 287.241 43.1322C286.465 43.4847 285.752 43.8096 285.038 44.1323C284.035 44.586 283.041 45.0598 282.026 45.4827C281.516 45.6954 281.349 46.0647 281.346 46.5601C281.339 48.0405 281.342 49.5208 281.333 51.0006ZM282.218 55.0149C282.206 54.4837 282.164 53.952 282.167 53.4208C282.176 51.2204 282.199 49.0199 282.217 46.8195C282.218 46.7502 282.23 46.6809 282.239 46.5948C284.352 46.6722 286.448 46.7497 288.517 46.8255C288.571 47.0117 288.585 47.1774 288.664 47.3025C288.763 47.4595 288.906 47.5938 289.045 47.7199C289.903 48.4926 290.759 49.2674 291.631 50.0243C291.861 50.2241 291.957 50.4261 291.959 50.7363C291.973 52.116 292.019 53.495 292.049 54.8746C292.057 55.2769 292.05 55.6803 292.05 56.0972C291.511 56.0561 291 56.0193 290.489 55.9776C289.034 55.859 287.58 55.7366 286.125 55.6186C284.921 55.5211 283.717 55.4242 282.513 55.336C282.294 55.3203 282.223 55.2201 282.218 55.0149ZM283.676 45.7713C283.675 45.7518 283.674 45.7323 283.672 45.7128C283.743 45.677 283.814 45.6391 283.886 45.6061C285.003 45.1004 286.135 44.6255 287.23 44.0771C287.78 43.8015 288.251 43.7105 288.746 44.1312C288.826 44.1989 288.935 44.2357 289.035 44.2769C289.639 44.5265 290.245 44.7723 290.866 45.0268C290.559 45.2932 290.249 45.578 289.92 45.8384C289.818 45.9196 289.664 45.9781 289.535 45.9754C288.21 45.9456 286.885 45.9044 285.56 45.859C284.932 45.8379 284.304 45.801 283.676 45.7713ZM283.687 57.1644C283.671 56.8796 283.645 56.5948 283.623 56.3095C285.738 56.4622 290.744 56.9026 292.086 57.0117C292.226 63.5909 292.366 70.1792 292.507 76.7838C291.98 76.7237 291.496 76.6712 291.014 76.6138C288.785 76.3479 286.557 76.0783 284.328 75.8178C284.148 75.7967 284.084 75.7485 284.096 75.5547C284.133 74.9699 284.171 74.383 284.164 73.7977C284.142 72.0299 284.102 70.262 284.064 68.4947C284.011 65.9781 283.966 63.4615 283.892 60.9459C283.854 59.6843 283.759 58.4249 283.687 57.1644ZM284.922 38.7638C284.616 38.4909 284.345 38.1785 284.048 37.8748C287.154 34.4062 290.235 30.9669 293.316 27.5266C293.367 27.5542 293.4 27.5683 293.428 27.5888C295.109 28.8131 296.584 30.2311 297.576 32.0867C298.509 33.8312 299.419 35.5871 300.339 37.3382C300.364 37.3506 300.388 37.3636 300.412 37.3766C300.397 37.3799 300.381 37.3837 300.365 37.3875C300.357 37.3712 300.348 37.3544 300.339 37.3382C300.295 37.3149 300.252 37.2922 300.209 37.2678C299.654 36.9478 299.106 36.6164 298.544 36.31C297.593 35.7923 296.64 35.2758 295.577 35.0164C294.72 34.8074 293.891 34.8703 293.118 35.3234C292.312 35.7972 291.94 36.6565 292.159 37.5683C292.369 38.4417 292.907 39.1071 293.604 39.6345C294.443 40.2701 295.378 40.7385 296.383 41.0601C296.484 41.0926 296.594 41.1137 296.7 41.1142C296.902 41.1153 297.049 41.0162 297.104 40.8186C297.163 40.6096 297.081 40.4456 296.898 40.3367C296.83 40.2956 296.751 40.2685 296.674 40.2447C295.839 39.9869 295.077 39.5803 294.349 39.1066C293.808 38.7552 293.39 38.2857 293.112 37.702C292.777 36.9981 293.02 36.31 293.723 35.9862C294.122 35.8032 294.548 35.6857 294.985 35.7983C295.498 35.9299 296.022 36.0522 296.503 36.2656C298.348 37.0821 300.038 38.1774 301.744 39.2441C301.922 39.3551 301.927 39.5056 301.896 39.6637C301.714 39.6978 301.553 39.7179 301.398 39.759C298.717 40.4802 296.168 41.5073 293.822 43.0099C293.712 43.0802 293.551 43.1203 293.423 43.103C292.951 43.0396 292.464 43.0039 292.016 42.8555C289.373 41.98 287.003 40.6172 284.922 38.7638ZM286.079 40.9307C286.052 40.9015 286.034 40.8641 285.979 40.7807C288.053 42.0401 290.044 43.3331 292.434 43.8708C292.182 44.115 291.924 44.2422 291.604 44.1935C291.338 44.1523 291.065 44.128 290.81 44.05C288.926 43.4777 287.4 42.358 286.079 40.9307ZM292.839 52.2659C292.83 51.9021 292.837 51.5382 292.837 51.1235C292.955 51.2231 293.031 51.2843 293.103 51.3487C294.025 52.1723 294.946 52.9969 295.869 53.8204C296.332 54.2341 296.627 54.174 296.885 53.612C297.609 52.0353 298.463 50.5306 299.407 49.0752C299.483 48.9582 299.564 48.8445 299.682 48.6707C299.693 48.7898 299.7 48.831 299.7 48.8716C299.723 51.8404 299.752 54.8086 299.765 57.7768C299.776 60.2041 299.778 62.6314 299.762 65.0582C299.745 67.5759 299.684 70.0931 299.673 72.6103C299.667 74.0982 299.716 75.5861 299.747 77.074C299.754 77.4043 299.792 77.7335 299.819 78.0957C299.49 78.0546 299.198 78.0194 298.906 77.9815C297.172 77.7579 295.438 77.5277 293.702 77.3144C293.434 77.2814 293.372 77.1693 293.369 76.9192C293.345 75.467 293.304 74.0148 293.272 72.5621C293.198 69.1255 293.123 65.6885 293.053 62.2519C293.006 59.9875 292.97 57.7227 292.923 55.4583C292.901 54.3944 292.864 53.3304 292.839 52.2659ZM289.712 47.1519C292.371 44.7853 295.278 42.8902 298.57 41.6178C298.248 41.8652 297.902 42.078 297.577 42.3195C297.104 42.672 296.736 43.1127 296.589 43.7002C296.449 44.2563 296.773 44.7095 297.338 44.6808C297.707 44.6624 298.091 44.579 298.433 44.4387C299.729 43.9076 300.82 43.0667 301.815 42.0964C301.895 42.0185 301.938 41.901 301.998 41.8019C302.036 41.829 302.074 41.8555 302.113 41.8826C302.177 42.6693 302.245 43.456 302.304 44.2438C302.307 44.2898 302.248 44.3467 302.208 44.3889C301.722 44.8968 301.214 45.3857 300.75 45.9131C298.974 47.9316 297.575 50.1976 296.401 52.6081C296.346 52.7202 296.29 52.8318 296.222 52.9698C294.034 51.0146 291.868 49.079 289.712 47.1519ZM297.435 43.867C297.627 43.4154 297.881 43.1257 298.219 42.9314C299.148 42.3969 300.082 41.8712 301.027 41.3671C301.333 41.2036 301.575 41.0476 301.467 40.647C301.639 40.5961 301.792 40.5511 301.967 40.4997C301.986 40.5977 302.002 40.6816 302.017 40.758C301.907 40.8257 301.808 40.8733 301.726 40.9404C301.643 41.0081 301.576 41.0953 301.501 41.1738C300.53 42.1977 299.435 43.0537 298.137 43.6277C297.936 43.7165 297.72 43.7711 297.435 43.867ZM300.575 76.6241C300.568 74.5671 300.564 72.5096 300.572 70.4526C300.587 66.3019 300.611 62.1512 300.631 57.9999C300.632 57.903 300.631 57.806 300.631 57.6723C304.325 57.9525 308.012 58.2514 311.706 58.5668C311.762 65.4232 311.817 72.2421 311.872 79.0833C311.752 79.0757 311.663 79.0736 311.575 79.0633C310.743 78.9637 309.91 78.8624 309.078 78.7633C307.494 78.5744 305.909 78.387 304.325 78.1981C303.179 78.0611 302.034 77.9187 300.888 77.7887C300.718 77.7692 300.654 77.701 300.644 77.5407C300.625 77.2348 300.576 76.9294 300.575 76.6241ZM300.678 56.799C300.639 53.6916 300.6 50.6129 300.561 47.5261C300.653 47.5207 300.697 47.5131 300.74 47.5169C301.764 47.6057 302.787 47.695 303.81 47.7849C306.252 47.9999 308.694 48.2148 311.136 48.4319C311.548 48.4688 311.96 48.5159 312.372 48.5646C312.605 48.5922 312.741 48.6929 312.729 48.9685C312.711 49.3827 312.731 49.7986 312.741 50.2133C312.767 51.4305 312.784 52.6482 312.829 53.8643C312.874 55.0717 312.95 56.2775 313.011 57.4839C313.016 57.5792 313.011 57.6745 313.011 57.799C308.865 57.4633 304.765 57.1303 300.678 56.799ZM301.265 46.6928C301.293 46.6305 301.298 46.6018 301.315 46.5845C301.737 46.1394 302.158 45.6933 302.587 45.2547C302.636 45.2054 302.73 45.18 302.803 45.1794C303.033 45.1794 303.275 45.2471 303.492 45.1973C304.403 44.9878 305.314 44.9921 306.235 45.1069C306.391 45.1264 306.596 45.0977 306.715 45.0078C307.015 44.7826 307.276 44.5059 307.561 44.2584C307.619 44.2075 307.717 44.1626 307.789 44.1718C308.262 44.2346 308.734 44.305 309.205 44.3873C310.977 44.6965 312.657 45.2856 314.267 46.0788C314.532 46.2093 314.799 46.336 315.108 46.4849C314.359 46.9099 313.657 47.3117 312.95 47.7053C312.887 47.74 312.794 47.7335 312.717 47.7259C311.891 47.6501 311.066 47.5662 310.24 47.4925C309.136 47.3934 308.03 47.3036 306.925 47.2056C305.588 47.087 304.25 46.963 302.912 46.8417C302.374 46.7924 301.836 46.7442 301.265 46.6928ZM303.196 44.3564C303.037 42.541 302.879 40.7406 302.714 38.8564C302.956 38.8954 303.148 38.9127 303.333 38.9582C303.76 39.0622 304.154 39.0183 304.52 38.7633C304.682 38.6501 304.854 38.5499 305.022 38.4454C305.207 38.3312 305.395 38.316 305.582 38.4373C306.032 38.7286 306.484 38.7676 306.951 38.4693C307.133 38.3529 307.303 38.4032 307.421 38.5759C307.563 38.7833 307.708 38.9923 307.817 39.2176C308.093 39.792 308.307 40.3882 308.158 41.0412C307.88 42.261 307.415 43.378 306.354 44.1431C306.285 44.1929 306.18 44.2135 306.092 44.213C305.543 44.2081 304.992 44.168 304.445 44.1891C304.035 44.2048 303.629 44.2953 303.196 44.3564ZM308.317 37.1227C308.234 36.0013 308.573 34.9666 308.984 33.9498C309.856 31.7899 311.286 30.0227 312.935 28.4211C313.411 27.9581 313.933 27.525 314.493 27.1725C314.957 26.8806 315.501 26.7079 316.025 26.5211C316.296 26.4242 316.759 26.6429 316.812 26.8546C316.898 27.2006 316.994 27.5482 316.781 27.8948C316.608 28.1785 316.504 28.5147 316.293 28.7632C315.67 29.4975 315.037 30.2284 314.357 30.909C312.903 32.3644 311.415 33.7874 310.199 35.4583C309.601 36.2807 309.026 37.12 308.41 37.9955C308.375 37.676 308.338 37.3999 308.317 37.1227ZM308.276 43.2757C308.477 42.8095 308.669 42.3655 308.871 41.8993C309.272 42.3195 309.315 42.3482 309.621 42.2919C310.224 42.1804 310.833 42.0899 311.425 41.9378C312.83 41.5777 314.229 41.1879 315.629 40.8078C316.437 40.588 317.256 40.3985 318.047 40.1283C318.427 39.9983 318.8 39.7628 319.098 39.4904C319.775 38.8726 319.576 38.015 318.718 37.6923C318.189 37.4925 317.639 37.4882 317.089 37.5602C316.036 37.6982 315.039 38.041 314.057 38.4352C312.403 39.1001 310.857 39.974 309.332 40.8874C309.254 40.9339 309.171 40.9708 309.118 40.9984C309.057 40.5501 309.017 40.1294 308.937 39.7168C308.889 39.472 308.705 39.2333 309.006 39.028C309.03 39.0113 309.031 38.9614 309.046 38.929C309.196 38.6052 309.309 38.257 309.504 37.9625C309.965 37.2624 310.453 36.5785 310.951 35.9033C312.173 34.2481 313.661 32.8382 315.109 31.3893C315.796 30.7033 316.418 29.9496 317.045 29.2062C317.249 28.9636 317.377 28.6566 317.545 28.3707C317.573 28.4059 317.598 28.4324 317.616 28.4627C319.598 31.8381 321.58 35.2135 323.556 38.5927C323.608 38.6815 323.632 38.832 323.593 38.9198C323.381 39.3941 323.205 39.8992 322.907 40.3162C321.867 41.7732 320.418 42.6373 318.691 43.0505C316.027 43.6872 313.324 43.8339 310.602 43.6342C309.824 43.5773 309.055 43.3997 308.276 43.2757ZM310.619 41.2431C310.605 41.2144 310.591 41.1852 310.577 41.1565C311.109 40.8592 311.633 40.5446 312.176 40.268C313.648 39.5191 315.141 38.8098 316.778 38.4996C317.255 38.4092 317.76 38.4525 318.251 38.466C318.371 38.4693 318.487 38.597 318.605 38.668C318.522 38.779 318.456 38.9111 318.352 38.9966C318.221 39.1038 318.068 39.1932 317.911 39.2555C317.593 39.3816 317.271 39.5034 316.942 39.5933C315.518 39.9832 314.091 40.366 312.662 40.7417C311.984 40.9199 311.3 41.0769 310.619 41.2431ZM312.727 78.4655C312.677 71.8279 312.627 65.2558 312.577 58.6697C312.787 58.6697 312.955 58.6399 313.109 58.6756C313.49 58.7639 313.783 58.6269 314.082 58.4038C314.963 57.7443 315.859 57.1049 316.751 56.4584C316.82 56.4075 316.895 56.3615 316.968 56.3133C316.988 56.3452 317.006 56.3593 317.005 56.3734C316.973 57.6631 316.94 58.9528 316.904 60.2426C316.818 63.3359 316.73 66.4297 316.641 69.523C316.596 71.1192 316.55 72.7153 316.491 74.311C316.486 74.4556 316.413 74.6288 316.314 74.7339C315.199 75.9164 314.074 77.0881 312.951 78.2614C312.898 78.3172 312.838 78.3654 312.727 78.4655ZM313.409 44.7338C313.336 44.6965 313.263 44.6591 313.249 44.6521C314.619 44.5032 316.029 44.3851 317.427 44.1875C318.724 44.0045 319.993 43.6905 321.151 43.0342C321.227 42.9915 321.375 43.0137 321.461 43.0581C323.466 44.0971 324.908 45.7263 326.163 47.5521C326.31 47.766 326.276 47.9084 326.12 48.093C324.966 49.4536 323.759 50.7742 322.838 52.3818C322.403 51.4873 321.789 50.8029 321.167 50.1256C320.88 49.8132 320.593 49.5013 320.305 49.1905C319.392 48.2051 318.379 47.3285 317.211 46.6722C315.972 45.9765 314.679 45.376 313.409 44.7338ZM313.583 48.5668C313.58 48.4633 313.674 48.3161 313.766 48.2587C314.195 47.9928 314.637 47.7465 315.079 47.5028C315.4 47.3263 315.735 47.0215 316.052 47.0372C316.387 47.0534 316.706 47.3815 317.033 47.5732C317.048 47.5824 317.069 47.59 317.077 47.6041C317.132 47.7059 317.23 47.8087 317.231 47.9116C317.232 48.3989 317.204 48.8857 317.19 49.3724C317.137 51.2393 317.088 53.1063 317.025 54.9726C317.021 55.0907 316.93 55.2428 316.832 55.3154C315.919 55.9938 314.997 56.6582 314.077 57.3263C314.027 57.3621 313.975 57.3945 313.875 57.4606C313.864 57.218 313.853 57.0307 313.845 56.8428C313.821 56.2656 313.794 55.689 313.775 55.1123C313.707 52.9303 313.638 50.7488 313.583 48.5668ZM317.425 74.4642C317.405 74.455 317.386 74.4453 317.366 74.4361C317.608 65.7545 317.85 57.0729 318.094 48.3079C318.488 48.6626 318.824 48.9718 319.168 49.2712C319.309 49.3941 319.364 49.5295 319.355 49.719C319.299 50.9172 319.237 52.1154 319.207 53.3142C319.137 56.0832 319.084 58.8521 319.022 61.6211C319.007 62.2795 318.991 62.9379 318.962 63.5958C318.879 65.4697 318.797 67.3436 318.698 69.2165C318.641 70.2967 318.53 71.3736 318.482 72.4538C318.455 73.0494 318.262 73.5416 317.842 73.9585C317.687 74.1117 317.563 74.2947 317.425 74.4642ZM319.48 71.4299C319.47 71.3417 319.463 71.3092 319.464 71.2773C319.506 70.3313 319.549 69.386 319.592 68.4406C319.679 66.5136 319.786 64.5872 319.847 62.6591C319.91 60.6763 319.925 58.6924 319.968 56.7091C319.987 55.8888 320.026 55.069 320.062 54.2493C320.065 54.1659 320.082 54.0516 320.137 54.0072C320.415 53.7852 320.708 53.5811 321.029 53.3467C321.036 53.4523 321.043 53.5037 321.041 53.5546C320.98 55.1762 320.921 56.7979 320.857 58.4195C320.774 60.5637 320.649 62.7067 320.615 64.8514C320.589 66.5271 320.675 68.204 320.707 69.8809C320.709 69.9843 320.713 70.1213 320.654 70.1862C320.284 70.5983 319.895 70.9946 319.48 71.4299ZM320.087 52.9574C320.12 52.0705 320.15 51.248 320.181 50.4256C320.204 50.4163 320.227 50.4066 320.251 50.3969C320.681 50.8885 321.111 51.3801 321.557 51.8896C321.056 52.2535 320.594 52.5886 320.087 52.9574Z"
        fill="#3D2A26" />
      <path
        d="M300.561 47.5259C300.6 50.6127 300.639 53.6914 300.678 56.7988C304.765 57.1302 308.866 57.4631 313.011 57.7988C313.011 57.6743 313.016 57.579 313.011 57.4837C312.95 56.2774 312.875 55.0716 312.83 53.8641C312.785 52.648 312.768 51.4303 312.741 50.2131C312.732 49.7984 312.712 49.3826 312.73 48.9684C312.742 48.6928 312.606 48.592 312.373 48.5644C311.961 48.5157 311.549 48.4686 311.136 48.4318C308.695 48.2147 306.253 47.9997 303.811 47.7847C302.788 47.6949 301.764 47.6055 300.741 47.5167C300.698 47.5129 300.653 47.5205 300.562 47.5259H300.561Z"
        fill="#D7E9F4" />
      <path
        d="M301.315 46.5845C301.298 46.6018 301.293 46.6305 301.265 46.6927C301.836 46.7442 302.374 46.7924 302.912 46.8416C304.25 46.9629 305.588 47.0869 306.926 47.2055C308.03 47.3035 309.136 47.3934 310.24 47.4925C311.066 47.5661 311.891 47.65 312.717 47.7258C312.794 47.7334 312.887 47.7399 312.95 47.7053C313.657 47.3116 314.359 46.9099 315.108 46.4848C314.799 46.3359 314.532 46.2092 314.267 46.0787C312.657 45.2855 310.977 44.6964 309.205 44.3873C308.735 44.305 308.262 44.2346 307.789 44.1718C307.717 44.1625 307.619 44.2075 307.561 44.2584C307.276 44.5058 307.015 44.7825 306.715 45.0078C306.596 45.0976 306.391 45.1263 306.235 45.1068C305.314 44.9921 304.403 44.9877 303.492 45.1973C303.275 45.2471 303.033 45.1789 302.803 45.1794C302.73 45.1799 302.636 45.2054 302.587 45.2547C302.158 45.6932 301.737 46.1394 301.315 46.5845Z"
        fill="#D7E9F4" />
      <path
        d="M312.577 58.6696C312.627 65.2558 312.677 71.8279 312.727 78.4655C312.838 78.3654 312.898 78.3172 312.951 78.2614C314.074 77.0881 315.199 75.9164 316.314 74.7339C316.413 74.6288 316.486 74.4556 316.491 74.311C316.55 72.7153 316.596 71.1192 316.641 69.523C316.73 66.4297 316.818 63.3358 316.904 60.2425C316.94 58.9528 316.973 57.6631 317.005 56.3733C317.006 56.3592 316.988 56.3452 316.968 56.3132C316.895 56.3614 316.821 56.4074 316.751 56.4583C315.859 57.1048 314.963 57.7443 314.082 58.4038C313.783 58.6268 313.49 58.7638 313.109 58.6756C312.955 58.6398 312.787 58.6696 312.577 58.6696Z"
        fill="#83BDCF" />
      <path
        d="M313.766 48.2586C313.674 48.316 313.581 48.4632 313.583 48.5666C313.638 50.7487 313.707 52.9302 313.775 55.1122C313.794 55.6889 313.821 56.2655 313.845 56.8427C313.853 57.0306 313.864 57.2179 313.876 57.4605C313.975 57.3944 314.027 57.3619 314.077 57.3262C314.997 56.6581 315.92 55.9937 316.832 55.3153C316.93 55.2427 317.021 55.0906 317.025 54.9725C317.089 53.1062 317.137 51.2392 317.19 49.3723C317.204 48.8856 317.232 48.3988 317.231 47.9115C317.23 47.8086 317.132 47.7057 317.077 47.604C317.069 47.5899 317.048 47.5823 317.033 47.5731C316.706 47.3814 316.387 47.0533 316.052 47.0371C315.736 47.0214 315.4 47.3262 315.079 47.5027C314.637 47.7464 314.195 47.9927 313.766 48.2586Z"
        fill="#83BDCF" />
      <path
        d="M319.464 71.2773C319.463 71.3092 319.47 71.3417 319.48 71.4299C319.895 70.9946 320.284 70.5983 320.655 70.1862C320.714 70.1213 320.709 69.9843 320.707 69.8809C320.675 68.204 320.589 66.5271 320.616 64.8514C320.649 62.7067 320.774 60.5637 320.858 58.4195C320.921 56.7979 320.98 55.1762 321.041 53.5546C321.043 53.5037 321.036 53.4523 321.029 53.3467C320.708 53.5811 320.415 53.7852 320.137 54.0072C320.082 54.0516 320.065 54.1659 320.062 54.2493C320.026 55.069 319.987 55.8888 319.969 56.7091C319.925 58.6924 319.911 60.6763 319.847 62.6591C319.786 64.5872 319.679 66.5136 319.592 68.4406C319.549 69.386 319.506 70.3313 319.464 71.2773Z"
        fill="#83BDCF" />
      <path
        d="M320.181 50.4255C320.151 51.248 320.12 52.0704 320.087 52.9573C320.594 52.5886 321.056 52.2534 321.557 51.8896C321.111 51.3801 320.681 50.8884 320.251 50.3968C320.227 50.4065 320.205 50.4163 320.181 50.4255Z"
        fill="#83BDCF" />
    </g>
    <mask id="path-55-outside-1_225_25448" maskUnits="userSpaceOnUse" x="119" y="48" width="152"
      height="23" fill="black">
      <rect fill="white" x="119" y="48" width="152" height="23" />
      <path
        d="M142.138 51.2L140.146 68H135.85L137.218 56.456L133.114 68H129.202L127.522 56.456L126.154 68H121.858L123.85 51.2H130.138L131.746 62.96L135.682 51.2H142.138ZM151.446 68.48C147.078 68.48 143.958 65.888 143.958 60.68C143.958 55.136 147.51 50.744 153.174 50.744C157.566 50.744 160.638 53.384 160.638 58.568C160.638 64.088 157.11 68.48 151.446 68.48ZM151.59 65.312C154.014 65.312 155.55 62.144 155.55 58.256C155.55 55.184 154.59 53.912 153.03 53.912C150.51 53.912 149.046 57.224 149.046 60.968C149.046 64.088 150.078 65.312 151.59 65.312ZM178.373 51.2L176.429 68H171.077L167.621 57.464L166.421 68H162.485L164.477 51.2H169.901L173.213 61.952L174.461 51.2H178.373ZM193.643 51.2L193.235 54.56H186.467L186.107 57.728H192.395L191.987 61.016H185.723L185.291 64.64H192.347L191.939 68H179.987L181.979 51.2H193.643ZM210.375 51.2L204.231 61.496L203.463 68H198.711L199.479 61.496L194.847 51.2H199.887L202.311 57.8L205.743 51.2H210.375ZM222.306 68.48C218.586 68.48 216.018 65.936 216.018 61.208C216.018 55.064 219.306 50.744 225.162 50.744C228.378 50.744 230.754 52.28 231.858 54.752L228.33 56.168C227.706 54.824 226.746 54.032 225.45 54.032C222.738 54.032 221.106 57.464 221.106 61.04C221.106 63.896 222.066 65.192 224.058 65.192C225.81 65.192 227.178 63.968 227.394 62.048L227.442 61.616H223.818L224.202 58.688H232.074L230.922 68H227.154L227.346 66.104C226.458 67.328 224.658 68.48 222.306 68.48ZM251.159 51.2L249.935 61.664C249.407 66.176 246.647 68.48 241.871 68.48C237.383 68.48 234.311 66.56 234.887 61.712L236.135 51.2H241.031L239.783 61.544C239.447 64.4 240.599 65.192 242.135 65.192C243.983 65.192 244.751 63.992 245.063 61.4L246.263 51.2H251.159ZM268.545 51.2L266.601 68H261.249L257.793 57.464L256.593 68H252.657L254.649 51.2H260.073L263.385 61.952L264.633 51.2H268.545Z" />
    </mask>
    <path
      d="M142.138 51.2L140.146 68H135.85L137.218 56.456L133.114 68H129.202L127.522 56.456L126.154 68H121.858L123.85 51.2H130.138L131.746 62.96L135.682 51.2H142.138ZM151.446 68.48C147.078 68.48 143.958 65.888 143.958 60.68C143.958 55.136 147.51 50.744 153.174 50.744C157.566 50.744 160.638 53.384 160.638 58.568C160.638 64.088 157.11 68.48 151.446 68.48ZM151.59 65.312C154.014 65.312 155.55 62.144 155.55 58.256C155.55 55.184 154.59 53.912 153.03 53.912C150.51 53.912 149.046 57.224 149.046 60.968C149.046 64.088 150.078 65.312 151.59 65.312ZM178.373 51.2L176.429 68H171.077L167.621 57.464L166.421 68H162.485L164.477 51.2H169.901L173.213 61.952L174.461 51.2H178.373ZM193.643 51.2L193.235 54.56H186.467L186.107 57.728H192.395L191.987 61.016H185.723L185.291 64.64H192.347L191.939 68H179.987L181.979 51.2H193.643ZM210.375 51.2L204.231 61.496L203.463 68H198.711L199.479 61.496L194.847 51.2H199.887L202.311 57.8L205.743 51.2H210.375ZM222.306 68.48C218.586 68.48 216.018 65.936 216.018 61.208C216.018 55.064 219.306 50.744 225.162 50.744C228.378 50.744 230.754 52.28 231.858 54.752L228.33 56.168C227.706 54.824 226.746 54.032 225.45 54.032C222.738 54.032 221.106 57.464 221.106 61.04C221.106 63.896 222.066 65.192 224.058 65.192C225.81 65.192 227.178 63.968 227.394 62.048L227.442 61.616H223.818L224.202 58.688H232.074L230.922 68H227.154L227.346 66.104C226.458 67.328 224.658 68.48 222.306 68.48ZM251.159 51.2L249.935 61.664C249.407 66.176 246.647 68.48 241.871 68.48C237.383 68.48 234.311 66.56 234.887 61.712L236.135 51.2H241.031L239.783 61.544C239.447 64.4 240.599 65.192 242.135 65.192C243.983 65.192 244.751 63.992 245.063 61.4L246.263 51.2H251.159ZM268.545 51.2L266.601 68H261.249L257.793 57.464L256.593 68H252.657L254.649 51.2H260.073L263.385 61.952L264.633 51.2H268.545Z"
      fill="#EE4C00" />
    <path
      d="M142.138 51.2L144.124 51.4355C144.191 50.868 144.013 50.2989 143.633 49.8717C143.253 49.4444 142.709 49.2 142.138 49.2V51.2ZM140.146 68V70C141.159 70 142.013 69.2419 142.132 68.2355L140.146 68ZM135.85 68L133.864 67.7646C133.796 68.3321 133.975 68.9012 134.355 69.3284C134.734 69.7556 135.278 70 135.85 70V68ZM137.218 56.456L139.204 56.6914C139.324 55.6802 138.665 54.7405 137.673 54.5086C136.682 54.2767 135.674 54.8267 135.333 55.7861L137.218 56.456ZM133.114 68V70C133.96 70 134.715 69.4673 134.998 68.6699L133.114 68ZM129.202 68L127.223 68.288C127.366 69.271 128.209 70 129.202 70V68ZM127.522 56.456L129.501 56.168C129.356 55.175 128.499 54.4428 127.495 54.4562C126.492 54.4695 125.654 55.2242 125.536 56.2206L127.522 56.456ZM126.154 68V70C127.167 70 128.021 69.2418 128.14 68.2354L126.154 68ZM121.858 68L119.872 67.7645C119.804 68.332 119.983 68.9011 120.363 69.3283C120.742 69.7556 121.286 70 121.858 70V68ZM123.85 51.2V49.2C122.836 49.2 121.983 49.9581 121.864 50.9645L123.85 51.2ZM130.138 51.2L132.119 50.9291C131.984 49.9384 131.138 49.2 130.138 49.2V51.2ZM131.746 62.96L129.764 63.2309C129.89 64.1517 130.634 64.8645 131.559 64.9513C132.484 65.0381 133.347 64.4761 133.642 63.5948L131.746 62.96ZM135.682 51.2V49.2C134.822 49.2 134.058 49.7497 133.785 50.5652L135.682 51.2ZM140.152 50.9645L138.16 67.7645L142.132 68.2355L144.124 51.4355L140.152 50.9645ZM140.146 66H135.85V70H140.146V66ZM137.836 68.2354L139.204 56.6914L135.232 56.2206L133.864 67.7646L137.836 68.2354ZM135.333 55.7861L131.229 67.3301L134.998 68.6699L139.102 57.1259L135.333 55.7861ZM133.114 66H129.202V70H133.114V66ZM131.181 67.712L129.501 56.168L125.543 56.744L127.223 68.288L131.181 67.712ZM125.536 56.2206L124.168 67.7646L128.14 68.2354L129.508 56.6914L125.536 56.2206ZM126.154 66H121.858V70H126.154V66ZM123.844 68.2355L125.836 51.4355L121.864 50.9645L119.872 67.7645L123.844 68.2355ZM123.85 53.2H130.138V49.2H123.85V53.2ZM128.156 51.4709L129.764 63.2309L133.727 62.6891L132.119 50.9291L128.156 51.4709ZM133.642 63.5948L137.578 51.8348L133.785 50.5652L129.849 62.3252L133.642 63.5948ZM135.682 53.2H142.138V49.2H135.682V53.2ZM151.446 66.48C149.652 66.48 148.33 65.9532 147.464 65.1043C146.607 64.2651 145.958 62.879 145.958 60.68H141.958C141.958 63.689 142.869 66.2029 144.664 67.9617C146.45 69.7108 148.872 70.48 151.446 70.48V66.48ZM145.958 60.68C145.958 58.3284 146.709 56.3389 147.935 54.9636C149.14 53.6113 150.895 52.744 153.174 52.744V48.744C149.789 48.744 146.936 50.0727 144.949 52.3024C142.982 54.5091 141.958 57.4876 141.958 60.68H145.958ZM153.174 52.744C154.972 52.744 156.285 53.278 157.144 54.1311C157.997 54.9783 158.638 56.3742 158.638 58.568H162.638C162.638 55.5778 161.743 53.0617 159.962 51.2929C158.187 49.53 155.767 48.744 153.174 48.744V52.744ZM158.638 58.568C158.638 60.9092 157.891 62.893 156.671 64.265C155.472 65.6132 153.724 66.48 151.446 66.48V70.48C154.831 70.48 157.679 69.1508 159.66 66.923C161.62 64.719 162.638 61.7468 162.638 58.568H158.638ZM151.59 67.312C153.814 67.312 155.359 65.8293 156.241 64.189C157.126 62.5424 157.55 60.4297 157.55 58.256H153.55C153.55 59.9703 153.206 61.3856 152.717 62.295C152.225 63.2107 151.789 63.312 151.59 63.312V67.312ZM157.55 58.256C157.55 56.5752 157.299 55.0464 156.575 53.8785C155.756 52.5562 154.464 51.912 153.03 51.912V55.912C153.144 55.912 153.159 55.9334 153.131 55.9181C153.098 55.9007 153.119 55.8957 153.175 55.9855C153.321 56.2216 153.55 56.8648 153.55 58.256H157.55ZM153.03 51.912C150.741 51.912 149.192 53.4513 148.322 55.1057C147.45 56.7654 147.046 58.8715 147.046 60.968H151.046C151.046 59.3205 151.373 57.8986 151.863 56.9663C152.356 56.0287 152.799 55.912 153.03 55.912V51.912ZM147.046 60.968C147.046 62.6891 147.32 64.226 148.068 65.3908C148.905 66.6944 150.195 67.312 151.59 67.312V63.312C151.486 63.312 151.468 63.2926 151.489 63.3037C151.514 63.3171 151.491 63.3177 151.434 63.2292C151.288 63.002 151.046 62.3669 151.046 60.968H147.046ZM178.373 51.2L180.36 51.4299C180.426 50.8632 180.246 50.2955 179.867 49.8695C179.487 49.4436 178.944 49.2 178.373 49.2V51.2ZM176.429 68V70C177.445 70 178.299 69.2388 178.416 68.2299L176.429 68ZM171.077 68L169.177 68.6234C169.446 69.4447 170.213 70 171.077 70V68ZM167.621 57.464L169.522 56.8406C169.229 55.9475 168.353 55.3788 167.418 55.4743C166.483 55.5699 165.741 56.3037 165.634 57.2377L167.621 57.464ZM166.421 68V70C167.438 70 168.293 69.2368 168.408 68.2263L166.421 68ZM162.485 68L160.499 67.7645C160.432 68.332 160.611 68.9011 160.99 69.3283C161.37 69.7556 161.914 70 162.485 70V68ZM164.477 51.2V49.2C163.464 49.2 162.611 49.9581 162.491 50.9645L164.477 51.2ZM169.901 51.2L171.813 50.6112C171.554 49.7723 170.779 49.2 169.901 49.2V51.2ZM173.213 61.952L171.302 62.5408C171.58 63.4449 172.454 64.0302 173.396 63.9436C174.338 63.857 175.091 63.1223 175.2 62.1826L173.213 61.952ZM174.461 51.2V49.2C173.446 49.2 172.592 49.9608 172.475 50.9694L174.461 51.2ZM176.387 50.9701L174.443 67.7701L178.416 68.2299L180.36 51.4299L176.387 50.9701ZM176.429 66H171.077V70H176.429V66ZM172.978 67.3766L169.522 56.8406L165.721 58.0874L169.177 68.6234L172.978 67.3766ZM165.634 57.2377L164.434 67.7737L168.408 68.2263L169.608 57.6903L165.634 57.2377ZM166.421 66H162.485V70H166.421V66ZM164.471 68.2355L166.463 51.4355L162.491 50.9645L160.499 67.7645L164.471 68.2355ZM164.477 53.2H169.901V49.2H164.477V53.2ZM167.99 51.7888L171.302 62.5408L175.125 61.3632L171.813 50.6112L167.99 51.7888ZM175.2 62.1826L176.448 51.4306L172.475 50.9694L171.227 61.7214L175.2 62.1826ZM174.461 53.2H178.373V49.2H174.461V53.2ZM193.643 51.2L195.628 51.4411C195.697 50.8728 195.519 50.3022 195.14 49.8738C194.76 49.4453 194.215 49.2 193.643 49.2V51.2ZM193.235 54.56V56.56C194.246 56.56 195.098 55.805 195.22 54.8011L193.235 54.56ZM186.467 54.56V52.56C185.449 52.56 184.594 53.3235 184.479 54.3342L186.467 54.56ZM186.107 57.728L184.119 57.5022C184.055 58.0683 184.235 58.635 184.615 59.06C184.994 59.485 185.537 59.728 186.107 59.728V57.728ZM192.395 57.728L194.379 57.9743C194.45 57.4053 194.273 56.8334 193.893 56.4037C193.514 55.9741 192.968 55.728 192.395 55.728V57.728ZM191.987 61.016V63.016C192.996 63.016 193.847 62.2639 193.971 61.2623L191.987 61.016ZM185.723 61.016V59.016C184.71 59.016 183.857 59.7734 183.737 60.7793L185.723 61.016ZM185.291 64.64L183.305 64.4033C183.237 64.9709 183.415 65.5404 183.795 65.9679C184.175 66.3954 184.719 66.64 185.291 66.64V64.64ZM192.347 64.64L194.332 64.8811C194.401 64.3128 194.223 63.7422 193.844 63.3138C193.464 62.8853 192.919 62.64 192.347 62.64V64.64ZM191.939 68V70C192.95 70 193.802 69.245 193.924 68.2411L191.939 68ZM179.987 68L178.001 67.7645C177.933 68.332 178.112 68.9011 178.491 69.3283C178.871 69.7556 179.415 70 179.987 70V68ZM181.979 51.2V49.2C180.965 49.2 180.112 49.9581 179.993 50.9645L181.979 51.2ZM191.657 50.9589L191.249 54.3189L195.22 54.8011L195.628 51.4411L191.657 50.9589ZM193.235 52.56H186.467V56.56H193.235V52.56ZM184.479 54.3342L184.119 57.5022L188.094 57.9538L188.454 54.7858L184.479 54.3342ZM186.107 59.728H192.395V55.728H186.107V59.728ZM190.41 57.4817L190.002 60.7697L193.971 61.2623L194.379 57.9743L190.41 57.4817ZM191.987 59.016H185.723V63.016H191.987V59.016ZM183.737 60.7793L183.305 64.4033L187.277 64.8767L187.709 61.2527L183.737 60.7793ZM185.291 66.64H192.347V62.64H185.291V66.64ZM190.361 64.3989L189.953 67.7589L193.924 68.2411L194.332 64.8811L190.361 64.3989ZM191.939 66H179.987V70H191.939V66ZM181.973 68.2355L183.965 51.4355L179.993 50.9645L178.001 67.7645L181.973 68.2355ZM181.979 53.2H193.643V49.2H181.979V53.2ZM210.375 51.2L212.092 52.2249C212.461 51.6069 212.469 50.8384 212.114 50.2125C211.759 49.5867 211.094 49.2 210.375 49.2V51.2ZM204.231 61.496L202.513 60.4711C202.369 60.7127 202.278 60.9821 202.245 61.2615L204.231 61.496ZM203.463 68V70C204.477 70 205.33 69.2414 205.449 68.2345L203.463 68ZM198.711 68L196.725 67.7655C196.658 68.3328 196.836 68.9017 197.216 69.3287C197.595 69.7557 198.139 70 198.711 70V68ZM199.479 61.496L201.465 61.7305C201.507 61.3706 201.451 61.0059 201.303 60.6754L199.479 61.496ZM194.847 51.2V49.2C194.168 49.2 193.536 49.5441 193.167 50.114C192.799 50.6838 192.744 51.4017 193.023 52.0206L194.847 51.2ZM199.887 51.2L201.764 50.5105C201.475 49.7232 200.725 49.2 199.887 49.2V51.2ZM202.311 57.8L200.433 58.4895C200.706 59.2331 201.393 59.7455 202.183 59.7959C202.974 59.8464 203.72 59.4255 204.085 58.7227L202.311 57.8ZM205.743 51.2V49.2C204.997 49.2 204.313 49.6153 203.968 50.2773L205.743 51.2ZM208.657 50.1751L202.513 60.4711L205.948 62.5209L212.092 52.2249L208.657 50.1751ZM202.245 61.2615L201.477 67.7655L205.449 68.2345L206.217 61.7305L202.245 61.2615ZM203.463 66H198.711V70H203.463V66ZM200.697 68.2345L201.465 61.7305L197.493 61.2615L196.725 67.7655L200.697 68.2345ZM201.303 60.6754L196.671 50.3794L193.023 52.0206L197.655 62.3166L201.303 60.6754ZM194.847 53.2H199.887V49.2H194.847V53.2ZM198.009 51.8895L200.433 58.4895L204.188 57.1105L201.764 50.5105L198.009 51.8895ZM204.085 58.7227L207.517 52.1227L203.968 50.2773L200.536 56.8773L204.085 58.7227ZM205.743 53.2H210.375V49.2H205.743V53.2ZM231.858 54.752L232.603 56.6081C233.108 56.4056 233.508 56.0063 233.712 55.5023C233.916 54.9983 233.906 54.4329 233.684 53.9364L231.858 54.752ZM228.33 56.168L226.516 57.0102C226.964 57.9747 228.088 58.4202 229.075 58.0241L228.33 56.168ZM227.394 62.048L229.382 62.2716L229.382 62.2689L227.394 62.048ZM227.442 61.616L229.43 61.8369C229.493 61.2715 229.312 60.7061 228.933 60.2822C228.553 59.8583 228.011 59.616 227.442 59.616V61.616ZM223.818 61.616L221.835 61.3559C221.76 61.9268 221.935 62.5023 222.315 62.9351C222.695 63.3679 223.243 63.616 223.818 63.616V61.616ZM224.202 58.688V56.688C223.198 56.688 222.35 57.4324 222.219 58.4279L224.202 58.688ZM232.074 58.688L234.059 58.9336C234.13 58.3647 233.952 57.7929 233.573 57.3634C233.193 56.934 232.648 56.688 232.074 56.688V58.688ZM230.922 68V70C231.932 70 232.783 69.2475 232.907 68.2456L230.922 68ZM227.154 68L225.164 67.7985C225.107 68.3611 225.291 68.9216 225.671 69.3411C226.05 69.7606 226.589 70 227.154 70V68ZM227.346 66.104L229.336 66.3055C229.427 65.406 228.904 64.5573 228.059 64.2352C227.214 63.9131 226.258 64.1978 225.727 64.9295L227.346 66.104ZM222.306 66.48C220.921 66.48 219.923 66.0207 219.252 65.2773C218.562 64.5122 218.018 63.2211 218.018 61.208H214.018C214.018 63.9229 214.759 66.2678 216.282 67.9567C217.826 69.6673 219.971 70.48 222.306 70.48V66.48ZM218.018 61.208C218.018 58.4732 218.75 56.3562 219.925 54.9592C221.064 53.6051 222.768 52.744 225.162 52.744V48.744C221.701 48.744 218.833 50.0429 216.864 52.3848C214.93 54.6838 214.018 57.7988 214.018 61.208H218.018ZM225.162 52.744C227.676 52.744 229.284 53.8923 230.032 55.5676L233.684 53.9364C232.225 50.6677 229.08 48.744 225.162 48.744V52.744ZM231.113 52.8959L227.585 54.3119L229.075 58.0241L232.603 56.6081L231.113 52.8959ZM230.144 55.3258C229.311 53.5303 227.771 52.032 225.45 52.032V56.032C225.722 56.032 226.102 56.1177 226.516 57.0102L230.144 55.3258ZM225.45 52.032C223.122 52.032 221.481 53.5323 220.526 55.2014C219.57 56.871 219.106 58.9827 219.106 61.04H223.106C223.106 59.5213 223.459 58.129 223.997 57.1886C224.536 56.2477 225.066 56.032 225.45 56.032V52.032ZM219.106 61.04C219.106 62.6214 219.359 64.1668 220.211 65.3535C221.162 66.6782 222.582 67.192 224.058 67.192V63.192C223.773 63.192 223.632 63.1454 223.576 63.1202C223.535 63.1018 223.503 63.0808 223.46 63.0205C223.334 62.8452 223.106 62.3146 223.106 61.04H219.106ZM224.058 67.192C226.896 67.192 229.06 65.135 229.382 62.2716L225.407 61.8244C225.297 62.801 224.725 63.192 224.058 63.192V67.192ZM229.382 62.2689L229.43 61.8369L225.455 61.3951L225.407 61.8271L229.382 62.2689ZM227.442 59.616H223.818V63.616H227.442V59.616ZM225.801 61.8761L226.185 58.9481L222.219 58.4279L221.835 61.3559L225.801 61.8761ZM224.202 60.688H232.074V56.688H224.202V60.688ZM230.089 58.4424L228.937 67.7544L232.907 68.2456L234.059 58.9336L230.089 58.4424ZM230.922 66H227.154V70H230.922V66ZM229.144 68.2015L229.336 66.3055L225.356 65.9025L225.164 67.7985L229.144 68.2015ZM225.727 64.9295C225.208 65.6462 224.004 66.48 222.306 66.48V70.48C225.313 70.48 227.709 69.0098 228.965 67.2785L225.727 64.9295ZM251.159 51.2L253.145 51.4324C253.212 50.8653 253.032 50.297 252.653 49.8705C252.273 49.444 251.73 49.2 251.159 49.2V51.2ZM249.935 61.664L251.921 61.8965L251.921 61.8964L249.935 61.664ZM234.887 61.712L236.873 61.948L236.873 61.9478L234.887 61.712ZM236.135 51.2V49.2C235.121 49.2 234.268 49.9579 234.149 50.9642L236.135 51.2ZM241.031 51.2L243.016 51.4396C243.085 50.8715 242.907 50.3013 242.527 49.8732C242.148 49.4451 241.603 49.2 241.031 49.2V51.2ZM239.783 61.544L237.797 61.3044L237.796 61.3103L239.783 61.544ZM245.063 61.4L247.048 61.639L247.049 61.6337L245.063 61.4ZM246.263 51.2V49.2C245.249 49.2 244.395 49.9591 244.276 50.9663L246.263 51.2ZM249.172 50.9676L247.948 61.4316L251.921 61.8964L253.145 51.4324L249.172 50.9676ZM247.948 61.4315C247.727 63.3228 247.075 64.5034 246.207 65.2345C245.323 65.9795 243.951 66.48 241.871 66.48V70.48C244.566 70.48 246.963 69.8285 248.784 68.2935C250.623 66.7446 251.615 64.5172 251.921 61.8965L247.948 61.4315ZM241.871 66.48C239.847 66.48 238.524 66.0367 237.787 65.4006C237.16 64.8585 236.641 63.8985 236.873 61.948L232.901 61.476C232.557 64.3735 233.286 66.7975 235.172 68.4274C236.95 69.9633 239.407 70.48 241.871 70.48V66.48ZM236.873 61.9478L238.121 51.4358L234.149 50.9642L232.901 61.4762L236.873 61.9478ZM236.135 53.2H241.031V49.2H236.135V53.2ZM239.045 50.9604L237.797 61.3044L241.768 61.7836L243.016 51.4396L239.045 50.9604ZM237.796 61.3103C237.604 62.9469 237.764 64.5091 238.687 65.678C239.66 66.9115 241.061 67.192 242.135 67.192V63.192C241.673 63.192 241.729 63.0765 241.827 63.2C241.873 63.2589 241.626 62.9971 241.769 61.7777L237.796 61.3103ZM242.135 67.192C243.568 67.192 244.874 66.6843 245.782 65.4581C246.566 64.3989 246.883 63.0135 247.048 61.639L243.077 61.161C242.931 62.3785 242.707 62.8891 242.567 63.0779C242.524 63.1369 242.506 63.1407 242.501 63.1431C242.482 63.1518 242.383 63.192 242.135 63.192V67.192ZM247.049 61.6337L248.249 51.4337L244.276 50.9663L243.076 61.1663L247.049 61.6337ZM246.263 53.2H251.159V49.2H246.263V53.2ZM268.545 51.2L270.532 51.4299C270.597 50.8632 270.418 50.2955 270.038 49.8695C269.659 49.4436 269.115 49.2 268.545 49.2V51.2ZM266.601 68V70C267.617 70 268.471 69.2388 268.588 68.2299L266.601 68ZM261.249 68L259.349 68.6234C259.618 69.4447 260.385 70 261.249 70V68ZM257.793 57.464L259.693 56.8406C259.4 55.9475 258.525 55.3788 257.59 55.4743C256.655 55.5699 255.912 56.3037 255.806 57.2377L257.793 57.464ZM256.593 68V70C257.61 70 258.465 69.2368 258.58 68.2263L256.593 68ZM252.657 68L250.671 67.7645C250.604 68.332 250.782 68.9011 251.162 69.3283C251.541 69.7556 252.085 70 252.657 70V68ZM254.649 51.2V49.2C253.635 49.2 252.782 49.9581 252.663 50.9645L254.649 51.2ZM260.073 51.2L261.984 50.6112C261.726 49.7723 260.951 49.2 260.073 49.2V51.2ZM263.385 61.952L261.474 62.5408C261.752 63.4449 262.626 64.0302 263.568 63.9436C264.51 63.857 265.262 63.1223 265.372 62.1826L263.385 61.952ZM264.633 51.2V49.2C263.618 49.2 262.763 49.9608 262.646 50.9694L264.633 51.2ZM266.558 50.9701L264.614 67.7701L268.588 68.2299L270.532 51.4299L266.558 50.9701ZM266.601 66H261.249V70H266.601V66ZM263.149 67.3766L259.693 56.8406L255.893 58.0874L259.349 68.6234L263.149 67.3766ZM255.806 57.2377L254.606 67.7737L258.58 68.2263L259.78 57.6903L255.806 57.2377ZM256.593 66H252.657V70H256.593V66ZM254.643 68.2355L256.635 51.4355L252.663 50.9645L250.671 67.7645L254.643 68.2355ZM254.649 53.2H260.073V49.2H254.649V53.2ZM258.162 51.7888L261.474 62.5408L265.296 61.3632L261.984 50.6112L258.162 51.7888ZM265.372 62.1826L266.62 51.4306L262.646 50.9694L261.398 61.7214L265.372 62.1826ZM264.633 53.2H268.545V49.2H264.633V53.2Z"
      fill="white" mask="url(#path-55-outside-1_225_25448)" />
  </g>
  <rect x="0.5" y="0.5" width="397" height="119" rx="23.5" stroke="white" stroke-opacity="0.1" />
  <defs>
    <clipPath id="clip0_225_25448">
      <rect width="398" height="120" rx="24" fill="white" />
    </clipPath>
  </defs>
</svg>
